<?xml version="1.0" encoding="iso-8859-1"?>
<!-- Generator: Adobe Illustrator 19.0.0, SVG Export Plug-In . SVG Version: 6.00 Build 0)  -->
<svg version="1.1" id="Layer_1" xmlns="http://www.w3.org/2000/svg" xmlns:xlink="http://www.w3.org/1999/xlink" x="0px" y="0px"
	 viewBox="0 0 511.192 511.192" style="enable-background:new 0 0 511.192 511.192;" xml:space="preserve">
<g transform="translate(1)">
	<g>
		<g>
			<path d="M315.342,441.768H193.85c-5.207,0-8.678,3.471-8.678,8.678c0,5.207,3.471,8.678,8.678,8.678h121.492
				c5.207,0,8.678-3.471,8.678-8.678C324.02,445.239,320.549,441.768,315.342,441.768z"/>
			<path d="M315.342,407.056H193.85c-5.207,0-8.678,3.471-8.678,8.678c0,5.207,3.471,8.678,8.678,8.678h121.492
				c5.207,0,8.678-3.471,8.678-8.678C324.02,410.527,320.549,407.056,315.342,407.056z"/>
			<path d="M346.582,172.751l-1.736-1.736h-0.44c-9.733-81.721-30.344-125.954-48.157-150.129
				C285.837,7.87,270.216-0.808,252.86,0.06c-17.356,0-32.976,7.81-42.522,21.695c-17.207,22.942-36.753,66.945-45.924,149.191
				l-0.937,0.937c-30.373,19.092-47.729,52.068-47.729,86.78v139.715c0,62.481,50.332,112.814,112.814,112.814h52.068
				c62.481,0,112.814-50.332,112.814-112.814V258.663C393.443,223.083,376.087,190.975,346.582,172.751z M211.329,52.847
				c0.639,4.31,3.899,7.091,8.555,7.091c5.207,0,8.678-3.471,8.678-8.678s-3.471-8.678-8.678-8.678
				c-1.312,0-2.513,0.277-3.577,0.758c2.385-4.209,4.748-7.914,7.048-11.172c1.58-2.173,3.349-4.109,5.269-5.822
				c0.466,4.577,3.794,7.558,8.616,7.558c5.207,0,8.678-3.471,8.678-8.678c0-2.795-1.007-5.082-2.739-6.608
				c3.07-0.785,6.306-1.202,9.682-1.202c4.339,0,8.547,0.777,12.482,2.219c-1.316,1.578-2.068,3.582-2.068,5.591
				c0,5.207,3.471,8.678,8.678,8.678c3.681,0,6.487-1.74,7.82-4.596c0.594,0.645,1.175,1.304,1.726,1.993
				c2.547,3.302,5.146,7.047,7.755,11.284c-5.175,0.031-8.622,4.352-8.622,8.675c0,5.207,3.471,8.678,8.678,8.678
				c3.333,0,5.948-1.427,7.404-3.816c2.043,4.126,4.068,8.586,6.055,13.417c-2.965,1.5-4.78,4.623-4.78,7.755
				c0,5.207,3.471,8.678,8.678,8.678c0.748,0,1.455-0.079,2.125-0.217c5.588,16.651,10.654,36.75,14.668,60.992
				c-4.89,0.302-8.116,4.469-8.116,8.649c0,5.207,3.471,8.678,8.678,8.678c0.7,0,1.365-0.067,1.998-0.189
				c1.54,11.468,2.855,23.758,3.901,36.934c-1.491-1.295-3.508-2.033-5.899-2.033c-5.207,0-8.678,4.339-8.678,8.678
				c0,5.207,3.471,8.678,8.678,8.678c2.902,0,5.262-1.08,6.785-2.936c0.069,1.076,0.132,2.167,0.198,3.253
				c0.748,13.195,1.281,26.941,1.531,41.184c-0.743-4.14-3.966-6.79-8.514-6.79c-5.207,0-8.678,4.339-8.678,8.678
				c0,5.207,3.471,8.678,8.678,8.678c4.686,0,7.957-2.817,8.566-7.174c0.071,4.94,0.112,9.931,0.112,14.984v7.81
				c0,7.236-1.222,14.163-3.447,20.607c-1.406-0.97-3.181-1.515-5.231-1.515c-5.207,0-8.678,4.339-8.678,8.678
				c0,4.243,2.305,7.331,5.976,8.331c-2.727,3.87-5.878,7.414-9.398,10.558c-1.41-0.981-3.193-1.533-5.255-1.533
				c-5.207,0-8.678,4.339-8.678,8.678c0,0.752,0.081,1.463,0.22,2.138c-7.582,3.771-16.05,6.057-25.043,6.467
				c4.525-0.501,7.467-3.814,7.467-8.604c0-5.207-3.471-8.678-8.678-8.678s-8.678,4.339-8.678,8.678
				c0,4.987,3.189,8.373,8.032,8.651c-0.364,0.006-0.724,0.027-1.09,0.027h-31.241c-0.366,0-0.726-0.021-1.09-0.027
				c4.844-0.278,8.032-3.664,8.032-8.651c0-5.207-3.471-8.678-8.678-8.678s-8.678,4.339-8.678,8.678c0,4.79,2.943,8.104,7.467,8.604
				c-8.993-0.41-17.462-2.696-25.043-6.467c0.14-0.674,0.22-1.385,0.22-2.138c0-5.207-3.471-8.678-8.678-8.678
				c-1.989,0-3.722,0.636-5.108,1.661c-3.579-3.177-6.781-6.763-9.546-10.686c3.67-0.999,5.976-4.088,5.976-8.331
				c0-5.207-3.471-8.678-8.678-8.678c-2.018,0-3.771,0.657-5.167,1.708c-2.267-6.498-3.511-13.492-3.511-20.799v-7.81
				c0-5.052,0.041-10.043,0.112-14.985c0.609,4.358,3.88,7.175,8.566,7.175c5.207,0,8.678-3.471,8.678-8.678
				s-3.471-8.678-8.678-8.678c-4.555,0-7.782,3.321-8.518,7.057c0.267-15.454,0.865-30.365,1.711-44.73
				c1.523,1.871,3.892,2.96,6.807,2.96c5.207,0,8.678-3.471,8.678-8.678s-3.471-8.678-8.678-8.678c-2.467,0-4.537,0.98-6.04,2.467
				c0.441-6.337,0.929-12.56,1.453-18.676c0.627-6.509,1.315-12.78,2.061-18.81c0.786,0.198,1.628,0.308,2.525,0.308
				c5.207,0,8.678-3.471,8.678-8.678s-3.471-8.678-8.678-8.678c-0.059,0-0.115,0.008-0.174,0.009
				c3.762-24.629,8.515-44.862,13.724-61.491c1.121,0.474,2.397,0.736,3.806,0.736c5.207,0,8.678-3.471,8.678-8.678
				c0-4.539-2.639-7.756-6.764-8.508C206.705,62.923,209.013,57.626,211.329,52.847z M376.087,398.378
				c0,52.936-42.522,95.458-95.458,95.458h-52.068c-52.936,0-95.458-42.522-95.458-95.458V258.663
				c0-25.166,10.414-48.597,28.637-64.217c-1.736,25.166-2.603,52.068-2.603,81.573v7.81c0,44.258,35.58,79.837,79.837,79.837
				h31.241c44.258,0,79.837-35.58,79.837-79.837v-7.81c0-21.58-0.494-42.666-1.851-62.517c-0.404-6.474-0.867-12.762-1.39-18.861
				c18.943,15.62,29.275,38.959,29.275,64.023V398.378z"/>
			<path d="M289.308,302.921c-5.207,0-8.678,4.339-8.678,8.678c0,5.207,3.471,8.678,8.678,8.678s8.678-3.471,8.678-8.678
				S294.515,302.921,289.308,302.921z"/>
			<path d="M202.528,276.887c-5.207,0-8.678,4.339-8.678,8.678c0,5.207,3.471,8.678,8.678,8.678s8.678-3.471,8.678-8.678
				C211.206,280.358,207.735,276.887,202.528,276.887z"/>
			<path d="M219.884,250.853c-5.207,0-8.678,4.339-8.678,8.678c0,5.207,3.471,8.678,8.678,8.678s8.678-3.471,8.678-8.678
				S225.091,250.853,219.884,250.853z"/>
			<path d="M254.596,302.921c-5.207,0-8.678,4.339-8.678,8.678c0,5.207,3.471,8.678,8.678,8.678s8.678-3.471,8.678-8.678
				S259.803,302.921,254.596,302.921z"/>
			<path d="M289.308,268.209c5.207,0,8.678-3.471,8.678-8.678s-3.471-8.678-8.678-8.678s-8.678,4.339-8.678,8.678
				C280.63,264.738,284.101,268.209,289.308,268.209z"/>
			<path d="M254.596,268.209c5.207,0,8.678-3.471,8.678-8.678s-3.471-8.678-8.678-8.678s-8.678,4.339-8.678,8.678
				C245.918,264.738,249.389,268.209,254.596,268.209z"/>
			<path d="M219.884,302.921c-5.207,0-8.678,4.339-8.678,8.678c0,5.207,3.471,8.678,8.678,8.678s8.678-3.471,8.678-8.678
				S225.091,302.921,219.884,302.921z"/>
			<path d="M237.24,276.887c-5.207,0-8.678,4.339-8.678,8.678c0,5.207,3.471,8.678,8.678,8.678s8.678-3.471,8.678-8.678
				C245.918,280.358,242.447,276.887,237.24,276.887z"/>
			<path d="M271.952,276.887c-5.207,0-8.678,4.339-8.678,8.678c0,5.207,3.471,8.678,8.678,8.678s8.678-3.471,8.678-8.678
				C280.63,280.358,277.159,276.887,271.952,276.887z"/>
			<path d="M306.664,276.887c-5.207,0-8.678,4.339-8.678,8.678c0,5.207,3.471,8.678,8.678,8.678s8.678-3.471,8.678-8.678
				C315.342,280.358,311.871,276.887,306.664,276.887z"/>
			<path d="M202.528,242.175c5.207,0,8.678-3.471,8.678-8.678c0-5.207-3.471-8.678-8.678-8.678s-8.678,4.339-8.678,8.678
				C193.85,238.704,197.321,242.175,202.528,242.175z"/>
			<path d="M219.884,198.785c-5.207,0-8.678,4.339-8.678,8.678c0,5.207,3.471,8.678,8.678,8.678s8.678-3.471,8.678-8.678
				S225.091,198.785,219.884,198.785z"/>
			<path d="M289.308,198.785c-5.207,0-8.678,4.339-8.678,8.678c0,5.207,3.471,8.678,8.678,8.678s8.678-3.471,8.678-8.678
				S294.515,198.785,289.308,198.785z"/>
			<path d="M254.596,198.785c-5.207,0-8.678,4.339-8.678,8.678c0,5.207,3.471,8.678,8.678,8.678s8.678-3.471,8.678-8.678
				S259.803,198.785,254.596,198.785z"/>
			<path d="M237.24,242.175c5.207,0,8.678-3.471,8.678-8.678c0-5.207-3.471-8.678-8.678-8.678s-8.678,4.339-8.678,8.678
				C228.562,238.704,232.033,242.175,237.24,242.175z"/>
			<path d="M271.952,242.175c5.207,0,8.678-3.471,8.678-8.678c0-5.207-3.471-8.678-8.678-8.678s-8.678,4.339-8.678,8.678
				C263.274,238.704,266.745,242.175,271.952,242.175z"/>
			<path d="M306.664,224.819c-5.207,0-8.678,4.339-8.678,8.678c0,5.207,3.471,8.678,8.678,8.678s8.678-3.471,8.678-8.678
				C315.342,228.29,311.871,224.819,306.664,224.819z"/>
			<path d="M202.528,190.107c5.207,0,8.678-3.471,8.678-8.678s-3.471-8.678-8.678-8.678s-8.678,4.339-8.678,8.678
				C193.85,186.636,197.321,190.107,202.528,190.107z"/>
			<path d="M219.884,146.717c-5.207,0-8.678,4.339-8.678,8.678c0,5.207,3.471,8.678,8.678,8.678s8.678-3.471,8.678-8.678
				S225.091,146.717,219.884,146.717z"/>
			<path d="M289.308,146.717c-5.207,0-8.678,4.339-8.678,8.678c0,5.207,3.471,8.678,8.678,8.678s8.678-3.471,8.678-8.678
				S294.515,146.717,289.308,146.717z"/>
			<path d="M254.596,164.073c5.207,0,8.678-3.471,8.678-8.678s-3.471-8.678-8.678-8.678s-8.678,4.339-8.678,8.678
				C245.918,160.602,249.389,164.073,254.596,164.073z"/>
			<path d="M237.24,190.107c5.207,0,8.678-3.471,8.678-8.678s-3.471-8.678-8.678-8.678s-8.678,4.339-8.678,8.678
				C228.562,186.636,232.033,190.107,237.24,190.107z"/>
			<path d="M271.952,190.107c5.207,0,8.678-3.471,8.678-8.678s-3.471-8.678-8.678-8.678s-8.678,4.339-8.678,8.678
				C263.274,186.636,266.745,190.107,271.952,190.107z"/>
			<path d="M306.664,172.751c-5.207,0-8.678,4.339-8.678,8.678c0,5.207,3.471,8.678,8.678,8.678s8.678-3.471,8.678-8.678
				S311.871,172.751,306.664,172.751z"/>
			<path d="M202.528,138.039c5.207,0,8.678-3.471,8.678-8.678c0-5.207-3.471-8.678-8.678-8.678s-8.678,4.339-8.678,8.678
				C193.85,134.568,197.321,138.039,202.528,138.039z"/>
			<path d="M219.884,112.005c5.207,0,8.678-3.471,8.678-8.678c0-5.207-3.471-8.678-8.678-8.678s-8.678,4.339-8.678,8.678
				C211.206,108.534,214.677,112.005,219.884,112.005z"/>
			<path d="M289.308,112.005c5.207,0,8.678-3.471,8.678-8.678c0-5.207-3.471-8.678-8.678-8.678s-8.678,4.339-8.678,8.678
				C280.63,108.534,284.101,112.005,289.308,112.005z"/>
			<path d="M254.596,94.65c-5.207,0-8.678,4.339-8.678,8.678c0,5.207,3.471,8.678,8.678,8.678s8.678-3.471,8.678-8.678
				C263.274,98.121,259.803,94.65,254.596,94.65z"/>
			<path d="M237.24,120.683c-5.207,0-8.678,4.339-8.678,8.678c0,5.207,3.471,8.678,8.678,8.678s8.678-3.471,8.678-8.678
				C245.918,124.155,242.447,120.683,237.24,120.683z"/>
			<path d="M271.952,120.683c-5.207,0-8.678,4.339-8.678,8.678c0,5.207,3.471,8.678,8.678,8.678s8.678-3.471,8.678-8.678
				C280.63,124.155,277.159,120.683,271.952,120.683z"/>
			<path d="M306.664,138.039c5.207,0,8.678-3.471,8.678-8.678c0-5.207-3.471-8.678-8.678-8.678s-8.678,4.339-8.678,8.678
				C297.986,134.568,301.457,138.039,306.664,138.039z"/>
			<path d="M254.596,59.938c5.207,0,8.678-3.471,8.678-8.678s-3.471-8.678-8.678-8.678s-8.678,4.339-8.678,8.678
				C245.918,56.466,249.389,59.938,254.596,59.938z"/>
			<path d="M237.24,85.972c5.207,0,8.678-3.471,8.678-8.678s-3.471-8.678-8.678-8.678s-8.678,4.339-8.678,8.678
				C228.562,82.5,232.033,85.972,237.24,85.972z"/>
			<path d="M271.952,85.972c5.207,0,8.678-3.471,8.678-8.678s-3.471-8.678-8.678-8.678s-8.678,4.339-8.678,8.678
				C263.274,82.5,266.745,85.972,271.952,85.972z"/>
		</g>
	</g>
</g>
<g>
</g>
<g>
</g>
<g>
</g>
<g>
</g>
<g>
</g>
<g>
</g>
<g>
</g>
<g>
</g>
<g>
</g>
<g>
</g>
<g>
</g>
<g>
</g>
<g>
</g>
<g>
</g>
<g>
</g>
</svg>
