<svg id="Layer_3" enable-background="new 0 0 64 64" height="512" viewBox="0 0 64 64" width="512" xmlns="http://www.w3.org/2000/svg"><g><path d="m43 30.078v-5.078c0-.314-.148-.611-.4-.8l-1.6-1.2c-1.72-1.29-3.851-2-6-2s-4.28.71-6 2l-1.6 1.2c-.252.189-.4.486-.4.8v5.08c-1.304 1.17-2.32 2.584-3 4.153-.68-1.569-1.696-2.984-3-4.154v-5.079c0-.314-.148-.611-.4-.8l-1.6-1.2c-1.72-1.29-3.851-2-6-2s-4.28.71-6 2l-1.6 1.2c-.252.189-.4.486-.4.8v5.08c-2.54 2.278-4 5.494-4 8.92v23c0 .553.448 1 1 1h22 22c.552 0 1-.447 1-1v-23c0-3.428-1.46-6.644-4-8.922zm-14-4.578 1.2-.9c1.375-1.031 3.081-1.6 4.8-1.6s3.424.568 4.8 1.6l1.2.9v11.5c0 3.309-2.691 6-6 6s-6-2.691-6-6zm-22 0 1.2-.9c1.376-1.032 3.081-1.6 4.8-1.6s3.424.568 4.8 1.6l1.2.9v11.5c0 3.309-2.691 6-6 6s-6-2.691-6-6zm-4 13.5c0-2.189.715-4.277 2-5.99v3.99c0 4.411 3.589 8 8 8s8-3.589 8-8v-3.99c1.285 1.713 2 3.801 2 5.99v22h-20zm42 22h-20v-22c0-2.189.715-4.277 2-5.99v3.99c0 4.411 3.589 8 8 8s8-3.589 8-8v-3.99c1.285 1.713 2 3.801 2 5.99z"/><path d="m62.707 4.293-3-3c-.391-.391-1.023-.391-1.414 0l-3.793 3.793-.793-.793c-.391-.391-1.023-.391-1.414 0l-3.793 3.793-.793-.793c-.391-.391-1.023-.391-1.414 0l-8 8c-.391.391-.391 1.023 0 1.414l9 9c.195.195.451.293.707.293s.512-.098.707-.293l8-8c.391-.391.391-1.023 0-1.414l-.793-.793 3.793-3.793c.391-.391.391-1.023 0-1.414l-.793-.793 3.793-3.793c.391-.391.391-1.023 0-1.414zm-11.121 9.707-6.586 6.586-1.586-1.586 6.586-6.586zm-4.586-4.586 1.586 1.586-6.586 6.586-1.586-1.586zm1 14.172-1.586-1.586 6.586-6.586 1.586 1.586zm7-10-4.586-4.586 2.586-2.586 4.586 4.586zm2.5-5.5-1.586-1.586 3.086-3.086 1.586 1.586z"/><path d="m37 27h2v4h-2z"/><path d="m27 47h16v2h-16z"/><path d="m15 27h2v4h-2z"/><path d="m5 47h16v2h-16z"/><path d="m2 8c2.206 0 4 1.794 4 4 0 .553.448 1 1 1s1-.447 1-1c0-2.206 1.794-4 4-4 .552 0 1-.447 1-1s-.448-1-1-1c-2.206 0-4-1.794-4-4 0-.553-.448-1-1-1s-1 .447-1 1c0 2.206-1.794 4-4 4-.552 0-1 .447-1 1s.448 1 1 1zm5-2.687c.444.668 1.019 1.243 1.687 1.687-.668.444-1.243 1.019-1.687 1.687-.444-.668-1.019-1.243-1.687-1.687.668-.444 1.243-1.019 1.687-1.687z"/><path d="m12 14c0 .553.448 1 1 1 2.206 0 4 1.794 4 4 0 .553.448 1 1 1s1-.447 1-1c0-2.206 1.794-4 4-4 .552 0 1-.447 1-1s-.448-1-1-1c-2.206 0-4-1.794-4-4 0-.553-.448-1-1-1s-1 .447-1 1c0 2.206-1.794 4-4 4-.552 0-1 .447-1 1zm6-1.687c.444.668 1.019 1.242 1.687 1.687-.668.444-1.242 1.019-1.687 1.687-.444-.668-1.019-1.242-1.687-1.687.668-.444 1.243-1.019 1.687-1.687z"/><path d="m37 33h2v2h-2z"/><path d="m15 33h2v2h-2z"/></g></svg>