<svg height="512" viewBox="0 0 128 128" width="512" xmlns="http://www.w3.org/2000/svg"><g><path d="m113.813 121.508-2.072-19.471a14.776 14.776 0 0 0 -11.241-12.785l-13.977-3.338a54.493 54.493 0 0 0 15.905-5.524 1.749 1.749 0 0 0 .547-2.528c-5.878-8.262-6.7-19.508-6.816-22.334a9.528 9.528 0 0 0 1.707-9.092 6.667 6.667 0 0 0 -1.741-2.618c.152-14.631-3.037-24.936-9.5-30.618a17.556 17.556 0 0 0 -12.231-4.482c-1.752-1.526-6.945-5.076-16.394-3.943-6.143.736-26.172 5.314-25.993 33.346.013 2.077-.024 3.972-.1 5.67a6.653 6.653 0 0 0 -1.769 2.644 9.53 9.53 0 0 0 1.708 9.092c-.114 2.826-.938 14.072-6.816 22.334a1.749 1.749 0 0 0 .547 2.528 54.479 54.479 0 0 0 15.9 5.524l-13.977 3.339a14.776 14.776 0 0 0 -11.24 12.785l-2.073 19.471a1.751 1.751 0 0 0 1.556 1.926c.063.006.125.009.187.009a1.751 1.751 0 0 0 1.738-1.564l.7-6.621c4.016-.779 14.251-4.656 14.73-23.745l2.37-.567c2.1 5.292 9.334 18.707 28.528 18.707s26.436-13.444 28.531-18.707l2.371.567c.479 19.089 10.714 22.966 14.73 23.745l.7 6.621a1.75 1.75 0 0 0 1.738 1.564c.062 0 .124 0 .187-.009a1.751 1.751 0 0 0 1.56-1.926zm-72.813-75.7c1.933-1.194 6.3-4.429 10.692-11.4 2.607-4.132 6.489-6.94 10.383-7.515a9.9 9.9 0 0 1 8.123 2.48 1.753 1.753 0 0 0 1.757.319 7.8 7.8 0 0 1 5.391.135 5.919 5.919 0 0 1 2.86 3.873c2.052 6.945 5.33 10.556 6.8 11.9-.315 18.164-11.247 26.465-17.8 29.813a11.457 11.457 0 0 1 -10.4 0c-6.536-3.336-17.406-11.586-17.806-29.605zm-6.481 7.468a6.043 6.043 0 0 1 -1.117-5.6 2.65 2.65 0 0 1 1.438-1.66 4.459 4.459 0 0 1 2.672.015 43.551 43.551 0 0 0 1.138 9.07 5.284 5.284 0 0 1 -4.129-1.825zm58.637-7.257a2.653 2.653 0 0 1 1.438 1.66 6.047 6.047 0 0 1 -1.117 5.6 5.284 5.284 0 0 1 -4.129 1.821 43.478 43.478 0 0 0 1.137-9.07 4.455 4.455 0 0 1 2.673-.011zm-15.63 37.381-.738-8.686a34.379 34.379 0 0 0 11.554-16.15c.291.021.582.043.865.043a9.7 9.7 0 0 0 3.594-.665c.387 4.472 1.706 13 6.209 20.272a55.682 55.682 0 0 1 -21.484 5.186zm-19.112-75.15c9.73-1.161 13.861 3.249 14.021 3.426a1.766 1.766 0 0 0 1.567.58 13.78 13.78 0 0 1 10.375 3.626c5.343 4.747 8.18 13.871 8.258 26.464a9.2 9.2 0 0 0 -3.517.438c-1.212-1.185-3.844-4.277-5.556-10.072a9.254 9.254 0 0 0 -4.648-6.012 10.772 10.772 0 0 0 -7.17-.58 13.183 13.183 0 0 0 -10.177-2.686c-4.964.731-9.641 4.051-12.833 9.11-4.117 6.526-8.142 9.4-9.624 10.314a9.38 9.38 0 0 0 -3.652-.52c.039-1.325.057-2.734.047-4.239-.16-25.131 17.495-29.199 22.909-29.849zm-23.214 49.693a9.7 9.7 0 0 0 3.594.664c.283 0 .574-.022.865-.043a34.387 34.387 0 0 0 11.554 16.15l-.739 8.686a55.865 55.865 0 0 1 -21.482-5.187c4.5-7.275 5.82-15.799 6.208-20.27zm-16.44 53.675.981-9.21a11.27 11.27 0 0 1 8.573-9.752l1.266-.3c-.629 14.55-7.37 18.299-10.821 19.262zm45.24-5.465c-16.468 0-22.908-10.677-25.1-16.026l13.583-3.244c.015 0 .027-.014.043-.018a1.74 1.74 0 0 0 .419-.174c.022-.013.045-.022.067-.036a1.769 1.769 0 0 0 .358-.305c.022-.025.041-.05.062-.076a1.732 1.732 0 0 0 .373-.886c0-.021.013-.038.015-.059l.706-8.311c.939.581 1.842 1.085 2.678 1.512a14.968 14.968 0 0 0 13.585 0c.837-.427 1.74-.931 2.679-1.512l.706 8.311c0 .021.012.038.015.059a1.732 1.732 0 0 0 .373.886c.021.026.04.051.062.076a1.769 1.769 0 0 0 .358.305c.022.014.045.023.067.036a1.74 1.74 0 0 0 .419.174c.015 0 .028.014.043.018l13.589 3.244c-2.189 5.331-8.631 16.026-25.1 16.026zm34.422-13.8 1.264.3a11.271 11.271 0 0 1 8.574 9.752l.979 9.192c-3.439-.991-10.185-4.788-10.817-19.243z"/><path d="m71.318 64.5a1.75 1.75 0 0 0 -1.713-3.053 12.67 12.67 0 0 1 -5.605 1.146 12.686 12.686 0 0 1 -5.594-1.141 1.75 1.75 0 0 0 -1.724 3.048 15.836 15.836 0 0 0 7.318 1.593 15.841 15.841 0 0 0 7.318-1.593z"/><path d="m57.062 43.521a1.75 1.75 0 0 0 2.329-2.613 7.837 7.837 0 0 0 -5.153-1.691 7.837 7.837 0 0 0 -5.153 1.691 1.735 1.735 0 0 0 -.13 2.432 1.766 1.766 0 0 0 2.456.183 5.361 5.361 0 0 1 5.651 0z"/><path d="m56.653 48.207a2.415 2.415 0 1 0 -2.415 2.414 2.415 2.415 0 0 0 2.415-2.414z"/><path d="m70.934 43.523a5.363 5.363 0 0 1 5.652 0 1.75 1.75 0 0 0 2.329-2.613 8.7 8.7 0 0 0 -10.306 0 1.735 1.735 0 0 0 -.131 2.432 1.766 1.766 0 0 0 2.456.181z"/><circle cx="73.762" cy="48.207" r="2.415" transform="matrix(.007 -1 1 .007 25.023 121.618)"/></g></svg>