<svg id="Capa_1" enable-background="new 0 0 512 512" height="512" viewBox="0 0 512 512" width="512" xmlns="http://www.w3.org/2000/svg"><g><path d="m445.163 94.645c-43.102-43.032-100.568-66.8-161.812-66.924-.161 0-.314 0-.475 0-58.467 0-114.12 21.931-156.741 61.778-39.078 36.536-63.797 84.868-70.513 137.321h-40.566c-5.379 0-10.349 2.859-13.038 7.5-2.69 4.641-2.69 10.359 0 15l90.786 156.665c2.689 4.641 7.66 7.5 13.038 7.5 5.379 0 10.349-2.859 13.038-7.5l90.786-156.665c2.69-4.641 2.69-10.359 0-15-2.689-4.641-7.66-7.5-13.038-7.5h-42.106c5.992-26.197 19.999-50.028 40.415-68.327 24.798-22.229 56.788-34.167 90.123-33.633 33.885.549 65.927 14.016 90.224 37.919 24.298 23.904 38.212 55.652 39.179 89.395 1.023 35.72-12.195 69.52-37.22 95.174-25.042 25.671-58.555 39.809-94.368 39.809-18.513 0-36.421-3.771-53.227-11.208-22.838-10.109-49.493-1.459-61.997 20.118-6.912 11.927-8.421 26.278-4.141 39.376 4.267 13.06 13.932 23.742 26.517 29.307 29.307 12.959 60.545 19.529 92.848 19.529 61.201 0 118.74-23.745 162.015-66.861s67.109-100.442 67.11-161.418c0-61.019-23.736-118.323-66.837-161.355zm-162.288 359.634c-28.068 0-55.197-5.703-80.633-16.949-4.861-2.149-8.448-6.118-10.1-11.174-1.664-5.093-1.101-10.452 1.586-15.089 3.436-5.93 9.662-9.308 16.132-9.308 2.535 0 5.108.518 7.565 1.605 20.678 9.151 42.699 13.792 65.45 13.792 44.018 0 85.201-17.366 115.961-48.9 30.743-31.517 46.982-73.046 45.725-116.938-1.189-41.503-18.279-80.527-48.121-109.886-29.838-29.354-69.22-45.893-110.891-46.568-40.975-.665-80.282 14.014-110.753 41.326-30.229 27.097-49.021 64.097-52.913 104.186-.409 4.21.985 8.396 3.839 11.527 2.854 3.132 6.901 4.917 11.147 4.917h33.68l-64.709 111.665-64.708-111.664h28.156c7.932 0 14.504-6.132 15.023-14.018 3.309-50.206 25.48-96.882 62.429-131.427 37.018-34.61 85.35-53.655 136.137-53.655h.412c53.212.107 103.131 20.746 140.559 58.115 37.428 37.368 58.04 87.146 58.04 140.164 0 109.332-89.277 198.279-199.013 198.279z"/><path d="m284.104 180.325c-8.315 0-15.056 6.716-15.056 15v18.255c-17.523 6.192-30.111 22.865-30.111 42.42 0 24.813 20.262 45 45.167 45 19.627 0 36.362-12.541 42.577-30h17.645c8.315 0 15.056-6.716 15.056-15s-6.741-15-15.056-15h-17.645c-4.544-12.764-14.71-22.893-27.521-27.42v-18.255c-.001-8.285-6.741-15-15.056-15zm0 90.675c-8.302 0-15.056-6.729-15.056-15s6.754-15 15.056-15 15.056 6.729 15.056 15-6.755 15-15.056 15z"/></g></svg>