<svg id="Capa_1" enable-background="new 0 0 512 512" height="512" viewBox="0 0 512 512" width="512" xmlns="http://www.w3.org/2000/svg"><path d="m209.1 298.7c0 4.7 3.8 8.5 8.5 8.5s8.5-3.8 8.5-8.5c0-23.5-19.1-42.7-42.7-42.7s-42.7 19.1-42.7 42.7c0 4.7 3.8 8.5 8.5 8.5s8.5-3.8 8.5-8.5c0-14.1 11.5-25.6 25.6-25.6 14.3 0 25.8 11.5 25.8 25.6z"/><path d="m311.5 256c-23.5 0-42.7 19.1-42.7 42.7 0 4.7 3.8 8.5 8.5 8.5s8.5-3.8 8.5-8.5c0-14.1 11.5-25.6 25.6-25.6s25.6 11.5 25.6 25.6c0 4.7 3.8 8.5 8.5 8.5s8.5-3.8 8.5-8.5c.1-23.6-19-42.7-42.5-42.7z"/><path d="m98.1 396.8c-16.5 0-29.9-13.4-29.9-29.9 0-4.7-3.8-8.5-8.5-8.5s-8.5 3.8-8.5 8.5c0 16.5-13.4 29.9-29.9 29.9-4.7 0-8.5 3.8-8.5 8.5s3.8 8.5 8.5 8.5c16.5 0 29.9 13.4 29.9 29.9 0 4.7 3.8 8.5 8.5 8.5s8.5-3.8 8.5-8.5c0-16.5 13.4-29.9 29.9-29.9 4.7 0 8.5-3.8 8.5-8.5s-3.7-8.5-8.5-8.5zm-38.4 20c-3.1-4.4-7-8.3-11.4-11.4 4.4-3.1 8.3-7 11.4-11.4 3.1 4.4 7 8.3 11.4 11.4-4.4 3.1-8.2 6.9-11.4 11.4z"/><path d="m296.9 395c-16.5 16.6-33.7 24.6-51.1 24-27.3-1-47-23.2-47.3-23.6-3.1-3.6-8.5-4-12-.9-3.6 3.1-4 8.5-.9 12 1 1.1 24.5 28.1 59.4 29.5.9 0 1.8.1 2.7.1 21.4 0 42-9.8 61.3-29 3.3-3.3 3.3-8.7 0-12.1s-8.8-3.3-12.1 0z"/><path d="m482.4 393.6-11.8 15.8c-9.5-34.2-40.8-59.5-78.1-59.5-.7 0-1.3.1-2 .1.6-2.7 1.3-5.3 1.8-8 .6 0 1.2.1 1.8.1 28.1 0 51-22.9 51-51.1 0-13.9-5.5-26.9-15.2-36.3 1.1-4.4 2-8.8 2.8-13.2 6.7 5.5 11 13.7 11 23 0 4.7 3.8 8.5 8.5 8.5s8.5-3.8 8.5-8.5c0-16.5 13.4-29.9 29.9-29.9 4.7 0 8.5-3.8 8.5-8.5s-3.8-8.5-8.5-8.5c-16.5 0-29.9-13.4-29.9-29.9 0-4.7-3.8-8.5-8.5-8.5s-8.5 3.8-8.5 8.5c0 7.6-2.9 14.5-7.6 19.7 0-1.5.1-2.9.1-4.4 0-9.9-.7-19.7-2-29.3 37-9 63.9-42.5 63.9-81.3 0-46.2-37.5-83.7-83.7-83.7-16.8 0-33 4.9-46.8 14.3-5.2 3.5-9.8 7.8-14.1 12.4-30.5-22.3-67.4-35.4-107.1-35.4-104.7 0-189.8 91.1-189.8 203.1 0 19.8 2.7 39.1 7.9 57.7-6.5 8.7-10.3 19.2-10.3 30.2 0 27.7 22.2 50.3 49.7 51 18.7 95.4 77.2 161.5 144.1 161.5 26.7 0 52.6-10.4 75.5-30.2 14.3 23.2 39.8 38.7 69 38.7 24.6 0 47.6-11 63.1-30.1 3-3.7 2.4-9-1.3-12s-9-2.4-12 1.3c-12.2 15.1-30.4 23.8-49.8 23.8-35.3 0-64-28.7-64-64s28.7-64 64-64c30.3 0 55.7 21.1 62.3 49.3l-18.2-9.1c-4.2-2.1-9.3-.4-11.5 3.8-2.1 4.2-.4 9.3 3.8 11.5l32.2 16.1c.6.3 3 1.3 6 .6 2.7-.7 4.2-2.5 4.7-3.1l24.2-32.2c2.8-3.8 2.1-9.1-1.7-11.9-3.7-3-9.1-2.2-11.9 1.6zm-30.1-178.9c3.1 4.4 7 8.3 11.4 11.4-4.4 3.1-8.3 7-11.4 11.4-3.1-4.4-7-8.3-11.4-11.4 4.4-3.1 8.2-7 11.4-11.4zm-36.7 49.3c8.2 6.4 12.4 16.5 12.4 26.9 0 18.4-14.6 33.4-32.8 34 1.7-9 3.1-19.4 3.7-31 .7-13.8.1-26.1-1.1-36.6 2.5-.1 7.5.1 12.5 3.2 2.1 1.3 4.1 2.3 5.3 3.5zm-1.2-238.1c36.8 0 66.6 29.9 66.6 66.6 0 22.3-11.2 42.4-28.6 54.6-8.9-62.2-41.9-98.3-64-115.8 8.2-3.4 17-5.4 26-5.4zm-41.6 14.9c20 14.4 56.2 49.1 63.6 114.6-1.7.6-3.4 1.1-5.1 1.5-9.6-44.2-32.7-82.9-64.4-110.7 1.8-1.9 3.8-3.7 5.9-5.4zm-301.5 250.2c0-3 .4-6 1.2-8.8.4-1.4 2.2-7.7 7.7-13.9 1.7-2 5-5.5 10.4-8.1 3.1-1.4 5.8-2.1 7.8-2.4v.9.9c-.4 5.9-.6 12.1-.6 18.6 0 7 .3 14 .7 21 .1 1.2.1 2.3.2 3.5.5 6.8 1.2 13.6 2.1 20.4.1.5.1 1 .2 1.5-16.8-2-29.7-16.3-29.7-33.6zm30.8-66.1c-.4 2.2-.6 4.5-.9 6.7-.4 2.9-.9 5.7-1.2 8.6-2.9.1-6.9.6-11.4 2.2-4.3 1.5-7.6 3.5-9.8 5.1-1-4.3-1.8-8.6-2.5-12.9 1 1.2 2.2 2.3 3.7 2.9.9.3 1.9.5 2.9.5 3.4 0 6.7-2.1 8-5.4.1-.3 2.5-5.6 11.7-10.8-.2 1-.4 2.1-.5 3.1zm274.9 106.3c-1.2 7.1-2.7 14.2-4.4 21.2-35.1 8.9-61.1 40.7-61.1 78.5 0 9.2 1.6 18 4.4 26.2-20.6 19.1-43.9 29.3-67.8 29.3-60.2 0-113.2-63.7-128.9-155 0-.2-.1-.4-.1-.7-1.5-9-2.6-18.1-3.3-27.1-.7-8.4-1-16.9-1-25.3 0-6.4.3-12.6.6-18.7.2-3.4.4-6.9.8-10.1.3-4.1.9-8.2 1.4-12.2 1-7.6 2.1-15.1 3.6-22.3.5-.1 20.8-3.2 32.4-3.2 2.1 0 11.4-.2 11.7-.2 11.3-.3 23.8-1.1 36.9-2.6 54-5.9 119-22.1 151.3-57.6 14.3 28.8 23.4 62.7 26.6 98.6 1.5 11.4 2.5 25 2 40.3-.7 15.7-2.7 29.5-5.1 40.9zm-223.4-136.6c-13.5 0-25.5 1.3-35.9 3.7-2.1.5-4.2.9-6.1 1.5 0 0 0 0-.1 0-27.5 7.9-35 22.7-36.5 26.4-.9-7.6-1.3-15.3-1.3-23.1 0-102.6 77.5-186.1 172.8-186.1 84.2 0 154.4 65.1 169.7 151v.1c2 11.3 3.1 23 3.1 34.9 0 4.7-.2 9.4-.6 14-1.6.2-3.1.5-4.8.5-4.7 0-8.5 3.8-8.5 8.5s3.8 8.5 8.5 8.5c.9 0 1.8.2 2.7.3-.5 3.2-1.1 6.3-1.8 9.5-2.6-1-5.6-2-9-2.8-3.5-.8-6.7-1.3-9.6-1.6-2.1-14.9-5.5-31.9-10.9-50.4-6.1-20.9-13.5-38.9-20.7-53.8 2.1-2.5 8.2-15.8 9.7-29.1.5-4.7-2.9-8.9-7.5-9.4-2.8-.3-5.3.7-7.1 2.5-1.8 1.9-2.2 4.2-2.3 5-.3 1.7-3 17.6-8.7 27-4.3 7.1-20.3 19.1-20.3 19.1-2.3 1.8-20.5 12.7-21.6 13.2-3 1.5-24 10-24.9 10.4-3.5 1.2-7.1 2.4-10.7 3.5-.8.2-10.1 2.9-14 3.9-.7.2-15.3 3.5-15.9 3.6-4.2.9-27.5 4.7-27.9 4.8-8.2 1.1-17.7 2.2-28.3 3z"/><path d="m388.3 401.1c-4.7 0-8.5 3.8-8.5 8.5v34.1c0 4.7 3.8 8.5 8.5 8.5h34.1c4.7 0 8.5-3.8 8.5-8.5s-3.8-8.5-8.5-8.5h-25.6v-25.6c0-4.7-3.8-8.5-8.5-8.5z"/></svg>