<svg id="Layer_1" enable-background="new 0 0 512.072 512.072" height="512" viewBox="0 0 512.072 512.072" width="512" xmlns="http://www.w3.org/2000/svg"><g><path d="m198.763 63.247c0-24.054 10.611-36.402 11.747-37.654 5.726-5.459 6.064-14.281.963-20.345-5.124-6.091-14.277-6.961-20.644-2.186-2.869 2.151-70.267 53.686-70.267 140.499-4.039 149.277 247.95 236.925 181.053 342.846-13.166 13.414 4.47 33.44 19.681 22.531 2.869-2.151 70.267-53.686 70.267-140.499-.001-135.181-192.8-218.849-192.8-305.192zm143.954 374.752c-18.182-120.325-262.7-208.812-173.309-363.997 18.183 120.327 262.7 208.815 173.309 363.997z"/><path d="m187.207 363.536c-29.864-25.104-60.744-51.062-60.744-83.437 0-8.284-6.716-15-15-15s-15 6.716-15 15c-3.303 85.944 147.747 129.595 114.562 182.193-13.536 14.579 6.649 34.744 21.213 21.213 1.39-1.389 13.576-14.265 13.576-38.153-.001-32.55-28.468-56.481-58.607-81.816z"/><path d="m344.223 125.5c-29.324-24.765-60.278-49.286-43.122-75.792 13.536-14.58-6.649-34.744-21.213-21.213-1.39 1.389-13.576 14.265-13.576 38.153-.393 64.848 119.26 100.553 119.351 165.254 0 8.284 6.716 15 15 15s15-6.716 15-15c0-46.35-37.955-78.254-71.44-106.402z"/></g></svg>