<svg id="Layer_1" enable-background="new 0 0 495.938 495.938" height="512" viewBox="0 0 495.938 495.938" width="512" xmlns="http://www.w3.org/2000/svg"><g><g><path d="m146.388 227.439c-.702-5.048-1.177-10.31-1.411-15.64l14.986-.656c.213 4.859.644 9.646 1.282 14.228zm13.546-30.682-14.99-.564c.19-5.042.577-10.253 1.151-15.488l14.91 1.635c-.535 4.88-.895 9.73-1.071 14.417zm3.12-28.796-14.777-2.576c.873-5.005 1.917-10.094 3.104-15.127l14.6 3.443c-1.12 4.747-2.105 9.545-2.927 14.26z"/></g><g><path d="m470.857 395h21.906v-15h-173.374v15h136.303l-3.854 25.938h-324.816l-3.822-25.938h181.189v-15h-35.995c-5.611-88.287-3.469-313.301-3.469-313.301-.436-36.778-30.715-66.699-67.496-66.699h-118.04v15h118.04c28.607 0 52.157 23.271 52.496 51.845 0 0-2.093 224.345 3.438 313.155h-60.298c-4.45-9.874-9.887-21.646-15.597-34.01-18.935-41-44.866-97.151-47.348-112.43-9.65-59.41 14.17-118.635 14.412-119.226l-13.879-5.689c-.28.681-2.219 5.48-4.724 13.353-14.206 6.085-73.895 30.89-122.757 39.758l2.679 14.76c42.384-7.693 91.163-26.345 114.903-36.074-5.941 24.236-11.3 59.456-5.441 95.524 2.811 17.302 27.104 69.904 48.537 116.314 4.546 9.845 8.918 19.311 12.746 27.721h-92.082v15h23.524l10.154 68.905c.937 6.352 3.48 12.158 7.172 17.032h-105.919v15h464.944v-15h-30.946c3.685-4.864 6.226-10.654 7.167-16.987zm-315.565 85.938c-11.075 0-20.645-8.263-22.26-19.22l-3.799-25.78h320.375l-3.835 25.808c-1.626 10.941-11.194 19.192-22.256 19.192z"/><path d="m4.514 0h60v15h-60z"/><path d="m344.889 250.438h-15c0 6.575-1.671 9.447-3.983 13.424-2.681 4.608-6.017 10.345-6.017 20.964 0 10.621 3.336 16.357 6.017 20.968 2.313 3.977 3.983 6.85 3.983 13.426s-1.671 9.449-3.983 13.426c-2.681 4.609-6.017 10.347-6.017 20.967h15c0-6.576 1.671-9.449 3.983-13.426 2.681-4.609 6.017-10.347 6.017-20.967s-3.336-16.356-6.017-20.967c-2.313-3.977-3.983-6.851-3.983-13.427 0-6.574 1.671-9.447 3.983-13.423 2.681-4.61 6.017-10.345 6.017-20.965z"/><path d="m384.889 250.438h-15c0 6.575-1.671 9.447-3.983 13.424-2.681 4.608-6.017 10.345-6.017 20.964 0 10.621 3.336 16.357 6.017 20.968 2.313 3.977 3.983 6.85 3.983 13.426s-1.671 9.449-3.983 13.426c-2.681 4.609-6.017 10.347-6.017 20.967h15c0-6.576 1.671-9.449 3.983-13.426 2.681-4.609 6.017-10.347 6.017-20.967s-3.336-16.356-6.017-20.967c-2.313-3.977-3.983-6.851-3.983-13.427 0-6.574 1.671-9.447 3.983-13.423 2.681-4.61 6.017-10.345 6.017-20.965z"/><path d="m397.54 353.611h15c0-6.576 1.671-9.449 3.983-13.426 2.681-4.609 6.017-10.347 6.017-20.967s-3.336-16.356-6.017-20.967c-2.313-3.977-3.983-6.851-3.983-13.427 0-6.574 1.671-9.447 3.983-13.423 2.681-4.609 6.017-10.345 6.017-20.965h-15c0 6.575-1.671 9.447-3.983 13.424-2.681 4.608-6.017 10.345-6.017 20.964 0 10.621 3.336 16.357 6.017 20.968 2.313 3.977 3.983 6.85 3.983 13.426s-1.671 9.449-3.983 13.426c-2.682 4.61-6.017 10.347-6.017 20.967z"/><g><path d="m332.889 51.063h15v15h-15z"/><path d="m332.889 81.063h15v15h-15z"/><path d="m347.889 66.063h15v15h-15z"/><path d="m317.889 66.063h15v15h-15z"/></g><g><path d="m45.469 279.524h15v15h-15z"/><path d="m45.469 309.524h15v15h-15z"/><path d="m60.469 294.524h15v15h-15z"/><path d="m30.469 294.524h15v15h-15z"/></g><path d="m438.241 121.094h15v14.938h-15z"/><path d="m287.389 181.094h15v14.938h-15z"/></g></g></svg>