<?xml version="1.0" encoding="UTF-8"?>
<!-- Generator: Adobe Illustrator 25.2.3, SVG Export Plug-In . SVG Version: 6.00 Build 0)  -->
<svg xmlns="http://www.w3.org/2000/svg" xmlns:xlink="http://www.w3.org/1999/xlink" version="1.1" id="Capa_1" x="0px" y="0px" viewBox="0 0 438.338 438.338" style="enable-background:new 0 0 438.338 438.338;" xml:space="preserve" width="512" height="512">
<g>
	<g>
		<path d="M428.836,87.784L393.82,63.888c-9.897-6.778-23.415-4.25-30.193,5.647c-5.055,7.381-5.067,17.107-0.031,24.501l-61.2,77    H38.752C17.352,171.034,0.002,188.38,0,209.78c-0.002,17.257,11.409,32.435,27.988,37.228    c1.476,64.994,46.937,120.668,110.324,135.108v1.34c0.02,17.82,14.46,32.26,32.28,32.28h81.08    c17.831-0.009,32.289-14.449,32.32-32.28v-1.344c63.362-14.451,108.801-70.108,110.28-135.08    c20.556-5.909,32.43-27.364,26.52-47.921c-4.516-15.711-18.411-26.894-34.724-27.947l25.688-44.248    c11.686,2.689,23.339-4.604,26.028-16.289c2.008-8.725-1.545-17.788-8.948-22.823V87.784z M374.216,103.168l25.16,17.172    l-29.416,50.696h-49.688L374.216,103.168z M251.672,401.716h-81.08c-9.634-0.025-17.587-7.536-18.164-17.152    c5.826,0.734,11.692,1.105,17.564,1.112h82.32c5.872-0.008,11.738-0.38,17.564-1.112    C269.287,394.19,261.316,401.7,251.672,401.716z M252.312,371.676h-82.32c-68.829,0.06-125.373-54.34-127.972-123.12h338.224    C377.651,317.323,321.128,371.721,252.312,371.676L252.312,371.676z M408.312,209.796c0.013,13.661-11.051,24.747-24.712,24.76    c-0.016,0-0.032,0-0.048,0c-369.856,0-345.456,0.108-347.812-0.192C22.169,232.7,12.517,220.35,14.18,206.779    c1.522-12.414,12.064-21.743,24.571-21.743h344.8C397.217,185.058,408.29,196.131,408.312,209.796L408.312,209.796z     M422.98,110.116c-2.393,3.489-7.14,4.418-10.672,2.088c-0.026-0.022-0.054-0.042-0.084-0.06l-0.072-0.036l-34.96-23.856    c-3.535-2.412-4.444-7.233-2.032-10.768s7.233-4.444,10.768-2.032l35.02,23.892C424.483,101.758,425.393,106.58,422.98,110.116    L422.98,110.116z"/>
		<path d="M93.648,116.004c24.28,15.724,58.8,14.7,86.4,6.752l18.704,12.108c3.173,2.209,7.536,1.427,9.744-1.746    c2.209-3.173,1.427-7.536-1.746-9.744c-0.13-0.09-0.262-0.176-0.398-0.257l-18.704-12.112c-1.788-12.556-10.08-55.7-41.516-76.048    c-36.26-23.452-87.54-6.44-89.704-5.728c-3.073,1.041-5.027,4.058-4.72,7.288C51.924,38.796,57.416,92.552,93.648,116.004z     M138.512,46.704c19.66,12.724,28.748,37.532,32.74,53.696l-47.564-30.8c-3.173-2.209-7.536-1.427-9.744,1.746    c-2.209,3.173-1.427,7.536,1.746,9.744c0.13,0.09,0.262,0.176,0.398,0.257l47.564,30.8c-16.38,2.968-42.732,4.832-62.4-7.892    C77,88.552,68.832,54.448,66.48,40.916C79.784,37.48,114.18,30.96,138.512,46.704z"/>
	</g>
</g>















</svg>
