<svg id="Capa_1" enable-background="new 0 0 512.013 512.013" height="512" viewBox="0 0 512.013 512.013" width="512" xmlns="http://www.w3.org/2000/svg"><g><path d="m265.787 289.309h-19.574c-10.484 0-19.014 8.53-19.014 19.014v24.755c0 2.213-1.801 4.014-4.014 4.014h-24.755c-10.484 0-19.014 8.53-19.014 19.014v19.574c0 10.484 8.529 19.014 19.014 19.014h24.755c2.213 0 4.014 1.801 4.014 4.014v24.755c0 10.484 8.53 19.014 19.014 19.014h19.574c10.484 0 19.014-8.53 19.014-19.014v-24.755c0-2.213 1.801-4.014 4.014-4.014h24.755c10.484 0 19.014-8.529 19.014-19.014v-19.574c0-10.484-8.529-19.014-19.014-19.014h-24.755c-2.213 0-4.014-1.801-4.014-4.014v-24.755c0-10.485-8.53-19.014-19.014-19.014zm23.028 62.783h24.755c2.213 0 4.014 1.801 4.014 4.014v19.574c0 2.213-1.8 4.014-4.014 4.014h-24.755c-10.484 0-19.014 8.53-19.014 19.014v24.755c0 2.213-1.801 4.014-4.014 4.014h-19.574c-2.213 0-4.014-1.801-4.014-4.014v-24.755c0-10.484-8.53-19.014-19.014-19.014h-24.755c-2.213 0-4.014-1.8-4.014-4.014v-19.574c0-2.213 1.8-4.014 4.014-4.014h24.755c10.484 0 19.014-8.53 19.014-19.014v-24.755c0-2.213 1.801-4.014 4.014-4.014h19.574c2.213 0 4.014 1.801 4.014 4.014v24.755c0 10.484 8.53 19.014 19.014 19.014zm181.881-184.922h-52.475l46.638-75.46c7.058 2.232 13.756 3.38 19.775 3.38 10.345-.001 18.701-3.352 23.482-10.235 5.941-8.552 5.066-20.511-2.463-33.674-6.555-11.459-17.653-22.972-31.25-32.417-13.597-9.446-28.26-15.828-41.286-17.97-14.963-2.461-26.477.893-32.417 9.445-7.564 10.889-3.716 27.064 8.67 42.93l-88.611 114.001h-35.331c8.03-8.905 15.205-18.757 21.398-29.484 4.799-8.316 8.918-17.007 12.243-25.829 1.46-3.876-.498-8.203-4.374-9.663-3.876-1.461-8.202.498-9.663 4.374-3.037 8.061-6.805 16.008-11.197 23.62-8.119 14.065-18.052 26.477-29.512 36.982h-37.994l35.426-61.363c2.071-3.587.842-8.174-2.745-10.245-3.587-2.072-8.174-.842-10.245 2.745l-39.756 68.863h-7.632c1.39-16.05-.225-33.011-4.63-49.787 3.459-11.884 8.441-23.54 14.859-34.666 21.719-37.618 56.841-63.552 91.673-67.684 1.424-.175 2.77.604 3.34 1.931 7.09 16.523 9.381 36.306 6.625 57.209-.542 4.106 2.349 7.875 6.455 8.416 4.112.541 7.875-2.349 8.416-6.455 3.109-23.578.442-46.084-7.712-65.086-3.169-7.383-10.948-11.873-18.905-10.91-39.422 4.676-78.844 33.444-102.883 75.08-3.637 6.305-6.855 12.771-9.644 19.351-2.778-6.587-5.983-13.063-9.614-19.353-24.037-41.632-63.463-70.4-102.877-75.076-8.097-.976-15.691 3.408-18.91 10.909-15.66 36.49-10.458 85.014 13.575 126.638 6.196 10.734 13.37 20.586 21.393 29.483h-51.234c-22.775 0-41.304 18.529-41.304 41.305 0 18.856 12.705 34.789 30 39.719v34.534c0 24.165 4.987 47.607 14.823 69.678 1.244 2.792 3.984 4.449 6.855 4.449 1.02 0 2.057-.209 3.049-.651 3.783-1.686 5.483-6.12 3.797-9.904-8.974-20.136-13.524-41.525-13.524-63.572v-32.949h422v32.949c0 43.756-18.526 85.779-50.829 115.293l-35.469 32.409c-7.754 7.082-12.202 17.174-12.202 27.688v26.39c0 6.893-5.607 12.5-12.5 12.5h-200c-6.893 0-12.5-5.607-12.5-12.5v-26.39c0-10.514-4.447-20.606-12.201-27.687l-35.47-32.411c-7.662-7-14.647-14.794-20.764-23.167-2.444-3.345-7.136-4.075-10.48-1.632-3.345 2.443-4.075 7.136-1.632 10.48 6.704 9.177 14.361 17.72 22.758 25.392l35.472 32.412c4.65 4.247 7.317 10.302 7.317 16.612v26.39c0 15.164 12.336 27.5 27.5 27.5h200c15.164 0 27.5-12.336 27.5-27.5v-26.39c0-6.31 2.667-12.365 7.319-16.613l35.47-32.41c35.405-32.348 55.711-78.407 55.711-126.366v-34.534c17.295-4.93 30-20.864 30-39.719 0-22.776-18.529-41.305-41.304-41.305zm-57.677-148.374c2.872-4.134 11.689-4.184 17.663-3.202 10.714 1.762 23.53 7.407 35.163 15.488s21.397 18.121 26.788 27.546c4.366 7.632 5.548 14.237 3.165 17.669-2.384 3.432-8.988 4.627-17.663 3.202-10.714-1.762-23.53-7.408-35.163-15.488-25.266-17.551-34.616-38.502-29.953-45.215zm6.629 45.59c4.377 4.135 9.31 8.154 14.765 11.944 5.454 3.789 10.94 7.013 16.341 9.67l-50.167 81.17h-60.831zm-335.513 65.802c-21.715-37.61-26.613-80.994-12.783-113.222.569-1.327 1.907-2.105 3.345-1.93 34.824 4.131 69.949 30.065 91.667 67.681 15.523 26.895 22.646 57.3 19.955 84.454h-17.358l-39.756-68.863c-2.071-3.587-6.658-4.816-10.245-2.745s-4.816 6.658-2.745 10.245l35.426 61.363h-37.995c-11.449-10.489-21.382-22.901-29.511-36.983zm386.561 104.591h-429.392c-14.504 0-26.304-11.8-26.304-26.304s11.8-26.304 26.304-26.304h429.392c14.504 0 26.304 11.8 26.304 26.304s-11.8 26.304-26.304 26.304z"/></g></svg>