<?xml version="1.0" encoding="UTF-8" standalone="no"?>
<svg
   version="1.1"
   id="Capa_1"
   x="0px"
   y="0px"
   viewBox="0 0 399.75974 511.99997"
   xml:space="preserve"
   width="399.75974"
   height="511.99997"
   sodipodi:docname="meal.svg"
   inkscape:export-filename="balanced-diet.svg"
   inkscape:export-xdpi="96"
   inkscape:export-ydpi="96"
   xmlns:inkscape="http://www.inkscape.org/namespaces/inkscape"
   xmlns:sodipodi="http://sodipodi.sourceforge.net/DTD/sodipodi-0.dtd"
   xmlns="http://www.w3.org/2000/svg"
   xmlns:svg="http://www.w3.org/2000/svg"><defs
   id="defs97" /><sodipodi:namedview
   id="namedview95"
   pagecolor="#ffffff"
   bordercolor="#999999"
   borderopacity="1"
   inkscape:showpageshadow="0"
   inkscape:pageopacity="0"
   inkscape:pagecheckerboard="0"
   inkscape:deskcolor="#d1d1d1"
   showgrid="false" />
<g
   id="g92"
   transform="translate(-53.364323,2.1589869)">
	<rect
   x="197.32707"
   y="236.339"
   style="fill:#7a6d79;fill-opacity:0.021771"
   width="111.045"
   height="74.029999"
   id="rect2" />
	<circle
   style="fill:#fe646f;fill-opacity:0"
   cx="161.67906"
   cy="128.53902"
   r="84.472"
   id="circle4" />
	<path
   style="fill:#fd4755;fill-opacity:0.000804826"
   d="m 182.51806,210.413 c -6.668,1.7 -13.646,2.597 -20.84,2.597 -46.657,0 -84.471003,-37.814 -84.471003,-84.471 0,-46.646987 37.814003,-84.470987 84.471003,-84.470987 7.194,0 14.171,0.896 20.84,2.597 -36.577,9.265 -63.642,42.411 -63.642,81.873987 0,39.463 27.065,72.608 63.642,81.874 z"
   id="path6" />
	<path
   style="fill:none;stroke:#000000;stroke-width:15;stroke-linecap:round;stroke-linejoin:round;stroke-miterlimit:10"
   d="m 93.048057,79.281013 c -9.977,13.862 -15.841,30.877987 -15.841,49.253987 0,24.972 10.832,47.409 28.054003,62.869"
   id="path8" />
	<path
   style="fill:none;stroke:#000000;stroke-width:15;stroke-linecap:round;stroke-linejoin:round;stroke-miterlimit:10"
   d="m 139.13906,47.105013 c 7.173,-1.979 14.728,-3.04 22.54,-3.04 43.297,0 78.988,32.579 83.894,74.556987"
   id="path10" />
	<path
   style="fill:#8ac9fe;fill-opacity:0"
   d="m 326.88306,292.89 h -148.068 c -29.661,0 -55.152,21.043 -60.771,50.166 L 87.310057,502.339 H 418.38806 l -30.734,-159.283 c -5.619,-29.124 -31.11,-50.166 -60.771,-50.166 z"
   id="path12" />
	<path
   style="fill:#60b7ff;fill-opacity:0"
   d="m 207.15306,292.894 c -29.662,0 -55.15,21.036 -60.767,50.162 l -30.733,159.285 H 87.310057 L 118.04406,343.056 c 5.617,-29.126 31.105,-50.162 60.767,-50.162 z"
   id="path14" />
	<path
   style="fill:none;stroke:#000000;stroke-width:15;stroke-linecap:round;stroke-linejoin:round;stroke-miterlimit:10"
   d="m 366.82406,502.341 h 51.56 l -30.73,-159.29 c -5.62,-29.12 -31.11,-50.16 -60.77,-50.16 h -148.07 c -29.66,0 -55.15,21.04 -60.77,50.16 L 87.314057,502.341 H 331.82406"
   id="path16" />
	<circle
   style="fill:#f9f7f8;fill-opacity:0.00607402"
   cx="252.84904"
   cy="397.61401"
   r="75.934998"
   id="circle18" />
	
		<circle
   style="fill:none;stroke:#000000;stroke-width:15;stroke-linecap:round;stroke-linejoin:round;stroke-miterlimit:10"
   cx="252.84904"
   cy="397.61401"
   r="75.934998"
   id="circle20" />
	
		<rect
   x="197.32707"
   y="253.81801"
   style="fill:none;stroke:#000000;stroke-width:15;stroke-linecap:round;stroke-linejoin:round;stroke-miterlimit:10"
   width="111.045"
   height="39.070999"
   id="rect22" />
	<path
   style="fill:#00f2a6;fill-opacity:0"
   d="m 413.87906,106.582 c 3.608,-6.30899 5.68,-13.608987 5.68,-21.397987 v 0 c 0,-21.782 -16.13,-39.788 -37.095,-42.748 -2.96,-20.965 -20.966,-37.0949999 -42.749,-37.0949999 v 0 c -21.782,0 -39.788,16.1299999 -42.748,37.0949999 -20.965,2.96 -37.095,20.967 -37.095,42.748 v 0 c 0,7.789 2.072,15.088997 5.68,21.397987 -18.294,5.017 -31.74,21.753 -31.74,41.639 v 0.001 c 0,23.85 19.334,43.184 43.184,43.184 h 125.439 c 23.85,0 43.184,-19.334 43.184,-43.184 v -0.001 c 0,-19.885 -13.446,-36.621 -31.74,-41.639 z"
   id="path24" />
	<path
   style="fill:none;stroke:#000000;stroke-width:15;stroke-linecap:round;stroke-linejoin:round;stroke-miterlimit:10"
   d="m 236.03406,134.541 c 4.53,-13.58 15.62,-24.15 29.52,-27.96 -1.81,-3.16 -3.23,-6.55999 -4.19,-10.139987 -0.97,-3.59 -1.49,-7.36 -1.49,-11.26 0,-21.78 16.13,-39.78 37.09,-42.74 1.48,-10.48 6.72,-19.76 14.32,-26.41 7.59,-6.6599999 17.54,-10.6899999 28.43,-10.6899999 21.78,0 39.79,16.1299999 42.75,37.0999999 4.4,0.62 8.59,1.91 12.46,3.75"
   id="path26" />
	<path
   style="fill:none;stroke:#000000;stroke-width:15;stroke-linecap:round;stroke-linejoin:round;stroke-miterlimit:10"
   d="m 417.50406,71.971013 c 1.34,4.16 2.06,8.61 2.06,13.21 0,7.79 -2.08,15.089997 -5.68,21.399987 9.14,2.51 17.08,7.95 22.73,15.24 5.65,7.3 9.01,16.46 9.01,26.4 0,23.85 -19.34,43.18 -43.19,43.18 h -119.84"
   id="path28" />
	<g
   id="g38"
   transform="translate(-2.7559427,-2.1589869)">
		<path
   style="fill:#ffdfcf;fill-opacity:0"
   d="m 305.457,136.707 c 0,49.971 -40.51,90.481 -90.481,90.481 -49.971,0 -90.481,-40.51 -90.481,-90.481 z"
   id="path30" />
		<path
   style="fill:none;stroke:#000000;stroke-width:15;stroke-linecap:round;stroke-linejoin:round;stroke-miterlimit:10"
   d="m 285.35,193.564 c 12.574,-15.542 20.108,-35.32 20.108,-56.86 h -180.96 c 0,21.54 7.534,41.318 20.108,56.86"
   id="path32" />
		<path
   style="fill:#7a6d79;fill-opacity:0"
   d="m 212.919,164.468 h -7.711 c -7.666,0 -13.881,-6.215 -13.881,-13.881 v 0 c 0,-7.666 6.215,-13.881 13.881,-13.881 h 35.473 v 0 c -0.001,15.333 -12.43,27.762 -27.762,27.762 z"
   id="path34" />
		<path
   style="fill:#7a6d79;fill-opacity:0;stroke:#000000;stroke-width:15;stroke-linecap:round;stroke-linejoin:round;stroke-miterlimit:10"
   d="m 212.919,164.468 h -7.711 c -7.666,0 -13.881,-6.215 -13.881,-13.881 v 0 c 0,-7.666 6.215,-13.881 13.881,-13.881 h 35.473 v 0 c -0.001,15.333 -12.43,27.762 -27.762,27.762 z"
   id="path36" />
	</g>
	<path
   style="fill:#f9f7f8;fill-opacity:0.00903069"
   d="M 444.83006,191.406 H 60.869057 l 4.878,15.889 c 8.489,27.65 34.026,46.524 62.950003,46.524 h 248.304 c 28.924,0 54.461,-18.874 62.95,-46.524 z"
   id="path40" />
	<path
   style="fill:#dedbee;fill-opacity:0"
   d="m 200.17206,253.818 h -71.475 c -28.930003,0 -54.459003,-18.871 -62.952003,-46.523 l -4.875,-15.892 h 71.475003 l 4.875,15.892 c 8.493,27.652 34.022,46.523 62.952,46.523 z"
   id="path42" />
	<path
   style="fill:none;stroke:#000000;stroke-width:15;stroke-linecap:round;stroke-linejoin:round;stroke-miterlimit:10"
   d="m 129.86406,253.821 h 247.14 c 28.92,0 54.46,-18.88 62.95,-46.53 l 4.88,-15.89 H 60.864057 l 4.88,15.89 c 5.14,16.75 16.54,30.28 31.15,38.34"
   id="path44" />
	
		<line
   style="fill:none;stroke:#000000;stroke-width:15;stroke-linecap:round;stroke-linejoin:round;stroke-miterlimit:10"
   x1="339.71509"
   y1="79.026009"
   x2="339.71509"
   y2="191.40601"
   id="line46" />
	
		<polyline
   style="fill:none;stroke:#000000;stroke-width:15;stroke-linecap:round;stroke-linejoin:round;stroke-miterlimit:10"
   points="
		305.137,99.852 342.471,137.187 379.806,99.852 	"
   id="polyline48"
   transform="translate(-2.7559427,-2.1589869)" />
	<polygon
   style="fill:#00f2a6;fill-opacity:0"
   points="83.89,24.693 114.772,35.165 140.907,15.662 140.49,48.269 167.115,67.098 135.975,76.778 126.295,107.918 107.466,81.293 74.859,81.71 94.362,55.575 "
   id="polygon50"
   transform="translate(-2.7559427,-2.1589869)" />
	
		<polygon
   style="fill:none;stroke:#000000;stroke-width:15;stroke-linecap:round;stroke-linejoin:round;stroke-miterlimit:10"
   points="83.89,24.693 114.772,35.165 140.907,15.662 140.49,48.269 167.115,67.098 135.975,76.778 126.295,107.918 107.466,81.293 74.859,81.71 94.362,55.575 "
   id="polygon52"
   transform="translate(-2.7559427,-2.1589869)" />
	
		<line
   style="fill:none;stroke:#000000;stroke-width:15;stroke-linecap:round;stroke-linejoin:round;stroke-miterlimit:10"
   x1="252.84904"
   y1="397.61401"
   x2="252.84904"
   y2="372.06"
   id="line54" />
	<g
   id="g60"
   transform="translate(-2.7559427,-2.1589869)">
		
			<line
   style="fill:none;stroke:#000000;stroke-width:15;stroke-linecap:round;stroke-linejoin:round;stroke-miterlimit:10"
   x1="255.605"
   y1="323.83801"
   x2="255.605"
   y2="339.26099"
   id="line56" />
		
			<line
   style="fill:none;stroke:#000000;stroke-width:15;stroke-linecap:round;stroke-linejoin:round;stroke-miterlimit:10"
   x1="255.605"
   y1="460.285"
   x2="255.605"
   y2="475.70801"
   id="line58" />
	</g>
	<g
   id="g66"
   transform="translate(-2.7559427,-2.1589869)">
		
			<line
   style="fill:none;stroke:#000000;stroke-width:15;stroke-linecap:round;stroke-linejoin:round;stroke-miterlimit:10"
   x1="293.573"
   y1="334.01099"
   x2="285.86099"
   y2="347.36801"
   id="line62" />
		
			<line
   style="fill:none;stroke:#000000;stroke-width:15;stroke-linecap:round;stroke-linejoin:round;stroke-miterlimit:10"
   x1="225.349"
   y1="452.17801"
   x2="217.638"
   y2="465.535"
   id="line64" />
	</g>
	<g
   id="g72"
   transform="translate(-2.7559427,-2.1589869)">
		
			<line
   style="fill:none;stroke:#000000;stroke-width:15;stroke-linecap:round;stroke-linejoin:round;stroke-miterlimit:10"
   x1="321.367"
   y1="361.806"
   x2="308.01001"
   y2="369.517"
   id="line68" />
		
			<line
   style="fill:none;stroke:#000000;stroke-width:15;stroke-linecap:round;stroke-linejoin:round;stroke-miterlimit:10"
   x1="203.2"
   y1="430.02899"
   x2="189.843"
   y2="437.741"
   id="line70" />
	</g>
	<g
   id="g78"
   transform="translate(-2.7559427,-2.1589869)">
		
			<line
   style="fill:none;stroke:#000000;stroke-width:15;stroke-linecap:round;stroke-linejoin:round;stroke-miterlimit:10"
   x1="331.54001"
   y1="399.77301"
   x2="316.117"
   y2="399.77301"
   id="line74" />
		
			<line
   style="fill:none;stroke:#000000;stroke-width:15;stroke-linecap:round;stroke-linejoin:round;stroke-miterlimit:10"
   x1="195.093"
   y1="399.77301"
   x2="179.67"
   y2="399.77301"
   id="line76" />
	</g>
	<g
   id="g84"
   transform="translate(-2.7559427,-2.1589869)">
		
			<line
   style="fill:none;stroke:#000000;stroke-width:15;stroke-linecap:round;stroke-linejoin:round;stroke-miterlimit:10"
   x1="321.367"
   y1="437.741"
   x2="308.01001"
   y2="430.02899"
   id="line80" />
		
			<line
   style="fill:none;stroke:#000000;stroke-width:15;stroke-linecap:round;stroke-linejoin:round;stroke-miterlimit:10"
   x1="203.2"
   y1="369.517"
   x2="189.843"
   y2="361.806"
   id="line82" />
	</g>
	<g
   id="g90"
   transform="translate(-2.7559427,-2.1589869)">
		
			<line
   style="fill:none;stroke:#000000;stroke-width:15;stroke-linecap:round;stroke-linejoin:round;stroke-miterlimit:10"
   x1="293.573"
   y1="465.535"
   x2="285.86099"
   y2="452.17801"
   id="line86" />
		
			<line
   style="fill:none;stroke:#000000;stroke-width:15;stroke-linecap:round;stroke-linejoin:round;stroke-miterlimit:10"
   x1="225.349"
   y1="347.36801"
   x2="217.638"
   y2="334.01099"
   id="line88" />
	</g>
</g>















</svg>
