<svg id="Image" height="512" viewBox="0 0 64 64" width="512" xmlns="http://www.w3.org/2000/svg"><g><path d="m52.047 35.708c-1.567-3.774-3.047-7.338-3.047-12.708 0-1.291.212-3.3.436-5.428.264-2.513.564-5.362.564-7.572 0-.552-.447-1-1-1s-1 .448-1 1c0 2.105-.294 4.898-.554 7.363-.229 2.181-.446 4.241-.446 5.637 0 5.769 1.555 9.512 3.2 13.475 1.868 4.498 3.8 9.15 3.8 17.525 0 .552.447 1 1 1s1-.448 1-1c0-8.774-2.1-13.831-3.953-18.292z"/><path d="m16 10c0-.552-.447-1-1-1s-1 .448-1 1c0 2.21.3 5.059.564 7.572.224 2.128.436 4.137.436 5.428 0 5.37-1.48 8.934-3.047 12.708-1.853 4.461-3.953 9.518-3.953 18.292 0 .552.447 1 1 1s1-.448 1-1c0-8.375 1.932-13.027 3.8-17.525 1.645-3.963 3.2-7.706 3.2-13.475 0-1.396-.217-3.456-.446-5.637-.26-2.465-.554-5.258-.554-7.363z"/><path d="m32.622 34.783c.43-.341.504-.966.165-1.399-.341-.435-.969-.513-1.403-.171-.127.099-1.235 1.005-1.235 2.343 0 .577.214 1.433 1.235 2.232.183.143.4.212.615.212.297 0 .592-.132.788-.384.341-.435.264-1.063-.171-1.404-.212-.166-.466-.414-.468-.653-.002-.292.318-.648.474-.776z"/></g></svg>