<svg id="Capa_1" enable-background="new 0 0 512 512" height="512" viewBox="0 0 512 512" width="512" xmlns="http://www.w3.org/2000/svg"><g><path d="m116 216c-16.542 0-30 13.458-30 30s13.458 30 30 30 30-13.458 30-30-13.458-30-30-30zm0 40c-5.514 0-10-4.486-10-10s4.486-10 10-10 10 4.486 10 10-4.486 10-10 10z"/><path d="m326 256c-22.056 0-40 17.944-40 40s17.944 40 40 40 40-17.944 40-40-17.944-40-40-40zm0 60c-11.028 0-20-8.972-20-20s8.972-20 20-20 20 8.972 20 20-8.972 20-20 20z"/><path d="m196 276c-26.257 0-46.597 22.376-47.449 23.329-3.401 3.798-3.401 9.545 0 13.343.852.952 21.192 23.328 47.449 23.328s46.597-22.376 47.449-23.329c3.401-3.798 3.401-9.545 0-13.343-.852-.952-21.192-23.328-47.449-23.328zm0 40c-9.813 0-18.962-5.358-25.046-10 6.087-4.645 15.234-10 25.046-10s18.958 5.355 25.045 10c-6.087 4.645-15.233 10-25.045 10z"/><circle cx="256" cy="106" r="10"/><path d="m502 96h-201c-5.522 0-10 4.477-10 10s4.478 10 10 9.99h190.845c-.702 20.176-3.801 40.292-9.229 60.01h-39.569l-6.101-16.762c-5.661-15.543-22.91-23.584-38.446-17.925l-37.596 13.682c-9.565 3.488-16.479 11.55-18.843 21.005h-38.853c-.391-.439-.79-.874-1.209-1.292l-28.288-28.278c-11.724-11.724-30.696-11.725-42.422 0l-14.697 14.696c-26.235-19.331-61.919-17.631-63.572-17.54-5.09.28-9.154 4.345-9.435 9.435-.029.526-.517 10.192 1.561 22.98h-115.761c-5.428-19.704-8.527-39.821-9.23-60h190.845c5.522 0 10-4.477 10-10s-4.478-10-10-10h-201c-5.522 0-10 4.477-10 10v1.11c0 108.986 65.014 212.005 166 264.983v33.906c0 5.523 4.478 10 10 10h160c5.522 0 10-4.477 10-10v-33.907c99.105-51.985 166-154.034 166-264.983v-1.11c0-5.523-4.478-10-10-10zm-70.166 107.671c1.889 5.19-.773 10.923-5.974 12.812l-37.591 13.681c-5.194 1.888-10.924-.772-12.813-5.976l-10.266-28.188h63.849zm-64.084-29.884 37.592-13.681c5.166-1.883 10.922.786 12.811 5.972l3.609 9.921h-57.532c.984-.954 2.172-1.72 3.52-2.212zm-122.318-13.216c3.907-3.906 10.226-3.909 14.139.001l15.432 15.428h-43.728c-.178-.246-.358-.49-.538-.734zm45.348 35.419c-.021 2.572-1.017 5.104-2.92 7.008l-28.291 28.281c-2.997 2.998-7.448 3.679-11.092 2.084-.147-7.732-1.254-22.33-6.747-37.373zm-70.748.01c5.583 11.385 7.51 23.84 8.15 32.173-12.112-.934-32.853-4.564-46.321-18.034-3.879-3.878-7.181-8.613-9.888-14.139zm-17.039-20h-37.527c-.882-4.517-1.379-8.703-1.646-12.174 10.126.781 26.278 3.45 39.173 12.174zm123.007 220h-140v-20h140zm7.575-40h-155.15c-66.768-34.029-118.089-91.742-142.683-160h114.539c4.114 11.308 9.958 20.801 17.438 28.281 21.906 21.906 55.504 24.13 67.157 24.205 11.782 8.559 28.344 7.426 38.834-3.064l28.291-28.281c5.747-5.747 8.732-13.411 8.764-21.141h33.14l12.755 35.024c5.64 15.526 22.807 23.629 38.45 17.933l37.584-13.678c15.586-5.662 23.607-22.866 17.933-38.452l-.301-.827h25.934c-24.597 68.261-75.922 125.977-142.685 160z"/></g></svg>