<svg id="_x33_9_blech_cream_1_" enable-background="new 0 0 96 96" height="512" viewBox="0 0 96 96" width="512" xmlns="http://www.w3.org/2000/svg"><g><path d="m11.1 29.6h1.7v2.4c0 .6.4 1 1 1s1-.4 1-1v-2.4h66.3v2.4c0 .6.4 1 1 1s1-.4 1-1v-2.4h1.7c.6 0 1-.4 1-1s-.4-1-1-1h-1.7v-4.2c0-1.8-1.4-3.2-3.2-3.2h-.7c0-.1.1-16.1-14.1-20.2-.8-.2-1.5.6-1.2 1.4 2.3 4.8-1.2 10.2-6.4 10.2h-31.4c-4.9 0-8.9 3.8-9.3 8.5h-.7c-1.8 0-3.2 1.4-3.2 3.2v4.2h-1.7c-.6 0-1 .4-1 1-.1.7.4 1.1.9 1.1zm15-15.9h31.3c5.9 0 10.1-5.4 9-11 11.3 5.1 10.8 17.5 10.8 17.6h-58.4c.4-3.7 3.5-6.6 7.3-6.6zm-11.2 9.8c0-.7.6-1.2 1.2-1.2h63.8c.7 0 1.2.6 1.2 1.2v4.2h-66.2z"/><path d="m89.3 35.1h-82.6c-3.5 0-6.1 3.2-5.3 6.6l10.9 50c.5 2.5 2.8 4.3 5.3 4.3h60.7c2.5 0 4.8-1.8 5.3-4.3l10.9-50c.9-3.4-1.7-6.6-5.2-6.6zm3.4 6.2-10.9 50c-.4 1.6-1.8 2.7-3.4 2.7h-60.8c-1.6 0-3-1.1-3.4-2.7l-10.9-50c-.5-2.2 1.2-4.2 3.4-4.2h82.6c2.2 0 3.8 2 3.4 4.2z"/><path d="m68.3 53.2h-40.6c-1.8 0-3.2 1.4-3.2 3.2v18.3c0 1.8 1.4 3.2 3.2 3.2h40.6c1.8 0 3.2-1.4 3.2-3.2v-18.3c0-1.8-1.4-3.2-3.2-3.2zm1.2 21.5c0 .7-.6 1.2-1.2 1.2h-40.6c-.7 0-1.2-.6-1.2-1.2v-18.3c0-.7.6-1.2 1.2-1.2h40.6c.7 0 1.2.6 1.2 1.2z"/><path d="m60.6 60.6h-25.2c-.6 0-1 .4-1 1s.4 1 1 1h25.2c.6 0 1-.4 1-1 0-.5-.5-1-1-1z"/><path d="m60.6 68.5h-25.2c-.6 0-1 .4-1 1s.4 1 1 1h25.2c.6 0 1-.4 1-1s-.5-1-1-1z"/></g></svg>