<svg id="Layer_1" enable-background="new 0 0 64 64" height="512" viewBox="0 0 64 64" width="512" xmlns="http://www.w3.org/2000/svg"><g><path d="m21.04 29.113c.625-1.335 1.028-2.55 1.234-3.716.485-2.784.179-5.63-.885-8.232l-3.405-8.355c-.208-.511-.793-.76-1.303-.548-.511.208-.757.792-.549 1.303l3.406 8.355c.921 2.254 1.187 4.721.766 7.131-.175.988-.526 2.04-1.08 3.223l-1.296 2.838c-3.483 7.601-3.919 16.132-1.227 24.023.18.527.754.802 1.269.623.523-.178.802-.746.624-1.27-2.263-6.633-2.163-13.748.233-20.288 4.346 1.716 8.777 2.582 13.268 2.582 4.335 0 8.726-.81 13.143-2.41 2.334 6.492 2.411 13.54.168 20.116-.179.523.101 1.092.624 1.27.515.179 1.089-.096 1.269-.623 2.5-7.328 2.298-15.206-.531-22.379-.003-.008-.001-.017-.004-.025-.003-.007-.009-.012-.012-.019-.213-.537-.437-1.071-.679-1.599l-1.3-2.849c-.549-1.174-.901-2.226-1.075-3.212-.421-2.412-.156-4.879.766-7.134l3.406-8.354c.208-.511-.038-1.095-.549-1.303-.513-.211-1.095.038-1.303.548l-3.405 8.353c-1.064 2.603-1.37 5.45-.884 8.235.206 1.164.609 2.379 1.23 3.706l1.297 2.841c.086.188.163.38.245.57-8.497 3.06-16.874 3.004-24.923-.169.059-.134.112-.269.173-.402z"/><path d="m8.09 29.307c.197.25.49.381.786.381.217 0 .435-.07.619-.215l7.512-5.922c.241-.189.381-.479.381-.785s-.14-.596-.381-.785l-7.512-5.922c-.433-.341-1.063-.269-1.404.166-.342.434-.268 1.063.166 1.404l6.516 5.137-6.516 5.137c-.435.341-.509.97-.167 1.404z"/><path d="m55.91 16.224c-.342-.434-.971-.506-1.404-.166l-7.512 5.922c-.241.189-.381.479-.381.785s.14.596.381.785l7.512 5.922c.184.145.402.215.619.215.295 0 .588-.13.786-.381.342-.434.268-1.063-.166-1.404l-6.516-5.137 6.516-5.137c.433-.342.507-.971.165-1.404z"/><path d="m32 44.662c-.445 0-.837.295-.961.723l-2.643 9.146c-.153.53.153 1.085.683 1.238.531.151 1.085-.152 1.239-.684l1.682-5.82 1.682 5.82c.127.438.526.723.96.723.669 0 1.145-.642.961-1.277l-2.643-9.146c-.123-.428-.515-.723-.96-.723z"/></g></svg>