<svg id="Capa_1" enable-background="new 0 0 512 512" height="512" viewBox="0 0 512 512" width="512" xmlns="http://www.w3.org/2000/svg"><g><path d="m302.004 233.035h-23.504v-23.929c0-12.406-10.093-22.5-22.5-22.5s-22.5 10.094-22.5 22.5v23.929h-23.505c-12.274 0-22.333 9.409-22.898 21.422-.292 6.217 1.907 12.115 6.194 16.608 4.226 4.43 10.16 6.97 16.281 6.97h23.928v23.928c0 12.406 10.093 22.5 22.5 22.5s22.5-10.094 22.5-22.5v-23.928h23.928c6.121 0 12.055-2.541 16.281-6.971 4.287-4.493 6.486-10.391 6.193-16.607-.565-12.012-10.623-21.422-22.898-21.422zm5.852 27.676c-1.43 1.499-3.357 2.324-5.428 2.324h-26.847c-6.662 0-12.081 5.42-12.081 12.081v26.847c0 4.136-3.364 7.5-7.5 7.5s-7.5-3.364-7.5-7.5v-26.847c0-6.661-5.419-12.081-12.081-12.081h-26.847c-2.07 0-3.998-.825-5.428-2.324-1.429-1.497-2.161-3.468-2.063-5.549.185-3.93 3.735-7.127 7.915-7.127h26.424c6.662 0 12.081-5.42 12.081-12.081v-26.848c0-4.136 3.364-7.5 7.5-7.5s7.5 3.364 7.5 7.5v26.848c0 6.661 5.419 12.081 12.081 12.081h26.423c4.179 0 7.73 3.197 7.915 7.127.097 2.081-.636 4.052-2.064 5.549z"/><path d="m255.99 99.191c24.941 0 45.232-20.291 45.232-45.232v-15.965c.001-20.95-17.043-37.994-37.993-37.994h-14.477c-20.95 0-37.994 17.044-37.994 37.994v15.965c0 24.941 20.291 45.232 45.232 45.232zm-30.232-61.197c0-12.679 10.315-22.994 22.994-22.994h14.477c12.679 0 22.994 10.315 22.994 22.994v15.965c0 16.67-13.562 30.232-30.232 30.232s-30.232-13.562-30.232-30.232v-15.965z"/><path d="m415.465 243.729-63.71-113.446c-6.955-12.384-20.099-20.077-34.302-20.077h-122.925c-14.196.007-27.332 7.7-34.283 20.077l-17.787 31.673c-2.028 3.612-.745 8.184 2.867 10.212 3.612 2.027 8.184.743 10.212-2.866l17.787-31.674c4.3-7.657 12.428-12.417 21.224-12.422h122.904c8.788 0 16.92 4.76 21.223 12.423l63.71 113.446c4.535 8.074 1.655 18.332-6.419 22.867-8.074 4.536-18.333 1.653-22.868-6.421l-8.53-15.189c-1.7-58.416-49.747-105.416-108.568-105.416s-106.867 46.999-108.568 105.415l-8.531 15.191c-2.196 3.911-5.785 6.733-10.104 7.945-4.318 1.215-8.851.671-12.763-1.525-8.074-4.535-10.955-14.793-6.42-22.867l28.376-50.528c2.028-3.612.745-8.184-2.867-10.212-3.611-2.028-8.185-.746-10.212 2.866l-28.376 50.529c-8.584 15.285-3.132 34.706 12.154 43.29 4.82 2.708 10.139 4.087 15.521 4.087 2.885 0 5.789-.396 8.642-1.197 6.868-1.928 12.752-6.013 16.927-11.656 4.152 19.434 13.517 36.957 26.557 51.032l-20.586 119.034-15.557 35.185c-2.784 6.298-2.201 13.504 1.559 19.277 3.759 5.771 10.112 9.218 16.993 9.218h44.884c11.307 0 20.93-8.38 22.53-19.552l27.843-128.319c24.717.661 50.094-8.297 68.514-22.785l19.106 110.443c.104.604.283 1.193.531 1.755l15.926 36.021c1.045 2.371.06 4.312-.412 5.035-.471.723-1.845 2.402-4.427 2.402h-44.874c-3.895 0-7.205-2.924-7.699-6.802-.027-.216-.064-.431-.11-.643l-20.957-96.583c-.879-4.048-4.875-6.618-8.92-5.738-4.048.878-6.618 4.871-5.739 8.92l20.894 96.295c1.6 11.172 11.223 19.552 22.53 19.552h44.874c6.879 0 13.231-3.442 16.992-9.209 3.762-5.771 4.351-12.978 1.569-19.287l-15.556-35.184-20.59-119.023c13.045-14.077 22.414-31.604 26.568-51.043 4.174 5.643 10.059 9.727 16.927 11.656 2.854.801 5.756 1.197 8.642 1.197 5.381 0 10.701-1.38 15.521-4.087 15.285-8.585 20.737-28.005 12.153-43.292zm-204.027 245.827c-.046.212-.083.427-.11.643-.494 3.878-3.803 6.802-7.698 6.802h-44.884c-2.579 0-3.953-1.682-4.423-2.404-.471-.724-1.454-2.661-.409-5.025l15.93-36.028c.248-.562.426-1.15.531-1.755l19.101-110.451c14.131 10.981 31.032 18.553 49.464 21.474zm44.562-140.402c-51.622 0-93.619-41.997-93.619-93.619s41.998-93.619 93.619-93.619 93.619 41.997 93.619 93.619-41.997 93.619-93.619 93.619z"/></g></svg>