<svg id="Capa_1" enable-background="new 0 0 511.893 511.893" height="512" viewBox="0 0 511.893 511.893" width="512" xmlns="http://www.w3.org/2000/svg"><g><path d="m64.632 333.78c-1.886-3.688-6.403-5.151-10.091-3.266s-5.151 6.402-3.266 10.092c2.693 5.271 5.735 10.349 9.04 15.092 1.458 2.093 3.79 3.214 6.16 3.214 1.48 0 2.975-.438 4.281-1.348 3.398-2.367 4.234-7.042 1.866-10.44-2.917-4.187-5.606-8.677-7.99-13.344z"/><path d="m215.012 385.979-15.011 4.715c-1.167.366-2.34.703-3.516 1.03-3.99 1.113-6.322 5.25-5.209 9.239.925 3.316 3.938 5.487 7.22 5.487.667 0 1.345-.09 2.019-.277 1.082-.302 2.512-.708 3.98-1.169l15.011-4.715c3.952-1.241 6.149-5.451 4.908-9.402s-5.447-6.152-9.402-4.908z"/><path d="m110.361 397.317c2.716 0 5.338-1.48 6.67-4.061 1.901-3.68.458-8.204-3.222-10.105-6.238-3.222-12.179-7.009-17.658-11.257-3.274-2.538-7.985-1.94-10.522 1.332-2.538 3.274-1.941 7.985 1.332 10.523 6.2 4.806 12.917 9.089 19.966 12.729 1.1.57 2.276.839 3.434.839z"/><path d="m457.352 330.515c-3.688-1.886-8.206-.423-10.091 3.266-2.384 4.667-5.073 9.156-7.99 13.344-2.368 3.398-1.532 8.073 1.866 10.44 1.307.91 2.801 1.348 4.281 1.348 2.37 0 4.702-1.121 6.16-3.214 3.305-4.743 6.347-9.821 9.04-15.092 1.885-3.69.422-8.208-3.266-10.092z"/><path d="m315.407 391.724c-1.176-.327-2.349-.664-3.516-1.03l-15.011-4.714c-3.952-1.243-8.162.957-9.402 4.908-1.241 3.952.957 8.161 4.908 9.402l15.011 4.714c1.468.461 2.898.867 3.98 1.169.674.188 1.352.277 2.019.277 3.282 0 6.295-2.171 7.22-5.487 1.113-3.989-1.219-8.126-5.209-9.239z"/><path d="m415.742 371.895c-5.479 4.248-11.42 8.035-17.658 11.257-3.681 1.901-5.123 6.426-3.222 10.105 1.332 2.58 3.954 4.061 6.67 4.061 1.159 0 2.335-.27 3.435-.838 7.049-3.641 13.766-7.924 19.966-12.729 3.273-2.538 3.87-7.249 1.332-10.523s-7.25-3.871-10.523-1.333z"/><path d="m207.973 225.833c-3.734 1.793-5.308 6.273-3.516 10.007 10.397 21.66 16.5 44.785 18.141 68.734.965 14.087 12.781 25.122 26.901 25.122h13.893c14.12 0 25.937-11.035 26.901-25.122 3.342-48.794 25.113-93.783 61.301-126.682 1.794-1.632 2.689-4.03 2.402-6.438l-4.004-33.573c-.491-4.112-4.222-7.055-8.335-6.559-4.113.49-7.05 4.223-6.559 8.335l3.552 29.779c-34.915 32.957-56.8 76.581-62.386 124.091-8.284-9.634-12.819-21.819-12.819-34.603 0-14.188 5.525-27.527 15.558-37.56l8.356-8.355c2.929-2.929 2.929-7.678 0-10.606-2.929-2.929-7.678-2.93-10.606-.001l-8.356 8.356c-5.086 5.086-9.252 10.842-12.451 17.058-3.199-6.217-7.365-11.973-12.451-17.059l-8.356-8.355c-2.929-2.928-7.678-2.929-10.606.001-2.929 2.929-2.929 7.678 0 10.606l8.356 8.354c10.032 10.033 15.558 23.373 15.558 37.561 0 12.326-4.226 24.089-11.954 33.552-2.698-21.913-8.899-43.103-18.512-63.128-1.793-3.734-6.273-5.307-10.008-3.515zm47.973 64.206c2.937 5.711 6.701 11.031 11.226 15.796l4.87 5.128c-2.19 2.298-5.267 3.734-8.65 3.734h-13.892c-3.642 0-6.93-1.661-9.136-4.274l4.356-4.587c4.526-4.766 8.289-10.086 11.226-15.797z"/><path d="m463.535 133.748c-12.715-24.468-33.866-43.459-59.557-53.477l-32.924-12.838-.154-1.269c-.817-6.732-5.205-12.553-11.454-15.19l-6.698-2.827c-6.297-2.656-13.318-1.792-18.78 2.318-.713.536-1.377 1.115-1.997 1.729l-10.93-4.262c-5.883-2.294-9.684-7.856-9.684-14.171v-26.261c0-4.143-3.358-7.5-7.5-7.5s-7.5 3.357-7.5 7.5v26.261c0 12.542 7.55 23.59 19.235 28.146l10.826 4.221c.017.577.051 1.157.12 1.74l4.763 39.939c.49 4.113 4.229 7.053 8.335 6.56 4.113-.49 7.049-4.223 6.559-8.335l-4.763-39.939c-.244-2.047 1.005-3.228 1.554-3.641.549-.412 2.03-1.286 3.929-.484l6.698 2.826c1.307.552 2.225 1.77 2.395 3.179l12.272 101.057c.157 1.292.648 2.521 1.424 3.567l44.401 59.791c22.083 29.737 21.834 71.086-.606 100.554-21.284 27.951-58.101 39.655-91.618 29.13l-32.794-10.3c-21.354-6.707-43.928-6.707-65.282 0l-32.794 10.3c-33.517 10.526-70.335-1.18-91.619-29.13-22.44-29.468-22.689-70.816-.605-100.554l44.402-59.791c.776-1.046 1.267-2.275 1.424-3.567l12.271-101.06c.171-1.408 1.089-2.626 2.395-3.177l6.699-2.828c1.9-.798 3.38.073 3.929.485.548.413 1.798 1.594 1.554 3.641l-12.565 105.363c-.287 2.407.608 4.806 2.402 6.438 10.206 9.277 19.417 19.718 27.376 31.03 2.383 3.389 7.062 4.203 10.449 1.818 3.388-2.384 4.202-7.062 1.818-10.449-7.843-11.147-16.813-21.512-26.699-30.854l12.113-101.57c.085-.715.122-1.427.129-2.133l9.817-3.829c11.685-4.556 19.235-15.604 19.235-28.146v-26.259c0-4.143-3.358-7.5-7.5-7.5s-7.5 3.357-7.5 7.5v26.261c0 6.314-3.801 11.877-9.685 14.171l-10.221 3.986c-.537-.51-1.102-.998-1.705-1.452-5.462-4.112-12.485-4.978-18.78-2.319l-6.699 2.828c-6.248 2.637-10.636 8.457-11.453 15.188l-.105.861-33.974 13.247c-25.69 10.018-46.841 29.009-59.557 53.477s-16.102 52.691-9.535 79.474c.238.97.359 1.97.359 2.971v70.646c0 4.143 3.358 7.5 7.5 7.5s7.5-3.357 7.5-7.5v-70.646c0-2.204-.266-4.405-.791-6.544-11.74-47.88 14.042-97.492 59.972-115.402l26.473-10.322-9.875 81.326-43.217 58.195c-12.854 17.309-19.579 37.854-19.449 59.412.13 21.56 7.103 42.021 20.165 59.173 10.954 14.386 25.4 25.113 41.486 31.614l.984 15.491c2.112 33.253-4.298 66.753-18.539 96.877l-7.173 15.173c-1.771 3.744-.17 8.215 3.575 9.985 1.036.49 2.126.722 3.201.722 2.81 0 5.505-1.587 6.785-4.297l7.173-15.173c12.326-26.075 19.188-54.5 20.222-83.247 5.735.951 11.538 1.535 17.288 1.693.071.002.141.003.211.003 4.046 0 7.381-3.223 7.493-7.293.115-4.141-3.149-7.59-7.29-7.704-5.685-.157-11.436-.762-17.095-1.796-.203-.037-.404-.059-.606-.079-.069-1.939-.153-3.877-.276-5.815l-.619-9.74c7.13 1.611 14.449 2.445 21.822 2.445 9.815-.001 19.729-1.469 29.403-4.507l32.793-10.3c18.415-5.782 37.88-5.782 56.293 0l32.794 10.3c16.944 5.321 34.6 5.81 51.226 2.052l-.62 9.751c-.122 1.925-.205 3.852-.274 5.779-.529-.018-1.066.016-1.608.115-5.659 1.034-11.41 1.639-17.095 1.796-4.141.114-7.405 3.563-7.29 7.704.112 4.07 3.447 7.293 7.493 7.293.07 0 .141-.001.211-.003 6.08-.167 12.22-.802 18.275-1.854.386 11.057 1.627 22.086 3.733 32.971.693 3.585 3.834 6.076 7.355 6.076.472 0 .952-.045 1.433-.138 4.067-.786 6.726-4.721 5.939-8.788-3.186-16.469-4.263-33.291-3.202-50l.984-15.486c16.087-6.501 30.532-17.235 41.487-31.62 13.062-17.152 20.034-37.613 20.164-59.173.13-21.559-6.596-42.104-19.449-59.412l-43.217-58.195-9.826-80.917 25.423 9.913c45.931 17.91 71.713 67.522 59.972 115.401-.524 2.139-.791 4.341-.791 6.545v70.646c0 4.143 3.358 7.5 7.5 7.5s7.5-3.357 7.5-7.5v-70.646c0-1.001.121-2.001.359-2.972 6.57-26.782 3.184-55.005-9.531-79.473z"/><path d="m401.502 486.013c-2.123-4.492-4.168-9.324-6.079-14.361-1.469-3.872-5.796-5.821-9.673-4.353-3.873 1.47-5.821 5.8-4.353 9.673 2.05 5.404 4.251 10.604 6.543 15.451l7.172 15.173c1.281 2.71 3.975 4.297 6.786 4.297 1.074 0 2.165-.232 3.2-.722 3.745-1.77 5.346-6.24 3.576-9.985z"/></g></svg>