<svg id="Capa_1" enable-background="new 0 0 512 512" height="512" viewBox="0 0 512 512" width="512" xmlns="http://www.w3.org/2000/svg"><g><g><path d="m270.758 80.11c1.609 0 3.232-.516 4.601-1.582 3.269-2.543 3.857-7.256 1.313-10.525-27.652-35.535-46.203-61.36-48.475-64.536-1.818-2.855-5.416-4.195-8.761-3.044-3.916 1.348-5.994 5.631-4.645 9.548.235.682.567 1.327.986 1.915.8 1.122 19.942 27.914 49.056 65.33 1.479 1.9 3.69 2.894 5.925 2.894z"/><path d="m296.65 476.667c-2.093-10.244-3.765-20.704-4.968-31.091-.476-4.114-4.188-7.059-8.313-6.587-4.115.477-7.064 4.198-6.587 8.313 1.252 10.814 2.993 21.705 5.172 32.371l5.39 26.33c.727 3.551 3.852 5.998 7.34 5.998.499 0 1.005-.05 1.512-.154 4.058-.831 6.674-4.794 5.843-8.852z"/><path d="m298.276 95.256c-2.636-3.194-7.364-3.647-10.558-1.01-3.195 2.636-3.647 7.364-1.01 10.558 6.964 8.438 14.579 17.09 21.943 25.457 30.763 34.951 62.573 71.091 62.491 107.242-.119 41.981-38.614 67.705-66.244 67.629-6.419.03-21.324 2.029-37.454-17.092-2.389-3.384-7.068-4.189-10.453-1.802-3.384 2.389-4.191 7.068-1.802 10.453 8.871 12.568 21.13 18.287 29.072 20.812l-1.787 8.456c-5.95 28.157-8.672 56.994-8.09 85.713.083 4.09 3.424 7.349 7.496 7.348.051 0 .104 0 .155-.001 4.142-.084 7.431-3.509 7.347-7.65-.559-27.576 2.055-55.268 7.769-82.307l1.922-9.095c3.4.195 5.561.173 6.088.164 18.54-.024 38.802-8.591 54.218-22.928 17.208-16.003 26.713-37.193 26.764-59.665.096-41.831-33.622-80.139-66.231-117.187-7.623-8.661-14.823-16.841-21.636-25.095z"/><path d="m85.956 305.661c-.006-.036-.012-.072-.019-.108-.136-.77-13.708-77.722-22.127-142.924-.531-4.107-4.28-7.004-8.399-6.478-4.108.531-7.008 4.291-6.478 8.399 7.976 61.774 20.54 133.965 22.078 142.734l-.205 197.207c-.004 4.142 3.35 7.503 7.492 7.508h.008c4.139 0 7.496-3.353 7.5-7.492l.114-105.499c6.918 42.438 14.343 87.726 17.609 106.759.627 3.654 3.798 6.233 7.383 6.233.421 0 .848-.035 1.277-.109 4.083-.701 6.824-4.578 6.124-8.66-6.853-39.953-32.102-195.998-32.357-197.57z"/><path d="m119.013 0c-45.966 0-76.85 35.529-76.85 88.41 0 9.84.905 23.696 2.688 41.181.421 4.121 4.107 7.124 8.223 6.7 4.121-.42 7.121-4.102 6.7-8.223-1.733-16.982-2.611-30.325-2.611-39.659 0-44.595 24.277-73.41 61.85-73.41 39.064 0 65.31 29.501 65.31 73.41 0 53.886-17.115 216.027-17.288 217.659-.09.851-.034 1.712.166 2.544.148.616 14.812 62.333 14.812 124.226v71.66c0 4.142 3.358 7.5 7.5 7.5s7.5-3.358 7.5-7.5v-71.66c0-59.495-12.731-116.983-14.928-126.458 1.734-16.474 17.238-165.229 17.238-217.971-.001-52.054-33.025-88.409-80.31-88.409z"/><path d="m368.181 337.247c-3.435.799-6.963 1.384-10.486 1.741-4.121.417-7.124 4.095-6.707 8.216.391 3.865 3.65 6.746 7.453 6.746.252 0 .507-.013.763-.039 4.156-.42 8.32-1.111 12.374-2.054 4.035-.938 6.544-4.969 5.606-9.004-.938-4.034-4.968-6.546-9.003-5.606z"/><path d="m435.705 285.044c-3.805-1.638-8.216.117-9.855 3.921-1.396 3.242-3.019 6.43-4.821 9.475-2.11 3.564-.932 8.165 2.632 10.275 1.199.71 2.515 1.047 3.814 1.047 2.563 0 5.061-1.314 6.461-3.68 2.127-3.593 4.042-7.356 5.69-11.184 1.639-3.804-.117-8.216-3.921-9.854z"/><path d="m402.742 319.967c-2.71 2.271-5.593 4.391-8.567 6.299-3.486 2.237-4.5 6.876-2.263 10.362 1.433 2.233 3.85 3.451 6.319 3.451 1.387 0 2.79-.384 4.043-1.188 3.508-2.25 6.907-4.749 10.103-7.427 3.175-2.661 3.591-7.391.931-10.566-2.661-3.174-7.391-3.59-10.566-.931z"/><path d="m329.438 337.166c-1.779-.422-3.55-.909-5.262-1.447-3.952-1.245-8.162.953-9.405 4.904s.953 8.162 4.904 9.405c2.054.646 4.175 1.229 6.303 1.734.582.138 1.164.204 1.736.204 3.396 0 6.474-2.323 7.292-5.771.955-4.031-1.538-8.073-5.568-9.029z"/><path d="m467.64 121.396-22.224-22.224c-1.406-1.407-3.314-2.197-5.303-2.197s-3.897.79-5.303 2.197l-22.223 22.224c-2.929 2.929-2.929 7.678 0 10.606 2.929 2.929 7.678 2.929 10.606 0l9.42-9.42v133.417.007c0 1.828-.06 3.68-.179 5.505-.269 4.133 2.865 7.702 6.998 7.971.166.011.33.016.494.016 3.92 0 7.219-3.046 7.477-7.014.14-2.15.21-4.332.21-6.485v-133.417l9.42 9.42c1.464 1.464 3.384 2.197 5.303 2.197s3.839-.732 5.303-2.197c2.931-2.929 2.931-7.678.001-10.606z"/><path d="m358.544 56.24 9.42-9.42v81.899c0 4.142 3.358 7.5 7.5 7.5s7.5-3.358 7.5-7.5v-81.9l9.42 9.42c1.464 1.464 3.384 2.197 5.303 2.197s3.839-.732 5.303-2.197c2.929-2.929 2.929-7.678 0-10.606l-22.223-22.223c-1.406-1.407-3.314-2.197-5.303-2.197s-3.897.79-5.303 2.197l-22.223 22.224c-2.929 2.929-2.929 7.678 0 10.606 2.928 2.929 7.677 2.929 10.606 0z"/></g></g></svg>