<svg id="Layer_1" enable-background="new 0 0 450 450" height="512" viewBox="0 0 450 450" width="512" xmlns="http://www.w3.org/2000/svg"><g><g><g><path d="m80.2 415.1c-2.8 0-5-2.2-5-5v-35c0-2.8 2.2-5 5-5s5 2.2 5 5v35c0 2.8-2.2 5-5 5z"/></g><g><path d="m429.4 415.1h-408.8c-8.6 0-15.6-7-15.6-15.6v-11.3c0-31.5 19.8-60 49.3-70.9.1 0 .1 0 .2-.1l114.4-37v-30c0-2.8 2.2-5 5-5s5 2.2 5 5v33.7c0 2.2-1.4 4.1-3.5 4.8l-117.7 38c-25.6 9.5-42.7 34.2-42.7 61.5v11.3c0 3.1 2.5 5.6 5.6 5.6h408.7c3.1 0 5.6-2.5 5.6-5.6v-11.3c0-27.3-17.1-52-42.7-61.5l-117.7-38.1c-2.1-.7-3.5-2.6-3.5-4.8v-34.1c0-2.8 2.2-5 5-5s5 2.2 5 5v30.5l114.3 37c.1 0 .1 0 .2.1 29.5 10.9 49.3 39.4 49.3 70.9v11.3c.2 8.6-6.8 15.6-15.4 15.6z"/><g><path d="m369.8 415.1c-2.8 0-5-2.2-5-5v-35c0-2.8 2.2-5 5-5s5 2.2 5 5v35c0 2.8-2.3 5-5 5z"/></g></g><path d="m225 327.7c-31 0-56.1-19.7-56.1-43.8 0-2.8 2.2-5 5-5s5 2.2 5 5c0 18.6 20.7 33.8 46.1 33.8s46.1-15.2 46.1-33.8c0-2.8 2.2-5 5-5s5 2.2 5 5c0 24.2-25.2 43.8-56.1 43.8z"/><path d="m148.4 197.9c-15.3 0-27.8-12.5-27.8-27.8 0-8.1 3.5-15.7 9.6-21 4.9-4.3 11.7-6.8 18.5-6.8 2.8 0 5 2.2 5 5s-2.2 5-5 5c-4.4 0-8.9 1.6-12 4.3-3.9 3.4-6.1 8.3-6.1 13.4 0 9.8 8 17.8 17.8 17.8 2.8 0 5 2.2 5 5s-2.3 5.1-5 5.1z"/><path d="m301.6 197.9c-2.8 0-5-2.2-5-5s2.2-5 5-5c9.8 0 17.8-8 17.8-17.8 0-6.2-3.1-11.8-8.4-15.1-2.7-1.7-6.3-2.7-9.7-2.7-2.8 0-5-2.2-5-5s2.2-5 5-5c5.3 0 10.6 1.5 15 4.2 8.2 5.1 13.1 13.9 13.1 23.6 0 15.4-12.5 27.8-27.8 27.8z"/></g><g><path d="m317.4 158.8c-.4 0-.9-.1-1.3-.2-2.7-.7-4.2-3.5-3.5-6.2 3.9-13.8 9-56.6-16.9-71.7-1-.6-1.7-1.4-2.1-2.5 0-.1-5.4-12.8-21.1-22.4-21-12.8-51.2-14.4-87.2-4.6-.4.1-.9.2-1.3.2h-41.1l13.3 8.8c1.5 1 2.3 2.7 2.2 4.4s-1.1 3.4-2.7 4.2c-1.5.8-38 20.8-16.6 81.7.9 2.6-.5 5.5-3.1 6.4s-5.5-.5-6.4-3.1c-12.6-35.9-6.3-59.4 1.2-72.7 4.4-7.8 9.6-13.2 13.7-16.5l-21.1-13.9c-1.8-1.2-2.7-3.5-2-5.6.6-2.1 2.6-3.6 4.8-3.6h57.1c49-13.3 78.7-3.9 95 6.2 14.9 9.3 21.7 20.9 23.7 25.2 30 18.9 24.8 65.6 20.1 82.2-.5 2.2-2.5 3.7-4.7 3.7z"/><path d="m225 274.8c-20.2 0-39.5-7.4-54.5-20.8-.1-.1-.1-.1-.2-.2-1.1-1-2.1-1.9-3-2.9-15.4-15.4-23.9-35.9-23.9-57.7v-38.4c0-2.6.1-5.3.4-7.9.5-4.9 1.6-9.6 3.1-13.9 6.2-17.6 18.7-28.7 39.6-35.1.1 0 .2-.1.3-.1 1.5-.4 35.5-8.4 56.2 13.3 7.3-3.3 24.1-9.3 39.1-3.3 10.3 4.1 17.7 13 21.8 26.3 1.9 6 2.8 12.6 2.8 19.5v38.4c0 2.6-.1 5.2-.4 7.7-.3 2.7-2.7 4.8-5.4 4.5s-4.8-2.7-4.5-5.4c.2-2.2.3-4.5.3-6.7v-38.5c0-5.9-.8-11.4-2.4-16.5-3.2-10.3-8.6-17-15.9-20-14.9-6-34 4.4-34.2 4.5-2.1 1.2-4.8.7-6.3-1.2-15.8-19.8-46.4-13.4-48.6-12.9-22.9 7-29.7 19.8-32.9 28.8-1.3 3.6-2.1 7.6-2.6 11.7-.2 2.2-.4 4.5-.4 6.8v38.4c0 19.1 7.5 37.1 21 50.7.9.9 1.8 1.8 2.8 2.7l.2.2c13.1 11.7 30 18.1 47.6 18.1h.3c19.8-.1 38.9-8.7 52.3-23.5 1.9-2 5-2.2 7.1-.4 2 1.9 2.2 5 .4 7.1-15.3 16.9-37.1 26.7-59.7 26.8-.2-.1-.3-.1-.4-.1z"/></g><path d="m276.1 250c-19.2 0-34.8-15.6-34.8-34.8s15.6-34.8 34.8-34.8 34.8 15.6 34.8 34.8-15.6 34.8-34.8 34.8zm0-59.6c-13.7 0-24.8 11.1-24.8 24.8s11.1 24.8 24.8 24.8 24.8-11.1 24.8-24.8-11.1-24.8-24.8-24.8z"/><g><path d="m270.8 229.1c-1.3 0-2.6-.5-3.5-1.5l-7.1-7.1c-2-2-2-5.1 0-7.1s5.1-2 7.1 0l3.6 3.6 14.2-14.2c2-2 5.1-2 7.1 0s2 5.1 0 7.1l-17.7 17.7c-1.1 1-2.4 1.5-3.7 1.5z"/></g></g></svg>