<svg id="Layer_1" enable-background="new 0 0 74 74" height="512" viewBox="0 0 74 74" width="512" xmlns="http://www.w3.org/2000/svg"><g><path d="m63.45 32.3c-.72-.54-1.11-1.42-.99-2.3.14-1.09.17-2.03.1-2.77-.29-2.94-2.41-8.59-6.87-11.6-.02-.74-.23-2.21-1.48-3.86-2.61-3.41-8.07-5.64-16.23-6.62-6.42-.76-11.72 1.82-15.97 5.69-.42-1.5-1.25-2.69-2.4-3.43-1.74-1.12-4-1.16-6.37-.1-2.26 1.01-4.37 2.91-5.94 5.35-3.31 5.14-3.18 11.15.3 13.4.28.18.58.32.89.45.03.01.05.03.08.04.02.01.04 0 .05.01.63.23 1.3.36 2.02.36.31 0 .64-.03.96-.08-1.93 6.75-.77 13.99 3.4 19.53 1.97 2.63 4.49 4.75 7.48 6.32-.06 1.97-.54 10.06-4.14 15.14-.24.34-.16.81.18 1.05.13.09.28.14.43.14.24 0 .47-.11.61-.32 4.02-5.67 4.39-14.43 4.43-16.15.96-1.05 4.72-5.62 3.99-12.64-.33-3.19.44-5.76 2.23-7.43 1.65-1.54 4.04-2.17 6.55-1.74 1.88.32 2.84 1.72 3.69 2.95.66.96 1.29 1.87 2.29 1.99.65.07 1.32-.22 2.04-.89.89-.82 1.45-2.01 1.58-3.34.18-1.8.81-4.99 3.06-6.19.17-.09.33-.2.49-.31 0 .14.04.29.12.41.2.29.41.57.63.84.15.19.37.28.59.28.16 0 .33-.05.47-.16.33-.26.38-.73.12-1.06-.2-.25-.39-.5-.58-.77-.13-.18-.32-.28-.53-.31.75-.9 1.12-2.09 1.04-3.49-.1-1.76 1.04-3.28 2.84-3.78.06-.02.12-.04.19-.06 3.84 2.59 5.96 7.66 6.24 10.53.05.55.03 1.26-.05 2.07-.14.04-.27.08-.41.11-.41.08-.68.47-.6.88.07.36.38.61.74.61.05 0 .09 0 .14-.01s.09-.03.14-.04c.18.99.72 1.89 1.55 2.51 4.21 3.13 5.07 4.74 5.05 5.54-.02.64-.65 1.11-1.63 1.76l-.27.18c-1.02.69-1.6 1.47-1.7 2.3-.12.94.41 1.57.46 1.63.47.54.68 1.03.62 1.44-.08.56-.65.99-.98 1.2-.31.2-.5.53-.5.89-.01.36.17.7.48.91s.55.62.52.87c-.02.14-.16.26-.43.36-.67.25-1.17.71-1.44 1.32-.48 1.07-.12 2.29 0 2.65.22 1.74-.11 2.97-1 3.66-.39.31-.89.49-1.44.61-.11-.17-.28-.3-.49-.35-.36-.07-.7.14-.83.47-1.55.01-6.04-1.53-6.61-1.71-.01 0-.01-.01-.01-.01-2.04-.7-6.26-2.55-8.89-4.86.12-.4-.1-.81-.5-.94-.15-.04-.3-.03-.44.02-.78-.88-1.3-1.82-1.34-2.77-.02-.41-.37-.75-.79-.71-.42.02-.74.37-.72.79.19 3.82 5.34 6.88 8.89 8.54-.03.01-.06.02-.09.03-2.45 1.11-4.55 4.51-6.62 10.68-.13.39.08.82.47.95.08.03.16.04.24.04.31 0 .61-.2.71-.51 1.9-5.67 3.8-8.87 5.81-9.79.9-.41 1.79-.33 2.69-.06.03.01.05.02.06.02h.01c.52.16 5.6 1.9 7.63 1.78h.02c.04 0 .07-.01.11-.02 1.13-.08 2.2-.38 3.03-1.03 1.35-1.05 1.87-2.78 1.55-5.13-.01-.06-.02-.12-.04-.17-.06-.17-.6-1.68.53-2.11 1.09-.42 1.34-1.18 1.38-1.59.08-.72-.27-1.42-.73-1.9.54-.44 1.07-1.07 1.2-1.92.13-.87-.2-1.76-.97-2.65 0 0-.13-.19-.1-.45.05-.38.42-.82 1.05-1.24l.26-.17c1.01-.67 2.26-1.5 2.3-2.97.09-1.76-1.65-3.85-5.61-6.79zm-54.89-18.83c1.42-2.2 3.3-3.9 5.29-4.79 1.89-.84 3.64-.84 4.94 0 .02.01.04.03.06.04-3.08 2.94-5.9 6.67-8.38 11.11-.88 1.57-1.59 3.21-2.14 4.89-2.7-1.85-2.61-6.86.23-11.25zm1.16 11.83c.52-1.63 1.21-3.22 2.06-4.74 2.41-4.33 5.14-7.94 8.12-10.78.41.62.69 1.39.82 2.27-2.87 2.93-5.21 6.4-7.03 9.67-.63 1.13-1.15 2.29-1.58 3.47-.69.19-1.54.29-2.39.11zm40.56-4.53c.06 1.02-.17 2.4-1.56 3.15-2.87 1.53-3.65 5.28-3.85 7.37-.1.96-.49 1.81-1.11 2.38-.51.47-.77.51-.85.49-.32-.04-.8-.73-1.22-1.34-.92-1.33-2.17-3.15-4.68-3.58-2.98-.51-5.84.26-7.83 2.13-1.5 1.4-3.18 4.04-2.7 8.68.61 5.91-2.36 10-3.41 11.24-2.75-1.46-5.06-3.43-6.87-5.84-4.88-6.5-5.34-15.52-1.18-22.99 1.8-3.22 4.11-6.65 6.94-9.5.07-.05.14-.11.19-.19 3.67-3.62 8.2-6.27 13.61-6.27.67 0 1.35.04 2.04.12 9.58 1.15 13.53 3.88 15.17 5.98.96 1.22 1.18 2.29 1.22 2.86-2.44.7-4.05 2.87-3.91 5.31z"/><path d="m58.12 42.75-.81-.54c-.35-.23-.81-.13-1.04.21-.23.35-.14.81.21 1.04l.81.54c.13.09.27.13.42.13.24 0 .48-.12.63-.34.22-.34.12-.81-.22-1.04z"/><path d="m56.14 49.27.75.5c.01 0 .07.05.08.05.12.07.25.11.37.11.25 0 .48-.13.63-.36.22-.35.1-.82-.25-1.05l-.75-.5c-.35-.23-.81-.13-1.04.21-.23.35-.13.82.21 1.04z"/><path d="m60.16 46.09c.14.22.39.34.63.34.14 0 .28-.04.41-.12.35-.23.45-.69.22-1.04s-.52-.65-.87-.89c-.34-.24-.81-.16-1.05.19-.24.34-.15.81.19 1.05.19.11.34.28.47.47z"/><path d="m45.2 38.41c-.4-.07-.8.19-.88.59-.04.21-.06.42-.06.63s.02.42.06.62c.07.36.38.61.74.61.05 0 .1 0 .14-.01.41-.08.68-.47.6-.88-.02-.11-.03-.22-.03-.34 0-.11.01-.23.03-.34.07-.41-.19-.8-.6-.88z"/><path d="m59.48 49.55c.15.21.38.33.62.33.15 0 .29-.04.42-.13.35-.24.64-.54.89-.91l.01-.02c.22-.35.11-.8-.24-1.02s-.81-.12-1.04.23c-.13.19-.29.35-.47.48-.33.23-.42.7-.19 1.04z"/><path d="m46.47 42.86.81.54c.13.09.27.13.42.13.24 0 .48-.12.63-.34.23-.35.14-.81-.21-1.04l-.82-.55c-.35-.23-.81-.13-1.04.21-.23.35-.14.82.21 1.05z"/><path d="m52.92 47.13.81.54c.13.09.27.13.42.13.24 0 .48-.12.63-.34.23-.35.14-.81-.21-1.04l-.81-.54c-.35-.23-.81-.13-1.04.21-.24.35-.15.81.2 1.04z"/><path d="m50.86 37.94c-.35-.23-.81-.13-1.04.21-.23.35-.14.81.21 1.04l.81.54c.13.09.27.13.42.13.24 0 .48-.12.63-.34.23-.35.14-.81-.21-1.04z"/><path d="m48.06 36.42c-.42-.07-.84-.05-1.25.04s-.66.49-.57.9c.08.35.39.59.73.59.05 0 .11-.01.16-.02.22-.05.45-.06.67-.02.41.06.8-.21.87-.62.07-.42-.2-.8-.61-.87z"/><path d="m49.48 43.95c-.23.35-.14.81.21 1.04l.81.53c.13.09.27.13.42.13.24 0 .48-.12.63-.34.23-.35.14-.81-.21-1.04l-.81-.53c-.35-.23-.82-.13-1.05.21z"/><path d="m54.09 40.08c-.35-.23-.81-.14-1.04.21s-.14.81.21 1.04l.81.54c.13.09.27.13.42.13.24 0 .48-.12.63-.34.23-.35.14-.81-.21-1.04z"/><path d="m51.73 52.46c-.37-.18-.82-.03-1.01.35-.18.37-.03.82.35 1.01l.82.4c.11.05.22.08.33.08.28 0 .55-.16.68-.42.18-.37.03-.82-.35-1.01z"/><path d="m48.44 50.87c-.37-.18-.82-.03-1.01.35-.18.37-.03.82.35 1.01l.82.4c.11.05.22.08.33.08.28 0 .55-.16.68-.42.18-.37.03-.82-.35-1.01z"/><path d="m54.01 54.4c-.18.37-.02.82.35 1.01l.82.4c.11.05.22.08.33.08.28 0 .55-.16.68-.42.18-.37.02-.82-.35-1.01l-.82-.4c-.38-.19-.83-.03-1.01.34z"/><path d="m43.97 50.56c.07.41.47.68.88.61.2-.04.42-.04.63 0 .05.01.1.01.14.01.35 0 .67-.25.74-.61.08-.41-.19-.8-.6-.88-.4-.08-.8-.08-1.18-.01-.41.08-.68.47-.61.88z"/><path d="m58.64 55.81-.34-.17c-.37-.18-.82-.03-1.01.35-.18.37-.03.82.35 1.01l.34.17c.11.05.22.12.32.2.14.11.3.16.46.16.22 0 .45-.1.6-.29.25-.33.19-.8-.13-1.06-.19-.15-.38-.27-.59-.37z"/><path d="m57.91 29.47c-.29-.07-.59-.15-.88-.26-.39-.14-.82.06-.96.46-.14.39.06.82.46.96.35.12.7.23 1.05.31.06.01.11.02.17.02.34 0 .65-.24.73-.58.09-.41-.16-.82-.57-.91z"/><path d="m53.83 27.31c-.32-.27-.79-.23-1.06.09s-.23.79.09 1.06c.27.23.55.45.83.65.13.1.29.14.44.14.23 0 .46-.11.61-.31.24-.34.17-.81-.17-1.05-.24-.18-.49-.37-.74-.58z"/></g></svg>