<?xml version="1.0" encoding="UTF-8"?>
<svg xmlns="http://www.w3.org/2000/svg" id="Layer_3" data-name="Layer 3" viewBox="0 0 64 64" width="512" height="512"><path d="M57,47.515v-10.2a6.985,6.985,0,0,0-.036-12.647,25,25,0,0,0-49.928,0A6.985,6.985,0,0,0,7,37.315v10.2A19.359,19.359,0,0,1,1.293,61.293,1,1,0,0,0,2,63H7.929a17.93,17.93,0,0,0,12.24-4.8,16.968,16.968,0,0,0,23.662,0A17.93,17.93,0,0,0,56.071,63H62a1,1,0,0,0,.707-1.707A19.359,19.359,0,0,1,57,47.515ZM59,31a5.006,5.006,0,0,1-5,5H53c0-.035,0-.07,0-.1V26h1A5.006,5.006,0,0,1,59,31ZM32,3A23.027,23.027,0,0,1,54.913,24.066,7.057,7.057,0,0,0,54,24H52.148l-6.3-1.889A3.975,3.975,0,0,1,43,18.28,3.283,3.283,0,0,0,39.72,15H24.28A3.283,3.283,0,0,0,21,18.28a3.975,3.975,0,0,1-2.851,3.831L11.852,24H10a7.057,7.057,0,0,0-.913.066A23.027,23.027,0,0,1,32,3ZM5,31a5.006,5.006,0,0,1,5-5h1v9.9c0,.034,0,.069,0,.1H10A5.006,5.006,0,0,1,5,31ZM4.244,61A21.322,21.322,0,0,0,9,47.515V37.92A7.026,7.026,0,0,0,10,38h1.077a31.7,31.7,0,0,0,7.715,18.747A15.949,15.949,0,0,1,7.929,61ZM32,61a15.1,15.1,0,0,1-11.03-4.811A29.729,29.729,0,0,1,13,35.9V25.744l5.724-1.717A5.963,5.963,0,0,0,23,18.28,1.281,1.281,0,0,1,24.28,17H39.72A1.281,1.281,0,0,1,41,18.28a5.963,5.963,0,0,0,4.276,5.747L51,25.744V35.9a29.729,29.729,0,0,1-7.97,20.293A15.1,15.1,0,0,1,32,61Zm24.071,0a15.949,15.949,0,0,1-10.863-4.253A31.7,31.7,0,0,0,52.923,38H54a7.026,7.026,0,0,0,1-.08v9.595A21.322,21.322,0,0,0,59.756,61Z"/><path d="M45.605,25.525a28.017,28.017,0,0,0-27.21,0A6.606,6.606,0,0,0,15,31.3v3.3a32.554,32.554,0,0,0,6.353,19.39A12.333,12.333,0,0,0,31.26,59H32a13.8,13.8,0,0,0,11.085-5.614A30.309,30.309,0,0,0,49,35.332V31.3A6.606,6.606,0,0,0,45.605,25.525ZM47,35.332A28.322,28.322,0,0,1,41.473,52.2,11.793,11.793,0,0,1,32,57h-.74a10.325,10.325,0,0,1-8.3-4.2A30.563,30.563,0,0,1,17,34.592V31.3a4.6,4.6,0,0,1,2.367-4.022,26.017,26.017,0,0,1,25.266,0A4.6,4.6,0,0,1,47,31.3Z"/><path d="M31,33c0-2.757-2.691-5-6-5s-6,2.243-6,5,2.691,5,6,5S31,35.757,31,33ZM21,33c0-1.654,1.794-3,4-3s4,1.346,4,3-1.794,3-4,3S21,34.654,21,33Z"/><path d="M39,28c-3.309,0-6,2.243-6,5s2.691,5,6,5,6-2.243,6-5S42.309,28,39,28Zm0,8c-2.206,0-4-1.346-4-3s1.794-3,4-3,4,1.346,4,3S41.206,36,39,36Z"/><path d="M34,43H30a5,5,0,0,0,0,10h4a5,5,0,0,0,0-10Zm0,8H30a3,3,0,0,1,0-6h4a3,3,0,0,1,0,6Z"/><rect x="29" y="47" width="6" height="2"/><rect x="23" y="32" width="4" height="2"/><rect x="37" y="32" width="4" height="2"/></svg>
