<svg id="a" height="512" viewBox="0 0 512 512" width="512" xmlns="http://www.w3.org/2000/svg" data-name="outline"><path d="m256 323.988c-4.418 0-8 3.582-8 8v27.44l-6.104-6.656c-2.986-3.256-8.048-3.475-11.303-.489-3.256 2.986-3.475 8.047-.489 11.303l20 21.809c1.515 1.652 3.654 2.593 5.896 2.593s4.381-.94 5.896-2.593l20-21.809c2.986-3.256 2.768-8.317-.489-11.303-3.256-2.986-8.316-2.768-11.303.489l-6.104 6.656v-27.44c0-4.418-3.582-8-8-8z"/><path d="m167.91 281.564c16.374 15.153 41.185 32.547 88.09 32.547s71.716-17.394 88.09-32.547c16.805-15.552 47.386-49.408 48.68-50.841 1.843-2.042 2.507-4.888 1.759-7.535s-2.804-4.725-5.443-5.5c-2.137-.628-52.609-15.412-75.307-18.225-14.798-1.833-27.88 1.375-39.421 4.205-6.791 1.666-13.204 3.238-18.357 3.238s-11.566-1.573-18.357-3.238c-11.542-2.831-24.621-6.037-39.421-4.205-22.697 2.813-73.169 17.597-75.307 18.225-2.64.775-4.695 2.853-5.443 5.5-.749 2.647-.084 5.493 1.759 7.535 1.293 1.434 31.875 35.29 48.68 50.841zm165.312-11.743c-15.117 13.989-36.112 28.291-77.223 28.291s-62.106-14.301-77.223-28.291c-7.269-6.727-17.485-17.308-26.6-26.995 10.221 2.517 22.58 4.76 36.44 5.695 9.151.617 17.48 2.503 26.297 4.5 12.2 2.763 24.815 5.62 41.085 5.62s28.885-2.857 41.085-5.62c8.817-1.997 17.146-3.883 26.297-4.5 13.861-.935 26.22-3.178 36.441-5.695-9.114 9.686-19.33 20.267-26.601 26.995zm-133.033-54.479c11.877-1.472 22.942 1.242 33.643 3.866 7.756 1.902 15.082 3.699 22.168 3.699s14.412-1.796 22.168-3.699c10.7-2.624 21.763-5.339 33.643-3.866 11.657 1.445 32.039 6.518 48.273 10.865-10.155 2.739-23.096 5.36-37.778 6.35-10.394.701-19.728 2.815-28.754 4.859-11.342 2.569-23.07 5.225-37.551 5.225s-26.209-2.656-37.551-5.225c-9.026-2.044-18.36-4.158-28.754-4.859-14.682-.99-27.624-3.611-37.778-6.35 16.234-4.347 36.615-9.42 48.273-10.865z"/><path d="m133.221 390.578c-3.011-3.232-8.073-3.413-11.307-.4-3.233 3.011-3.412 8.074-.4 11.307 2.265 2.431 4.554 4.817 6.803 7.091 1.565 1.582 3.625 2.374 5.688 2.374 2.032 0 4.066-.77 5.625-2.312 3.141-3.107 3.168-8.173.062-11.313-2.138-2.161-4.315-4.43-6.471-6.745z"/><path d="m175.094 427.111c-2.503-1.686-5.032-3.477-7.516-5.325-3.545-2.637-8.557-1.9-11.193 1.645-2.637 3.545-1.901 8.557 1.645 11.193 2.685 1.997 5.419 3.934 8.128 5.758 1.371.923 2.924 1.365 4.461 1.365 2.572 0 5.098-1.238 6.643-3.533 2.468-3.665 1.498-8.636-2.167-11.104z"/><path d="m378.708 390.653c-2.152 2.309-4.331 4.578-6.473 6.744-3.107 3.141-3.08 8.206.062 11.313 1.559 1.542 3.593 2.312 5.625 2.312 2.062 0 4.123-.792 5.688-2.374 2.253-2.277 4.541-4.661 6.801-7.085 3.013-3.232 2.835-8.294-.396-11.307-3.232-3.014-8.294-2.835-11.307.396z"/><path d="m344.347 421.843c-2.487 1.848-5.014 3.636-7.51 5.314-3.666 2.465-4.64 7.437-2.174 11.103 1.544 2.296 4.072 3.537 6.646 3.537 1.535 0 3.087-.441 4.457-1.362 2.703-1.818 5.436-3.752 8.123-5.749 3.547-2.635 4.286-7.646 1.65-11.192-2.635-3.547-7.647-4.286-11.192-1.65z"/><path d="m304.59 444.116c-2.834 1.086-5.718 2.086-8.571 2.974-4.219 1.312-6.575 5.796-5.263 10.015 1.066 3.428 4.226 5.626 7.637 5.626.787 0 1.587-.117 2.378-.363 3.18-.989 6.391-2.103 9.544-3.312 4.126-1.581 6.189-6.207 4.608-10.333s-6.208-6.189-10.333-4.608z"/><path d="m215.884 447.059c-2.853-.89-5.729-1.89-8.552-2.974-4.124-1.584-8.752.476-10.336 4.601s.476 8.752 4.601 10.336c3.141 1.206 6.345 2.32 9.523 3.312.793.247 1.595.365 2.384.365 3.408 0 6.566-2.195 7.635-5.62 1.315-4.218-1.038-8.704-5.255-10.019z"/><path d="m260.477 453.088c-2.993.098-6.06.097-9.051-.003-4.426-.126-8.114 3.314-8.261 7.73-.146 4.416 3.314 8.115 7.73 8.261 1.688.056 3.406.084 5.106.084 1.664 0 3.346-.027 4.999-.082 4.416-.144 7.879-3.841 7.734-8.257-.144-4.416-3.843-7.877-8.257-7.734z"/><path d="m507.044 217.954c-4.158-1.491-8.739.673-10.23 4.831-2.078 5.797-3.862 12.264-5.587 18.519-2.364 8.572-5.044 18.288-7.633 22.078-9.57 14.014-39.62 49.156-84.845 81.857-34.685 25.08-87.606 54.976-142.749 54.976s-107.671-28.86-141.875-53.071c-38.969-27.583-70.777-60.732-83.839-79.858-2.78-4.071-6.442-16.421-9.385-26.345-1.87-6.307-3.804-12.829-5.714-18.156-1.491-4.16-6.073-6.324-10.23-4.831-4.159 1.491-6.322 6.072-4.831 10.23 1.759 4.906 3.628 11.209 5.436 17.305 3.763 12.691 7.317 24.678 11.512 30.82 8.742 12.8 26.704 33.255 50.939 54.616.38 13.658-1.031 81.788-5.97 111.914-5.412 33.009-15.752 57.807-15.854 58.05-1.718 4.07.188 8.763 4.258 10.482 1.016.429 2.071.632 3.108.632 3.119 0 6.084-1.836 7.374-4.89.453-1.074 11.167-26.695 16.903-61.685 3.264-19.909 4.821-53.547 5.459-71.826.355-10.18.6-20.43.701-29.242 3.11 2.496 6.304 4.983 9.563 7.454-.518.235-1.019.523-1.493.877-3.54 2.645-4.265 7.657-1.621 11.197 1.978 2.648 3.957 5.252 5.882 7.74 1.576 2.038 3.942 3.105 6.333 3.105 1.709 0 3.432-.546 4.889-1.673 2.907-2.249 3.832-6.101 2.507-9.346 41.986 28.777 93.338 52.499 145.948 52.499s104.566-24.685 147.125-54.51c-.053.069-.108.141-.161.209-2.704 3.494-2.064 8.519 1.431 11.223 1.457 1.128 3.18 1.674 4.89 1.674 2.391 0 4.756-1.067 6.333-3.104 1.928-2.49 3.907-5.094 5.884-7.739 2.646-3.539 1.921-8.552-1.618-11.197-.844-.631-1.774-1.065-2.734-1.32 3.701-2.82 7.325-5.662 10.845-8.517.09 9.123.341 19.932.716 30.669.638 18.279 2.196 51.917 5.459 71.826 5.736 34.989 16.45 60.611 16.903 61.685 1.29 3.054 4.252 4.889 7.372 4.889 1.037 0 2.09-.203 3.105-.631 4.07-1.716 5.978-6.407 4.265-10.478-.104-.247-10.444-25.045-15.856-58.054-5.185-31.63-6.481-105.153-5.9-113.542 0-.001 0-.002 0-.003 25.011-22.226 43.66-43.582 52.748-56.888 4.091-5.99 6.757-15.656 9.844-26.847 1.646-5.97 3.349-12.142 5.225-17.374 1.491-4.159-.672-8.739-4.831-10.23z"/><path d="m186.396 113.762c-4.028 1.774-5.847 6.461-4.094 10.499 1.753 4.037 6.458 5.892 10.506 4.16.056-.024 5.69-2.402 11.636-2.008 7.795.518 12.412 5.31 19.3 13.084 7.242 8.175 16.256 18.349 32.256 18.349s25.014-10.174 32.256-18.349c6.888-7.775 11.505-12.566 19.299-13.084 5.944-.396 11.58 1.984 11.599 1.992 4.047 1.783 8.766-.054 10.546-4.097 1.781-4.044-.053-8.765-4.097-10.546-.926-.408-9.322-3.964-19.109-3.314-14.747.98-23.323 10.661-30.214 18.439-7.118 8.035-11.906 12.959-20.28 12.959s-13.162-4.924-20.28-12.959c-6.891-7.778-15.467-17.458-30.215-18.439-9.78-.647-18.183 2.906-19.109 3.314z"/><path d="m167.812 143.289c8.993 6.505 21.533 10.137 37.274 10.795.114.004.227.007.34.007 4.264 0 7.807-3.365 7.987-7.666.185-4.414-3.245-8.143-7.659-8.327-12.372-.517-22.25-3.205-28.564-7.773-11.593-8.386-6.523-22.171-1.699-28.995 2.481-3.509 5.782-7.465 9.604-12.045 8.583-10.286 19.265-23.088 28.993-40.658 10.29-18.585 15.478-37.753 15.693-38.56 1.141-4.266-1.392-8.648-5.658-9.792-4.266-1.145-8.652 1.388-9.798 5.654-.048.179-4.929 18.138-14.236 34.948-8.99 16.239-19.131 28.392-27.279 38.157-4.042 4.844-7.534 9.028-10.384 13.06-10.994 15.551-12.674 38.13 5.386 51.195z"/><path d="m297.913 48.627c9.728 17.57 20.41 30.372 28.993 40.658 3.822 4.58 7.123 8.536 9.604 12.045 4.824 6.823 9.894 20.608-1.699 28.995-6.314 4.568-16.192 7.256-28.564 7.773-4.415.185-7.844 3.913-7.659 8.327.18 4.301 3.723 7.666 7.987 7.666.113 0 .227-.002.34-.007 15.741-.658 28.281-4.291 37.274-10.795 18.06-13.065 16.38-35.644 5.386-51.195-2.85-4.032-6.341-8.216-10.384-13.06-8.148-9.766-18.289-21.918-27.279-38.157-9.307-16.81-14.188-34.769-14.234-34.944-1.142-4.269-5.528-6.801-9.795-5.662-4.269 1.142-6.803 5.527-5.662 9.795.216.807 5.404 19.975 15.693 38.56z"/></svg>