<svg id="an" height="512" viewBox="0 0 48 48" width="512" xmlns="http://www.w3.org/2000/svg"><path d="m22.07 6c-.11 0-.23 0-.34.04-5.16 1.5-9.21 3.7-10.57 7.36-.59 1.58-.7 3.44-.17 5.65-.59.99-.98 2.02-.98 2.95 0 1.73.68 4.1.94 4.98-.07.07-.13.14-.19.21-.17-.05-.35-.1-.53-.13-.51-.08-1.03-.05-1.55.24-.43.24-.9.68-1.33 1.53-.33.66-.39 1.23-.31 1.72.12.74.58 1.32 1.2 1.77.22.16.45.29.69.42-.15.22-.29.44-.39.66-.19.4-.26.8-.18 1.2.1.49.43 1.07 1.45 1.57.75.38 1.59.3 2.43-.01.45-.17.9-.4 1.33-.6.22-.1.42-.21.61-.26.88.26 1.54.38 2.04.37.56.64 1.16 1.24 1.8 1.78-.04 2.45-.5 4.01-1.56 4.72-.46.31-.58.93-.27 1.39s.93.58 1.39.27c1.24-.83 2.1-2.44 2.36-5.01 1.27.73 2.64 1.18 4.08 1.18s2.81-.45 4.08-1.18c.26 2.57 1.12 4.18 2.36 5.01.46.31 1.08.19 1.39-.27s.19-1.08-.27-1.39c-1.06-.71-1.52-2.27-1.56-4.73.85-.72 1.63-1.55 2.35-2.43h.54c1.9.56 3.17.29 3.96-.4.75-.64 1.15-1.75 1.16-3.25.94-1.15 1.06-2.18.79-2.88-.24-.62-.83-1.15-1.77-1.37.99-2.83 1.11-6.98.05-10.07.31-.74.92-2.39.92-4.04 0-1.47-1.03-3.3-2.75-4.91-2.38-2.24-6.02-4.09-9.25-4.09-1.81 0-3.11.84-3.93 2zm13.93 31c-1.66 0-3 1.34-3 3s1.34 3 3 3 3-1.34 3-3-1.34-3-3-3zm-21.5 0c-1.38 0-2.5 1.12-2.5 2.5s1.12 2.5 2.5 2.5 2.5-1.12 2.5-2.5-1.12-2.5-2.5-2.5zm-7.5-1c-1.66 0-3 1.34-3 3s1.34 3 3 3 3-1.34 3-3-1.34-3-3-3zm29 3c.55 0 1 .45 1 1s-.45 1-1 1-1-.45-1-1 .45-1 1-1zm-21.5 0c.28 0 .5.22.5.5s-.22.5-.5.5-.5-.22-.5-.5.22-.5.5-.5zm-7.5-1c.55 0 1 .45 1 1s-.45 1-1 1-1-.45-1-1 .45-1 1-1zm18.07-21.97c-4.91 1.74-9.33 6.54-11.41 9.98.08 0 .16.01.24.02 1.15.14 2.29.77 3 1.78 1.2.14 1.94.74 2.22 1.45.27.7.15 1.73-.78 2.87.02.7.01 1.26-.07 1.7-.06.33-.15.6-.28.84 1.68 1.84 3.71 3.33 6.01 3.33s4.5-1.62 6.22-3.57c-.14-.09-.26-.19-.38-.3-.59-.57-.94-1.42-.9-2.61-.81-.61-1.08-1.38-1.04-2.07.07-1.08 1-2.18 2.5-2.41.88-1.22 2.41-1.71 3.8-1.47-.48-.77-1.09-1.55-1.77-2.34-1.93-2.21-4.45-4.42-6.6-6.47-.26-.25-.52-.5-.77-.74zm-4.78 17.68s1.22 1.29 3.71 1.29 3.71-1.29 3.71-1.29c.39-.39.39-1.02 0-1.42-.39-.39-1.02-.39-1.42 0 0 0-.77.71-2.29.71s-2.29-.71-2.29-.71c-.39-.39-1.02-.39-1.42 0-.39.39-.39 1.02 0 1.42zm-4.03-.05c-.08 0-.25.01-.38 0-.35-.05-.79-.16-1.33-.33-.12-.04-.25-.05-.38-.04-.65.05-1.46.49-2.28.86-.22.1-.45.19-.67.25-.18.04-.36.08-.52 0-.11-.06-.23-.13-.31-.19.07-.12.17-.29.25-.41.28-.43.54-.89.6-1.37.06-.42-.16-.84-.54-1.03s-.88-.4-1.28-.69c-.18-.13-.36-.26-.4-.47-.02-.14.03-.3.13-.5.18-.36.32-.59.51-.67.09-.05.19-.02.28 0 .17.03.34.08.5.12.28.07.55.12.81.12.38 0 .73-.21.9-.55.3-.59.92-.78 1.53-.7.71.09 1.43.51 1.77 1.2.17.34.52.55.89.55.28 0 .52.03.72.09.09.03.19.04.22.11.04.1-.04.22-.11.36-.12.23-.3.48-.55.75-.18.19-.28.46-.27.72.02.58.04 1.07 0 1.46-.01.13-.05.3-.08.38zm25.24-4.65c-1.38 0-2.5 1.12-2.5 2.5s1.12 2.5 2.5 2.5 2.5-1.12 2.5-2.5-1.12-2.5-2.5-2.5zm-10.5 0c.38 0 .73-.21.89-.55.64-1.29 2.57-1.29 3.21 0 .17.34.52.55.89.55.28 0 .52.03.72.09.09.03.19.04.21.11.04.1-.03.22-.11.36-.12.23-.3.48-.55.75-.18.2-.28.46-.27.72.04.94-.01 1.67-.46 2.06-.16.14-.39.2-.66.22-.43.02-.95-.07-1.58-.27-.12-.04-.25-.05-.38-.04-.76.06-1.34.02-1.69-.31-.32-.31-.35-.84-.25-1.55.06-.43-.16-.84-.54-1.03-.33-.16-.55-.32-.54-.53 0-.13.1-.23.22-.32.21-.16.52-.25.87-.25zm10.5 2c.28 0 .5.22.5.5s-.22.5-.5.5-.5-.22-.5-.5.22-.5.5-.5zm-17.5-1c.5 0 .93-.37.99-.87.07-.55-.32-1.05-.87-1.12l-.78-.17c-.1-.03-.23-.09-.34-.14.09-1.67.89-3.26.89-3.26.25-.49.05-1.1-.45-1.34-.49-.25-1.1-.05-1.34.45 0 0-1.11 2.23-1.11 4.45 0 .55.33 1.07.94 1.42.73.41 1.93.58 1.93.58h.13zm-17.5-9.01c-1.38 0-2.5 1.12-2.5 2.5s1.12 2.5 2.5 2.5 2.5-1.12 2.5-2.5-1.12-2.5-2.5-2.5zm35-1c-1.38 0-2.5 1.12-2.5 2.5s1.12 2.5 2.5 2.5 2.5-1.12 2.5-2.5-1.12-2.5-2.5-2.5zm-20.4-11.68c-4.99 1.6-8.68 3.92-8.44 8.49 1.34-1.5 2.72-2.59 2.72-2.59.43-.35 1.06-.28 1.4.16.35.43.28 1.06-.16 1.4 0 0-1.71 1.37-3.08 3.08-.81 1.01-1.54 2.13-1.54 3.14 0 .74.14 1.62.32 2.41 2.28-3.48 6.51-7.93 11.24-9.93-.54-.6-1.02-1.17-1.41-1.72-.67-.95-1.07-1.85-1.15-2.66-.06-.57-.03-1.17.09-1.78zm1.88 1.07c0 .17 0 .34.02.51.05.52.36 1.09.79 1.71.8 1.14 2.04 2.39 3.43 3.72 2.19 2.09 4.76 4.34 6.72 6.6.65.75 1.24 1.5 1.73 2.25.32-2.24.17-4.82-.61-6.81-.31-.81-1.11-1.76-2.03-2.72-2.36-2.44-5.63-4.84-5.63-4.84-.45-.33-.54-.95-.22-1.4.33-.45.95-.54 1.4-.22 0 0 3.42 2.51 5.89 5.06.47.49.91.99 1.29 1.47.13-.53.24-1.13.24-1.72 0-1.06-.88-2.29-2.12-3.45-2.03-1.91-5.12-3.55-7.88-3.55-1.1 0-1.87.52-2.36 1.23.02.02 5.07 5.06 5.07 5.06.39.39.39 1.02 0 1.42-.39.39-1.02.39-1.42 0zm-16.48 13.61c.28 0 .5.22.5.5s-.22.5-.5.5-.5-.22-.5-.5.22-.5.5-.5zm35-1c.28 0 .5.22.5.5s-.22.5-.5.5-.5-.22-.5-.5.22-.5.5-.5z" fill-rule="evenodd"/></svg>