<svg height="512pt" viewBox="-16 0 512 512.00034" width="512pt" xmlns="http://www.w3.org/2000/svg"><path d="m213.230469 282.847656c-3.976563-3.136718-7.570313-12.328125-9.679688-20.285156 10.40625-4.507812 29.726563-14.480469 36.210938-28.621094 2.796875-6.097656 3.035156-12.523437.691406-18.589844-3.828125-9.902343-85.875-85.335937-82.65625-110.429687 5.96875-46.570313-15.171875-97.921875-16.074219-100.085937-1.671875-4.007813-6.277344-5.898438-10.285156-4.226563s-5.902344 6.273437-4.234375 10.285156c.203125.492188 20.414063 49.691407 14.988281 92.027344-4.253906 33.167969 81.082032 111.625 83.582032 118.097656.824218 2.128907.730468 4.085938-.308594 6.351563-4.347656 9.503906-22.976563 19.128906-33.691406 22.964844-3.617188 1.289062-5.777344 5.003906-5.105469 8.785156.46875 2.648437 4.832031 25.671875 15.996093 35.398437-.769531 3.519531-6.984374 11.730469-13.828124 18.246094l-29.933594 10.675781c-4.09375 1.457032-6.226563 5.960938-4.765625 10.050782 1.148437 3.21875 4.175781 5.226562 7.410156 5.226562.875 0 1.769531-.148438 2.640625-.460938l24.707031-8.808593c2.554688 5.765625 4.886719 11.632812 5.773438 14.84375-2.082031 1.820312-17.308594 13.554687-20.753907 16.710937-2.789062 2.554688-10.101562 9.25-5.832031 16.339844 2.039063 4.84375 9.175781 36.441406-.535156 56.152344-4.019531 8.160156-10.347656 13.144531-19.335937 15.234375-9.726563 2.261719-20.886719-.265625-32.699219-2.949219-3.28125-.742188-6.578125-1.488281-9.886719-2.140625l-96.167969-19.816406c-4.261719-.875-8.417969 1.863281-9.292969 6.117187-.878906 4.257813 1.859376 8.417969 6.117188 9.292969l55.511719 11.4375c-11.503907 9.382813-19.316407 26.054687-24.425781 51.9375-.839844 4.261719 1.933593 8.398437 6.195312 9.242187.515625.101563 1.027344.148438 1.53125.148438 3.683594 0 6.96875-2.597656 7.710938-6.34375 4.605468-23.339844 11.699218-38.265625 21.085937-44.367188 7.902344-5.140624 17.652344-4.402343 28.789063-2.191406l2.910156.601563c2.105468.449219 4.25.929687 6.445312 1.429687 13.023438 2.953125 26.492188 6.007813 39.742188 2.929688 14.925781-3.472656 25.867187-13.003906 31.632812-27.5625 8.886719-22.433594 3.6875-51.234375-.046875-62.796875 2.863281-2.820313 25.609375-20.488281 26.878907-24.296875.726562-2.179688 2.179687-6.546875-7.707032-28.039063 6.5-6.632812 16.28125-18.296875 15.929688-28.097656-.148438-4.175781-2.007813-7.871094-5.234375-10.417969zm-31.785157 86.199219c.285157.429687.507813.863281.675782 1.292969-.25-.558594-.476563-.992188-.675782-1.292969zm0 0"/><path d="m479.734375 281.554688c-1.4375-4.097657-5.925781-6.257813-10.027344-4.820313-1.128906.394531-2.257812.785156-3.382812 1.164063-4.117188 1.390624-6.324219 5.851562-4.933594 9.96875 1.105469 3.28125 4.167969 5.351562 7.449219 5.351562.835937 0 1.683594-.132812 2.519531-.414062 1.179687-.398438 2.363281-.808594 3.550781-1.222657 4.101563-1.4375 6.261719-5.925781 4.824219-10.027343zm0 0"/><path d="m244.214844 262.566406c.769531.726563 19.25 17.953125 53.578125 31.171875 19.894531 7.664063 47.785156 14.851563 82.390625 14.851563 20.050781 0 42.355468-2.414063 66.664062-8.546875 4.210938-1.0625 6.765625-5.335938 5.703125-9.550781-1.0625-4.210938-5.339843-6.765626-9.550781-5.703126-61.886719 15.609376-109.652344 5.652344-138.824219-5.453124-31.671875-12.050782-48.972656-28.035157-49.171875-28.21875-3.15625-2.96875-8.128906-2.824219-11.105468.332031-2.984376 3.160156-2.84375 8.136719.316406 11.117187zm0 0"/><path d="m458.046875 349.492188c-2.882813.363281-5.777344.6875-8.605469.964843-4.324218.425781-7.480468 4.277344-7.054687 8.601563.398437 4.058594 3.824219 7.09375 7.820312 7.09375.257813 0 6.773438-.671875 9.792969-1.046875 4.3125-.542969 7.371094-4.472657 6.828125-8.785157-.539063-4.308593-4.472656-7.363281-8.78125-6.828124zm0 0"/><path d="m425.90625 359.855469c.03125-4.34375-3.46875-7.890625-7.8125-7.917969-83.902344-.566406-123.449219-39.5625-123.933594-40.050781-3.03125-3.097657-8-3.15625-11.105468-.132813-3.113282 3.03125-3.179688 8.011719-.148438 11.125 1.753906 1.800782 44.046875 44.175782 135.082031 44.789063h.050781c4.320313.003906 7.839844-3.488281 7.867188-7.8125zm0 0"/><path d="m436.523438 451.363281c-1.546876-.574219-3.082032-1.15625-4.609376-1.746093-4.050781-1.5625-8.605468.449218-10.171874 4.503906-1.566407 4.050781.449218 8.605468 4.5 10.171875 1.589843.613281 3.191406 1.21875 4.804687 1.820312.902344.335938 1.828125.492188 2.738281.492188 3.191406 0 6.195313-1.957031 7.375-5.128907 1.511719-4.070312-.5625-8.597656-4.636718-10.113281zm0 0"/><path d="m400.144531 435.570312c-16.316406-8.167968-32.128906-17.65625-47.007812-28.199218-3.542969-2.511719-8.453125-1.675782-10.96875 1.871094-2.511719 3.542968-1.671875 8.453124 1.871093 10.964843 15.527344 11.003907 32.035157 20.90625 49.0625 29.429688 1.128907.566406 2.332032.835937 3.515626.835937 2.882812 0 5.660156-1.59375 7.039062-4.347656 1.945312-3.886719.371094-8.613281-3.511719-10.554688zm0 0"/><path d="m332.476562 391.589844c-69.675781-57.292969-97.128906-123.710938-97.398437-124.375-1.628906-4.027344-6.207031-5.972656-10.234375-4.347656-4.03125 1.625-5.980469 6.207031-4.355469 10.238281 1.15625 2.855469 29.0625 70.664062 102 130.636719 1.460938 1.203124 3.230469 1.789062 4.988281 1.789062 2.273438 0 4.527344-.980469 6.082032-2.871094 2.757812-3.355468 2.277344-8.3125-1.082032-11.070312zm0 0"/></svg>