<svg id="Capa_1" enable-background="new 0 0 510.701 510.701" height="512" viewBox="0 0 510.701 510.701" width="512" xmlns="http://www.w3.org/2000/svg"><g><path d="m375.788 96.435 41.299 17.729c8.71 3.739 16.869 8.565 24.253 14.343 1.372 1.074 3 1.594 4.617 1.594 2.228 0 4.433-.988 5.911-2.878 2.553-3.262 1.978-7.976-1.284-10.528-8.402-6.575-17.682-12.064-27.579-16.313l-41.3-17.73c-7.697-3.303-14.676-7.908-20.742-13.688-13.846-13.193-21.786-31.727-21.786-50.85v-10.614c0-4.143-3.357-7.5-7.5-7.5s-7.5 3.357-7.5 7.5v10.613c0 23.207 9.637 45.699 26.438 61.709 7.363 7.015 15.832 12.604 25.173 16.613z"/><path d="m509.845 427.368-8.718-16.766c-.607-1.168-.929-2.481-.929-3.799v-83.827c0-11.941-4.998-23.256-13.747-31.306.003-.093.014-.184.014-.278l.001-24.859c18.902-40.602 14.444-88.231-11.784-124.721-2.418-3.366-7.107-4.13-10.467-1.713-3.364 2.417-4.131 7.104-1.713 10.467 23.356 32.495 27.076 75.035 9.708 111.021-.49 1.017-.745 2.131-.745 3.26v13.967l-70.216-59.972v-8.718c0-4.143-3.357-7.5-7.5-7.5s-7.5 3.357-7.5 7.5v104.918c0 10.252-1.847 20.477-5.381 30.089l-1.321-2.202c-3.903-6.506-10.132-10.999-17.537-12.652-7.404-1.648-14.952-.234-21.251 3.994-10.938 7.34-15.111 21.455-9.924 33.564l20.657 48.208c5.339 12.459 13.257 23.464 23.11 32.412-.001.169-.004.337.007.508l3.344 52.81c.252 3.973 3.552 7.026 7.479 7.026.159 0 .319-.005.48-.015 4.134-.262 7.273-3.825 7.012-7.959l-2.584-40.807c2.509 1.463 5.093 2.818 7.75 4.053l8.45 3.929 29.339 39.66c1.471 1.989 3.738 3.041 6.035 3.04 1.55 0 3.113-.479 4.454-1.471 3.33-2.463 4.033-7.159 1.569-10.489l-30.475-41.196c-.745-1.008-1.731-1.812-2.868-2.341l-10.183-4.734c-17.594-8.177-31.49-22.501-39.132-40.334l-20.657-48.207c-2.349-5.484-.459-11.878 4.495-15.202 2.854-1.915 6.273-2.557 9.625-1.809 3.354.748 6.175 2.783 7.942 5.729l15.096 25.159c3.141 5.232 8.882 8.483 14.984 8.483h10.226c8.61 0 15.864-6.168 17.248-14.667l1.533-9.419c.666-4.089-2.109-7.942-6.197-8.607-4.09-.664-7.942 2.109-8.607 6.197l-1.533 9.418c-.196 1.204-1.224 2.078-2.443 2.078h-10.226c-.864 0-1.678-.461-2.122-1.201l-4.3-7.167c7.133-14.182 10.907-30.003 10.907-45.88v-29.847l17.246 20.605c.499.596.714 1.378.589 2.146l-2.912 17.887c-.666 4.088 2.108 7.942 6.197 8.607.408.066.813.099 1.214.099 3.611 0 6.795-2.615 7.394-6.296l2.912-17.888c.825-5.073-.593-10.243-3.892-14.183l-28.748-34.346v-23.256l74.286 63.448c6.141 5.244 9.662 12.884 9.662 20.959v83.827c0 3.716.906 7.423 2.62 10.719l8.718 16.766c1.336 2.569 3.951 4.042 6.66 4.042 1.166 0 2.349-.273 3.454-.848 3.675-1.91 5.106-6.438 3.195-10.113z"/><path d="m310.151 305.566c-13.611 12.235-21.417 29.742-21.417 48.031 0 10.469 2.565 20.868 7.419 30.074 1.344 2.549 3.947 4.004 6.642 4.004 1.179 0 2.376-.279 3.491-.867 3.664-1.933 5.068-6.469 3.137-10.133-3.722-7.058-5.688-15.038-5.688-23.078 0-14.04 5.994-27.481 16.444-36.877 3.081-2.769 3.333-7.511.563-10.591-2.766-3.079-7.509-3.333-10.591-.563z"/><path d="m339.967 290.409c-4.054.853-6.648 4.829-5.797 8.883.743 3.533 3.859 5.959 7.332 5.959.512 0 1.03-.053 1.551-.162 6.271-1.318 12.938-1.402 19.26-.244 4.067.744 7.982-1.949 8.729-6.024.747-4.074-1.95-7.982-6.024-8.729-8.229-1.509-16.881-1.401-25.051.317z"/><path d="m179.024 0c-4.143 0-7.5 3.357-7.5 7.5v10.613c0 19.123-7.94 37.656-21.786 50.85-6.064 5.777-13.043 10.383-20.743 13.688l-41.299 17.729c-31.368 13.466-55.229 38.491-67.185 70.466-11.752 31.431-10.418 65.342 3.723 95.688v24.858c0 .089.01.176.013.264-8.742 7.905-13.745 19.103-13.745 30.929v13.298c0 4.143 3.357 7.5 7.5 7.5s7.5-3.357 7.5-7.5v-13.298c0-7.827 3.413-15.232 9.365-20.315l74.583-63.702v23.256l-28.748 34.345c-3.299 3.94-4.717 9.11-3.892 14.185l9.65 59.268c1.384 8.499 8.638 14.667 17.248 14.667h10.226c6.104 0 11.846-3.251 14.984-8.484l15.096-25.157c1.768-2.947 4.588-4.982 7.942-5.731 3.354-.748 6.771-.105 9.626 1.81 4.953 3.324 6.843 9.718 4.494 15.201l-20.657 48.208c-7.642 17.834-21.539 32.158-39.133 40.336l-10.182 4.732c-1.137.528-2.123 1.333-2.868 2.341l-30.475 41.196c-2.464 3.33-1.761 8.026 1.569 10.489 1.341.993 2.904 1.472 4.454 1.471 2.297 0 4.564-1.052 6.035-3.04l29.339-39.66 8.449-3.927c2.657-1.235 5.241-2.59 7.751-4.054l-2.584 40.806c-.262 4.134 2.878 7.697 7.012 7.959.161.01.321.015.48.015 3.926 0 7.227-3.054 7.479-7.026l3.344-52.81c.011-.171.007-.339.006-.508 9.852-8.948 17.771-19.953 23.11-32.412l20.657-48.209c5.188-12.108 1.015-26.224-9.923-33.563-6.3-4.228-13.849-5.646-21.253-3.993-7.405 1.652-13.634 6.146-17.536 12.653l-1.321 2.201c-3.534-9.614-5.381-19.838-5.381-30.091v-104.918c0-4.143-3.357-7.5-7.5-7.5s-7.5 3.357-7.5 7.5v8.718l-70.217 59.973v-13.968c0-1.129-.255-2.243-.745-3.26-13.042-27.022-14.437-57.382-3.928-85.486s31.484-50.101 59.056-61.937l41.298-17.729c9.344-4.011 17.813-9.6 25.174-16.612 16.802-16.011 26.438-38.502 26.438-61.709v-10.614c0-4.143-3.357-7.5-7.5-7.5zm-62.966 368.089c-.444.741-1.258 1.201-2.122 1.201h-10.226c-1.22 0-2.247-.874-2.443-2.077l-9.65-59.267c-.125-.769.09-1.551.589-2.147l17.246-20.604v29.848c0 15.877 3.773 31.698 10.907 45.88z"/><path d="m18.003 360.348c-4.143 0-7.5 3.357-7.5 7.5v39.163c0 1.182-.288 2.36-.833 3.408l-8.813 16.949c-1.911 3.675-.48 8.203 3.194 10.114 1.105.575 2.288.848 3.454.848 2.708 0 5.324-1.473 6.66-4.042l8.813-16.95c1.651-3.177 2.524-6.748 2.524-10.327v-39.163c.001-4.143-3.356-7.5-7.499-7.5z"/><path d="m200.55 305.566c-3.08-2.771-7.823-2.517-10.591.563-2.77 3.08-2.518 7.822.563 10.591 10.45 9.396 16.444 22.837 16.444 36.877 0 8.04-1.967 16.021-5.688 23.078-1.932 3.664-.527 8.2 3.137 10.133 1.116.588 2.312.867 3.491.867 2.694 0 5.298-1.456 6.642-4.004 4.854-9.206 7.419-19.605 7.419-30.074 0-18.288-7.806-35.795-21.417-48.031z"/><path d="m145.684 290.091c-4.074.747-6.771 4.655-6.024 8.729s4.661 6.775 8.729 6.024c6.323-1.158 12.988-1.073 19.26.244.521.109 1.039.162 1.551.162 3.472 0 6.589-2.426 7.332-5.959.852-4.054-1.743-8.03-5.797-8.883-8.171-1.717-16.823-1.825-25.051-.317z"/><path d="m256.147 0c-4.143 0-7.5 3.357-7.5 7.5v17.538c0 4.143 3.357 7.5 7.5 7.5s7.5-3.357 7.5-7.5v-17.538c0-4.143-3.357-7.5-7.5-7.5z"/><path d="m256.147 67.12c-4.143 0-7.5 3.357-7.5 7.5v17.537c0 4.143 3.357 7.5 7.5 7.5s7.5-3.357 7.5-7.5v-17.537c0-4.142-3.357-7.5-7.5-7.5z"/><path d="m256.147 134.239c-4.143 0-7.5 3.357-7.5 7.5v17.537c0 4.143 3.357 7.5 7.5 7.5s7.5-3.357 7.5-7.5v-17.537c0-4.142-3.357-7.5-7.5-7.5z"/><path d="m256.147 201.358c-4.143 0-7.5 3.357-7.5 7.5v17.538c0 4.143 3.357 7.5 7.5 7.5s7.5-3.357 7.5-7.5v-17.538c0-4.142-3.357-7.5-7.5-7.5z"/><path d="m256.147 268.479c-4.143 0-7.5 3.357-7.5 7.5v17.537c0 4.143 3.357 7.5 7.5 7.5s7.5-3.357 7.5-7.5v-17.537c0-4.143-3.357-7.5-7.5-7.5z"/><path d="m256.147 335.598c-4.143 0-7.5 3.357-7.5 7.5v17.538c0 4.143 3.357 7.5 7.5 7.5s7.5-3.357 7.5-7.5v-17.538c0-4.143-3.357-7.5-7.5-7.5z"/><path d="m256.147 402.718c-4.143 0-7.5 3.357-7.5 7.5v17.537c0 4.143 3.357 7.5 7.5 7.5s7.5-3.357 7.5-7.5v-17.537c0-4.143-3.357-7.5-7.5-7.5z"/><path d="m256.147 469.837c-4.143 0-7.5 3.357-7.5 7.5v17.537c0 4.143 3.357 7.5 7.5 7.5s7.5-3.357 7.5-7.5v-17.537c0-4.143-3.357-7.5-7.5-7.5z"/></g></svg>