<svg id="Image" height="512" viewBox="0 0 64 64" width="512" xmlns="http://www.w3.org/2000/svg"><path d="m57.8 50.4-3-4c-.11-.146-.258-.26-.428-.329l-4.177-1.671 3.771-14.143c.063-.236.037-.487-.072-.705l-5-10c-.128-.256-.361-.446-.638-.519s-.572-.024-.812.134l-5.085 3.39.638-10.497c.022-.36-.152-.705-.455-.9l-10.83-7c-.375-.242-.864-.207-1.2.086l-9.17 8c-.243.212-.369.528-.338.85l1.083 11.228-6.55-4.168c-.233-.148-.519-.194-.787-.125-.269.069-.496.246-.628.489l-6 11c-.133.244-.159.532-.071.795l4.787 14.362-6.489 5.562c-.415.356-.467.979-.117 1.399l5 6c.274.329.724.444 1.119.296l7.685-2.882 9.677 2.903c.12.036.246.048.37.039l12-1c.304-.025.58-.188.749-.442l1.65-2.476 6.376.911c.282.042.564-.04.782-.222l6-5c.409-.338.48-.939.16-1.365zm-23.084 2.341-1.551-6.205 2.764-1.382 5.351 3.567 1.139 1.709zm-5.075 5.107-8.366-2.51 1.358-4.073 9.691 3.23zm-2.312-11.763 3.855.771 1.405 5.619-8.737-2.912zm7.346-34.177-1.583-4.476 6.059 3.916zm-1.76 1.025-1.398 2.797-7.628-3.051 6.828-5.957zm-7.807 16.933.868 14.744-3.325 3.324-2.557-14.487zm-5.587 1.533-2.681-8.043 7.373 4.692zm-1.958.452-6.963-.696 4.178-7.659zm.584 2.069 2.564 14.529-5.913-2.217-4.361-13.082zm-3.945 14.224 6.544 2.454-1.281 3.844-4.911-3.274c-.205-.137-.451-.192-.696-.158l-3.6.514zm32.614-16.251 4.828-.69-3.485 13.069-4.732 2.028zm.416-2.079 1.215-6.684 3.038 6.076zm-1.933-.543-4.539-3.242 5.835-3.89zm-5.576-1.526 5.15 3.679-3.517 14.945-4.263-2.843zm5.277 24.255h5v2.847l-5-.714zm5.5-2h-5.965l-1.036-1.555 5.514-2.363 3.404 1.362zm-12.055-24.832c-.23.153-.386.395-.432.667l-2.916 17.498-2.097 1.049v-27.146l1.655-3.311 6.273-.784-.655 10.809zm-15.292-10.629 7.847 3.138v27.103l-3.047-.609-.955-16.229c-.019-.321-.19-.613-.461-.785l-2.309-1.469zm-10.84 43.275-3.398-4.078 4.848-.693 4.058 2.705zm29.123-.771-9.204.767 2.354-2.942 8.414-2.524v2.353zm10.564-3.178v-2.532l2-2.667 1.63 2.173z"/></svg>