<svg id="Layer_1" enable-background="new 0 0 512 512" height="512" viewBox="0 0 512 512" width="512" xmlns="http://www.w3.org/2000/svg"><g id="_x34_3_CLeansing_skin"><g><path d="m256 0c-125.6 0-227.9 102.2-227.9 227.9v152.5c0 37.4 30.4 67.8 67.8 67.8h38.4c3.4 3 6.9 5.8 10.5 8.4 51.7 36.8 89 55.4 111.1 55.4s59.5-18.6 111.1-55.4c3.7-2.6 7.2-5.5 10.5-8.4h38.4c37.4 0 67.8-30.4 67.8-67.8v-152.5c.2-125.7-102.1-227.9-227.7-227.9zm-157.6 345.6c0-42.4 0-72.2 0-115.4 0-22.6 13.1-43 33.4-52 37.8-16.8 78.3-25.4 118.8-26.1v348.8c-20.4-2.8-54.6-21-99.6-53-32.9-23.5-52.6-61.7-52.6-102.3zm-10.7-32.4c-10.9-.4-19.7-12.1-19.7-26.5s8.8-26.2 19.8-26.5c-.1 0-.1 53-.1 53zm273.2 134.7c-45 32-79.2 50.2-99.6 53v-348.9c40.6.7 81.1 9.3 118.9 26.1 20.3 9 33.4 29.4 33.4 52 0-.5 0 29.1 0 115.4 0 40.7-19.7 78.9-52.7 102.4zm63.4-187.7c10.9.3 19.8 12.1 19.8 26.5s-8.8 26.1-19.8 26.5zm48.9 120.2c0 31.5-25.6 57.1-57.1 57.1h-27.5c22.7-24.9 35.7-57.6 35.7-91.9v-21.8c16.8-.3 30.4-16.8 30.4-37.1s-13.6-36.8-30.4-37.1v-19.4c0-26.8-15.6-51.1-39.7-61.8-81.5-36.1-175.2-36.3-257 0-24.1 10.7-39.7 34.9-39.7 61.8v19.4c-16.8.3-30.4 16.8-30.4 37.1s13.6 36.8 30.4 37.1v21.8c0 34.3 13 67.1 35.7 91.9h-27.7c-31.5 0-57.1-25.6-57.1-57.1v-152.5c0-119.8 97.4-217.2 217.2-217.2s217.2 97.4 217.2 217.2z"/><path d="m224.7 179.7c-1.8-1.8-5.1-2.2-7.6 0-2.1 2.3-2 5.5 0 7.6 2.3 2.1 5.5 2 7.6 0 2.1-2.1 2.1-5.4 0-7.6z"/><path d="m119.1 254.5c-1.9 1.9-2.2 5.3 0 7.5 1.3 1.5 4.1 2.3 6.7.7 2.8-1.9 3.3-5.7.8-8.2-1.5-1.8-5.2-2.3-7.5 0z"/><path d="m178.4 226.1c2.3 2.3 5.6 1.9 7.5 0 1.9-1.8 2.3-5.2 0-7.5-2-2-5.5-2-7.5 0-2.3 2.1-2 5.8 0 7.5z"/><path d="m119.1 322.8c-1.9 1.8-2.3 5.2 0 7.5 1.9 2.2 5.9 2 7.5 0 2-1.8 2.3-5.4 0-7.5-1.3-1.6-5.1-2.4-7.5 0z"/><path d="m228.6 320.3c-2.3 2.3-1.9 5.7 0 7.5 2.2 2.2 5.6 2.1 7.5 0 2.2-2.1 2-5.7 0-7.5-1.9-2-5.5-2-7.5 0z"/><path d="m226.4 252.2c2.1 2.1 5.5 2.1 7.6 0 2-2 2.1-5.3 0-7.6-2.5-2.2-5.7-1.8-7.6 0-2.3 2.9-1.9 5.7 0 7.6z"/><path d="m134.3 216.3c1.9 1.9 5.3 2.2 7.5 0 2.1-2.1 2.2-5.4 0-7.6-1.4-1.5-3.8-2-5.8-1.1-3.6 1.5-4.4 6-1.7 8.7z"/><path d="m234 402.9c2.1-2.4 2-5.5 0-7.6-2.5-2.2-5.7-1.8-7.6 0-2.3 2.9-1.8 5.8 0 7.6 2.2 2.1 5.4 2.1 7.6 0z"/><path d="m204.2 444.3c-1.8-2-5.2-2.3-7.5 0-2.4 2.4-1.7 6.2 0 7.5 1.9 1.9 5.5 2.1 7.5 0 2.2-2 2.1-5.6 0-7.5z"/><path d="m185.9 356.5c-2-2-5.5-2-7.5 0-2.2 2-2 5.7 0 7.5 1.9 2.1 5.3 2.2 7.5 0 1.9-1.8 2.3-5.2 0-7.5z"/><path d="m211.3 356.5c-2 2-2.1 5.4 0 7.5 1.9 1.9 5.3 2.3 7.6 0 2-2 2.1-5.3 0-7.5-2-1.9-5.4-2.2-7.6 0z"/><path d="m198.2 412.3c2.1-2.1 2-5.7 0-7.6-1.8-1.9-5.3-2.2-7.5 0s-1.9 5.6 0 7.6c1.8 1.9 5.2 2.3 7.5 0z"/><path d="m228.6 458.3c-2 2-2.1 5.5 0 7.6 2 2 5.4 2.1 7.5 0s2.2-5.4 0-7.6c-1.9-2-5.5-2-7.5 0z"/><path d="m161.2 326.8c-2 2-2.1 5.4 0 7.5s5.5 2.1 7.6 0 2-5.5 0-7.5c-2.1-1.9-5.6-1.9-7.6 0z"/><path d="m134.3 356.5c-2.1 2-2.2 5.4 0 7.5 1.9 2.1 5.4 2.2 7.5 0 2.2-2 2.1-5.5 0-7.5-1.9-1.8-5.3-2.2-7.5 0z"/><path d="m158.7 404.8c-2.3-2.2-5.7-1.9-7.5 0-1.9 1.7-2.3 5.2 0 7.6 2 2 5.3 2.1 7.5 0 2.3-2.7 1.8-5.8 0-7.6z"/><path d="m216.1 283.4c2-2.2 1.8-5.6-.4-7.5-21.5-19.6-54-19.6-75.5 0-2.2 2-2.3 5.4-.4 7.5 2 2.2 5.4 2.3 7.5.4 3.9-3.5 8.2-6.2 12.8-8.2-.3 1.3-.5 2.6-.5 4 0 10.1 8.2 18.3 18.3 18.3s18.3-8.2 18.3-18.3c0-1.4-.2-2.7-.5-4 4.6 2 8.9 4.7 12.8 8.2 2.2 1.9 5.6 1.8 7.6-.4zm-38.2 3.9c-4.2 0-7.6-3.4-7.6-7.7s3.4-7.7 7.6-7.7 7.7 3.4 7.7 7.7-3.4 7.7-7.7 7.7z"/><path d="m296.3 275.9c-2.2 2-2.3 5.4-.4 7.5 2 2.2 5.4 2.3 7.5.4 3.9-3.5 8.2-6.2 12.8-8.2-.3 1.3-.5 2.6-.5 4 0 10.1 8.2 18.3 18.3 18.3s18.3-8.2 18.3-18.3c0-1.4-.2-2.7-.5-4 4.6 2 8.9 4.7 12.8 8.2 2.2 2 5.6 1.8 7.5-.4 2-2.2 1.8-5.6-.4-7.5-21.4-19.6-53.9-19.6-75.4 0zm37.7 11.4c-4.2 0-7.6-3.4-7.6-7.7s3.4-7.7 7.6-7.7 7.7 3.4 7.7 7.7-3.4 7.7-7.7 7.7z"/><path d="m457.2 233.2c-2.9 0-5.3-2.4-5.3-5.3 0-44.4-14.6-86.3-42.1-121.2-1.8-2.3-1.4-5.7.9-7.5s5.7-1.4 7.5.9c29 36.8 44.4 81 44.4 127.8-.1 2.9-2.5 5.3-5.4 5.3z"/></g></g></svg>