<?xml version="1.0" encoding="iso-8859-1"?>
<!-- Generator: Adobe Illustrator 19.0.0, SVG Export Plug-In . SVG Version: 6.00 Build 0)  -->
<svg version="1.1" id="Capa_1" xmlns="http://www.w3.org/2000/svg" xmlns:xlink="http://www.w3.org/1999/xlink" x="0px" y="0px"
	 viewBox="0 0 479.529 479.529" style="enable-background:new 0 0 479.529 479.529;" xml:space="preserve">
<g>
	<g>
		<path d="M421.188,199.726c-0.168-0.101-0.344-0.19-0.525-0.265l-0.16,0.04l-3.48-1.76c-9.609-4.951-21.269-3.524-29.4,3.6
			c-14.929,12.245-35.811,14.162-52.72,4.84c-2.063-0.789-4.376,0.245-5.165,2.308c-0.609,1.593-0.141,3.396,1.165,4.492
			c8.049,4.757,17.252,7.207,26.6,7.08c1.76,0,3.56,0,5.32-0.24c7.093-0.597,14.005-2.553,20.36-5.76h0.36
			c5.897-0.971,11.864,1.287,15.64,5.92c0.755,1.007,1.941,1.6,3.2,1.6c0.865,0,1.708-0.281,2.4-0.8
			c1.767-1.326,2.125-3.833,0.8-5.6c-3.02-3.955-7.224-6.842-12-8.24c5.652-4.627,13.517-5.445,20-2.08l3.48,1.72
			c1.893,1.139,4.351,0.528,5.49-1.365C423.692,203.323,423.081,200.865,421.188,199.726z"/>
	</g>
</g>
<g>
	<g>
		<path d="M417.063,142.421c-43.72-12-80-4.48-90.08,18.48c-0.901,2.01-0.007,4.371,2,5.28c2.02,0.895,4.383-0.016,5.278-2.035
			c0.001-0.001,0.001-0.003,0.002-0.005c8.4-18.88,41.56-24.64,80.68-14c2.132,0.585,4.335-0.668,4.92-2.8
			C420.449,145.209,419.195,143.006,417.063,142.421z"/>
	</g>
</g>
<g>
	<g>
		<path d="M253.858,207.559c-0.011-0.02-0.023-0.039-0.034-0.059c-1.154-1.871-3.601-2.46-5.48-1.32
			c-16.976,9.373-37.961,7.389-52.88-5c-8.138-6.99-19.701-8.35-29.24-3.44l-3.48,1.76c-2.039,0.849-3.004,3.191-2.155,5.23
			s3.191,3.004,5.23,2.155c0.181-0.075,0.357-0.164,0.525-0.265l3.48-1.72c6.481-3.376,14.352-2.557,20,2.08
			c-4.777,1.396-8.982,4.283-12,8.24c-1.325,1.767-0.967,4.275,0.8,5.6c0.692,0.519,1.534,0.8,2.4,0.8c1.259,0,2.445-0.593,3.2-1.6
			c3.76-4.605,9.695-6.847,15.56-5.88h0.36c6.358,3.193,13.27,5.134,20.36,5.72c1.76,0,3.56,0.24,5.32,0.24
			c9.336,0.132,18.528-2.318,26.56-7.08C254.299,211.92,254.959,209.475,253.858,207.559z"/>
	</g>
</g>
<g>
	<g>
		<path d="M256.265,160.905c-0.001-0.002-0.001-0.003-0.002-0.005c-10.16-22.96-46.36-30.36-90.08-18.48
			c-2.132,0.585-3.385,2.788-2.8,4.92c0.585,2.132,2.788,3.385,4.92,2.8c39.12-10.64,72.28-4.88,80.64,14
			c0.65,1.447,2.094,2.372,3.68,2.36c0.55,0.004,1.094-0.105,1.6-0.32C256.244,165.288,257.158,162.926,256.265,160.905z"/>
	</g>
</g>
<g>
	<g>
		<path d="M336.383,336.701c-6.066-10.538-15.655-18.598-27.08-22.76c-4.815-1.727-10.153-1.183-14.52,1.48
			c-1.964,1.097-4.356,1.097-6.32,0c-4.379-2.633-9.709-3.161-14.52-1.44c-11.418,4.152-21.007,12.197-27.08,22.72
			c-0.715,1.238-0.715,2.762,0,4c14.356,24.72,46.033,33.122,70.753,18.767c7.78-4.518,14.249-10.987,18.767-18.767
			C337.098,339.463,337.098,337.938,336.383,336.701z M291.783,358.421c-14.751,0.003-28.51-7.426-36.6-19.76
			c5.155-7.931,12.751-13.968,21.64-17.2c2.55-0.901,5.37-0.607,7.68,0.8c4.505,2.601,10.055,2.601,14.56,0
			c2.31-1.407,5.13-1.701,7.68-0.8c8.895,3.221,16.494,9.261,21.64,17.2C320.293,350.995,306.534,358.423,291.783,358.421z"/>
	</g>
</g>
<g>
	<g>
		<path d="M310.827,283.821c-1.498-1.283-3.706-1.283-5.204,0c-7.634,7.644-20.018,7.652-27.662,0.018
			c-0.006-0.006-0.012-0.012-0.018-0.018c-1.678-1.437-4.203-1.242-5.64,0.436c-1.283,1.498-1.283,3.706,0,5.204
			c5.166,5.159,12.179,8.039,19.48,8c7.301,0.039,14.314-2.841,19.48-8C312.7,287.783,312.505,285.258,310.827,283.821z"/>
	</g>
</g>
<g>
	<g>
		<path d="M419.103,104.541c-12.96-10.28-56-43.24-68.48-52.72c1.68-1.92,3.32-4,4.88-5.96c9.16-12,18.08-36,18.44-37
			c0.592-2.128-0.654-4.334-2.782-4.925c-1.885-0.524-3.872,0.392-4.698,2.165c0,0.24-8.92,24-17.32,34.88
			c-23.4,30.52-59.12,50.52-106.16,59l-88.32,18.24c-60.587,12.463-99.6,71.681-87.138,132.269
			c3.515,17.087,10.972,33.117,21.778,46.811l0.24,0.32c7.56,8.92,15.44,17.8,23.04,26.4c39.52,44.64,76.84,86.8,55.28,121.4
			c-3.12,5-18.16,19.16-36.4,18.08c-2.209-0.133-4.107,1.551-4.24,3.76c-0.133,2.209,1.551,4.107,3.76,4.24c0.84,0,1.68,0,2.48,0
			c16.341-0.627,31.5-8.686,41.16-21.88c24.72-39.68-14.52-84-56-130.92c-7.6-8.56-15.44-17.4-23-26.4
			c-35.541-45.121-27.775-110.51,17.345-146.052c8.083-6.367,17.065-11.499,26.655-15.228v124
			c0.069,32.853,13.704,64.219,37.68,86.68l73.64,68.72c9.031,8.401,20.906,13.074,33.24,13.08h14.88
			c12.432,0.014,24.403-4.706,33.48-13.2l46.2-42.8v18.04c-0.06,31.713,9.8,62.651,28.2,88.48c0.746,1.075,1.971,1.718,3.28,1.72
			c0.823,0.006,1.625-0.261,2.28-0.76c1.795-1.273,2.224-3.758,0.96-5.56c-17.451-24.527-26.794-53.898-26.72-84v-23
			c-0.019-0.708-0.227-1.398-0.6-2l20-18.68c23.965-22.465,37.586-53.832,37.64-86.68v-112.56
			c32.208,46.672,36.66,107.112,11.64,158c-0.974,1.983-0.156,4.38,1.827,5.354c0.004,0.002,0.009,0.004,0.013,0.006
			c0.554,0.25,1.152,0.386,1.76,0.4c1.53,0.003,2.927-0.866,3.6-2.24C496.503,235.501,478.183,151.501,419.103,104.541z
			 M435.823,133.341v121.72c-0.04,30.629-12.752,59.876-35.12,80.8l-73.64,68.76c-7.592,7.103-17.603,11.051-28,11.04h-14.88
			c-10.397,0.011-20.408-3.937-28-11.04l-73.64-68.76c-22.379-20.92-35.105-50.166-35.16-80.8v-126.72
			c2.933-0.88,5.893-1.64,8.88-2.28l88.24-18.2c42.64-8,76.44-24.68,100.72-50.08c11.64,8.88,56,42.64,68.92,53.04
			c8.018,6.381,15.363,13.565,21.92,21.44c-0.15,0.343-0.245,0.707-0.28,1.08H435.823z"/>
	</g>
</g>
<g>
	<g>
		<path d="M96.983,27.101c-1.736-1.352-4.238-1.048-5.6,0.68c-24.046,31.9-33.437,72.501-25.84,111.72
			c0.334,1.94,2.031,3.349,4,3.32h0.72c2.175-0.385,3.626-2.461,3.241-4.637c0-0.001,0-0.002-0.001-0.003
			c-7.276-36.995,1.507-75.34,24.16-105.48C99.016,30.965,98.712,28.462,96.983,27.101z"/>
	</g>
</g>
<g>
	<g>
		<path d="M95.198,109.987c-0.005-0.002-0.009-0.004-0.014-0.006c-2.042-0.842-4.381,0.131-5.223,2.173
			c-0.02,0.049-0.039,0.098-0.057,0.147c-3.951,9.504-6.939,19.38-8.92,29.48c-0.416,2.164,0.997,4.257,3.16,4.68
			c0.252,0.039,0.508,0.039,0.76,0c1.943,0.035,3.631-1.332,4-3.24c1.853-9.596,4.681-18.978,8.44-28
			C98.196,113.183,97.236,110.839,95.198,109.987z"/>
	</g>
</g>
<g>
	<g>
		<path d="M294.278,44.157c-1.383-1.723-3.901-1.998-5.623-0.614c-0.123,0.099-0.24,0.205-0.351,0.318v-0.12
			c-15.281,13.502-34.047,22.441-54.16,25.8c-2.209,0.199-3.839,2.151-3.64,4.36c0.199,2.209,2.151,3.839,4.36,3.64h0.76
			c21.569-3.621,41.683-13.241,58.04-27.76C295.386,48.397,295.661,45.88,294.278,44.157z"/>
	</g>
</g>
<g>
	<g>
		<path d="M314.223,16.381c-1.922-1.105-4.375-0.442-5.48,1.48l0.08,0.08c-2.268,3.991-4.779,7.838-7.52,11.52
			c-1.325,1.767-0.967,4.274,0.8,5.6c0.692,0.519,1.535,0.8,2.4,0.8c1.266-0.009,2.453-0.618,3.2-1.64
			c2.932-3.942,5.604-8.071,8-12.36C316.808,19.939,316.145,17.485,314.223,16.381z"/>
	</g>
</g>
<g>
	<g>
		<path d="M84.543,371.261l-38.36-16.68c-20.68-9.16-33.92-24-38.28-42.88c-0.497-2.154-2.646-3.497-4.8-3s-3.497,2.646-3,4.8
			c3.44,14.96,13.68,35.48,42.84,48.4l38.4,16.72c41.2,18,60.48,38.92,57.24,62.2c-0.306,2.188,1.219,4.21,3.407,4.516
			c0.011,0.002,0.022,0.003,0.033,0.004h0.56c2.021,0.017,3.737-1.476,4-3.48C150.583,414.581,129.503,390.821,84.543,371.261z"/>
	</g>
</g>
<g>
</g>
<g>
</g>
<g>
</g>
<g>
</g>
<g>
</g>
<g>
</g>
<g>
</g>
<g>
</g>
<g>
</g>
<g>
</g>
<g>
</g>
<g>
</g>
<g>
</g>
<g>
</g>
<g>
</g>
</svg>
