<svg clip-rule="evenodd" fill-rule="evenodd" height="512" stroke-linejoin="round" stroke-miterlimit="2" viewBox="0 0 267 267" width="512" xmlns="http://www.w3.org/2000/svg"><g id="Exp-1.-O"><g><path d="m86.309 191.446-.002-.054c-.423-11.376-5.768-20.55-9.94-30.66-4.66-11.296-8.093-23.596-3.913-40.299 3.436-13.732 13.81-23.632 24.889-34.249 10.007-9.59 20.576-19.885 25.499-35.416.407-1.283 1.409-2.291 2.69-2.705 1.281-.415 2.683-.185 3.764.617 10.598 7.859 17.383 25.756 14.164 42.769-1.315 6.949-1.79 10.252-1.462 12.686.317 2.34 1.404 3.794 2.827 7.088.904 2.093 3.119 4.973 5.326 8.169 2.626 3.802 5.245 7.972 6.497 11.826 1.093 3.365 1.188 6.564.063 9.348-.871 2.152-2.473 4.169-5.21 5.769.053 1.774.056 4.086-.159 6.112-.248 2.336-.885 4.352-1.656 5.496 0 0-.444.71-.445.709 1.869 4.181 1.464 9.683-1.908 13.503.119.672.375 2.105.559 3.098.503 2.712.71 5.797-.485 9.003-1.15 3.083-3.607 6.408-8.892 9.463-4.795 2.771-11.4 3.455-18.717 3.152-9.445-.391-20.205-2.362-28.912-1.488l-.004.001c-.136.013-.274.02-.412.02-.069 0-.139-.002-.208-.005l-.207-.015-.203-.026-.201-.034-.197-.045-.183-.05-.188-.062-.011-.004-.173-.066-.013-.005-.167-.073-.014-.006-.161-.08-.016-.008-.155-.087-.016-.009-.079-.049-.071-.044-.017-.011-.074-.051-.069-.047-.018-.013-.069-.053-.068-.051-.019-.014-.065-.055-.066-.054-.019-.017-.061-.056-.063-.058-.02-.018-.056-.057-.062-.061-.019-.021-.053-.059-.059-.063-.019-.023-.05-.061-.055-.065-.019-.025-.047-.063-.051-.067-.019-.027-.044-.065-.047-.069-.019-.029-.041-.067-.043-.07-.018-.031-.038-.07-.039-.069-.018-.034-.034-.072-.035-.07-.017-.036-.032-.075-.03-.07-.016-.038-.028-.077-.027-.07-.014-.04-.025-.079-.023-.07-.013-.042-.021-.081-.019-.07-.012-.045-.017-.081-.016-.07-.009-.047-.013-.082-.012-.071-.008-.05-.009-.08-.009-.074-.005-.051-.004-.078zm7.97-4.584c-1.072-8.293-4.246-15.655-7.549-23.146-5.131-11.635-10.6-23.646-6.192-41.26 3.063-12.243 12.693-20.789 22.571-30.256 9.575-9.176 19.449-19.065 25.379-32.767 5.893 7.355 8.916 19.201 6.784 30.467-1.588 8.395-1.929 12.41-1.532 15.35.41 3.034 1.59 5.007 3.434 9.276 1.656 3.836 7.148 10.179 10.281 16.301 1.231 2.407 2.311 4.684 1.53 6.614-.433 1.07-1.554 1.788-3.275 2.447-1.732.662-2.817 2.389-2.664 4.237 0 0 .26 3.105.112 6.081-.06 1.214-.451 3.193-.451 3.193s.07-.116.104-.163l-1.996 3.175c-.974 1.556-.814 3.566.392 4.949 1.235 1.416 1.265 3.954-.305 5.475-1.856 1.798-2.297 4.534-1.583 8.063.378 1.872 1.247 4.243.168 6.723-.722 1.657-2.314 3.249-5.143 4.883-3.624 2.095-8.67 2.27-14.202 2.041-8.348-.346-17.688-1.809-25.863-1.683z"/><path d="m205.051 117.188-2.096 5.665-5.666 2.097c-2.807 1.039-4.671 3.715-4.671 6.709 0 2.993 1.864 5.67 4.671 6.709l5.666 2.097 2.096 5.665c1.039 2.808 3.716 4.671 6.71 4.671 2.993 0 5.67-1.863 6.709-4.671l2.096-5.665 5.666-2.097c2.807-1.039 4.671-3.716 4.671-6.709 0-2.994-1.864-5.67-4.671-6.709l-5.666-2.097-2.096-5.665c-1.039-2.808-3.716-4.672-6.709-4.672-2.994 0-5.671 1.864-6.71 4.672zm6.71 5.881 1.655 4.473c.422 1.14 1.321 2.04 2.461 2.462l4.474 1.655-4.474 1.655c-1.14.422-2.039 1.321-2.461 2.462l-1.655 4.473-1.656-4.473c-.422-1.141-1.321-2.04-2.461-2.462l-4.473-1.655 4.473-1.655c1.14-.422 2.039-1.322 2.461-2.462z"/><path d="m173.894 148.098-2.114 5.714s-5.714 2.114-5.714 2.114c-2.807 1.039-4.671 3.716-4.671 6.709 0 2.994 1.864 5.671 4.671 6.709 0 0 5.714 2.114 5.714 2.114s2.114 5.714 2.114 5.714c1.038 2.807 3.715 4.671 6.709 4.671 2.993 0 5.67-1.864 6.709-4.671 0 0 2.114-5.714 2.114-5.714s5.714-2.114 5.714-2.114c2.807-1.038 4.671-3.715 4.671-6.709 0-2.993-1.864-5.67-4.672-6.709.001 0-5.713-2.114-5.713-2.114s-2.114-5.714-2.114-5.714c-1.039-2.807-3.716-4.671-6.709-4.671-2.994 0-5.671 1.864-6.709 4.672zm6.709 5.882 1.673 4.52c.422 1.141 1.321 2.04 2.462 2.462l4.52 1.673-4.52 1.673c-1.141.422-2.04 1.321-2.462 2.462l-1.673 4.52-1.673-4.52c-.422-1.141-1.321-2.04-2.462-2.462l-4.52-1.673 4.52-1.673c1.141-.422 2.04-1.321 2.462-2.462z"/><path d="m175.431 65.345-3.217 8.694s-8.694 3.216-8.694 3.216c-2.807 1.039-4.671 3.716-4.671 6.71 0 2.993 1.864 5.67 4.671 6.709 0 0 8.694 3.217 8.694 3.217s3.217 8.694 3.217 8.694c1.039 2.807 3.716 4.671 6.709 4.671 2.994 0 5.671-1.864 6.71-4.671 0 0 3.217-8.694 3.217-8.694-.001 0 8.693-3.217 8.693-3.217 2.808-1.039 4.671-3.716 4.671-6.709 0-2.994-1.863-5.671-4.671-6.71 0 0-8.694-3.216-8.694-3.216.001 0-3.216-8.694-3.216-8.694-1.039-2.808-3.716-4.671-6.71-4.671-2.993 0-5.67 1.863-6.709 4.671zm6.709 5.881 2.776 7.501c.422 1.141 1.321 2.04 2.462 2.462l7.501 2.776-7.501 2.775c-1.141.422-2.04 1.322-2.462 2.462l-2.776 7.501-2.775-7.501c-.422-1.14-1.322-2.04-2.462-2.462l-7.501-2.775 7.501-2.776c1.14-.422 2.04-1.321 2.462-2.462z"/><path d="m143.082 152.899c-.414.188-4.119 1.852-6.639 2.4-1.589.346-3.134.598-4.212.395-2.26-.426-4.441 1.063-4.867 3.322-.426 2.26 1.063 4.441 3.322 4.867 3.507.661 10.054-.767 14.184-2.548 2.402-1.035 4.062-2.339 4.702-3.227 1.344-1.865.921-4.472-.944-5.816-1.748-1.26-4.145-.968-5.546.607z"/><path d="m122.984 108.993c-8.544 6.135-18.45 3.052-18.45 3.052-2.195-.686-4.534.54-5.22 2.735-.685 2.195.54 4.533 2.735 5.219 0 0 13.852 4.339 25.795-4.236 1.868-1.341 2.296-3.947.955-5.815s-3.947-2.296-5.815-.955z"/><path d="m125.46 84.721c-8.584-.095-18.704-.604-32.545 6.774-2.029 1.082-2.798 3.608-1.717 5.637 1.082 2.03 3.608 2.799 5.637 1.717 12.122-6.462 21.015-5.879 28.533-5.795 2.299.025 4.187-1.821 4.213-4.121.025-2.299-1.821-4.187-4.121-4.212z"/><path d="m125.019 41.122c-3.294 23.411-18.511 36.197-31.453 48.684-9.622 9.285-18.068 18.461-21.112 30.627-4.289 17.139-.563 29.639 4.279 41.177 4.315 10.282 9.713 19.666 9.598 31.537-.161 16.601-14.036 28.686-14.036 28.686-1.728 1.517-1.899 4.152-.382 5.88s4.152 1.9 5.88.382c0 0 16.675-14.732 16.871-34.867.102-10.61-3.527-19.502-7.491-28.506-5.26-11.95-11.169-24.147-6.635-42.266 3.389-13.547 14.751-22.6 25.715-33.29 12.155-11.851 23.995-25.396 27.018-46.883.32-2.277-1.268-4.386-3.546-4.707-2.277-.32-4.386 1.269-4.706 3.546z"/><path d="m92.256 64.69c-18.895 15.276-42.532 31.805-45.556 67.034-.964 11.228-.307 20.419-.572 28.63-.358 11.128-2.606 20.266-14.551 30.64-1.736 1.508-1.921 4.142-.413 5.878s4.142 1.921 5.878.413c14.293-12.414 16.986-23.347 17.415-36.662.261-8.084-.403-17.132.546-28.186 2.782-32.409 25.11-47.214 42.492-61.267 1.788-1.446 2.066-4.071.62-5.86-1.445-1.788-4.071-2.066-5.859-.62z"/></g></g></svg>