<svg id="Line" height="512" viewBox="0 0 64 64" width="512" xmlns="http://www.w3.org/2000/svg"><g fill="rgb(0,0,0)"><path d="m46.95313 21.99512 11.78222-16.41212a1 1 0 0 0 -1.625-1.166l-11.78222 16.41161c-.96639 1.07641-.569 4.0987-.67974 5.42385a3.3391 3.3391 0 0 0 1.40532 2.78172 7.14731 7.14731 0 0 1 -3.35547 12.813l-3.37207.43847a16.30642 16.30642 0 0 0 -8.96484 4.17481l-9.88672 9.06738a9.44111 9.44111 0 0 1 -13.32128-.61925c-.14519-.18208-.0933-.38958.17866-.50184a23.26465 23.26465 0 0 0 12.53339-10.66143l3.65122-7.10032c.51943-1.21709 4.37769-5.435 5.22848-6.5396a12.15937 12.15937 0 0 0 2.06644-3.51167l7.96192-20.9126a1.0002 1.0002 0 0 0 -1.86916-.71185l-7.9619 20.91254c-.68245 2.2476-4.48353 6.05595-5.90816 7.90336-1.163 1.20244-4.07909 7.52508-4.94738 9.04485a21.35391 21.35391 0 0 1 -11.35135 9.66774 2.323 2.323 0 0 0 -1.06449 3.75323 11.44971 11.44971 0 0 0 16.15521.75035l9.88672-9.06726a14.32053 14.32053 0 0 1 7.87107-3.66509l3.37207-.43847a9.17655 9.17655 0 0 0 4.27031-16.41653 1.35448 1.35448 0 0 1 -.57794-1.13229l.0498-3.5127a1.35121 1.35121 0 0 1 .25489-.77389z"/><path d="m7.7041 18.64856v13.1947a2.76922 2.76922 0 0 0 5.53809-.00009v-13.14865a1.98478 1.98478 0 0 0 1.97461-1.98212v-10.72949a1.98521 1.98521 0 0 0 -1.98242-1.98291h-5.11038a1.98541 1.98541 0 0 0 -1.98337 1.98291v10.72949a1.98514 1.98514 0 0 0 1.56347 1.93616zm3.53809.04675v6.42823h-1.53809v-6.42823zm-.76856 13.917a.77.77 0 0 1 -.76953-.769v-4.71977h1.53809v4.71972a.76978.76978 0 0 1 -.76856.76904zm-2.333-26.61231 5.07617-.01709.01758 10.7124s-4.62369.01152-5.09376.01709z"/><path d="m11.54492 37.44385a1.04055 1.04055 0 0 0 -1.73243 0l-1.40917 2.44336a2.62893 2.62893 0 1 0 4.55267.00045zm-.32129 4.07324a.6289.6289 0 0 1 -1.08886-.62942l.54394-.94333c.19314.42785.85829 1.13002.54492 1.57275z"/></g></svg>