<svg id="Capa_1" enable-background="new 0 0 512.001 512.001" height="512" viewBox="0 0 512.001 512.001" width="512" xmlns="http://www.w3.org/2000/svg"><g><path d="m422.467 493.759c-1.545 0-3.109-.136-4.682-.417-6.975-1.247-13.045-5.136-17.095-10.949-.073-.104-.146-.21-.217-.315-.104.074-.208.148-.313.221-5.813 4.05-12.855 5.594-19.83 4.346-7.334-1.313-13.428-5.538-17.301-11.272-.107.076-.215.152-.323.229-5.813 4.051-12.852 5.595-19.831 4.345-6.973-1.247-13.044-5.136-17.094-10.949-.075-.108-.149-.217-.224-.326-5.621 4.036-12.804 5.887-20.135 4.577-12.56-2.246-21.482-13.04-21.846-25.316l-96.813-56.413c-3.579-2.086-4.79-6.678-2.704-10.257 2.085-3.577 6.677-4.787 10.256-2.704l100.826 58.751c2.72 1.586 4.161 4.701 3.606 7.801-1.118 6.255 3.061 12.254 9.315 13.373 6.25 1.122 12.254-3.061 13.373-9.316 1.617-9.041-.384-18.172-5.635-25.709-2.367-3.399-1.531-8.073 1.867-10.441 3.4-2.367 8.073-1.531 10.441 1.867 7.54 10.825 10.414 23.938 8.092 36.925-.001.007-.002.013-.004.02-.535 3.023.136 6.076 1.892 8.597 1.76 2.525 4.396 4.215 7.427 4.757 3.033.539 6.09-.129 8.616-1.888 2.525-1.76 4.215-4.396 4.757-7.427 2.049-11.454.296-22.946-5.069-33.235-1.915-3.673-.49-8.203 3.183-10.118 3.669-1.914 8.202-.492 10.118 3.183 6.909 13.25 9.171 28.044 6.539 42.786-.002.009-.003.017-.005.025-1.118 6.255 3.061 12.254 9.316 13.373 3.028.542 6.089-.128 8.615-1.888 2.525-1.76 4.215-4.397 4.757-7.428 2.455-13.728.679-27.65-5.138-40.263-1.734-3.761-.092-8.217 3.67-9.951 3.76-1.734 8.217-.092 9.951 3.67 7.108 15.412 9.281 32.421 6.282 49.185-.001.006-.002.013-.003.019-.536 3.024.135 6.076 1.891 8.598 1.76 2.525 4.397 4.215 7.428 4.757 6.252 1.12 12.254-3.06 13.373-9.316 2.857-15.981 1.076-32.306-5.151-47.209-1.598-3.821.206-8.215 4.028-9.812 3.818-1.6 8.215.206 9.812 4.028 5.156 12.339 7.729 25.501 7.636 38.766l7.508 4.335c6.551 3.782 14.162 4.714 21.431 2.627 7.19-2.064 13.103-6.823 16.67-13.413 2.795-6.386.755-14.705-4.506-18.398l-6.041-3.488c-44.898-25.923-84.167-62.196-113.562-104.899-2.349-3.412-1.486-8.082 1.925-10.431 3.412-2.351 8.083-1.486 10.431 1.925 28.138 40.878 65.728 75.601 108.705 100.415l6.291 3.632c.148.085.293.175.435.271 11.562 7.77 15.902 24.196 9.883 37.396-.063.137-.129.271-.2.404-5.481 10.326-14.677 17.786-25.892 21.005-11.218 3.222-22.963 1.782-33.068-4.054l-1.495-.863c-.024.136-.048.271-.072.406-2.294 12.817-13.501 21.85-26.097 21.85zm-394.966-45.027c-4.142 0-7.5-3.357-7.5-7.5v-22.5h-12.5c-4.142 0-7.5-3.357-7.5-7.5s3.358-7.5 7.5-7.5h12.5v-22.5c0-4.143 3.358-7.5 7.5-7.5s7.5 3.357 7.5 7.5v22.5h12.5c4.142 0 7.5 3.357 7.5 7.5s-3.358 7.5-7.5 7.5h-12.5v22.5c0 4.143-3.358 7.5-7.5 7.5zm93.307-28.931c-12.407 0-22.5-10.094-22.5-22.5s10.093-22.5 22.5-22.5 22.5 10.094 22.5 22.5-10.093 22.5-22.5 22.5zm0-30c-4.136 0-7.5 3.364-7.5 7.5s3.364 7.5 7.5 7.5 7.5-3.364 7.5-7.5-3.364-7.5-7.5-7.5zm45.281-11.507c-1.282 0-2.581-.329-3.769-1.021l-89.174-51.962c-18.627-10.854-31.796-29.191-36.13-50.31s.548-43.161 13.395-60.474l32.296-43.525-81.701-141.509c-2.071-3.587-.842-8.174 2.745-10.245 3.587-2.07 8.174-.843 10.245 2.745l84.164 145.774c1.495 2.589 1.309 5.818-.472 8.219l-35.23 47.479c-10.307 13.892-14.224 31.576-10.747 48.521 3.478 16.943 14.043 31.656 28.988 40.364l89.174 51.962c3.579 2.086 4.79 6.678 2.704 10.257-1.394 2.391-3.907 3.725-6.488 3.725zm140.277-22.341c-4.143 0-7.5-3.357-7.5-7.5v-22.5h-12.5c-4.143 0-7.5-3.357-7.5-7.5s3.357-7.5 7.5-7.5h12.5v-22.5c0-4.143 3.357-7.5 7.5-7.5s7.5 3.357 7.5 7.5v22.5h12.5c4.143 0 7.5 3.357 7.5 7.5s-3.357 7.5-7.5 7.5h-12.5v22.5c0 4.142-3.358 7.5-7.5 7.5zm56.92-53.905c-2.592 0-5.112-1.345-6.502-3.751l-155.196-268.804c-2.071-3.587-.842-8.174 2.745-10.245 3.587-2.07 8.173-.843 10.245 2.745l155.197 268.804c2.071 3.587.842 8.174-2.745 10.245-1.181.681-2.471 1.006-3.744 1.006zm121.215-16.39c-4.143 0-7.5-3.357-7.5-7.5v-22.5h-12.5c-4.143 0-7.5-3.357-7.5-7.5s3.357-7.5 7.5-7.5h12.5v-22.5c0-4.143 3.357-7.5 7.5-7.5s7.5 3.357 7.5 7.5v22.5h12.5c4.143 0 7.5 3.357 7.5 7.5s-3.357 7.5-7.5 7.5h-12.5v22.5c0 4.143-3.357 7.5-7.5 7.5zm-337.927-41.661c-1.282 0-2.582-.329-3.769-1.021-12.264-7.146-20.935-19.22-23.789-33.124-2.854-13.905.361-28.418 8.819-39.817 2.468-3.326 7.166-4.021 10.492-1.555 3.326 2.469 4.022 7.166 1.554 10.492-5.919 7.978-8.168 18.134-6.171 27.864s8.064 18.179 16.646 23.179c3.579 2.086 4.79 6.678 2.704 10.256-1.392 2.392-3.904 3.726-6.486 3.726zm182.908-89.599c-12.406 0-22.5-10.094-22.5-22.5s10.094-22.5 22.5-22.5 22.5 10.094 22.5 22.5-10.094 22.5-22.5 22.5zm0-30c-4.136 0-7.5 3.364-7.5 7.5s3.364 7.5 7.5 7.5 7.5-3.364 7.5-7.5-3.364-7.5-7.5-7.5z"/></g></svg>