<svg id="Layer_1" height="512" viewBox="0 0 256 256" width="512" xmlns="http://www.w3.org/2000/svg" data-name="Layer 1"><path d="m253 149.75h-83.957a3 3 0 0 1 0-6h83.957a3 3 0 0 1 0 6z"/><path d="m87 149.75h-84a3 3 0 1 1 0-6h84a3 3 0 0 1 0 6z"/><path d="m31.95 192.32a12 12 0 1 1 12-12 12.011 12.011 0 0 1 -12 12zm0-18a6 6 0 1 0 6 6 6 6 0 0 0 -6-5.995z"/><path d="m64 222.747a12 12 0 1 1 12-12 12.011 12.011 0 0 1 -12 12zm0-17.994a6 6 0 1 0 6 6 6 6 0 0 0 -6-6z"/><path d="m128 222.747a12 12 0 1 1 12-12 12.011 12.011 0 0 1 -12 12zm0-17.994a6 6 0 1 0 6 6 6 6 0 0 0 -6-6z"/><path d="m192 222.747a12 12 0 1 1 12-12 12.011 12.011 0 0 1 -12 12zm0-17.994a6 6 0 1 0 6 6 6 6 0 0 0 -6-6z"/><path d="m96 192.32a12 12 0 1 1 12-12 12.011 12.011 0 0 1 -12 12zm0-18a6 6 0 1 0 6 6 6.005 6.005 0 0 0 -6-5.995z"/><path d="m160.045 192.32a12 12 0 1 1 12-12 12.011 12.011 0 0 1 -12 12zm0-18a6 6 0 1 0 6 6 6 6 0 0 0 -6-5.995z"/><path d="m224.093 192.32a12 12 0 1 1 12-12 12.011 12.011 0 0 1 -12 12zm0-18a6 6 0 1 0 6 6 6 6 0 0 0 -6-5.995z"/><path d="m128 174.329c-18.13 0-32.88-17.531-32.88-39.08a44.759 44.759 0 0 1 3.465-17.5h-95.585a3 3 0 1 1 0-6h95.837a5.842 5.842 0 0 1 4.892 2.639 5.758 5.758 0 0 1 .489 5.453 39.28 39.28 0 0 0 -3.1 15.408c0 18.24 12.059 33.08 26.88 33.08s26.87-14.84 26.87-33.08a39.335 39.335 0 0 0 -3.1-15.409 5.755 5.755 0 0 1 .491-5.453 5.844 5.844 0 0 1 4.891-2.638h95.85a3 3 0 0 1 0 6h-95.6a44.791 44.791 0 0 1 3.469 17.5c.003 21.551-14.742 39.08-32.869 39.08z"/><path d="m136.46 109.069h-16.93a3 3 0 0 1 -3-3v-12.199h-12.19a3 3 0 0 1 -3-3v-16.931a3 3 0 0 1 3-3h12.19v-12.189a3 3 0 0 1 3-3h16.93a3 3 0 0 1 3 3v12.189h12.2a3 3 0 0 1 3 3v16.931a3 3 0 0 1 -3 3h-12.2v12.2a3 3 0 0 1 -3 2.999zm-13.93-6h10.93v-12.199a3 3 0 0 1 3-3h12.2v-10.931h-12.2a3 3 0 0 1 -3-3v-12.189h-10.93v12.189a3 3 0 0 1 -3 3h-12.19v10.931h12.19a3 3 0 0 1 3 3z"/><path d="m198.478 75.487h-12.964a3 3 0 0 1 -3-3v-8.639h-8.631a3 3 0 0 1 -3-3v-12.964a3 3 0 0 1 3-3h8.631v-8.631a3 3 0 0 1 3-3h12.964a3 3 0 0 1 3 3v8.631h8.639a3 3 0 0 1 3 3v12.964a3 3 0 0 1 -3 3h-8.639v8.639a3 3 0 0 1 -3 3zm-9.964-6h6.964v-8.639a3 3 0 0 1 3-3h8.639v-6.964h-8.639a3 3 0 0 1 -3-3v-8.631h-6.964v8.631a3 3 0 0 1 -3 3h-8.631v6.964h8.631a3 3 0 0 1 3 3z"/></svg>