<svg id="icons" height="512" viewBox="0 0 340 340" width="512" xmlns="http://www.w3.org/2000/svg"><path d="m327.7 217.561a38.651 38.651 0 0 0 -45.32-19.861c-17.236 4.954-37.846 13.491-55.8 12.5-12.8-.107-36-2.01-45.315-8.7a3.5 3.5 0 0 0 -4.889.768c-5.6 8.985 28.383 13.825 35.283 14.192 2.347 4.641 8.67 19.189 4.355 34.05a137.844 137.844 0 0 1 -12.5 30.112 104.625 104.625 0 0 1 -15.514-6.939c-4.055-2.145-7.375 3.845-3.373 6.135 20.487 12.3 56.6 18.318 86.963 10.965 25.728-1.715 79.672-19.95 56.11-73.222zm-3.546 36.872c-8.208 19.737-34.05 26.395-46.481 28.492a70.1 70.1 0 0 0 5.939-15.925 3.5 3.5 0 1 0 -6.81-1.621 63.633 63.633 0 0 1 -7.875 18.8c-23.618 4.791-43.217 2.916-58.575-1.4a147.023 147.023 0 0 0 12.385-30.325c4.175-14.384.052-28.053-3.092-35.454 17.044 1.44 32.159-2.194 48.346-7.465a93.349 93.349 0 0 1 9.009 25.055 3.5 3.5 0 1 0 6.862-1.378 99.946 99.946 0 0 0 -9.09-25.848c3.41-1.1 6.64-2.12 9.5-2.924a31.65 31.65 0 0 1 37.141 16.2c5.2 11.56 6.726 23.84 2.745 33.793z"/><path d="m163.883 255.091a47.778 47.778 0 0 0 -10.915-12.491c12.047-13.946 13.117-40.266 5.358-54.993a75.358 75.358 0 0 1 -7.741-21.727 154.2 154.2 0 0 1 15.775-7.44c4.729 1.978 22.6 11.1 25.581 36.95a3.5 3.5 0 0 0 6.954-.8c-2.6-22.537-15.227-34.069-23.683-39.366 26.33-8.075 49.091 15.68 50.1 39.905.241 4.56 7.073 4.372 6.993-.275-.47-30.577-32.833-56.316-59.906-46.084a143.322 143.322 0 0 0 -23.54 10.163 14.653 14.653 0 0 1 -18.545-3.62 22.992 22.992 0 0 0 -17.605-8.461l-17.016-.16c-7.638-.258-15.219 4.315-19.6 10a60.3 60.3 0 0 1 -12.6-5.194c-21.66-11.498-44.215-.366-53.778 20.947a30.2 30.2 0 0 0 .941 28.926c4.882 8.24 10.221 23.968 7.929 52.1-1.578 21.381 25.3 30.953 37.846 13.673a79.1 79.1 0 0 0 6.707-11.426 3.5 3.5 0 0 0 -1.667-4.661c-2.8-1.24-4.542.924-5.481 3.307-18.372-4.349-28.1-21.579-31.285-32.705-1.787-11.058-4.99-18.727-8.026-23.853a23.22 23.22 0 0 1 -.695-22.244c8.039-17.758 25.741-27.507 44.136-17.93a62.608 62.608 0 0 0 16.737 6.449c1.431.367 14.585 3.66 25.658 3.66a3.5 3.5 0 1 0 0-7 99.952 99.952 0 0 1 -18.564-2.241 16.787 16.787 0 0 1 11.671-4.814l17.016.16a16.125 16.125 0 0 1 12.621 6.335 21.53 21.53 0 0 0 18.526 7.476 82.581 82.581 0 0 0 8.348 23.21c6.808 12.921 5.552 36.628-5.117 47.89-11.021-5.96-26.423-5.672-39.1-8.529 16.43-16.182 12.969-46.069 12.8-47.456a3.5 3.5 0 0 0 -6.947.859c.04.321 3.649 31.362-13.653 44.064-5.425-2.36-7.019-4.7-7.043-4.738l.058.1-6.118 3.4c.344 1.729 9.529 10.506 29.578 12.362-13.224 7.572-26.1 28.787-28.648 46.851-7.245-24.126-18.9-46.469-19.8-48.158a40.526 40.526 0 0 0 -11.84-14.155c16.325-17.539 19.94-48.532 20.092-49.917a3.5 3.5 0 0 0 -6.957-.77c-.036.322-3.654 31.478-19.3 47.005a33.868 33.868 0 0 0 -3.794-1.493c-4.392-1.338-6.518 5.16-2.156 6.66 12.276 4.125 17.478 15.358 17.724 15.859.15.285 15.067 28.665 21.627 55.378a33.109 33.109 0 0 0 5.216 11.621c9.4 13.121 26.738 14.685 37.092 13.155 9.787 6.127 23.374 7.806 33.957.558 20.959-14.087 14.268-44.888 4.079-66.322zm-129.135-4.212a48.372 48.372 0 0 0 17.652 9.745c-3.747 7.22-12.65 10.89-19.855 6.757a13.872 13.872 0 0 1 -6.979-13.345c.382-4.688.559-9.061.565-13.14a50.768 50.768 0 0 0 8.617 9.983zm59.91 53.036c-4.468-22.25 12.6-57.8 34.535-63.342 11.789 1.985 20.534 5.421 28.585 17.933.615 1.276 1.188 2.546 1.737 3.813-8.276 3.766-28.185 16.314-35.831 51.723-5.758.589-20.86.926-29.026-10.127zm71.319-4.678c-2.35 17.629-20.835 25-35.443 16.228 6.953-32.124 24.46-43.341 31.539-46.633 3.691 10.587 5.004 20.777 3.904 30.405z"/><path d="m84.747 123.011h23.82a29.822 29.822 0 0 0 20.343-8.04 22.708 22.708 0 0 0 11.029 5.144l23.665 2.712c10.591 1.36 20.36-3.568 27.448-11.315a30 30 0 0 0 7.15 4.956c18.642 9.3 37.937 8.017 56.049-2.962 16.749-10.168 28.418-23.239 35.674-39.959 5.481-12.445-1.8-28.083-13.747-34.934-18.094-11.523-43.781 1.473-45.652 2.451-2.7 1.266-6.546 2.713-4.791 6.424a3.5 3.5 0 0 0 4.736 1.44c3.516-1.381 24-14.08 41.719-4.542 1.045 1.08 6.157 7.33-1.207 19.967-9.489 16.284-36.482 44.309-72.775 38.8 7-9.451 13.616-22.687 17.087-40.948 7.142-33.876-14.693-48.385-37.307-47.019a41.412 41.412 0 0 0 -21.611 4.756 3.5 3.5 0 0 0 3.274 6.188 34.53 34.53 0 0 1 18.02-3.953c13.053 3.335 18.758 17.235 14.989 34-6.538 32.709-27.482 55.537-52.176 56.937a16.059 16.059 0 0 1 -6.857-3.323c23.17-26.989 36.565-103.524-23-95.369-37.355 2.49-48.82 48.752-49.7 75.758-1.141 19.378 9.667 32.32 23.82 32.831zm122.764-12.125c36.794.193 71.152-33.665 74.35-57.025 3.054 5.335 3.792 11.945 1.642 16.9-12.106 27.411-45.993 56.5-81.188 39.927q2.63.201 5.196.198zm-7.987-53.335c2.668-13.981 1.15-24.538-5.759-33.086 14.4 5.677 17.953 18.312 14.653 36.431-5.139 27.035-17.5 42.077-26.964 49.935a22.732 22.732 0 0 1 -17.053 5.041l-4.821-.552c19.335-9.098 34.446-30.259 39.944-57.769zm-61.94-30.508c6.616 5.818 9.46 15.688 8.452 29.337-2.026 27.447-12.594 43.8-21.1 52.681a22.751 22.751 0 0 1 -16.367 6.95h-4.853c18.172-11.239 30.776-33.984 33.1-61.94 1.058-14.208-1.654-24.531-9.515-32.239a24.434 24.434 0 0 1 10.283 5.211zm-69.662 63.369c.089-2.711 2.628-66.275 43.148-69 13.342 1.818 20.611 14.977 18.773 32.078-2.77 33.241-20.978 58.31-45.352 62.51-11.125-.909-17.352-11.554-16.569-25.588z"/><path d="m242.519 243.373-3.624 2.54a3.5 3.5 0 1 0 4.017 5.732l3.624-2.54c3.722-2.705-.205-8.311-4.017-5.732z"/><path d="m42.341 168.649c-3.533-3.073-8.192 2.1-4.766 5.294 3.533 3.073 8.192-2.104 4.766-5.294z"/><path d="m35.081 190.766c-3.073 3.533 2.1 8.192 5.294 4.766 3.073-3.532-2.104-8.192-5.294-4.766z"/><path d="m279.607 248.2c-3.073 3.533 2.1 8.192 5.294 4.766 3.073-3.537-2.101-8.196-5.294-4.766z"/><path d="m229.775 270.184c-3.073 3.533 2.1 8.192 5.295 4.766 3.072-3.533-2.104-8.192-5.295-4.766z"/></svg>