<svg id="Layer_1" height="512" viewBox="0 0 512 512" width="512" xmlns="http://www.w3.org/2000/svg" data-name="Layer 1"><path d="m254.373 271.029h2.254a22.372 22.372 0 0 0 22.373-22.372v-16.257a22.372 22.372 0 0 0 -22.373-22.372h-2.254a22.372 22.372 0 0 0 -22.373 22.372v16.256a22.372 22.372 0 0 0 22.373 22.373zm-12.373-38.629a12.373 12.373 0 0 1 12.373-12.373h2.254a12.373 12.373 0 0 1 12.373 12.373v16.254a12.373 12.373 0 0 1 -12.373 12.373h-2.254a12.373 12.373 0 0 1 -12.373-12.371z"/><path d="m252.7 232.109a4.1 4.1 0 0 1 3.231 3.139 5 5 0 1 0 9.777-2.094 14.016 14.016 0 0 0 -11.191-10.879 5 5 0 1 0 -1.817 9.834z"/><path d="m254.373 350.029h2.254a22.372 22.372 0 0 0 22.373-22.372v-16.257a22.372 22.372 0 0 0 -22.373-22.372h-2.254a22.372 22.372 0 0 0 -22.373 22.372v16.256a22.372 22.372 0 0 0 22.373 22.373zm-12.373-38.629a12.373 12.373 0 0 1 12.373-12.373h2.254a12.373 12.373 0 0 1 12.373 12.373v16.254a12.373 12.373 0 0 1 -12.373 12.373h-2.254a12.373 12.373 0 0 1 -12.373-12.371z"/><path d="m252.7 311.229a4.1 4.1 0 0 1 3.231 3.139 5 5 0 1 0 9.777-2.094 14.016 14.016 0 0 0 -11.192-10.874 5 5 0 1 0 -1.817 9.834z"/><path d="m254.373 420.029h2.254a22.372 22.372 0 0 0 22.373-22.372v-16.257a22.372 22.372 0 0 0 -22.373-22.372h-2.254a22.372 22.372 0 0 0 -22.373 22.372v16.256a22.372 22.372 0 0 0 22.373 22.373zm-12.373-38.629a12.373 12.373 0 0 1 12.373-12.373h2.254a12.373 12.373 0 0 1 12.373 12.373v16.254a12.373 12.373 0 0 1 -12.373 12.373h-2.254a12.373 12.373 0 0 1 -12.373-12.371z"/><path d="m252.7 381.77a4.1 4.1 0 0 1 3.231 3.14 5 5 0 0 0 4.883 3.953 5.066 5.066 0 0 0 1.053-.111 5 5 0 0 0 3.841-5.937 14.016 14.016 0 0 0 -11.191-10.879 5 5 0 1 0 -1.817 9.834z"/><path d="m101.188 316.621c5.25-6.065 7.181-11.934 5.434-16.527-1.784-4.69-7.218-7.751-15.3-8.617a45.9 45.9 0 0 0 -13.589.656c-2.107-10.555-7.781-22.384-16.506-22.415-8.438-.045-14.861 11.019-17.433 21.1-10.29-2.4-23.233-1.754-27 5.907-4.113 8.37 4.955 20.731 14.586 27.406-5.427 8.25-9.325 19.654-3.831 25.856 2.2 2.487 5.668 3.757 10.057 3.756a30.792 30.792 0 0 0 7.386-1 44.852 44.852 0 0 0 15.14-7.043 45.469 45.469 0 0 0 11.581 8.843c4.289 2.274 8.233 3.422 11.6 3.421a10.921 10.921 0 0 0 6.192-1.726c4.176-2.8 5.932-8.8 4.947-16.89a45.986 45.986 0 0 0 -4-13.721 45.963 45.963 0 0 0 10.736-9.006zm-75.407-15.476c1.3-1.421 8.865-2.506 16.78-.356.184 8.8 4.044 14.714 8.561 18.029-2.507 1.043-6.03 1.2-10.3-.741-.177-.08-.357-.164-.538-.253-8.561-4.206-15.059-13.902-14.503-16.679zm31.367 33.8c-.362.38-.754.848-1.169 1.214-7.136 6.327-18.57 8.754-20.93 7.188-.732-1.58.7-8.277 5.393-14.8a25.38 25.38 0 0 0 6.811.956 19.469 19.469 0 0 0 11.35-3.617 9.061 9.061 0 0 0 2.376.138h.03c.068 3.005-1.009 5.939-3.861 8.922zm-.124-25.924a9.04 9.04 0 0 0 -1.18.7c-1.872-1.955-3.323-5.108-3.307-9.642 0-.776.047-1.561.129-2.343.975-9.523 6.429-17.448 8.463-18 1.941.772 5.71 7.429 7.054 15.695-6.615 3.535-9.983 8.728-11.159 13.591zm26.905 38.9c-2.268.746-11-2.913-16.78-9.3 4.446-6.509 4.671-13.461 2.589-18.706 3.048.1 6.686 1.958 9.7 6.437l.062.09c5.548 8.318 5.986 19.592 4.429 21.479zm1.06-30.649c-5.505-6.023-12.172-7.961-17.823-7.206 1.058-2.512 3.511-5.135 8.016-6.871.052-.018.105-.037.157-.057 8.861-3.344 20.279-1.679 21.922.515.205 2.374-5.201 9.459-12.272 13.619z"/><path d="m468.606 344.17c-2.574-6.765-13.247-8.375-21.986-6.977a40.248 40.248 0 0 0 -2.761-8.2c-3.515-7.206-7.715-8.966-10.62-8.966h-.031c-6.737 0-11.771 8.133-14 15.9-8.063-1.627-17.549-.658-20.569 5.485-3.347 6.811 3.189 16.229 10.427 21.629-4.043 6.541-6.538 15.024-2.136 20 1.9 2.147 4.834 3.244 8.511 3.244a24.425 24.425 0 0 0 5.857-.784 35.4 35.4 0 0 0 10.964-4.887 35.749 35.749 0 0 0 8.3 6.134 20.447 20.447 0 0 0 9.332 2.72 9.415 9.415 0 0 0 5.343-1.507c3.553-2.382 5.068-7.32 4.266-13.9a35.943 35.943 0 0 0 -2.672-9.733c7.381-4.849 14.347-13.393 11.775-20.158zm-60.8 1.879c1.634-.71 5.806-.958 10.155.053a18.168 18.168 0 0 0 4.989 11.936 10.1 10.1 0 0 1 -4.6-1c-.117-.052-.235-.107-.363-.171-5.208-2.557-9.605-8.339-10.18-10.818zm21.457 24.122c-.248.262-.517.52-.8.773-4.339 3.847-11.357 5.727-13.865 5.321-.017-1.633 1.136-5.261 3.5-8.8a20.224 20.224 0 0 0 4.608.548 15.875 15.875 0 0 0 8.776-2.505c.095.019.192.028.288.043a8.857 8.857 0 0 1 -2.506 4.62zm-.062-20.286a9.966 9.966 0 0 1 -1.289-5.282c0-.542.033-1.1.091-1.65.6-5.833 3.488-10.723 5.1-12.167 1.256 1.332 3.123 5.076 4.01 9.661a17.2 17.2 0 0 0 -7.913 9.438zm20.328 29.591c-2.1-.165-6.826-2.559-10.269-5.991a16.4 16.4 0 0 0 2.191-12.292 9.971 9.971 0 0 1 4.49 3.9l.013.019.01.014c3.287 4.902 4.273 11.936 3.566 14.35zm1.817-23.476a16.886 16.886 0 0 0 -11.3-5.213 10.686 10.686 0 0 1 4.137-2.689c.041-.014.083-.029.124-.045 5.5-2.074 12.528-1.461 14.734-.242-.631 1.808-3.621 5.571-7.695 8.189z"/><path d="m496 405.17c-19.262 0-29 4.4-38.428 8.655-8.847 4-17.2 7.77-34.313 7.77s-25.465-3.774-34.313-7.77c-8.45-3.816-17.182-7.738-32.784-8.509 2.6-20.344 15.776-96.351 70.684-141.09 27.735-22.6 66.084-86.612 71.986-120.165a16.355 16.355 0 0 0 -5.265-15.138c-11.51-10-45.658-29.363-145.157-47.39-6.583-20.177-26.031-32.782-45.487-29.421-26.651-22.912-56.831-22.297-80.307-19.112-30.783 4.176-40.8 19.267-44.036 27.889l-5.811 19.691c-67.392 13.736-136.449 28.044-157.626 52.078a16.708 16.708 0 0 0 -3.703 14.342c7.145 34.923 53.013 95.917 79.164 117.224 33.035 26.918 49.958 65.081 58.338 92.356a259.174 259.174 0 0 1 10 48.719c-15.8.733-24.6 4.682-33.108 8.524-8.848 4-17.2 7.77-34.313 7.77-17.151 0-25.915-3.79-35.193-7.8-9.8-4.24-20.027-8.623-39.247-8.623a5.073 5.073 0 0 0 -5.085 5v65.38a5.578 5.578 0 0 0 5.171 5.479h478.833c2.762 0 5-2.718 5-5.479v-65.38a5 5 0 0 0 -5-5zm-190.562-343.344c15.286-2.239 29.971 8.388 34.19 25.282 4.244 17.118-2.9 33.808-16.388 39.3-19.511-16.289-25.349-37.464-17.802-64.582zm-12.825 28.451c-13.655.584-48.012 3.037-79.579 13.267a95.5 95.5 0 0 1 -1.858-14.484c0-.124-.016-.247-.03-.37a48.569 48.569 0 0 0 -2.177-9.917c30.911-15.758 70.648-6.055 83.6-2.178a73.717 73.717 0 0 0 .044 13.682zm1.777 9.935a61.152 61.152 0 0 0 10.254 21.119l-35.606 47.3a52.226 52.226 0 0 1 -4.122-16.355c-1.207-11.007-4.553-25.087-13.63-29.661a13.707 13.707 0 0 0 -6.216-1.466 19.087 19.087 0 0 0 -9.638 2.914c-6.968 4.065-10.337 2.228-11.446 1.624-3.545-1.933-6.293-6.718-8.324-12.478 31.684-10.369 66.589-12.545 78.728-12.997zm16.954 28.847c1.56 1.564 3.2 3.093 4.955 4.578-6.814 17.1-20.326 41.985-31.94 44.888a12.1 12.1 0 0 1 -8.86-1.851zm-18.864 56.831c16.875-9.589 29.97-40.513 33.622-49.869a35.441 35.441 0 0 0 13.138-8.7c28.738 11.047 57.054 23.5 84.292 37.1-10.987 15.01-33 43.371-44 50.117-8.481 5.2-34.785 18.419-46.755 22.782-9.885 3.6-35.574-4.354-40.422-12.519-2.435-4.091-2.355-20.229.125-38.911zm-68.52-142.981c21.187-2.874 48.3-3.531 71.838 16.257-.7 2.514-1.283 4.987-1.774 7.425a170.116 170.116 0 0 0 -32.111-6.013c-22.441-1.939-41.8 1.227-57.659 9.386a19.749 19.749 0 0 0 -3.066-3.044 18.127 18.127 0 0 0 -12.723-3.8c6.281-14.212 24.807-18.761 35.495-20.211zm-64.374 115.132a12.6 12.6 0 0 0 6.979 4.975c-1.207 4.467-1.356 7.833-.44 10.045 1.031 2.491 3.372 3.626 5.875 4.792-.991 1.843-2.056 4.344-1.1 7.136a7.809 7.809 0 0 0 6.41 5.07c.088.765.159 1.73.216 2.52.331 4.541.784 10.761 4.994 14.81 8.134 7.823 20.773 4.59 30.931 1.994 1.357-.348 2.693-.689 3.992-1a1.032 1.032 0 0 1 .865.17.987.987 0 0 1 .411.738c.378 4.841.947 12.155-.134 15.142-3.667 10.13-11.567 22.61-37.735 14.057-11.579-3.784-19.453-9.3-42.6-26.171-11.444-8.341-36.077-38.206-44.784-48.952 20.155-15.578 47.347-28.623 77.637-37.247l-10.927 16.58a15.162 15.162 0 0 0 -2.618 8.466 12.525 12.525 0 0 0 2.028 6.875zm-62.666 98.433c-24.479-19.946-69.051-79.059-75.683-111.474a6.662 6.662 0 0 1 1.409-5.728c18.447-20.936 85.461-35.278 146.926-47.831l-3.172 10.788a9.745 9.745 0 0 0 .224 6.173l2.914 7.771c-33.42 9.374-63.381 24.019-85.059 41.584a68.5 68.5 0 0 1 -18.374-.65 5 5 0 0 0 -5.861 4.5 5.162 5.162 0 0 0 4.37 5.4 75.323 75.323 0 0 0 12.957 1.095q3.283 0 6.643-.27c7.188 8.94 34.836 42.872 48.153 52.577 24.119 17.578 32.369 23.341 45.382 27.6a60.839 60.839 0 0 0 18.762 3.346c15.108 0 25.847-7.932 31.483-23.5 1.663-4.591 1.341-11.06.725-19.033a11.392 11.392 0 0 0 -2.77-6.755 11.05 11.05 0 0 0 -10.82-3.392c-1.351.322-2.739.677-4.148 1.037-8.157 2.086-17.4 4.45-21.522.488-1.446-1.392-1.739-5.4-1.952-8.33a22.326 22.326 0 0 0 -1.129-6.7 7.424 7.424 0 0 0 -4.615-4.285 9.441 9.441 0 0 0 1.294-5.322c-.372-3.748-3.86-5.37-6.661-6.675-.234-.108-.507-.236-.78-.366a45.231 45.231 0 0 1 2.205-7.674 5.164 5.164 0 0 0 .1-3.532 5.006 5.006 0 0 0 -4.728-3.366c-2.707 0-4.684-.54-5.288-1.443a3.035 3.035 0 0 1 -.338-1.788 5.872 5.872 0 0 1 1.045-2.929l10.578-15.7a15.668 15.668 0 0 0 2.048-4.543 27.434 27.434 0 0 0 7.7 1.131 25.71 25.71 0 0 0 2.939-.167 5.148 5.148 0 0 0 4.645-5.219 5 5 0 0 0 -5.619-4.736 16.74 16.74 0 0 1 -10.635-2.234l-2.114-5.639a50.129 50.129 0 0 1 8.135 1.7 5 5 0 0 0 3.153-9.491 61.155 61.155 0 0 0 -12.1-2.362l8.078-27.435a9.237 9.237 0 0 0 2.857.112 8.7 8.7 0 0 1 6.738 1.6c3.124 2.459 5.32 7.75 6.192 14.911.214 4.508 2.27 36.186 18 44.771 4.3 2.348 11.488 3.949 21.28-1.762 3.988-2.327 5.741-1.445 6.315-1.156 3.784 1.907 6.923 10.268 8.191 21.821 1.687 15.38 6.627 25.961 14.682 31.447a22.664 22.664 0 0 0 12.379 3.9c-3.312 27.509-.427 37.592 1.715 41.2 6.251 10.529 27.969 18.171 43.079 18.17a27.967 27.967 0 0 0 9.365-1.362c12.69-4.625 39.549-18.129 48.558-23.652 14.621-8.964 41.6-45.48 48.657-55.231 2.167.167 4.314.257 6.43.257a75.169 75.169 0 0 0 9.391-.576 5.146 5.146 0 0 0 4.591-5.172 5 5 0 0 0 -5.64-4.775 69.345 69.345 0 0 1 -15.76.138c-28.081-14.207-57.338-27.211-87.063-38.733a46.5 46.5 0 0 0 5.223-26.903c97.64 18.047 127.879 36.96 136.413 44.372a6.309 6.309 0 0 1 1.973 5.856c-5.489 31.2-42.6 93.076-68.454 114.146-35.032 28.54-53.532 68.695-62.882 97.354-9.224 28.269-11.571 50.693-11.964 55.115a4.952 4.952 0 0 0 -.168 1.219l-.023 14.493c-14.788 13.143-48.516 21.554-87 21.554-38.722 0-72.632-8.516-87.272-21.8l-1.959-14.56h.084c-.048-1-1.291-24.973-10.766-55.928-8.777-28.69-26.603-68.88-61.662-97.447zm394.08 214.555h-469v-55.745c14 .662 21.947 4.085 30.278 7.687 9.8 4.24 19.984 8.624 39.205 8.624 19.261 0 29.026-4.4 38.449-8.656 8.061-3.64 15.724-7.1 29.962-7.682l1.649 12.225a5 5 0 0 0 1.423 2.869c8.442 8.443 21.975 15.04 40.217 19.61 16.321 4.087 35.448 6.248 55.314 6.248s38.993-2.161 55.313-6.248c18.242-4.57 31.774-11.167 40.216-19.61a5 5 0 0 0 1.465-3.528l.019-11.539c13.834.661 21.38 4.069 29.321 7.655 9.423 4.261 19.169 8.661 38.428 8.661s29.006-4.4 38.429-8.656c7.939-3.585 15.483-6.993 29.312-7.654z"/></svg>