<svg id="Слой_1" enable-background="new 0 0 300 300" height="512" viewBox="0 0 300 300" width="512" xmlns="http://www.w3.org/2000/svg"><g fill="rgb(0,0,0)"><path d="m28.303 204.405c.553 0 1.106-.211 1.527-.633l31.718-31.717c5.801-5.8 9.311-13.503 9.886-21.687l3.597-51.299c.246-3.499 1.51-6.81 3.656-9.58l30.371-39.209c3.529-4.559 9.86-5.664 14.726-2.565 2.614 1.663 4.369 4.256 4.944 7.301.576 3.044-.115 6.099-1.942 8.601l-24.343 33.329c-.579.794-.549 1.879.072 2.639.193.237 19.323 23.911 17.948 42.721-.086 1.189.808 2.224 1.997 2.311 1.189.067 2.224-.808 2.311-1.997.823-11.275-4.709-23.659-10.003-32.705.546-.004 1.092-.212 1.509-.629l84.436-84.436c2.278-2.276 5.305-3.531 8.525-3.531s6.247 1.255 8.525 3.531c2.276 2.278 3.531 5.305 3.531 8.525 0 3.221-1.255 6.248-3.531 8.526l-46.238 46.238-6.031 6.031c-.844.844-.844 2.21 0 3.054s2.21.844 3.054 0l4.053-4.053c4.235 8.058 16.094 37.539-5.132 85.3-5.788 13.024-8.787 25.717-10.029 37.509l-18.053 8.023c-3.831 1.703-7.277 4.07-10.244 7.037l-36.022 36.022c-.844.844-.844 2.21 0 3.054.422.422.974.633 1.527.633s1.105-.211 1.527-.633l36.022-36.022c2.591-2.59 5.6-4.657 8.945-6.143l15.872-7.054c-2.303 34.818 10.322 60.563 10.499 60.915.379.754 1.14 1.188 1.931 1.188.326 0 .657-.074.969-.231 1.065-.536 1.494-1.834.957-2.9-.234-.466-23.224-47.288.044-99.644 23.24-52.288 8.561-83.155 4.384-90.251l4.014-4.014c4.161 7.668 20.148 42.596-2.036 92.511-24.091 54.205-.2 102.856.044 103.341.379.754 1.14 1.188 1.931 1.188.326 0 .657-.074.969-.231 1.065-.536 1.494-1.834.957-2.9-.234-.466-23.224-47.288.044-99.644 24.369-54.829 4.814-91.539 1.27-97.445l3.947-3.947c4.505 7.335 21.65 39.913 4.232 86.807-28.2 75.923 5.443 115.009 6.888 116.636.427.48 1.02.724 1.615.724.51 0 1.022-.18 1.434-.545.891-.793.971-2.157.179-3.049-.283-.317-23.51-27.333-14.962-79.337l35.563-35.563c.666 4.728 1.428 9.501 2.298 14.277-1.525 4.86-3.171 9.848-4.958 14.97-6.481 18.581-10.075 40.864-10.678 66.233-.028 1.193.914 2.182 2.107 2.21.018.001.035.001.053.001 1.168 0 2.13-.933 2.157-2.108.594-24.92 4.106-46.76 10.44-64.913.895-2.564 1.752-5.092 2.581-7.589 12.06 60.057-6.285 91.83-6.474 92.146-.609 1.024-.276 2.349.747 2.96.348.208.73.307 1.107.307.733 0 1.447-.373 1.852-1.047.812-1.353 19.719-33.836 6.742-96.563-.435-2.104-.84-4.213-1.231-6.323 3.05-9.766 5.6-18.985 7.723-27.635.481 3.321.984 6.569 1.508 9.715 1.497 9.005 3.2 17.479 5.061 25.188 5.621 23.289 6.799 44.978 3.5 64.464-.199 1.176.593 2.29 1.768 2.489.122.021.244.031.363.031 1.034 0 1.949-.745 2.127-1.799 3.397-20.066 2.201-42.34-3.559-66.2-1.837-7.608-3.519-15.978-5-24.882-.749-4.5-1.457-9.209-2.115-14.049l23.03-23.029c6.384-6.384 6.384-16.773 0-23.158-3.325-3.325-7.842-4.926-12.312-4.738l18.343-18.343c6.384-6.384 6.384-16.772 0-23.157-3.094-3.094-7.206-4.796-11.579-4.796-.238 0-.473.025-.709.035l.226-.226c6.384-6.384 6.384-16.772 0-23.157-6.385-6.385-16.774-6.385-23.158 0l-8.267 8.267c.01-.237.035-.472.035-.71 0-4.374-1.704-8.486-4.796-11.578-3.097-3.095-7.209-4.799-11.583-4.799s-8.486 1.704-11.578 4.796l-84.436 84.436c-.162.162-.264.355-.364.548-2.471-3.927-4.707-6.975-5.962-8.61l23.377-32.006c2.539-3.476 3.497-7.719 2.698-11.95-.798-4.23-3.238-7.832-6.87-10.143-6.757-4.3-15.551-2.767-20.458 3.565l-30.371 39.209c-2.67 3.446-4.243 7.569-4.55 11.922l-3.597 51.3c-.501 7.146-3.567 13.87-8.631 18.935l-31.718 31.717c-.844.844-.844 2.21 0 3.054.422.421.975.632 1.527.632zm198.688-34.925c-6.365-40.722-5.328-79.353-5.115-85.38l8.251-8.251c.214 8.395.875 26.319 2.876 47.388.508 5.36 1.09 10.616 1.709 15.739-2.008 9.413-4.542 19.593-7.721 30.504zm10.5-44.821c-.06-.614-.129-1.214-.187-1.831-2.443-25.735-2.876-46.725-2.944-51.212l7.304-7.303c.645 8.52 1.224 29.249-4.173 60.346zm22.488-21.405c4.701 4.701 4.701 12.35 0 17.051l-20.681 20.68c-.065-.52-.123-1.066-.187-1.59 3.1-14.488 4.968-27.132 6.045-37.841 4.68-2.878 10.878-2.244 14.823 1.7zm-2.494-49.768c3.22 0 6.248 1.254 8.526 3.531 4.701 4.701 4.701 12.349 0 17.05l-20.217 20.217c1.406-18.858.292-30.422-.156-33.945l3.322-3.322c2.277-2.278 5.305-3.531 8.525-3.531zm-20.587-24.614c4.699-4.699 12.349-4.702 17.051 0 4.701 4.701 4.701 12.349 0 17.05l-23.296 23.295c-.002.002-.003.003-.004.004l-26.817 26.816c-.844.844-.844 2.21 0 3.054.422.422.974.633 1.527.633s1.105-.211 1.527-.633l10.555-10.555c-.125 6.578-.175 18.638.543 33.557l-7.84 7.839s-.001.001-.001.001l-4.444 4.443c-.844.844-.844 2.21 0 3.054.422.422.974.633 1.527.633s1.105-.211 1.527-.633l9.54-9.539c.571 9.642 1.476 20.256 2.871 31.229l-33.419 33.419c1.705-7.938 4.131-16.4 7.473-25.397 19.004-51.164-1.025-85.253-5.14-91.45l30.738-30.738z"/><path d="m238.54 282.998c.697 0 1.381-.336 1.797-.961.14-.21 3.469-5.261 6.627-15.106.365-1.137-.26-2.352-1.396-2.716-1.137-.368-2.351.26-2.716 1.396-2.954 9.21-6.079 13.987-6.11 14.034-.657.993-.387 2.332.605 2.991.368.245.783.362 1.193.362z"/><path d="m239.739 248.427c.104.015.207.022.309.022 1.057 0 1.98-.777 2.134-1.854 4.329-30.301-3.982-64.184-4.339-65.611-.288-1.158-1.458-1.863-2.618-1.572-1.157.289-1.861 1.46-1.572 2.618.085.341 8.465 34.481 4.255 63.954-.169 1.181.651 2.274 1.831 2.443z"/></g></svg>