<?xml version="1.0" encoding="iso-8859-1"?>
<!-- Generator: Adobe Illustrator 19.0.0, SVG Export Plug-In . SVG Version: 6.00 Build 0)  -->
<svg version="1.1" id="Layer_1" xmlns="http://www.w3.org/2000/svg" xmlns:xlink="http://www.w3.org/1999/xlink" x="0px" y="0px"
	 viewBox="0 0 512 512" style="enable-background:new 0 0 512 512;" xml:space="preserve">
<g>
	<g>
		<g>
			<path d="M256,469.322c35.285,0,64-28.715,64-64c0-17.515-7.36-34.304-20.309-46.464C235.392,191.69,318.08,17.055,318.933,15.306
				c2.411-4.992,0.597-10.987-4.16-13.824c-4.736-2.773-10.901-1.536-14.123,2.987C296.213,10.655,192,159.391,192,405.322
				C192,440.607,220.715,469.322,256,469.322z"/>
			<path d="M32,426.655c-17.664,0-32,14.336-32,32c0,17.664,14.336,32,32,32s32-14.336,32-32C64,440.991,49.664,426.655,32,426.655z
				"/>
			<path d="M117.333,447.988c-17.664,0-32,14.336-32,32s14.336,32,32,32s32-14.336,32-32S134.997,447.988,117.333,447.988z"/>
			<path d="M394.667,426.655c-17.664,0-32,14.336-32,32c0,17.664,14.336,32,32,32s32-14.336,32-32
				C426.667,440.991,412.331,426.655,394.667,426.655z"/>
			<path d="M480,405.322c5.888,0,10.667-4.779,10.667-10.667c0-5.888-4.779-10.667-10.667-10.667H350.933
				c-3.029,0-5.931,1.301-7.957,3.563c-2.027,2.261-2.987,5.291-2.667,8.299l0.448,3.392c0.277,1.984,0.576,3.989,0.576,6.08
				c0,47.061-38.272,85.333-85.333,85.333s-85.333-38.272-85.333-85.333c0-2.027,0.299-3.968,0.555-5.909l0.427-3.349
				c0.085-0.832,0.021-1.899-0.064-2.731c-0.661-5.333-5.205-9.344-10.581-9.344H10.667C4.779,383.988,0,388.767,0,394.655
				c0,5.888,4.779,10.667,10.667,10.667h138.667c0,58.816,47.851,106.667,106.667,106.667s106.667-47.851,106.667-106.667H480z"/>
			<path d="M480,447.988c-17.664,0-32,14.336-32,32s14.336,32,32,32c17.664,0,32-14.336,32-32S497.664,447.988,480,447.988z"/>
		</g>
	</g>
</g>
<g>
</g>
<g>
</g>
<g>
</g>
<g>
</g>
<g>
</g>
<g>
</g>
<g>
</g>
<g>
</g>
<g>
</g>
<g>
</g>
<g>
</g>
<g>
</g>
<g>
</g>
<g>
</g>
<g>
</g>
</svg>
