<?xml version="1.0" encoding="UTF-8"?>
<svg xmlns="http://www.w3.org/2000/svg" id="Icons" viewBox="0 0 60 60" width="512" height="512"><path d="M44,2C37.24,2,31.944,7.145,30,9.329,28.056,7.145,22.76,2,16,2,5.607,2,0,10.289,0,18.088,0,38.39,23.733,54.53,28.491,57.56a2.824,2.824,0,0,0,3.018,0C36.267,54.53,60,38.39,60,18.088,60,10.289,54.393,2,44,2ZM22,34V50.4c-1.276-1.029-2.625-2.177-4-3.432V34a1,1,0,0,0-1-1,6.006,6.006,0,0,1-6-6V17.11a1.09,1.09,0,0,1,.746-1.079.985.985,0,0,1,.967.276A.959.959,0,0,1,13,17v6.89a3.076,3.076,0,0,0,2.74,3.1,2.971,2.971,0,0,0,2.367-.86A2.937,2.937,0,0,0,19,24V17.11a1.09,1.09,0,0,1,.746-1.079.985.985,0,0,1,.967.276A.959.959,0,0,1,21,17v6.89a3.076,3.076,0,0,0,2.74,3.1,2.971,2.971,0,0,0,2.367-.86A2.937,2.937,0,0,0,27,24V17.11a1.09,1.09,0,0,1,.746-1.079.986.986,0,0,1,.967.276A.959.959,0,0,1,29,17V27a6.006,6.006,0,0,1-6,6A1,1,0,0,0,22,34Zm18,9v5.735c-1.41,1.208-2.76,2.284-4,3.229L36,15a8.018,8.018,0,0,1,7,7.938V40a2,2,0,0,1-2,2A1,1,0,0,0,40,43Zm2,3.963v-3.09A4.005,4.005,0,0,0,45,40V22.94a10.018,10.018,0,0,0-8.745-9.921,1.96,1.96,0,0,0-1.564.474A2.015,2.015,0,0,0,34,15.01V53.445c-1.558,1.121-2.811,1.947-3.565,2.427a.806.806,0,0,1-.87,0C28.51,55.2,26.486,53.857,24,51.963V34.938A8.014,8.014,0,0,0,31,27V17a2.922,2.922,0,0,0-.876-2.11,2.981,2.981,0,0,0-2.859-.8A3.072,3.072,0,0,0,25,17.11V24a.976.976,0,0,1-.306.712,1,1,0,0,1-.789.282A1.08,1.08,0,0,1,23,23.89V17a2.922,2.922,0,0,0-.876-2.11,2.982,2.982,0,0,0-2.859-.8A3.072,3.072,0,0,0,17,17.11V24a.976.976,0,0,1-.306.712,1.007,1.007,0,0,1-.789.282,1.08,1.08,0,0,1-.9-1.1V17a2.922,2.922,0,0,0-.876-2.11,2.982,2.982,0,0,0-2.859-.8A3.072,3.072,0,0,0,9,17.11V27a8.014,8.014,0,0,0,7,7.938V45.072C8.97,38.19,2,28.7,2,18.088,2,11.259,6.906,4,16,4c7.4,0,13.147,7.417,13.2,7.492a1.038,1.038,0,0,0,1.59,0C30.853,11.417,36.6,4,44,4c9.094,0,14,7.259,14,14.088C58,29.707,49.642,39.987,42,46.963Z"/></svg>
