<svg id="Capa_1" enable-background="new 0 0 512 512" height="512" viewBox="0 0 512 512" width="512" xmlns="http://www.w3.org/2000/svg"><g><g><path d="m487.226 330.323c-4.955 0-9.786.504-14.534 1.272 3.98-7.837 6.276-16.673 6.276-26.046v-39.482c0-27.086-12.833-51.126-33.032-66.197v-125.547c-.001-40.977-33.338-74.323-74.323-74.323h-33.032c-40.985 0-74.323 33.346-74.323 74.323v125.547c-17.639 13.155-29.597 33.181-32.355 56.081-16.739-24.857-45.139-41.241-77.295-41.241h-15.641c-16.095 0-31.29 5.838-43.165 16.516h-26.657c-29.019 0-52.629 23.61-52.629 52.629 0 10.422 3.055 20.505 8.836 29.192l19.423 29.126 7.556-30.208c2.155-8.646 9.885-14.675 18.795-14.675 1.032 0 2.04.14 3.047.297-5.269 9.538-8.109 20.34-8.109 31.315v38.813c0 4.286.446 8.465 1.28 12.511-37.722 3.534-67.344 35.336-67.344 73.968v33.032c0 13.659 11.115 24.774 24.774 24.774h153.98c13.097 0 25.303-6.21 33.024-16.516h44.222c11.124 0 21.19-4.468 28.622-11.644 4.385 6.97 12.098 11.644 20.926 11.644h9.778c3.419 9.588 12.503 16.516 23.255 16.516h173.419v-181.677zm-178.771 49.548h-86.545c9.629-11.751 16.731-25.22 21.017-39.606 10.562 13.989 27.268 23.09 46.105 23.09h24.774c6.045 0 11.636-1.751 16.516-4.591v7.746l-11.545 5.764c-3.938 1.973-7.357 4.583-10.322 7.597zm-27.681-99.097v33.032h33.032c9.109 0 16.516 7.407 16.516 16.516s-7.407 16.516-16.516 16.516h-24.774c-22.767 0-41.29-18.523-41.29-41.29v-24.774zm82.581 33.032v16.516l-16.516-12.387v-4.129zm-37.186 73.241 20.67-10.331v-38.136l16.516 12.387v25.757l20.662 10.331c7.63 3.807 12.371 11.479 12.371 20.001 0 12.329-10.034 22.363-22.363 22.363h-37.855c-12.329 0-22.363-10.034-22.363-22.363-.001-8.522 4.74-16.194 12.362-20.009zm78.592-3.749c-3.501-4.525-7.994-8.341-13.353-11.025l-11.536-5.764v-7.746c4.88 2.841 10.471 4.591 16.516 4.591h20.819c-4.989 6.029-9.135 12.76-12.446 19.944zm-8.374-69.492h33.032v-33.032h33.032v24.774c0 22.767-18.523 41.29-41.29 41.29h-24.774c-9.109 0-16.516-7.407-16.516-16.516s7.407-16.516 16.516-16.516zm65.982-49.548h-32.95v-33.032h-16.516v66.065h-16.516c-7.449 0-14.253 2.568-19.786 6.747-3.014-4.071-7.804-6.747-13.246-6.747v-16.516h16.516v-16.516h-16.516v-18.829c19.654-7.292 33.982-24.345 37.574-45.287l1.437.132c33.652 3.055 59.111 30.414 60.003 63.983zm-129.437-98.676c-11.437-3.807-19.126-14.476-19.126-26.533v-48.21c0-4.55 3.7-8.258 8.258-8.258h4.459c9.076 10.108 22.198 16.516 36.831 16.516h33.032v39.953c0 12.057-7.688 22.726-19.126 26.533l-5.648 1.883v30.01l12.784 1.164c-3.13 15.377-14.262 27.747-29.3 32.281-15.038-4.534-26.17-16.904-29.3-32.281l12.783-1.164v-30.01zm79.971-66.485h8.258c4.558 0 8.258 3.708 8.258 8.258s-3.7 8.258-8.258 8.258h-8.258zm-9.042 84.728-15.732-1.429v-3.46c15.03-7.407 24.774-22.767 24.774-39.886v-6.92h8.258c2.907 0 5.665-.595 8.258-1.519v59.78c-7.919-3.428-16.483-5.741-25.558-6.566zm-65.28-167.309h33.032c31.868 0 57.806 25.93 57.806 57.806v9.778c-2.593-.925-5.351-1.519-8.258-1.519h-57.806c-18.217 0-33.032-14.815-33.032-33.032h-16.516c0 6.004 1.131 11.743 3.097 17.078-8.448 1.8-15.236 7.944-18.093 15.955h-9.778c-2.907 0-5.665.595-8.258 1.519v-9.778c-.001-31.877 25.938-57.807 57.806-57.807zm-41.291 99.097h-8.258c-4.558 0-8.258-3.708-8.258-8.258s3.7-8.258 8.258-8.258h8.258zm-16.516 14.997c2.593.925 5.351 1.519 8.258 1.519h8.258v6.92c0 17.119 9.745 32.479 24.774 39.886v3.46l-15.732 1.429c-9.076.826-17.631 3.138-25.559 6.565v-59.779zm27.054 69.665 1.437-.132c3.592 20.942 17.92 37.995 37.574 45.287v18.828h-16.516v16.516h16.516v16.516c-5.442 0-10.232 2.676-13.246 6.747-5.533-4.179-12.338-6.747-19.786-6.747h-16.517v-66.065h-16.516v33.032h-32.95c.892-33.568 26.352-60.927 60.004-63.982zm-269.659 102.152c-3.361-5.624-5.137-11.999-5.137-18.572 0-19.91 16.202-36.113 36.113-36.113h33.371l2.42-2.42c9.092-9.092 21.174-14.097 34.031-14.097h15.641c42.248 0 76.618 34.37 76.618 76.618 0 23.172-8.308 45.626-23.387 63.224l-8.894 10.38c-2.098.595-4.121 1.404-6.078 2.32l-8.407-16.813c8.522-5.178 13.733-14.361 13.733-24.477 0-15.806-12.866-28.672-28.672-28.672h-6.169l-1.462-5.838c-3.997-16.012-18.316-27.194-34.824-27.194-9.588 0-18.605 3.733-25.385 10.513l-2.585 2.585-2.585-2.585c-6.78-6.78-15.798-10.513-25.385-10.513-14.525.001-27.358 8.664-32.957 21.654zm60.928 14.798 14.262-14.262c3.658-3.658 8.531-5.673 13.708-5.673 8.91 0 16.648 6.028 18.804 14.675l4.583 18.358h19.076c6.697 0 12.148 5.45 12.148 12.156 0 4.641-2.577 8.803-6.714 10.876l-12.627 6.301 16.516 33.04-30.877 15.434c-6.243 3.122-13.238 4.773-20.207 4.773-24.923 0-45.188-20.265-45.188-45.188v-38.813c0-7.87 2.015-15.616 5.673-22.52zm-25.898 79.22c10.356 19.58 30.918 32.974 54.569 32.974 9.522 0 19.076-2.246 27.598-6.516l10.603-5.302-14.169 28.334h-65.8l-8.258-8.258c-5.318-5.326-12.404-8.258-19.935-8.258-10.769 0-19.951 6.904-23.362 16.516h-9.67c-2.742 0-5.343.553-7.812 1.379 3.377-28.267 27.209-50.308 56.236-50.869zm224.091 74.265v-24.774h-16.516v8.258c0 13.659-11.115 24.774-24.774 24.774h-34.601l25.303-45.543-14.435-8.019-31.851 57.328c-4.368 7.87-12.668 12.75-21.661 12.75h-153.981c-4.558 0-8.258-3.7-8.258-8.258v-16.516c0-4.558 3.7-8.258 8.258-8.258h24.774v-8.258c0-4.558 3.7-8.258 8.258-8.258 3.122 0 6.045 1.214 8.258 3.419l13.097 13.097h74.323l14.097 14.097 11.677-11.677-12.305-12.305 21.24-42.488c4.228-8.44 12.717-13.692 22.156-13.692h88.419c-.966 3.411-1.478 6.995-1.478 10.669 0 21.438 17.441 38.879 38.879 38.879h37.855c5.888 0 11.413-1.42 16.425-3.774-7.209 12.09-20.282 20.29-35.353 20.29h-16.516c-10.752 0-19.836 6.929-23.255 16.516h-9.778c-4.557.001-8.257-3.699-8.257-8.257zm41.291 24.774c-4.558 0-8.258-3.7-8.258-8.258s3.7-8.258 8.258-8.258h16.516c31.868 0 57.806-25.939 57.806-57.806 0-40.985 33.338-74.323 74.323-74.323h8.258v16.516h-8.258c-31.868 0-57.806 25.939-57.806 57.806 0 40.985-33.338 74.323-74.323 74.323zm68.583 0c23.403-16.45 38.772-43.603 38.772-74.323 0-22.767 18.523-41.29 41.29-41.29h8.258v115.613z"/><path d="m363.35 392.968h16.516v23.354h-16.516z" transform="matrix(.707 -.707 .707 .707 -177.286 381.284)"/><path d="m326.899 396.386h23.354v16.516h-23.354z" transform="matrix(.707 -.707 .707 .707 -186.96 357.927)"/></g></g></svg>