<svg id="Capa_1" enable-background="new 0 0 583.721 583.721" height="512" viewBox="0 0 583.721 583.721" width="512" xmlns="http://www.w3.org/2000/svg"><g><g><path d="m577.042 461.9c-.973.473-97.444 47.409-134.727 48.933-47.659 1.964-58.758-7.908-65.957-18.095 0-.005-.264-.384-.269-.389-2.437-3.567-3.113-7.875-1.904-12.123.899-3.141 2.77-5.832 5.258-7.847 4.869 7.602 16.839 22.106 37.324 22.106 27.16 0 57.026-10.729 61.543-31.232 3.326-15.083-8.774-26.729-16.904-32.664 11.808-6.717 23.468-13.67 34.901-20.911 29.416-18.618 58.244-39.376 85.692-61.709 1.987-1.617 2.284-4.535.672-6.518-1.607-1.983-4.521-2.284-6.513-.672-27.082 22.032-55.525 42.517-84.543 60.894-6.717 2.923-126.504 54.594-188.644 54.594-61.181 0-70.576-18.599-78.127-33.544l-.482-.936c-1.913-3.771-2.224-8.797-.936-14.935 1.228-5.823 5.133-10.715 10.451-13.49 1.441 11.822 8.037 28.281 26.614 33.72 6.712 1.964 15.477 3.025 24.974 3.025 26.929 0 59.759-8.524 68.552-29.208 7.449-17.529.357-32.242-7.241-40.78 26.34-9.478 52.75-20.221 79.104-32.363 53.199-24.51 105.616-54.07 155.786-87.86 2.122-1.431 2.682-4.308 1.255-6.43s-4.317-2.682-6.43-1.255c-49.758 33.511-101.739 62.83-154.484 87.132-28.661 13.203-57.378 24.765-85.988 34.776-8.681 2.122-75.496 17.854-109.915 9.066-13.564-3.47-23.667-10.613-30.032-21.235-5.1-8.51-5.036-19.456.162-28.564 1.07-1.876 2.367-3.623 3.822-5.216 2.488 7.959 7.903 19.915 18.919 25.261 9.154 4.443 29.027 9.705 49.535 9.705 15.903 0 32.187-3.164 44.152-12.313 20.383-15.588 15.574-41.016 8.654-55.956 30.542-9.284 62.562-20.712 97.19-34.716 47.627-19.267 99.311-42.989 162.642-74.662 2.288-1.144 3.215-3.928 2.071-6.217-1.149-2.288-3.933-3.215-6.217-2.071-62.821 31.408-114.107 54.964-161.326 74.083-5.624.435-44.375 3.196-73.124-.273-.468-3.66-2.001-7.088-4.521-9.886-6.75-7.481-18.303-8.074-25.784-1.339-.241.218-.537.514-.885.88-6.601-4.401-12.327-9.631-16.936-15.7-2.372-3.122-3.701-6.939-3.914-10.882 8.839 4.799 25.706 12.397 44.023 12.397 6.462 0 13.096-.95 19.614-3.294 25.469-9.182 30.843-25.581 31.899-33.641 25.117-2.01 48.998-5.017 71.975-9.084 44.699-7.912 86.044-19.998 122.886-35.934 2.353-1.015 3.428-3.743 2.414-6.092-1.015-2.344-3.743-3.428-6.087-2.414-36.184 15.649-76.834 27.531-120.825 35.313-44.342 7.843-92.061 11.762-145.882 11.975-13.235.056-24.881 9.07-28.318 21.926-.023.093-.032.185-.056.273-.005.023-.009.051-.014.074-2.214 8.681-.398 17.993 4.915 24.978 5.086 6.694 11.345 12.485 18.53 17.367-6.11 8.718-12.915 21.87-6.851 28.601 2.029 2.251 4.92 3.145 8.213 3.145 11.099 0 26.804-10.127 29.745-12.776h.005c2.099-1.89 3.627-4.22 4.651-6.768 11.34 1.385 23.927 1.885 35.615 1.885 4.044 0 7.973-.056 11.688-.144-32.191 12.258-62.224 22.222-91.047 30.208-.774-2.849-1.834-5.536-3.206-7.884-3.391-5.842-8.45-9.256-14.231-9.612-6.495-.408-14.018 2.122-22.769 5.026-10.696 3.558-22.685 7.481-32.817 5.638l-28.8-106.519c15.996-6.773 28.305-16.274 25.683-25.993l-7.032-26.011c0-.005 0-.005 0-.009 0 0 0 0 0-.005l-5.605-20.735c-.005-.009-.005-.023-.005-.032 0-.005-.005-.009-.005-.014l-20.462-75.607c-3.519-12.972-29.855-12.199-52.846-5.982-12.026 3.252-22.963 7.908-30.801 13.11-11.831 7.847-12.962 14.495-11.831 18.692l33.104 122.432c2.006 7.398 11.419 10.326 23.408 10.326 3.743 0 7.764-.347 11.864-.871l29.37 108.618c-.709 8.561 1.269 16.135 5.568 22.37-3.169 2.793-5.906 6.096-8.005 9.775-6.856 12.007-6.879 26.54-.069 37.917 7.556 12.619 19.897 21.421 35.693 25.456 8.223 2.103 17.993 2.937 28.309 2.937 5.874 0 11.929-.296 17.974-.755-10.998 2.9-21.972 5.638-32.886 8.028-11.53 2.525-20.499 11.391-22.852 22.583-1.737 8.255-1.153 15.329 1.742 21.031l.468.926c8.237 16.306 19.517 38.63 86.396 38.63 37.435 0 93.252-17.367 135.236-32.687-19.313 10.363-39.015 20.012-58.985 28.837-.023.009-.042.023-.065.032-.005.005-.014 0-.018.005-.009.005-.014.014-.023.019-6.763 3.03-11.804 8.83-13.828 15.945-1.95 6.847-.797 14.092 3.182 19.91.009.014.278.403.287.417 9.677 13.698 23.853 22.338 61.89 22.338 3.775 0 7.796-.088 12.063-.259 39.205-1.598 134.379-47.895 138.409-49.864 2.302-1.121 3.252-3.896 2.131-6.194-1.136-2.315-3.915-3.26-6.199-2.144zm-266.479-289.313c23.037-.093 44.921-.899 65.967-2.353-1.371 6.258-6.509 17.39-25.52 24.242-23.389 8.44-49.924-4.943-58.703-10.025 3.232-7.092 10.329-11.831 18.256-11.864zm-4.841 77.919c-1.121-2.71 4.197-13.494 9.455-20.216.385-.324.737-.69 1.005-1.144.032-.051.028-.111.056-.167.75-.88 1.492-1.663 2.2-2.302 1.719-1.547 3.873-2.312 6.022-2.312 2.455 0 4.91 1.001 6.675 2.965 1.612 1.783 2.427 4.086 2.302 6.485-.12 2.4-1.172 4.605-2.96 6.212-5.994 5.411-21.883 11.892-24.755 10.479zm6.55 27.053c4.021 8.468 12.864 32.048-5.244 45.894-23.843 18.233-69.761 8.556-84.019 1.635-5.693-2.766-9.436-8.385-11.841-13.698 5.61 2.71 12.225 4.614 19.781 5.522 4.276.514 8.732.769 13.226.769 22.31 0 45.565-6.291 51.726-18.845 2.414-4.915 3.428-11.225 3.127-17.515 4.391-1.209 8.801-2.46 13.244-3.762zm-51.963-9.139c7.514-2.502 14.56-4.855 19.276-4.572 2.664.167 4.952 1.853 6.791 5.022 4.021 6.916 4.586 19.012 1.214 25.886-4.294 8.737-28.962 16.14-55.534 12.957-19.47-2.33-31.107-11.757-32.228-25.622 1.501.25 2.988.435 4.433.435 1.695 0 3.345-.222 4.957-.565 6.851 8.454 16.228 12.749 28.073 12.749 4.985 0 10.405-.755 16.251-2.261 2.478-.639 3.965-3.169 3.326-5.642-.644-2.478-3.169-3.956-5.642-3.326-14.833 3.826-25.701 2.034-33.104-5.434 1.515-1.061 2.965-2.316 4.355-3.752 12.558 2.454 25.922-1.91 37.832-5.875zm-132.419-138.289c0-.005 0-.005 0 0l-2.497-9.237c2.163.505 4.609.899 7.569 1.07 1.26.074 2.571.107 3.914.107 8.653 0 18.891-1.496 29.296-4.308 12.026-3.252 22.963-7.908 30.801-13.11 2.474-1.64 4.382-3.21 5.999-4.734l2.497 9.242c.158.584-.746 3.738-8.005 8.552-7.032 4.665-17.01 8.885-28.096 11.882-11.095 2.997-21.87 4.387-30.255 3.896-8.703-.507-11.066-2.781-11.223-3.36zm54.658-105.765 17.312 64.026c.148.598-.769 3.743-8.005 8.542-7.032 4.665-17.01 8.885-28.096 11.882s-21.851 4.368-30.259 3.896c-8.7-.5-11.067-2.775-11.22-3.354 0-.005-.005-.005-.005-.009l-17.316-64.035c3.34.769 7.162 1.153 11.326 1.153 9.043 0 19.558-1.668 29.439-4.341 14.422-3.904 28.898-10.315 36.824-17.76zm-72.72.802c7.032-4.665 17.01-8.885 28.096-11.882 10.882-2.942 19.952-3.979 26.813-3.979 9.024 0 14.222 1.802 14.666 3.442.783 2.886-10.905 13.62-36.096 20.434-25.215 6.819-40.701 3.423-41.484.542-.158-.585.741-3.74 8.005-8.557zm25.098 130.983-3.914-14.486c2.163.505 4.609.899 7.574 1.07 1.26.074 2.571.107 3.914.107 8.653 0 18.887-1.496 29.291-4.308 12.026-3.252 22.963-7.908 30.801-13.11 2.474-1.64 4.387-3.215 5.999-4.739l3.914 14.486c.783 2.886-10.905 13.624-36.096 20.439-25.195 6.814-40.709 3.427-41.483.541zm43.903 8.404c2.761-.746 5.517-1.589 8.237-2.511l28.657 105.973c-2.001 2.038-4.132 3.493-6.347 4.327-3.09 1.167-6.467 1.228-10.275.171l-28.661-105.991c2.816-.575 5.623-1.219 8.389-1.969zm166.658 232.722c-9.066 21.319-57.763 28.11-82.403 20.911-16.529-4.836-19.605-20.605-20.147-27.651 31.112-6.977 62.571-16.001 94.16-26.975 4.517 4.044 15.76 16.371 8.39 33.715zm123.771 63.979c-3.308 15-29.287 23.964-52.495 23.964-15.57 0-25.02-11.002-29.106-17.187 21.953-9.858 43.582-20.67 64.702-32.353 5.41 3.405 19.544 13.592 16.899 25.576z"/><path d="m237.161 253.883c1.292.658 2.659.954 4.067.954 11.452 0 25.826-19.498 27.897-23.579 2.21-4.345 2.594-9.293 1.075-13.93-1.515-4.632-4.739-8.403-9.089-10.613-4.35-2.214-9.302-2.594-13.935-1.075-4.632 1.515-8.399 4.744-10.608 9.089-2.321 4.577-11.197 33.169.593 39.154zm7.676-34.966c1.584-3.118 4.748-4.92 8.028-4.92 1.367 0 2.756.31 4.053.973 2.145 1.089 3.734 2.942 4.48 5.225.746 2.284.556 4.721-.528 6.861-3.609 7.111-15.876 18.674-19.234 18.674-.037 0-.079 0-.111-.005-2.456-2.571-.343-19.609 3.312-26.808z"/><path d="m138.966 353.866v-31.316c6.059-1.436 10.595-6.861 10.595-13.351v-2.946c0-6.495-4.535-11.915-10.595-13.351v-1.552c0-9.163-7.454-16.612-16.617-16.612h-56.766c-9.163 0-16.617 7.454-16.617 16.612v1.552c-6.055 1.436-10.59 6.861-10.59 13.351v2.946c0 6.49 4.535 11.915 10.59 13.351v31.316c-23.264 6.43-48.956 34.285-48.956 54.228v133.689c0 10.979 4.679 21.499 12.832 28.856 9.353 8.436 21.439 13.082 34.035 13.082h94.192c12.596 0 24.677-4.646 34.03-13.082 8.153-7.356 12.832-17.877 12.832-28.856v-133.689c-.009-19.943-25.696-47.798-48.965-54.228zm-73.383-69.867h56.767c4.053 0 7.352 3.298 7.352 7.347v1.149h-71.47v-1.149c-.001-4.049 3.297-7.347 7.351-7.347zm-17.942 25.196v-2.946c0-2.474 2.015-4.489 4.489-4.489h83.677c2.474 0 4.489 2.015 4.489 4.489v2.946c0 2.474-2.015 4.489-4.489 4.489h-83.677c-2.474 0-4.489-2.011-4.489-4.489zm121.246 254.569c-7.644 6.898-17.525 10.696-27.823 10.696h-94.192c-10.303 0-20.179-3.799-27.827-10.696-6.208-5.605-9.77-13.615-9.77-21.981v-106.696c3.868-6.245 29.518-43.944 84.691-43.944 55.506 0 80.661 37.287 84.691 43.921v106.719c0 8.366-3.558 16.376-9.77 21.981zm9.77-144.242c-12.586-14.727-39.432-37.639-84.691-37.639s-72.105 22.912-84.691 37.639v-11.428c0-16.76 25.298-42.54 45.116-45.968 2.219-.384 3.84-2.312 3.84-4.563v-34.614h71.47v34.614c0 2.251 1.626 4.179 3.84 4.563 19.818 3.428 45.116 29.208 45.116 45.968z"/></g></g></svg>