<svg id="Capa_1" enable-background="new 0 0 512 512" height="512" viewBox="0 0 512 512" width="512" xmlns="http://www.w3.org/2000/svg"><g><g><path d="m445.078 279.148c13.187-3.987 20.682-16.415 17.823-29.548-4.977-22.874-14.184-47.736-27.363-73.897-1.865-3.698-6.373-5.187-10.073-3.323-3.699 1.864-5.187 6.374-3.323 10.073 12.612 25.032 21.395 48.696 26.104 70.337 1.188 5.461-1.829 10.283-7.509 12.001-5.127 1.55-9.471 4.379-12.701 8.19l-18.086-39.28c-1.732-3.762-6.188-5.408-9.949-3.676-3.763 1.732-5.408 6.187-3.676 9.949.046.1-1.5-3.253 36.158 78.428 2.149 4.647 1.754 9.504-.722 13.082-8.456-8.995-19.345-15.788-31.819-19.224l-57.951-15.962c20.803-21.911 32.518-50.936 32.526-81.514l.025-65.436v-.001c0-.001 0-.001 0-.002 0-7.689-2.833-14.908-7.594-20.52 1.849-.977 3.576-2.234 5.113-3.771 3.908-3.909 6.048-9.031 6.191-14.326 9.996 14.058 19.135 27.979 27.212 41.497 1.404 2.351 3.893 3.654 6.445 3.654 1.309 0 2.635-.343 3.84-1.063 3.556-2.125 4.716-6.729 2.592-10.285-9.583-16.037-20.603-32.606-32.755-49.292 1.222-7.294-1.359-14.95-7.429-19.9.632-6.228-1.528-12.451-6.097-17.021-3.686-3.684-8.45-5.802-13.422-6.151-19.714-32.291-54.874-52.167-92.894-52.167h-27.451c-13.248 0-24.783 7.462-30.633 18.402-20.402 7.014-38.809 20.6-51.662 39.065-4.127 2.792-87.621 103.091-106.91 192.492-2.835 13.14 4.683 25.553 17.875 29.516 7.041 2.117 10.049 9.044 6.782 16.14l-7.744 16.819c-5.128 11.138-2.891 23.454 4.953 31.42-6.072 10.328-9.504 22.286-9.504 34.837v106.629c0 14.711 11.968 26.68 26.679 26.68h335.739c14.711 0 26.68-11.969 26.68-26.68v-106.631c0-12.59-3.455-24.583-9.562-34.932 8.025-7.96 10.331-20.365 5.111-31.652l-7.774-16.807c-3.28-7.093-.278-14.023 6.755-16.15zm-119.769 12.476c-9.115-3.306-15.338-12.046-15.338-21.864v-32.299c18.276-14.761 30.989-34.11 34.79-56.43 5.397-.333 10.431-2.018 14.77-4.722l-.015 38.47c-.007 29.427-12.429 57.207-34.207 76.845zm-138.617 0c-21.778-19.638-34.201-47.418-34.209-76.844l-.01-38.467c4.339 2.703 9.372 4.387 14.767 4.719 3.888 22.819 16.979 42.049 34.789 56.43v32.299c.001 9.818-6.222 18.56-15.337 21.863zm-20.777-158.693.149 32.861c-7.683-1.468-13.517-8.193-13.598-16.279v-.333c.08-8.033 5.839-14.728 13.449-16.249zm47.608 94.552c-17.386-13.324-32.452-33.689-32.452-60.241l-.195-43.006c-.02-4.381 3.519-7.938 7.902-7.938 17.024 0 31.354-11.739 35.333-27.545 14.957 16.878 36.774 27.545 61.046 27.545h14.89c.993 3.236 2.771 6.247 5.28 8.757 4.569 4.568 10.788 6.728 17.021 6.097 2.308 2.83 5.291 4.98 8.656 6.286l-.075 29.839c0 26.522-15.053 46.873-32.429 60.193-.698.438-23.335 17.713-42.5 18.238-19.604-.537-42.376-18.161-42.477-18.225zm146.019-78.137c0 8.162-5.871 14.97-13.609 16.447l.071-28.211c1.838-.672 3.565-1.596 5.137-2.744 5.089 2.94 8.401 8.454 8.401 14.508zm7.919-63.16c2.11 1.044 3.421 3.152 3.421 5.502 0 2.339-1.302 4.454-3.422 5.503-4.017 1.987-5.968 6.69-4.534 10.948.754 2.23.19 4.647-1.472 6.309-1.661 1.663-4.078 2.228-6.31 1.471-4.253-1.437-8.958.514-10.948 4.536-1.044 2.11-3.152 3.421-5.502 3.421s-4.458-1.311-5.503-3.422c-1.995-4.034-6.714-5.969-10.948-4.534-2.229.75-4.647.191-6.309-1.472-1.662-1.661-2.226-4.079-1.472-6.31 1.436-4.249-.512-8.954-4.535-10.948-2.11-1.044-3.421-3.152-3.421-5.502s1.311-4.458 3.426-5.505c4.019-1.991 5.966-6.696 4.53-10.945-.754-2.23-.19-4.648 1.472-6.31 1.66-1.662 4.077-2.228 6.31-1.472 4.25 1.436 8.955-.513 10.948-4.535 1.044-2.11 3.152-3.421 5.502-3.421s4.458 1.311 5.505 3.426c1.992 4.02 6.7 5.966 10.945 4.53 2.191-.743 4.626-.214 6.31 1.472 1.662 1.661 2.226 4.078 1.468 6.318-1.43 4.248.522 8.951 4.539 10.94zm-129.167-71.186h27.451c26.372 0 51.149 11.098 68.682 29.935-4.763.968-9.015 3.532-12.079 7.289-6.234-.639-12.451 1.528-17.021 6.097-4.568 4.568-6.729 10.793-6.097 17.021-4.851 3.957-7.724 9.886-7.724 16.347 0 3.426.815 6.698 2.297 9.61h-8.646c-36.712 0-66.581-29.868-66.581-66.581.001-10.873 8.846-19.718 19.718-19.718zm-68.096 48.41c8.73-11.636 20.333-21.013 33.418-27.19.198 10.88 2.523 21.248 6.598 30.697v12.947c0 11.819-9.616 21.435-21.435 21.435-10.491 0-19.204 7.011-21.968 16.405-5.238.392-10.124 2.056-14.35 4.691l-.001-5.609c-.018-19.427 6.115-37.884 17.738-53.376zm-90.571 255.296c4.627-10.021 27.822-60.256 36.352-78.731 1.732-3.763.086-8.217-3.676-9.949-3.763-1.731-8.218-.086-9.949 3.676l-18.268 39.677c-3.245-3.857-7.628-6.714-12.805-8.27-5.682-1.707-8.708-6.524-7.529-11.986 11.136-51.606 42.799-105.181 74.421-148.671-1.012 8.681-.722 103.289-.688 110.332.008 30.579 11.723 59.604 32.526 81.515l-57.957 15.964c-12.507 3.445-23.421 10.267-31.887 19.299-2.356-3.535-2.662-8.248-.54-12.856zm355.922 166.614c0 6.44-5.239 11.68-11.68 11.68h-37.249v-70.589c0-.024 0-.049 0-.073 0-.021 0-.041 0-.06 0-57.938-80.809-83.616-121.759-39.663-4.414 4.737-13.304 4.742-17.723 0-40.753-43.745-121.758-18.486-121.758 39.663v.067.065 20.462c0 4.143 3.358 7.5 7.5 7.5s7.5-3.357 7.5-7.5v-12.907c23.332-27.193 69.72-28.153 94.396-1.667 11.078 11.891 31.389 11.869 42.447 0 24.694-26.505 71.082-25.505 94.396 1.667v63.035h-231.24v-15.065c0-4.143-3.358-7.5-7.5-7.5s-7.5 3.357-7.5 7.5v15.065h-37.25c-6.44 0-11.679-5.239-11.679-11.68v-106.631c0-24.178 16.278-45.547 39.584-51.967l72.902-20.08c16.54-4.556 28.091-19.723 28.091-36.883v-21.962c14.741 8.571 29.153 12.704 38.811 12.91.053.001.107.002.16.002s.107-.001.16-.002c9.658-.206 24.069-4.34 38.811-12.911v21.962c0 17.16 11.555 32.328 28.099 36.885l72.891 20.077c23.31 6.421 39.589 27.79 39.589 51.968v106.632zm-66.638-73.681c-31.744-21.571-76.914-17.202-102.661 10.435-5.124 5.502-15.365 5.51-20.498.001-25.748-27.638-70.916-32.007-102.66-10.436 13.294-35.007 66.105-43.744 93.073-14.799 10.342 11.101 29.307 11.126 39.672 0 26.921-28.895 79.754-20.278 93.074 14.799z"/></g><circle cx="338.695" cy="91.688" r="7.564"/></g></svg>