<svg id="Capa_1" enable-background="new 0 0 512.014 512.014" height="512" viewBox="0 0 512.014 512.014" width="512" xmlns="http://www.w3.org/2000/svg"><g><g><path d="m140.214 337.12c-2.257 1.698-3.691 4.272-3.947 7.085s.689 5.603 2.604 7.681l6.035 6.554c12.827 13.926 31.043 21.914 49.977 21.914s37.149-7.987 49.977-21.914l6.035-6.553c1.914-2.078 2.859-4.868 2.604-7.681s-1.69-5.387-3.947-7.085l-15.899-11.96c-11.326-8.519-26.01-10.227-38.769-4.859-12.757-5.365-27.442-3.658-38.769 4.859zm27.922 4.024c6.331-4.76 14.796-5.188 21.572-1.092 3.182 1.924 7.166 1.924 10.348 0 6.775-4.097 15.244-3.668 21.571 1.091l7.033 5.291c-8.943 8.872-21.134 13.92-33.778 13.92s-24.836-5.049-33.778-13.92z"/><path d="m69.169 193.141c-3.905 3.905-3.905 10.237 0 14.143 9.909 9.908 22.924 14.862 35.939 14.862s26.03-4.954 35.939-14.862c3.905-3.905 3.905-10.237 0-14.143-3.906-3.905-10.236-3.905-14.143 0-5.822 5.822-13.562 9.029-21.797 9.029s-15.975-3.207-21.797-9.029c-3.905-3.905-10.235-3.905-14.141 0z"/><path d="m320.595 207.284c3.905-3.905 3.905-10.237 0-14.143-3.906-3.905-10.236-3.905-14.143 0-5.822 5.822-13.562 9.029-21.797 9.029s-15.975-3.207-21.797-9.029c-3.906-3.905-10.236-3.905-14.143 0-3.905 3.905-3.905 10.237 0 14.143 9.909 9.908 22.924 14.862 35.939 14.862s26.032-4.954 35.941-14.862z"/><path d="m184.543 207.155c-5.522 0-10 4.477-10 10v53.514c0 11.215 9.124 20.339 20.339 20.339 5.522 0 10-4.477 10-10s-4.478-10-10-10c-.187 0-.339-.152-.339-.339v-53.514c0-5.523-4.478-10-10-10z"/><path d="m392.784 273.569c-1.904 0-3.796.05-5.678.138 1.49-10.356 2.257-20.851 2.257-31.344v-71.022c0-75.099-50.096-141.471-121.824-161.405-32.531-9.042-66.105-11.933-99.779-8.59-5.496.545-9.509 5.442-8.964 10.938s5.443 9.514 10.938 8.964c31.205-3.096 62.312-.418 92.449 7.958 63.105 17.538 107.18 75.986 107.18 142.135v71.022c0 11.458-.996 22.916-2.945 34.149-53.095 12.033-92.857 59.597-92.857 116.279 0 6.347.504 12.577 1.464 18.659-24.502 15.16-51.492 24.61-80.341 28.109-99.662-12.108-174.677-96.679-174.677-197.196v-71.022c0-25.128 6.422-50.005 18.57-71.944 11.987-21.645 29.287-40.009 50.03-53.106 4.67-2.949 6.065-9.125 3.117-13.794s-9.123-6.066-13.795-3.117c-23.578 14.888-43.237 35.749-56.848 60.328-13.787 24.896-21.074 53.124-21.074 81.633v71.022c0 111.065 83.199 204.44 193.529 217.2.381.044.765.066 1.148.066s.767-.022 1.148-.066c29.639-3.427 58.51-13.001 84.257-27.854 16.169 46.687 60.577 80.305 112.694 80.305 65.739 0 119.223-53.483 119.223-119.223.001-65.739-53.483-119.222-119.222-119.222zm0 218.445c-54.712 0-99.223-44.511-99.223-99.223s44.511-99.222 99.223-99.222 99.223 44.511 99.223 99.222-44.511 99.223-99.223 99.223z"/><path d="m419.17 332.912c-21.069 1.216-40.897 10.111-55.834 25.047-19.65 19.651-28.463 47.064-24.139 74.274l-3.413 3.413c-3.905 3.905-3.905 10.237 0 14.143 1.953 1.952 4.512 2.929 7.071 2.929s5.118-.977 7.071-2.929l3.418-3.418c4.543.722 9.09 1.084 13.608 1.084 22.535 0 44.292-8.851 60.66-25.218 14.935-14.935 23.83-34.764 25.047-55.834.521-9.034-2.843-17.877-9.229-24.263-6.384-6.386-15.226-9.748-24.26-9.228zm13.523 32.337c-.934 16.167-7.761 31.382-19.223 42.844-11.196 11.196-25.676 17.787-40.941 19.092l10.464-10.464c3.905-3.905 3.905-10.237 0-14.143-3.906-3.904-10.236-3.904-14.143 0l-10.463 10.463c1.307-15.264 7.897-29.747 19.091-40.942 11.463-11.462 26.678-18.289 42.844-19.222 3.388-.191 6.577 1.012 8.968 3.403s3.599 5.577 3.403 8.969z"/><path d="m54.921 447.1h-10.167v-10.167c0-5.523-4.478-10-10-10s-10 4.477-10 10v10.167h-10.167c-5.522 0-10 4.477-10 10s4.478 10 10 10h10.167v10.167c0 5.523 4.478 10 10 10s10-4.477 10-10v-10.167h10.167c5.522 0 10-4.477 10-10s-4.478-10-10-10z"/><path d="m419.697 165.057h10.167v10.167c0 5.523 4.478 10 10 10s10-4.477 10-10v-10.167h10.167c5.522 0 10-4.477 10-10s-4.478-10-10-10h-10.167v-10.167c0-5.523-4.478-10-10-10s-10 4.477-10 10v10.167h-10.167c-5.522 0-10 4.477-10 10s4.478 10 10 10z"/><circle cx="124.507" cy="19.571" r="10"/></g></g></svg>