<svg id="Capa_1" enable-background="new 0 0 512.001 512.001" height="512" viewBox="0 0 512.001 512.001" width="512" xmlns="http://www.w3.org/2000/svg"><g><path d="m424.167 306.774v-38.683c0-5.522-4.477-10-10-10h-7.616c-4.79-29.077-30.091-51.332-60.504-51.332-17.214 0-33.071-9.369-41.403-24.489-1.638-2.948-4.651-4.872-8.015-5.117-3.366-.249-6.625 1.222-8.672 3.901l-5.463 7.148c-8.88 11.619-22.913 18.557-37.538 18.557h-79.001c-30.412 0-55.713 22.255-60.504 51.332h-7.616c-5.523 0-10 4.478-10 10v38.683c-17.956 2.469-31.834 17.902-31.834 36.525v100.496c0 37.609 30.597 68.206 68.206 68.206h263.589c37.609 0 68.206-30.597 68.206-68.206v-100.496c-.001-18.623-13.88-34.056-31.835-36.525zm-258.212-80.015h79.001c19.295 0 37.866-8.484 50.543-22.896 12.617 14.378 30.964 22.896 50.547 22.896 19.344 0 35.626 13.356 40.109 31.332h-260.31c4.484-17.976 20.766-31.332 40.11-31.332zm270.046 217.036c0 26.581-21.625 48.206-48.206 48.206h-263.589c-26.581 0-48.206-21.625-48.206-48.206v-100.496c0-9.307 7.572-16.879 16.879-16.879h118.121c5.523 0 10-4.478 10-10s-4.477-10-10-10h-103.165v-28.329h296.332v28.329h-103.166c-5.523 0-10 4.478-10 10s4.477 10 10 10h118.121c9.307 0 16.879 7.572 16.879 16.879z"/><path d="m256.001 357.234c-28.66 0-51.977 23.316-51.977 51.977s23.316 51.978 51.977 51.978 51.977-23.317 51.977-51.978-23.317-51.977-51.977-51.977zm0 83.954c-17.632 0-31.977-14.345-31.977-31.978 0-17.632 14.345-31.977 31.977-31.977s31.977 14.345 31.977 31.977c-.001 17.633-14.346 31.978-31.977 31.978z"/><path d="m172.264 119.446c17.228 17.228 40.121 26.541 63.84 26.541 3.295 0 6.607-.182 9.921-.545v16.923c0 5.522 4.477 10 10 10s10-4.478 10-10v-42.697c3.297.36 6.591.54 9.871.54 23.717 0 46.615-9.314 63.841-26.54 15.718-15.718 25.079-36.586 26.359-58.76.542-9.4-2.958-18.604-9.603-25.248-6.646-6.646-15.85-10.156-25.248-9.603-22.174 1.28-43.042 10.642-58.759 26.359-10.821 10.821-18.511 23.881-22.74 37.975-3.018-4.305-6.426-8.392-10.231-12.196-15.718-15.718-36.586-25.079-58.76-26.358-9.398-.548-18.603 2.957-25.248 9.603-6.645 6.645-10.145 15.847-9.602 25.247 1.28 22.173 10.642 43.041 26.359 58.759zm114.365-78.887c12.245-12.245 28.5-19.538 45.77-20.535 3.773-.222 7.3 1.125 9.953 3.777 2.653 2.653 3.995 6.188 3.778 9.954-.997 17.271-8.29 33.524-20.535 45.77-12.355 12.355-28.458 19.48-45.357 20.534l21.082-21.082c3.905-3.905 3.905-10.237 0-14.143-3.905-3.904-10.237-3.904-14.142 0l-21.082 21.082c1.052-16.901 8.177-33.002 20.533-45.357zm-116.979 9.021c2.467-2.467 5.697-3.8 9.166-3.8.261 0 .524.007.788.022 17.27.996 33.525 8.289 45.77 20.534 12.356 12.355 19.481 28.457 20.534 45.358l-16.951-16.951c-3.905-3.904-10.237-3.904-14.142 0-3.905 3.905-3.905 10.237 0 14.143l16.951 16.951c-16.902-1.053-33.002-8.179-45.358-20.535-12.245-12.245-19.538-28.499-20.535-45.77-.218-3.763 1.123-7.298 3.777-9.952z"/><path d="m401.119 169.397h13.44v13.44c0 5.522 4.477 10 10 10s10-4.478 10-10v-13.44h13.441c5.523 0 10-4.478 10-10s-4.477-10-10-10h-13.44v-13.44c0-5.522-4.477-10-10-10s-10 4.478-10 10v13.44h-13.44c-5.523 0-10 4.478-10 10s4.476 10 9.999 10z"/><path d="m64.001 120.356h13.441v13.441c0 5.522 4.477 10 10 10s10-4.478 10-10v-13.441h13.44c5.523 0 10-4.478 10-10s-4.477-10-10-10h-13.44v-13.44c0-5.522-4.477-10-10-10s-10 4.478-10 10v13.44h-13.441c-5.523 0-10 4.478-10 10s4.477 10 10 10z"/><circle cx="134.401" cy="169.969" r="10"/><circle cx="256.001" cy="316.42" r="10"/><circle cx="401.58" cy="87.784" r="10"/></g></svg>