<?xml version="1.0" encoding="iso-8859-1"?>
<!-- Generator: Adobe Illustrator 19.0.0, SVG Export Plug-In . SVG Version: 6.00 Build 0)  -->
<svg version="1.1" id="Capa_1" xmlns="http://www.w3.org/2000/svg" xmlns:xlink="http://www.w3.org/1999/xlink" x="0px" y="0px"
	 viewBox="0 0 512.001 512.001" style="enable-background:new 0 0 512.001 512.001;" xml:space="preserve">
<g>
	<g>
		<path d="M294.703,473.326l-94.311-74.57c-10.879-8.591-17.202-21.435-17.348-35.233c-0.646-61.596-9.84-174.365-24.111-256.461
			c-0.71-4.078-4.591-6.819-8.673-6.103c-4.081,0.709-6.813,4.591-6.103,8.672c14.141,81.348,23.252,193.052,23.89,254.051
			c0.195,18.357,8.597,35.432,23.047,46.844l94.319,74.576c2.121,1.672,3.013,4.438,2.271,7.051c-0.811,2.856-3.443,4.851-6.4,4.851
			c-0.771,0-1.522-0.13-2.249-0.39c-20.761-7.398-59.452-20.923-85.333-28.379c-16.439-4.744-30.165-6.023-43.438-7.262
			c-9.069-0.846-17.635-1.645-26.741-3.511c-6.887-1.411-10.214-7.493-11.793-12.348c-3.725-11.452-1.852-30.223,11.062-44.372
			c0.992-1.087,1.642-2.441,1.87-3.896c2.326-14.858-11.5-94.511-31.35-130.07c-33.209-59.517-40.484-97.315-25.948-134.809
			c1.203-3.104,0.217-6.628-2.423-8.657c-2.641-2.027-6.299-2.072-8.989-0.112c-7.527,5.49-32.269,23.893-51.17,37.985
			c-3.321,2.476-4.006,7.174-1.53,10.494c2.476,3.321,7.172,4.008,10.494,1.53c10.662-7.948,23.182-17.269,33.405-24.856
			c-7.539,40.766,7.779,80.422,33.063,125.736c18.476,33.094,29.917,103.524,29.752,118.544
			c-13.456,16.091-18.486,38.712-12.499,57.122c3.915,12.037,12.314,20.202,23.044,22.401c9.909,2.03,19.289,2.905,28.36,3.751
			c12.582,1.173,25.591,2.387,40.675,6.739c25.496,7.345,63.857,20.756,84.441,28.091c2.342,0.839,4.796,1.265,7.296,1.265
			c9.631,0,18.196-6.478,20.828-15.751C304.52,487.766,301.608,478.766,294.703,473.326z"/>
	</g>
</g>
<g>
	<g>
		<path d="M153.16,77.02c-10.481-49.015-19.228-60.756-24.898-65.323C103.891-7.927,62.173-0.51,7.03,16.661
			c-3.954,1.233-6.161,5.436-4.929,9.391c1.231,3.954,5.427,6.158,9.39,4.929c43.747-13.624,87.034-23.974,107.363-7.605
			c2.126,1.713,9.822,10.867,19.641,56.779c0.753,3.522,3.864,5.933,7.325,5.933c0.52,0,1.048-0.055,1.576-0.168
			C151.445,85.055,154.026,81.07,153.16,77.02z"/>
	</g>
</g>
<g>
	<g>
		<path d="M411.286,198.214l-14.418-39.613c-1.416-3.892-5.72-5.896-9.612-4.481c-3.892,1.417-5.898,5.72-4.482,9.612l14.418,39.613
			c1.109,3.044,3.985,4.935,7.048,4.935c0.852,0,1.718-0.146,2.564-0.454C410.696,206.409,412.703,202.106,411.286,198.214z"/>
	</g>
</g>
<g>
	<g>
		<path d="M369.383,198.214l-14.418-39.613c-1.417-3.892-5.72-5.896-9.612-4.481c-3.892,1.417-5.898,5.72-4.482,9.612l14.418,39.612
			c1.108,3.045,3.984,4.936,7.048,4.936c0.852,0,1.718-0.146,2.564-0.454C368.793,206.409,370.8,202.106,369.383,198.214z"/>
	</g>
</g>
<g>
	<g>
		<path d="M502.743,431.689h-2.8c-17.612,0-33.24-11.53-38.527-28.216c14.292-6.869,22.702-22.998,18.946-39.424L455.036,253.31
			c-1.044-4.563,0.26-9.308,3.487-12.696l35.741-37.533c7.613-7.995,7.965-20.365,0.816-28.771
			c-40.997-48.224-62.805-62.393-73.88-65.786c-13.021-3.99-36.101-4.512-70.554-1.601c-4.128,0.35-7.189,3.979-6.841,8.104
			c0.35,4.129,3.973,7.169,8.104,6.841c39.932-3.378,57.331-1.323,64.896,0.995c12.576,3.854,37.565,26.717,66.846,61.161
			c2.164,2.545,2.056,6.29-0.252,8.714l-35.741,37.533c-6.705,7.041-9.414,16.903-7.246,26.382l12.585,55.027
			c-6.906,18.988-17.488,35.322-30.443,47.144l-12.714-55.59c-0.001-0.004-0.001-0.009-0.002-0.014l-6.143-26.858l-4.035-17.64
			c-2.178-9.524-10.523-16.177-20.295-16.177H266.603c-3.825,0-6.936-3.111-6.936-6.936v-16.953v-68.471v-10.298
			c0-3.412,2.439-6.289,5.799-6.842c13.519-2.224,34.384-5.439,57.014-8.14c4.112-0.491,7.048-4.223,6.558-8.335
			c-0.491-4.113-4.227-7.049-8.335-6.558c-22.902,2.732-44.004,5.985-57.672,8.233c-10.641,1.75-18.363,10.852-18.363,21.641v2.799
			h-17.794c-7.517,0-13.631,6.114-13.631,13.631v56.208c0,7.517,6.114,13.631,13.631,13.631h17.794v9.454
			c0,12.095,9.84,21.934,21.934,21.934h112.765c2.732,0,5.064,1.859,5.673,4.521l0.971,4.245h-3.342
			c-12.705,0-23.04,10.336-23.04,23.04s10.336,23.04,23.04,23.04h13.88c16.156,70.643,15.639,69.795,17.933,74.603
			c5.794,12.196,18.426,20.245,32.323,19.963c6.92,23.439,28.624,39.73,53.136,39.73h2.8c4.143,0,7.499-3.357,7.499-7.499
			C510.242,435.045,506.885,431.689,502.743,431.689z M244.67,211.158h-16.427v-53.473h16.427V211.158z M382.671,297.393
			c-4.434,0-8.042-3.608-8.042-8.042s3.608-8.042,8.042-8.042h6.771l0.103,0.45l3.576,15.634H382.671z M439.841,390.921
			c-6.441-2.147-11.656-7.481-13.276-14.568l-0.247-1.08c12.76-9.925,23.789-23.396,32.248-39.25l7.175,31.37
			c0.15,0.654,0.266,1.311,0.35,1.968C467.964,384.002,453.826,395.581,439.841,390.921z"/>
	</g>
</g>
<g>
</g>
<g>
</g>
<g>
</g>
<g>
</g>
<g>
</g>
<g>
</g>
<g>
</g>
<g>
</g>
<g>
</g>
<g>
</g>
<g>
</g>
<g>
</g>
<g>
</g>
<g>
</g>
<g>
</g>
</svg>
