<?xml version="1.0" encoding="UTF-8"?>
<svg xmlns="http://www.w3.org/2000/svg" id="Layer_1" data-name="Layer 1" viewBox="0 0 64 64" width="512" height="512"><path d="M32,63c-9.161,0-17.143-8.557-19.145-20.431a8.353,8.353,0,0,1-2.44-1.654A7.534,7.534,0,0,1,8,35.611a5.19,5.19,0,0,1,1.531-3.776,3.871,3.871,0,0,1,.5-.412A5.136,5.136,0,0,1,12.692,30.4C14.075,17.081,20.4,10.6,32,10.6s17.941,6.5,19.313,19.853a6.3,6.3,0,0,1,2.714,1.01,3.653,3.653,0,0,1,.439.369A5.2,5.2,0,0,1,56,35.611a7.539,7.539,0,0,1-2.414,5.3h0a8.4,8.4,0,0,1-2.44,1.653C49.143,54.443,41.161,63,32,63ZM13.356,32.371a3.449,3.449,0,0,0-2.153.67,2.2,2.2,0,0,0-.282.231A3.167,3.167,0,0,0,10,35.608a5.539,5.539,0,0,0,1.8,3.87,6.349,6.349,0,0,0,2.285,1.431,1,1,0,0,1,.653.793C16.433,52.884,23.69,61,32,61s15.567-8.116,17.259-19.3a1,1,0,0,1,.652-.793A6.348,6.348,0,0,0,52.2,39.478h0a5.538,5.538,0,0,0,1.8-3.87,3.167,3.167,0,0,0-.926-2.339,1.667,1.667,0,0,0-.222-.189,4.912,4.912,0,0,0-2.469-.7,1,1,0,0,1-.984-.915C48.3,18.593,42.77,12.6,32,12.6S15.7,18.593,14.6,31.461a1,1,0,0,1-1.039.914C13.492,32.372,13.424,32.371,13.356,32.371Z"/><path d="M53.412,33.252a1.011,1.011,0,0,1-.286-.042,1,1,0,0,1-.672-1.244A20.823,20.823,0,0,0,53.343,26C53.343,12.458,44.566,3,32,3A21.225,21.225,0,0,0,21.489,5.619a1,1,0,1,1-.978-1.744A23.2,23.2,0,0,1,32,1C45.525,1,55.343,11.514,55.343,26a22.792,22.792,0,0,1-.973,6.538A1,1,0,0,1,53.412,33.252Z"/><path d="M10.588,33.252a1,1,0,0,1-.958-.713A22.834,22.834,0,0,1,8.657,26a29.221,29.221,0,0,1,1.166-8.283,1,1,0,1,1,1.918.566A27.251,27.251,0,0,0,10.657,26a20.84,20.84,0,0,0,.889,5.965,1,1,0,0,1-.671,1.245A1.023,1.023,0,0,1,10.588,33.252Z"/><path d="M24.552,37.8a6.544,6.544,0,0,1-4.419-1.482,1,1,0,0,1,1.383-1.445,4.624,4.624,0,0,0,3.036.927,4.616,4.616,0,0,0,3.038-.928,1.008,1.008,0,0,1,1.41.047.994.994,0,0,1-.028,1.4A6.545,6.545,0,0,1,24.552,37.8Z"/><path d="M39.447,37.8a6.544,6.544,0,0,1-4.419-1.482,1,1,0,1,1,1.391-1.437,4.626,4.626,0,0,0,3.028.919,4.619,4.619,0,0,0,3.038-.928,1.006,1.006,0,0,1,1.409.047.993.993,0,0,1-.028,1.4A6.538,6.538,0,0,1,39.447,37.8Z"/><path d="M28.277,30.8a1,1,0,0,1-.872-.509A3.534,3.534,0,0,0,24.552,28.6,3.537,3.537,0,0,0,21.7,30.3a1,1,0,0,1-1.738-.988A5.561,5.561,0,0,1,24.552,26.6a5.562,5.562,0,0,1,4.595,2.709,1,1,0,0,1-.87,1.491Z"/><path d="M43.172,30.8a1,1,0,0,1-.869-.5,3.251,3.251,0,0,0-5.711,0,1,1,0,0,1-1.739-.988,5.251,5.251,0,0,1,9.189,0,1,1,0,0,1-.87,1.491Z"/><path d="M32,51.4a8.937,8.937,0,0,1-7.011-3.207A1,1,0,1,1,26.6,47.006,6.928,6.928,0,0,0,32,49.4,6.926,6.926,0,0,0,37.405,47a1,1,0,0,1,1.606,1.192A8.935,8.935,0,0,1,32,51.4Z"/><path d="M27.9,12.447l-1.79-.894c4.273-8.547,18.434-6.63,19.037-6.543l-.283,1.98C44.726,6.969,31.522,5.189,27.9,12.447Z"/><path d="M48,22a1,1,0,0,1-.554-.168C47.389,21.8,41.522,18,31,18c-9.478,0-14.33,3.745-14.378,3.783a1,1,0,0,1-1.247-1.564C15.591,20.047,20.767,16,31,16c11.174,0,17.3,4,17.555,4.168A1,1,0,0,1,48,22Z"/><path d="M58,63H54a1,1,0,0,1-1-1V59H50a1,1,0,0,1-1-1V54a1,1,0,0,1,1-1h3V50a1,1,0,0,1,1-1h4a1,1,0,0,1,1,1v3h3a1,1,0,0,1,1,1v4a1,1,0,0,1-1,1H59v3A1,1,0,0,1,58,63Zm-3-2h2V58a1,1,0,0,1,1-1h3V55H58a1,1,0,0,1-1-1V51H55v3a1,1,0,0,1-1,1H51v2h3a1,1,0,0,1,1,1Z"/><path d="M10,63H6a1,1,0,0,1-1-1V59H2a1,1,0,0,1-1-1V54a1,1,0,0,1,1-1H5V50a1,1,0,0,1,1-1h4a1,1,0,0,1,1,1v3h3a1,1,0,0,1,1,1v4a1,1,0,0,1-1,1H11v3A1,1,0,0,1,10,63ZM7,61H9V58a1,1,0,0,1,1-1h3V55H10a1,1,0,0,1-1-1V51H7v3a1,1,0,0,1-1,1H3v2H6a1,1,0,0,1,1,1Z"/><path d="M13,15H9a1,1,0,0,1-1-1V11H5a1,1,0,0,1-1-1V6A1,1,0,0,1,5,5H8V2A1,1,0,0,1,9,1h4a1,1,0,0,1,1,1V5h3a1,1,0,0,1,1,1v4a1,1,0,0,1-1,1H14v3A1,1,0,0,1,13,15Zm-3-2h2V10a1,1,0,0,1,1-1h3V7H13a1,1,0,0,1-1-1V3H10V6A1,1,0,0,1,9,7H6V9H9a1,1,0,0,1,1,1Z"/></svg>
