<svg id="BREAKOUTS" enable-background="new 0 0 64 64" height="512" viewBox="0 0 64 64" width="512" xmlns="http://www.w3.org/2000/svg"><path d="m51.3505859 34.7590332v-7.8320312c0-6.5965576-4.020752-12.2705688-9.7401123-14.7024536-.1835327-4.9219971-4.4181518-8.8751832-9.6104736-8.8751832s-9.4269409 3.953186-9.6104736 8.8751831c-2.7016602 1.1487427-5.0187378 3.0248413-6.7166748 5.3765869-.2565308.3553467-.1345215.8591309.2449951 1.0783081l.0003662.0001831c.3370361.1946411.7579346.0925903.9863892-.2225342 2.4974976-3.4455566 6.4697266-5.755127 10.9860229-5.9802856.404541-.0201416.7275391-.3395996.7275391-.7446289 0-.4232788-.3515015-.7752075-.774292-.7546997-1.3551025.0655518-2.6659546.3021851-3.9129639.6858521.4678955-3.829834 3.9058228-6.8139649 8.0690918-6.8139649s7.6011963 2.9841309 8.0690918 6.8139648c-1.2470093-.383667-2.5578613-.6203003-3.9129639-.6858521-.4227905-.0205078-.774292.3314209-.774292.7546997v.0011597c0 .404541.3225708.7233276.7266235.7434082 7.6422119.3797607 13.7421265 6.7158813 13.7421265 14.4502563v6.09021c-.6526489-.4708862-1.4043579-.7442017-2.2062988-.7504883-.579895-2.9251709-1.9641724-5.5480347-3.9043579-7.6522827l.6038208-1.8110352c.1310425-.3931274-.0814209-.8181152-.4745483-.9491577l-.0001831-.000061c-.3931274-.1310425-.8180542.0814209-.9490967.4745483l-.3709717 1.1126099c-2.8428955-2.5079955-6.5576172-4.028015-10.5489502-4.028015-3.991394 0-7.7062378 1.5200195-10.5491333 4.0275269l-.3707886-1.1121216c-.1310425-.3931274-.5559692-.6055908-.9490967-.4745483l-.0001831.000061c-.3931274.1310425-.6055908.5560303-.4745483.9491577l.6036377 1.8104858c-1.9408569 2.1046143-3.3252563 4.7277832-3.90448 7.652832-.8018188.0063477-1.5534668.2796631-2.2059937.7504883v-6.09021c0-2.1349487.4731445-4.1586304 1.3085327-5.9836426.1628418-.3557129.0418091-.7733154-.2969971-.9689331l-.003479-.0019531c-.3771362-.2177124-.8708496-.0751953-1.0528564.3204346-.9301758 2.0217896-1.4552002 4.2663574-1.4552002 6.6340942v7.8320313c-.505127.9277954-.8027344 2.0505371-.8027344 3.2607422 0 3.0657349 2.1143188 5.6586304 4.6472168 5.7545776 1.1965942 6.9047241 4.8494263 15.2876587 15.3947754 16.8684692.0371094.0048828.1855469.0048828.2226563 0 5.3980713-.8092041 8.9802246-3.4058228 11.3605347-6.6725464.2432861-.3339233.1550293-.8059692-.1816406-1.0454102l-.0153198-.0109253c-.3386841-.2407837-.8001709-.1547852-1.0463867.1799927-2.1719361 2.9531861-5.4049073 5.2970582-10.2285157 6.0479127-9.7421875-1.5166016-13.0400391-9.5078125-14.0830078-15.8974609-.03125-.4902344-.3115234-9.3261719-.2167969-10.0585938 1.0595703-6.996582 7.2070313-12.2724609 14.2998047-12.2724609s13.2402344 5.2758789 14.2998047 12.2724609c.0947266.7324219-.1855469 9.5683594-.2099609 9.9980469-.3912354 2.4038696-1.1044922 5.0175781-2.3389282 7.434021-.1700439.3328857-.0800171.7371216.2246704.9537964l.0099487.0070801c.3704224.2633667.8989258.1445313 1.1045532-.2607422 1.2438965-2.4510498 1.987915-5.085083 2.4153442-7.5408936 2.5288696-.0679321 4.6478882-2.6742554 4.6478882-5.7573242 0-1.2102051-.2976074-2.3329468-.8027344-3.2607422zm-38.0039062 3.2607422c0-2.2513428 1.258667-4.0819092 2.8403931-4.2269897-.0125732 1.899231.1248779 6.3331299.1984253 8.4554443-1.6442261-.1813965-3.0388184-2.0680542-3.0388184-4.2284546zm34.2692871 4.2338867c.0718994-2.1066284.2095947-6.5569458.1969604-8.4608765 1.5817261.1450806 2.8403931 1.975647 2.8403931 4.2269897 0 2.1774903-1.397522 4.0786744-3.0373535 4.2338868z"/><path d="m29.0498047 37.4308472c.3842773-.2567139.4609375-.7875977.1526489-1.131958l-.0037231-.0042114c-.2521362-.2816772-.6699219-.3252563-.9848633-.1161499-1.0159302.6745605-3.3530884 1.7995605-5.8050537.0184326-.3052368-.2218018-.7322388-.1688232-.9838867.1123657-.302063.3374023-.2318726.8608398.1359863 1.125061 1.2286377.8825073 2.4763794 1.2123413 3.6324463 1.2123413 1.5311889 0 2.9017334-.5780639 3.8564453-1.2158813z"/><path d="m20.8328247 31.8586426c-.4257202.1315918-.6595459.5886841-.4941406 1.0024414l.000061.0001221c.1490479.3729858.5605469.5462036.9446411.4285278 2.9277344-.8968506 5.786438-.0916138 7.0095215.355896.3612061.1321411.7579346-.0314941.9259644-.3775024l.0023193-.0047607c.1933594-.3980713.0078125-.8746338-.4071045-1.0286255-1.4138794-.5246583-4.611084-1.4176026-7.9812622-.3760987z"/><path d="m42.5750732 36.3093262-.0001831-.0002441c-.2515869-.2810669-.6782227-.3338623-.9835815-.1124878-2.4417725 1.7705078-4.7877197.6464233-5.8059692-.0234985-.3145752-.2069702-.7301636-.1620483-.9813232.1185303l-.0064697.0072632c-.3082886.3443604-.2316284.8752441.1526489 1.131958.9547119.6378174 2.3252563 1.2158813 3.8564453 1.2158813 1.1560669 0 2.4038086-.329834 3.6324463-1.2123413.3678588-.2642213.4380492-.7876588.1359862-1.1250611z"/><path d="m30.0829468 44.2991943c-.1784668.3737183-.0202637.8213501.3533936.9998779l1.2403564.5925903c.2044678.0977173.4421387.0977173.6466064 0l1.2403564-.5925903c.3736572-.1785278.5318604-.6261597.3533936-.9998779-.1785278-.3737793-.6263428-.5320435-1.0001221-.3533936l-.9169311.4382325-.9169312-.4382324c-.3737792-.1786499-.8215942-.0203858-1.000122.3533935z"/><path d="m37.0302734 51.7668457c.2070313 0 .4140625-.0859375.5625-.2539063.2734375-.3105469.2441406-.7841797-.0664063-1.0585938-.8300781-.7324219-2.4257813-1.2412109-4.3779297-1.3955078-.1123047-.0048828-.2275391.0087891-.3339844.0507813l-.814453.3212891-.8144531-.3212891c-.1064453-.0429688-.2226563-.0585938-.3339844-.0507813-1.9521484.1542969-3.5478516.6630859-4.3779297 1.3955078-.3105469.2744141-.3398438.7480469-.0664063 1.0585938.2753906.3115234.7480469.3398438 1.0585938.0664063.4160156-.3671875 1.5341797-.8447266 3.3330078-1.0097656l.9257813.3652344c.1757813.0703125.375.0703125.5507813 0l.9257813-.3652344c1.798828.165039 2.9169921.6425781 3.3330077 1.0097656.1425781.1259766.3193359.1875.4960937.1875z"/><path d="m29.8876953 52.1193848c-.4003906-.0722656-.7958984.2050781-.8642578.6142578-.0693359.4082031.2060547.7958984.6142578.8642578.7480469.1259766 1.5419922.1904297 2.3623047.1904297s1.6142578-.0644531 2.3623047-.1904297c.4082031-.0683594.6835938-.4560547.6142578-.8642578-.0693359-.4091797-.4667969-.6894531-.8642578-.6142578-1.3300781.2246093-2.8945313.2246093-4.2246094 0z"/><circle cx="23.573" cy="45.757" r=".75"/><circle cx="20.874" cy="42.299" r=".75"/><circle cx="26.273" cy="42.299" r=".75"/><circle cx="40.427" cy="45.757" r=".75"/><circle cx="37.727" cy="42.299" r=".75"/><circle cx="43.126" cy="42.299" r=".75"/><circle cx="32" cy="24.757" r=".75"/><circle cx="26.519" cy="24.757" r=".75"/><circle cx="37.481" cy="24.757" r=".75"/><circle cx="29.19" cy="28.216" r=".75"/><circle cx="34.81" cy="28.216" r=".75"/><path d="m34.8297729 33.2641602.0013428.0028076c.168457.3460693.5656738.5092163.9269409.3764038 1.2206421-.4486084 4.071167-1.2540894 7.0084839-.3535156.3839722.1177368.7954102-.055542.944458-.4284668l.000061-.0001221c.1654663-.4138794-.0684204-.8709717-.4942627-1.0025024-3.3692627-1.0405884-6.5656128-.1481934-7.9800415.3760986-.4152831.1539306-.60083.6310425-.4069824 1.0292969z"/></svg>