<svg height="512pt" viewBox="-32 0 512 512.00164" width="512pt" xmlns="http://www.w3.org/2000/svg"><path d="m172.253906 256.671875c-2.21875-3.5-6.855468-4.535156-10.355468-2.316406-35.574219 22.558593-59.304688-6.707031-60.34375-8.027344-2.542969-3.257813-7.242188-3.847656-10.511719-1.316406-3.273438 2.539062-3.871094 7.25-1.335938 10.527343.335938.429688 8.320313 10.609376 22.113281 17.074219 6.21875 2.914063 14.203126 5.339844 23.554688 5.339844 10.097656 0 21.789062-2.828125 34.558594-10.925781 3.5-2.21875 4.539062-6.855469 2.320312-10.355469zm0 0"/><path d="m307.847656 255.539062c2.527344-3.265624 1.933594-7.949218-1.320312-10.492187-3.257813-2.546875-7.964844-1.964844-10.523438 1.277344-.992187 1.261719-24.742187 30.613281-60.347656 8.03125-3.5-2.21875-8.132812-1.183594-10.355469 2.316406-2.21875 3.5-1.179687 8.136719 2.316407 10.355469 12.777343 8.101562 24.460937 10.929687 34.5625 10.929687 9.347656 0 17.335937-2.429687 23.554687-5.34375 13.792969-6.464843 21.78125-16.644531 22.113281-17.074219zm0 0"/><path d="m235.785156 380.238281h-74.015625c-9.671875 0-13.90625 12.242188-6.355469 18.253907 27.511719 21.894531 59.171876 21.929687 86.726563 0 7.574219-6.019532 3.300781-18.253907-6.355469-18.253907zm-57.460937 15.003907h40.910156c-13.433594 6.195312-27.480469 6.195312-40.910156 0zm0 0"/><path d="m198.777344 348.957031c14.820312 0 26.878906-12.058593 26.878906-26.878906 0-4.144531-3.355469-7.503906-7.5-7.503906s-7.503906 3.359375-7.503906 7.503906c0 6.546875-5.324219 11.875-11.875 11.875-6.546875 0-11.875-5.328125-11.875-11.875 0-4.144531-3.355469-7.503906-7.5-7.503906-4.144532 0-7.503906 3.359375-7.503906 7.503906 0 14.820313 12.058593 26.878906 26.878906 26.878906zm0 0"/><path d="m399.421875 410.140625c4.144531 0 7.5-3.359375 7.5-7.503906v-23.355469h27.023437c7.625 0 13.824219-6.203125 13.824219-13.824219v-12.003906c0-7.625-6.199219-13.824219-13.824219-13.824219h-14.816406c0-7.355468 0-169.421875 0-176.746094 0-15.585937-10.535156-28.75-24.859375-32.761718v-6.53125c0-8.15625-5.3125-15.082032-12.652343-17.539063v-62.308593c0-4.144532-3.359376-7.503907-7.503907-7.503907s-7.5 3.359375-7.5 7.503907v49.332031c-12.921875-20.171875-29.457031-38.625-49.367187-55.011719-29.167969-24.007812-63.054688-36.8125-100.71875-38.05859375-4.15625-.11718725-7.609375 3.10937475-7.746094 7.24999975s3.109375 7.609375 7.25 7.746094c34.28125 1.132812 65.125 12.789062 91.679688 34.648438 21.691406 17.855468 39.101562 38.253906 51.832031 60.71875-.003907 0-.007813.003906-.011719.007812-3.433594 3.363281-5.574219 8.039062-5.574219 13.214844v6.53125c-4.320312 1.210937-8.292969 3.253906-11.738281 5.945312-40.472656-57.730468-115.199219-94.550781-183.382812-113.558594 6.691406-1.957031 14.675781-3.894531 23.617187-5.324218 4.09375-.652344 6.878906-4.5 6.226563-8.59375-.652344-4.089844-4.5-6.878906-8.59375-6.222656-23.816407 3.804687-41.289063 10.917968-47.511719 13.707031-2.417969-.496094-3.867188-.757813-4.148438-.808594-.125-.023437-.25-.042969-.375-.058594-27.328125-3.414062-42.613281 16.539063-46.957031 23.304688-10.09375 5.445312-53.429688 31.570312-72.34375 87.488281-17.339844 51.261719-8.875 111.523438 25.148438 179.121094 3.035156 10.917968 5.9375 18.488281 7.140624 21.457031.3125 10.191406 2.640626 41.335937 18.546876 76.117187 21.914062 47.917969 61.59375 85.742188 120.699218 106.179688 12.058594 4.167969 25.347656 4.171875 37.40625 0 71.855469-24.851562 106.726563-71.945312 123.609375-113.378906v61.511718h-6.585937c-7.621094 0-13.824219 6.199219-13.824219 13.824219v12.003907c0 7.621093 6.203125 13.824218 13.824219 13.824218h78.792968c7.621094 0 13.820313-6.203125 13.820313-13.824218v-12.003907c0-7.625-6.199219-13.824219-13.820313-13.824219h-6.585937v-19.359374c0-4.140626-3.359375-7.5-7.503906-7.5s-7.5 3.359374-7.5 7.5v19.359374h-10.304688v-77.726562h10.304688v23.359375c0 4.140625 3.359375 7.5 7.503906 7.5zm-30.460937-286.554687c0-1.972657 1.679687-3.492188 3.492187-3.492188h3.320313c1.925781 0 3.492187 1.566406 3.492187 3.492188v5.269531h-10.304687zm-24.859376 206.398437h60.023438v9.644531h-60.023438zm60.023438-167.101563v2.410157h-5.652344c-4.144531 0-7.503906 3.359375-7.503906 7.503906 0 4.140625 3.359375 7.5 7.503906 7.5h5.652344v15.851563h-5.652344c-4.144531 0-7.503906 3.359374-7.503906 7.5 0 4.144531 3.359375 7.503906 7.503906 7.503906h5.652344v15.847656h-5.652344c-4.144531 0-7.503906 3.359375-7.503906 7.503906 0 4.140625 3.359375 7.5 7.503906 7.5h5.652344v15.851563h-5.652344c-4.144531 0-7.503906 3.359375-7.503906 7.5 0 4.144531 3.359375 7.503906 7.503906 7.503906h5.652344v15.847656h-5.652344c-4.144531 0-7.503906 3.359375-7.503906 7.503907 0 4.140624 3.359375 7.5 7.503906 7.5h5.652344v11.269531h-60.023438c0-4.988281 0-149.539063 0-152.097657 0-10.371093 8.53125-19.023437 19.023438-19.023437h21.976562c10.488282 0 19.023438 8.535156 19.023438 19.023437zm-278.132812-132.8125c69.875 12.953126 164.59375 55.386719 206.398437 118.222657-2.136719 4.484375-3.292969 9.546875-3.292969 14.589843v34.007813c-12.488281-16.707031-28.496094-32.5625-44.25-45.976563-28.878906-24.652343-68.785156-50.199218-82.714844-57.21875l-104.464843-52.261718c5.144531-5.722656 14.5625-13.003906 28.324219-11.363282zm-84.804688 231.917969c-.023438.378907-.0625.761719-.078125 1.140625-2.816406-25.652344-1.835937-56.707031 10.191406-86.871094 16.046875-40.242187 48.625-71.445312 96.859375-92.785156l34.875 17.445313c-56.378906 33.898437-137.539062 94.988281-141.847656 161.070312zm-18.308594-130.925781c16.0625-47.777344 52.777344-72.0625 63.695313-78.402344 8.539062 4.269532 35.945312 17.980469 44.492187 22.257813-45.980468 22.808593-77.488281 55.019531-93.753906 95.914062-9.878906 24.832031-12.8125 49.96875-12.535156 71.933594-12.335938-41.285156-12.996094-78.695313-1.898438-111.703125zm189.914063 363.628906c-8.902344 3.078125-18.703125 3.078125-27.601563 0-52.832031-18.265625-90.503906-51.320312-111.960937-98.234375-10.203125-22.316406-16.449219-47.605469-17.226563-71.539062-.003906-16.414063-.003906-40.875-.003906-57.40625 0-63.273438 87.789062-126.617188 142.777344-158.457031 45.8125 26.492187 104.792968 68.941406 130.320312 115.273437v115.300781h-14.816406c-7.625 0-13.824219 6.199219-13.824219 13.824219v12.003906c0 7.621094 6.199219 13.824219 13.824219 13.824219h17.070312c-13.867187 40.550781-45.714843 90.21875-118.558593 115.410156zm199.535156-22.683594v9.644532h-76.429687v-9.644532zm-45.71875-15.003906h-10.304687v-77.722656h10.304687zm-51.148437-92.726562v-9.644532h117.304687v9.644532c-26.964844 0-93.714844 0-117.304687 0zm0 0"/></svg>