<?xml version="1.0" encoding="iso-8859-1"?>
<!-- Generator: Adobe Illustrator 19.0.0, SVG Export Plug-In . SVG Version: 6.00 Build 0)  -->
<svg version="1.1" id="Capa_1" xmlns="http://www.w3.org/2000/svg" xmlns:xlink="http://www.w3.org/1999/xlink" x="0px" y="0px"
	 viewBox="0 0 511.997 511.997" style="enable-background:new 0 0 511.997 511.997;" xml:space="preserve">
<g>
	<g>
		<path d="M338.078,504.025l-2.381-37.721c-0.918-14.496-6.124-28.201-15.055-39.635c-2.55-3.265-7.264-3.845-10.527-1.293
			c-3.265,2.55-3.844,7.263-1.294,10.527c7.062,9.041,11.179,19.882,11.906,31.347l1.876,29.748H56.629l1.876-29.746
			c0.964-15.203,7.803-29.101,19.256-39.134c6.792-5.946,15.014-10.23,23.78-12.393l40.505-10.011
			c5.386-1.333,9.147-6.133,9.147-11.671v-28.953c13.299,5.356,26.59,8.082,38.422,8.082c12.156,0,25.193-2.752,37.962-7.83v28.581
			c0,5.545,3.757,10.349,9.142,11.682l40.981,10.122c3.479,0.855,6.91,2.059,10.194,3.575c1.019,0.471,2.088,0.693,3.14,0.693
			c2.834,0,5.547-1.615,6.813-4.357c1.737-3.76,0.097-8.217-3.664-9.953c-4.154-1.919-8.496-3.441-12.897-4.522l-38.71-9.562
			v-33.385c4.309-2.393,8.533-5.037,12.618-7.941c3.375-2.4,4.166-7.083,1.766-10.459c-2.401-3.375-7.083-4.167-10.459-1.766
			c-17.719,12.601-38.985,20.123-56.885,20.123c-20.535,0-45.07-9.819-64.032-25.627c-15.966-13.31-35.731-36.943-39.434-74.011
			c0.2-27.831,26.202-61.72,59.367-77.289c26.388-12.375,48.851-25.049,66.847-37.706c25.153,9.266,44.302,23.962,58.425,44.869
			c12.351,18.282,18.46,37.785,22.767,54.571c0.057,6.415-0.087,11.652-0.421,15.141c-0.103,1.041-0.215,2.072-0.347,3.103
			c-0.521,4.109,2.386,7.863,6.496,8.386c0.321,0.041,0.639,0.061,0.954,0.061c3.721,0,6.95-2.768,7.431-6.556
			c0.148-1.169,0.276-2.337,0.395-3.539c0.284-2.959,0.448-6.882,0.492-11.483c2.894-1.062,12.536-0.509,16.728-9.721
			c4.592-10.046,10.316-28.192,11.343-46.282c1.179-20.773-4.175-36.144-15.523-44.795c-0.809-26.49-7.74-47.994-20.626-63.965
			c-9.187-11.387-21.125-19.706-35.514-24.796c-4.655-24.051-23.764-45.443-48.926-54.18C194.36-3.176,149.724-7.422,94.37,48.757
			c-2.907,2.95-2.872,7.698,0.078,10.605c2.95,2.909,7.699,2.873,10.606-0.078c49.567-50.301,87.73-47.131,106.063-40.763
			c5.228,1.815,9.934,4.218,14.133,7.025c-4.808-0.154-9.693,0.259-14.495,1.268c-15.373,3.234-30.235,11.771-45.438,26.101
			c-3.014,2.841-3.155,7.588-0.314,10.603c1.476,1.565,3.465,2.355,5.459,2.355c1.845,0,3.694-0.677,5.143-2.042
			c13.137-12.382,25.644-19.689,38.235-22.338c10.821-2.271,22.055-0.591,30.447,4.477c16.801,29.518-0.06,52.925-26.536,74.677
			c-3.395,2.789-7.037,5.599-10.946,8.43c-0.002,0.002-0.004,0.004-0.007,0.006c-17.751,12.871-40.512,25.852-67.653,38.581
			c-37.083,17.408-65.443,54.032-67.842,86.778c-3.184-1.651-7.1-4.667-8.047-6.526c-7.131-29.492-18.982-104.227,23.189-166.039
			c2.334-3.421,1.453-8.088-1.968-10.422c-3.422-2.336-8.089-1.453-10.422,1.969c-45.666,66.934-32.922,146.948-25.326,178.236
			c1.977,8.175,14.459,17.516,23.962,18.793c7.568,41.54,34.172,71.014,63.502,87.441v33.814l-38.247,9.452
			c-11.08,2.731-21.478,8.15-30.068,15.672c-14.48,12.685-23.125,30.252-24.344,49.471l-2.379,37.722
			c-0.131,2.067,0.6,4.097,2.017,5.606c1.418,1.51,3.396,2.366,5.468,2.366h281.952c2.071,0,4.05-0.856,5.468-2.366
			C337.478,508.121,338.208,506.092,338.078,504.025z M265.724,74.974c26.932,12.21,36.773,37.497,39.545,61.274l-2.907-2.048
			c-3.387-2.388-8.065-1.575-10.451,1.812c-2.385,3.386-1.574,8.065,1.812,10.45l15.642,11.019c0.088,0.062,0.183,0.104,0.272,0.162
			c0.1,0.064,0.191,0.137,0.294,0.197c19.697,11.376,10.673,54.682,1.719,74.281l-5.176,1.082
			c-10.111-36.36-29.171-77.901-80.119-100.216C244.45,118.254,263.098,98.068,265.724,74.974z"/>
	</g>
</g>
<g>
	<g>
		<path d="M323.363,335.635l-6.551-7.808c-2.663-3.172-7.394-3.588-10.566-0.924c-3.173,2.662-3.587,7.393-0.925,10.566l6.551,7.808
			c1.484,1.768,3.609,2.679,5.75,2.679c1.701,0,3.412-0.575,4.817-1.755C325.612,343.54,326.026,338.808,323.363,335.635z"/>
	</g>
</g>
<g>
	<g>
		<path d="M463.373,421.869c-4.142,0-7.5,3.357-7.5,7.5v51.449c0,2.556-2.079,4.635-4.635,4.635c-1.374,0-2.667-0.604-3.551-1.656
			l-12.557-14.966c2.715-3.973,4.348-8.605,4.701-13.55c0.537-7.506-1.931-14.73-6.948-20.34
			c-13.024-14.559-35.836-41.205-41.605-50.732c-3.09-5.104-6.805-13.845-10.397-22.298c-4.899-11.526-9.965-23.446-15.138-30.666
			c-5.301-7.401-31.905-33.709-37.891-36.576c-5.876-2.832-12.896-2.624-18.616,0.669l-26.054-23.461
			c-5.227-4.706-13.233-4.847-18.622-0.324l-7.537,6.324c-5.388,4.521-6.64,12.43-2.912,18.396l18.94,30.308
			c-3.714,5.948-4.351,13.628-0.032,21.132c8.597,13.701,20.291,31.507,27.172,38.537c6.212,6.347,17.072,13.406,27.572,20.232
			c7.7,5.006,15.664,10.183,20.154,14.112c8.384,7.338,30.663,34.429,42.737,49.782c4.652,5.915,11.338,9.6,18.824,10.374
			c0.972,0.101,1.939,0.15,2.902,0.15c3.92,0,7.735-0.839,11.254-2.432l12.56,14.97c3.74,4.458,9.223,7.015,15.043,7.015
			c10.827,0,19.636-8.809,19.636-19.636v-51.449C470.873,425.226,467.515,421.869,463.373,421.869z M267.204,288.918l6.462-5.423
			l23.733,21.371l-13.272,11.135L267.204,288.918z M285.578,339.45c-0.052-0.097-0.104-0.195-0.149-0.294
			c-0.931-2.065-0.277-4.431,1.295-5.75c31.427-26.365,29.734-25.478,31.981-25.695c1.244-0.117,2.474,0.218,3.486,1.017
			c6.467,7.832,10.415,16.845,11.128,25.425c0.643,7.745-1.485,14.094-5.992,17.875c-4.506,3.782-11.128,4.775-18.644,2.797
			C300.371,352.636,292.195,347.198,285.578,339.45z M424.87,454.213c-0.245,3.426-1.83,6.529-4.464,8.739
			c-2.636,2.21-5.967,3.237-9.384,2.878c-3.411-0.354-6.457-2.032-8.576-4.727c-11.099-14.114-34.714-43.104-44.649-51.797
			c-5.295-4.635-13.34-9.864-21.857-15.401c-9.819-6.383-19.973-12.983-25.028-18.149c-1.341-1.369-3.087-3.484-5.159-6.221
			c3.512,0.855,6.947,1.299,10.246,1.299c7.988,0,15.21-2.48,20.973-7.316c8.142-6.831,12.147-17.353,11.352-29.693
			c2.333,2.514,4.111,4.599,5.226,6.156c4.208,5.875,8.945,17.022,13.527,27.799c3.973,9.349,7.726,18.179,11.37,24.198
			c6.834,11.289,31.283,39.583,43.257,52.967C423.991,447.502,425.115,450.793,424.87,454.213z"/>
	</g>
</g>
<g>
	<g>
		<path d="M350.372,255.618h-0.143c-4.142,0-7.5,3.357-7.5,7.5s3.358,7.5,7.5,7.5h0.143c4.142,0,7.5-3.357,7.5-7.5
			S354.514,255.618,350.372,255.618z"/>
	</g>
</g>
<g>
	<g>
		<path d="M379.76,233.01h-0.143c-4.142,0-7.5,3.357-7.5,7.5s3.358,7.5,7.5,7.5h0.143c4.142,0,7.5-3.357,7.5-7.5
			S383.903,233.01,379.76,233.01z"/>
	</g>
</g>
<g>
	<g>
		<path d="M379.76,278.225h-0.143c-4.142,0-7.5,3.357-7.5,7.5s3.358,7.5,7.5,7.5h0.143c4.142,0,7.5-3.357,7.5-7.5
			S383.903,278.225,379.76,278.225z"/>
	</g>
</g>
<g>
</g>
<g>
</g>
<g>
</g>
<g>
</g>
<g>
</g>
<g>
</g>
<g>
</g>
<g>
</g>
<g>
</g>
<g>
</g>
<g>
</g>
<g>
</g>
<g>
</g>
<g>
</g>
<g>
</g>
</svg>
