<svg id="Outline" height="512" viewBox="0 0 128 128" width="512" xmlns="http://www.w3.org/2000/svg"><path d="m95.115 96.45a1.493 1.493 0 0 1 -1.06-.439l-10-10a1.5 1.5 0 0 1 2.121-2.121l10 10a1.5 1.5 0 0 1 -1.061 2.56z"/><path d="m82.863 84.093a1.494 1.494 0 0 1 -1.06-.44l-1.855-1.853a1.5 1.5 0 1 1 2.121-2.121l1.855 1.853a1.5 1.5 0 0 1 -1.061 2.561z"/><path d="m81.531 87.349h-2.622a1.5 1.5 0 0 1 0-3h2.622a1.5 1.5 0 0 1 0 3z"/><path d="m86.119 82.761a1.5 1.5 0 0 1 -1.5-1.5v-2.621a1.5 1.5 0 0 1 3 0v2.621a1.5 1.5 0 0 1 -1.5 1.5z"/><path d="m88.671 85.046a1.5 1.5 0 0 1 -.9-2.7l2.1-1.57a1.5 1.5 0 1 1 1.8 2.405l-2.1 1.569a1.493 1.493 0 0 1 -.9.296z"/><path d="m82.141 92.106a1.5 1.5 0 0 1 -1.2-2.4l1.57-2.1a1.5 1.5 0 0 1 2.4 1.8l-1.569 2.1a1.5 1.5 0 0 1 -1.201.6z"/><path d="m64 80.316a7.336 7.336 0 0 1 -4.78-1.988 1.4 1.4 0 0 1 1.82-2.117c2.047 1.761 3.873 1.761 5.92 0a1.4 1.4 0 0 1 1.82 2.117 7.336 7.336 0 0 1 -4.78 1.988z"/><path d="m74.753 86.58a1.061 1.061 0 0 0 -1.446-.4l-.189.108a2.552 2.552 0 0 1 -.735.213 8.2 8.2 0 0 1 -1.073.095 13.812 13.812 0 0 1 -2.3-.152c-.186-.028-1.079-.252-1.181-.272a3.014 3.014 0 0 0 -2.389.524 3.358 3.358 0 0 1 -1.44.49 3.358 3.358 0 0 1 -1.443-.488 3.014 3.014 0 0 0 -2.389-.524c-.1.02-.995.244-1.181.272a13.812 13.812 0 0 1 -2.3.152 8.2 8.2 0 0 1 -1.073-.095 2.552 2.552 0 0 1 -.735-.213l-.189-.108a1.06 1.06 0 0 0 -1.26 1.685 4.018 4.018 0 0 0 1.555.9 7.723 7.723 0 0 0 1.455.348 11.087 11.087 0 0 0 2.833.129 6 6 0 0 1 1.342-.12c.309.072.5.321.764.474a4 4 0 0 0 .894.388 5.955 5.955 0 0 0 3.448 0 4 4 0 0 0 .894-.388c.268-.153.455-.4.764-.474a6 6 0 0 1 1.342.12 11.087 11.087 0 0 0 2.833-.129 7.723 7.723 0 0 0 1.455-.348 4.018 4.018 0 0 0 1.555-.9 1.062 1.062 0 0 0 .189-1.287z"/><path d="m64.042 95.629a5.539 5.539 0 0 1 -2.418-.571 1.5 1.5 0 0 1 1.3-2.7 2.41 2.41 0 0 0 2.234 0 1.5 1.5 0 0 1 1.3 2.7 5.543 5.543 0 0 1 -2.416.571z"/><path d="m56.03 55.787c-1.7-.136-3.449-.231-5.186-.381-1.742-.119-3.486-.26-5.227-.477 0 0-1.96-.247-2.616-.3a21.94 21.94 0 0 0 -2.405-.052 14.019 14.019 0 0 0 -4.689 1.529l-.046.024a.669.669 0 0 1 -.707-1.13 14.365 14.365 0 0 1 5.075-2.425c.472-.111 2.2-.29 2.2-.29l.669-.015 2.676-.028a42.937 42.937 0 0 1 5.337.331 35.256 35.256 0 0 1 5.323.956 1.152 1.152 0 0 1 -.389 2.261z"/><path d="m52.168 64.909c-.656.021-1.323 0-1.983-.009a20.386 20.386 0 0 1 -3.814-.358 13.481 13.481 0 0 1 -3.462-1.108s-.485-.257-.619-.31a2.777 2.777 0 0 0 -.834-.192 2.969 2.969 0 0 0 -1.471.271 14.213 14.213 0 0 1 -1.711.749l-.029.009a.653.653 0 0 0 0 1.246 5.208 5.208 0 0 0 2.342.035.925.925 0 0 1 .563.024c.06.026.433.293.433.293a10.849 10.849 0 0 0 4.252 1.748 16.728 16.728 0 0 0 4.418.234 15.868 15.868 0 0 0 4.362-.827.993.993 0 0 0 -.461-1.917s-1.339.103-1.986.112z"/><path d="m71.563 53.528a35.256 35.256 0 0 1 5.323-.956 42.937 42.937 0 0 1 5.337-.331l2.676.028 1.42.057a12.254 12.254 0 0 1 1.452.248 14.365 14.365 0 0 1 5.075 2.426.669.669 0 0 1 -.707 1.132l-.046-.025a14.019 14.019 0 0 0 -4.693-1.53 9.781 9.781 0 0 0 -1.178-.055l-1.222.107-2.616.3c-1.741.217-3.485.358-5.227.477-1.737.15-3.482.245-5.186.381h-.018a1.152 1.152 0 0 1 -.389-2.261z"/><path d="m75.832 64.909c.656.021 1.323 0 1.983-.009a20.386 20.386 0 0 0 3.814-.358 13.481 13.481 0 0 0 3.462-1.108s.485-.257.619-.31a2.777 2.777 0 0 1 .834-.192 2.969 2.969 0 0 1 1.471.271 14.213 14.213 0 0 0 1.711.749l.029.009a.653.653 0 0 1 0 1.246 5.208 5.208 0 0 1 -2.342.035.925.925 0 0 0 -.563.024c-.06.026-.433.293-.433.293a10.849 10.849 0 0 1 -4.252 1.748 16.728 16.728 0 0 1 -4.418.234 15.868 15.868 0 0 1 -4.362-.827.993.993 0 0 1 .461-1.917s1.339.103 1.986.112z"/><path d="m127.188 117.69a1.5 1.5 0 0 0 -2.121 0l-1.172 1.173-5.113-5.113 2.465-2.465a1.5 1.5 0 0 0 -2.121-2.121l-.8.8-17.816-17.824a3.4 3.4 0 0 0 -4.7 0l-3.5 3.5a3.333 3.333 0 0 0 0 4.7l2.79 2.79 15.029 15.028-.8.8a1.5 1.5 0 0 0 2.121 2.121l2.466-2.465 5.113 5.113-1.174 1.173a1.5 1.5 0 1 0 2.122 2.121l7.212-7.212a1.5 1.5 0 0 0 -.001-2.119zm-32.762-19.464a.329.329 0 0 1 0-.464l3.5-3.5a.285.285 0 0 1 .463 0l1.73 1.73-3.964 3.964zm21.174 14.463-3.353 3.353-13.971-13.966 3.964-3.964 1.559 1.559-1.129 1.129a1.5 1.5 0 0 0 2.121 2.121l1.129-1.129 2.2 2.2-1.129 1.128a1.5 1.5 0 1 0 2.121 2.121l1.129-1.128 2.2 2.2-1.129 1.129a1.5 1.5 0 1 0 2.122 2.121l1.128-1.128 1.644 1.643-.607.607zm5.549 8.92-5.113-5.113.624-.625 5.113 5.113z"/><path d="m106.25 61.292c-.067-.073-.143-.134-.213-.2 1.617-9.162 1.547-25.567-2.817-34.617-7.112-14.744-23.6-25.442-39.2-25.442h-.029c-15.607 0-32.095 10.7-39.206 25.442-4.364 9.05-4.434 25.455-2.817 34.617-.07.07-.146.131-.213.2-2.135 2.317-2.972 5.64-2.354 9.356.958 5.777 6.781 11.977 12.665 12 1.992 6.768 4.976 12.216 8.885 16.008a49.74 49.74 0 0 0 9.79 7.626c-.5 4.355-2.553 14.415-10.968 17.8a1.5 1.5 0 0 0 .559 2.892 1.514 1.514 0 0 0 .56-.108c9.2-3.7 11.889-13.771 12.677-19.1a38.859 38.859 0 0 0 7.6 2.658 12.268 12.268 0 0 0 5.678 0 38.869 38.869 0 0 0 7.6-2.658c.785 5.325 3.474 15.4 12.678 19.1a1.5 1.5 0 0 0 1.951-.833 1.5 1.5 0 0 0 -.832-1.951c-8.415-3.381-10.469-13.441-10.968-17.8a49.748 49.748 0 0 0 9.791-7.626c3.908-3.792 6.892-9.24 8.885-16.008 5.883-.025 11.706-6.225 12.664-12 .606-3.716-.231-7.039-2.366-9.356zm-83.9 8.865a7.94 7.94 0 0 1 1.6-6.832 7.293 7.293 0 0 1 5.219-2.148q.03 2.648.185 5.17a7.554 7.554 0 0 0 -3.411-.513 1.5 1.5 0 0 0 .289 2.986 4.055 4.055 0 0 1 3.428 1.32 74.131 74.131 0 0 0 1.57 9.416c-4.004-.627-8.202-5.335-8.876-9.399zm62.616 26.343c-4.625 4.483-10.106 8.918-18.825 11a9.243 9.243 0 0 1 -4.284 0c-8.717-2.08-14.2-6.515-18.823-11-7.495-7.268-11.344-21.4-10.834-39.786a94.1 94.1 0 0 1 1.793-13.514c8.654-1.267 13.97-8.611 17.944-14.153a15.34 15.34 0 0 1 13.069-6.727 12.875 12.875 0 0 1 10.732 6.1 3.475 3.475 0 0 0 2.731 1.68c.359.021.691.031 1.005.04a6.235 6.235 0 0 1 1.918.235c2.8.98 4.382 3.41 6.063 5.983a34.7 34.7 0 0 0 2.4 3.371 12.04 12.04 0 0 0 3.78 3.007 56.064 56.064 0 0 1 2.165 13.975c.51 18.389-3.339 32.521-10.834 39.789zm7.117-58.64a32.182 32.182 0 0 1 -2.191-3.092c-1.786-2.733-3.808-5.831-7.538-7.138a8.658 8.658 0 0 0 -2.8-.4c-.287-.008-.59-.017-.918-.036a.579.579 0 0 1 -.422-.3 15.949 15.949 0 0 0 -13.11-7.482 18.461 18.461 0 0 0 -15.536 7.94c-4.311 6.013-9.67 13.506-18.858 13.131a1.456 1.456 0 1 0 -.115 2.909c.1 0 .2-.006.295 0a96.652 96.652 0 0 0 -1.69 13.236c-.014.528-.012 1.04-.02 1.561a11.485 11.485 0 0 0 -4.485.995c-1.27-8.8-1.04-23.473 2.787-31.41 6.638-13.761 21.987-23.745 36.505-23.745h.027c14.516 0 29.867 9.985 36.5 23.745 3.828 7.939 4.054 22.612 2.783 31.408a11.474 11.474 0 0 0 -4.481-.994c-.008-.521-.006-1.032-.02-1.56a60.46 60.46 0 0 0 -1.725-12.692c.317.067.635.133.965.182a1.582 1.582 0 0 0 .216.016 1.455 1.455 0 0 0 .212-2.9 9.8 9.8 0 0 1 -6.381-3.374zm13.563 32.3c-.675 4.067-4.876 8.794-8.888 9.421a74.023 74.023 0 0 0 1.576-9.438 4.048 4.048 0 0 1 3.428-1.32 1.517 1.517 0 0 0 1.637-1.348 1.5 1.5 0 0 0 -1.348-1.638 7.515 7.515 0 0 0 -3.412.535q.158-2.529.186-5.191a7.286 7.286 0 0 1 5.219 2.147 7.94 7.94 0 0 1 1.602 6.829z"/></svg>