<svg id="Capa_1" enable-background="new 0 0 512.549 512.549" height="512" viewBox="0 0 512.549 512.549" width="512" xmlns="http://www.w3.org/2000/svg"><g><path d="m477.354 286.478c10.023-21.151 14.685-42.81 14.685-66.945 0-29.867-7.427-57.086-22.073-80.901l-12.777 7.858c13.172 21.417 19.851 45.991 19.851 73.042 0 27.85-6.912 52.156-22.075 76.615v-56.996c0-38.704-27.657-71.062-64.245-78.369 13.631-17.336 21.257-38.934 21.315-61.208 14.89 10.694 27.307 22.453 37.001 35.089l11.901-9.131c-12.841-16.738-29.906-31.982-50.756-45.348-4.255-21.753-15.779-41.59-32.7-56.161-17.991-15.491-40.991-24.023-64.764-24.023-23.753 0-46.74 8.521-64.724 23.992-16.912 14.549-28.443 34.36-32.718 56.088-20.246 12.948-36.904 27.667-49.663 43.849l-12.061-10.305-9.744 11.404 15.579 13.31c1.33 1.116 2.145 2.684 2.295 4.414.15 1.729-.381 3.412-1.496 4.742l-20.585 24.512c-2.305 2.739-6.411 3.096-9.104.834l-32.266-27.567 28.938-34.46 4.584 3.917 9.744-11.404-35.855-30.634 9.567-11.392-11.487-9.646-18.73 22.304-18.704-15.709 11.736-13.976-11.487-9.646-52.009 61.934 11.487 9.646 11.334-13.497 18.704 15.707-19.614 23.357 11.487 9.646 9.484-11.294 63.39 54.159c4.021 3.377 8.928 5.026 13.809 5.025.451 0 .902-.018 1.352-.047-1.79 9.741-2.707 19.865-2.707 30.269 0 23.952 4.588 45.465 14.454 66.464-13.103 8.011-21.476 22.485-21.476 38.167 0 24.638 20.044 44.682 44.682 44.682h4.148c4.138 14.338 10.973 28.135 20.48 41.258l12.147-8.8c-14.838-20.483-22.361-42.697-22.361-66.026v-54.258c0-24.334 10.614-46.228 27.446-61.322l15.707 12.64 9.404-11.687-12.656-10.184c12.413-7.501 26.951-11.825 42.482-11.825h45.004c24.04 0 47.045-8.625 65.128-24.353 34.503 1.474 62.12 30.004 62.12 64.863v96.126c0 33.883-16.638 66.645-46.85 92.249-24.73 20.96-57.068 35.042-80.468 35.042-25.48 0-66.637-17.225-95.996-50.146l-11.195 9.983c9.39 10.529 20.353 20.061 32.353 28.212v61.699h15v-52.54c1.99 1.087 3.996 2.147 6.024 3.157 18.958 9.438 38.07 14.635 53.814 14.635 17.875 0 39.35-6.59 59.839-17.8v52.779h15v-61.953c5.291-3.592 10.432-7.475 15.328-11.624 23.651-20.044 39.816-44.208 47.335-70.125h3.193c24.638 0 44.682-20.044 44.682-44.682.001-15.521-7.903-29.586-20.667-37.685zm-420.713-216.742 18.283 15.353-9.646 11.487-18.283-15.353zm39.354 14.443 19.768 16.89-28.938 34.46-19.768-16.89zm71.553 99.29-10.548-8.857 9.646-11.487 10.548 8.858zm3.366 170.377c-16.367 0-29.682-13.315-29.682-29.682 0-10.099 5.233-19.437 13.483-24.848 4.46 7.667 9.652 15.32 15.613 23.054v12.909c0 6.27.49 12.46 1.433 18.567zm-.585-72.825v15.128c-15.162-24.459-22.075-48.766-22.075-76.615 0-10.438 1.009-20.541 2.972-30.183l18.162 15.252 9.93-11.825 21.639 17.413c-18.845 17.767-30.628 42.947-30.628 70.83zm142.388-97.378h-45.004c-20.303 0-39.173 6.249-54.793 16.919l-23.952-19.274 9.36-11.146-22.994-19.31c1.107-2.958 1.573-6.142 1.291-9.382-.169-1.944-.612-3.818-1.267-5.599 12.473-16.598 29.5-31.665 50.675-44.82l.846-.525c17.59-10.782 36.786-18.065 57.077-21.635l-2.6-14.773c-16.589 2.919-32.506 8.113-47.52 15.476 4.954-13.116 13.147-24.925 23.939-34.209 15.265-13.133 34.777-20.365 54.942-20.365 20.182 0 39.706 7.242 54.976 20.392 15.114 13.015 25.156 30.966 28.277 50.547l.098.616c.637 4.2.97 8.489.97 12.766 0 23.025-9.538 45.213-26.201 61.081l-.889.822c-15.627 14.457-35.953 22.419-57.231 22.419zm140.784 170.199c.965-6.128 1.463-12.325 1.463-18.563v-12.909c5.837-7.572 10.934-15.067 15.332-22.573 7.887 5.466 12.726 14.47 12.726 24.367 0 16.313-13.228 29.591-29.521 29.678z"/><path d="m298.121 67.008c4.793-.419 9.68-.632 14.525-.632v-15c-5.28 0-10.608.232-15.834.69z"/><path d="m214.337 294.858c5.126 7.525 13.623 12.019 22.729 12.019h39.958v-15h-39.958c-4.139 0-8.001-2.042-10.331-5.463l-5.22-7.664-12.397 8.444z"/><path d="m410.002 294.858 5.22-7.664-12.397-8.444-5.22 7.664c-2.331 3.421-6.193 5.463-10.332 5.463h-39.958v15h39.958c9.105-.001 17.602-4.493 22.729-12.019z"/><path d="m280.541 390.735c10.351 2.425 20.996 3.638 31.646 3.638 10.608 0 21.221-1.204 31.541-3.612l.118-.028-3.438-14.601-.103.024c-18.431 4.301-37.914 4.292-56.342-.026z"/><path d="m281.383 332.072 7.327 13.089c5.007-2.804 9.572-6.165 13.568-9.992l-10.375-10.833c-3.08 2.95-6.62 5.553-10.52 7.736z"/><path d="m256.921 354.28c5.586-.353 11.075-1.275 16.313-2.743l-4.048-14.443c-4.227 1.185-8.67 1.93-13.208 2.216z"/><path d="m224.349 349.109c5.483 2.126 10.877 3.597 16.032 4.371l2.229-14.833c-4.064-.611-8.384-1.796-12.839-3.523z"/><path d="m197.121 329.395c3.314 4.195 7.376 8.003 12.417 11.642l8.778-12.163c-3.9-2.815-6.983-5.686-9.426-8.777z"/><path d="m225.464 241.562c-5.283 2.001-10.282 4.608-14.858 7.75l8.489 12.366c3.589-2.463 7.519-4.512 11.682-6.088z"/><path d="m257.045 251.896 1.096-14.96c-5.398-.396-10.955-.214-16.516.54l2.014 14.864c4.533-.615 9.044-.764 13.406-.444z"/><path d="m270.177 254.318c4.104 1.219 8.189 2.987 12.142 5.254l7.463-13.012c-4.958-2.844-10.116-5.071-15.332-6.621z"/><path d="m303.073 256.718-10.306 10.899c2.789 2.637 5.385 6.116 7.509 10.063l13.209-7.107c-2.914-5.417-6.417-10.078-10.412-13.855z"/></g></svg>