<svg id="Capa_1" enable-background="new 0 0 512.549 512.549" height="512" viewBox="0 0 512.549 512.549" width="512" xmlns="http://www.w3.org/2000/svg"><g><path d="m490.417 286.479c10.023-21.151 14.684-42.81 14.684-66.945 0-57.662-27.534-104.528-81.857-139.348-4.255-21.753-15.779-41.59-32.7-56.161-17.991-15.493-40.992-24.025-64.765-24.025-23.753 0-46.739 8.521-64.724 23.992-16.912 14.549-28.443 34.36-32.718 56.088-54.429 34.806-82.021 81.708-82.021 139.454 0 23.952 4.588 45.465 14.454 66.464-13.103 8.011-21.476 22.485-21.476 38.167 0 24.638 20.044 44.682 44.682 44.682h4.231c4.558 15.711 12.291 30.777 22.948 44.671h-16.602l.006-14.685-30.036-.012c-2.961-8.326-10.888-14.316-20.169-14.32l-20.425-.182-.134 14.999 20.489.182c3.584.001 6.5 2.918 6.498 6.502l-.012 32.004c-.001 1.735-.678 3.366-1.906 4.592-1.228 1.227-2.859 1.902-4.531 1.902h-.001l-42.437-.378.017-44.999 6.03.054.134-14.999-47.158-.42.006-14.876-15-.006-.011 29.125-29.425-.01.007-18.25-15-.006-.031 80.875 15 .006.007-17.625 29.425.01-.012 30.5 15 .006.006-14.748 83.372.742h.01c5.739 0 11.136-2.234 15.196-6.291 2.652-2.649 4.509-5.875 5.492-9.388l29.583.012.006-15.315h29.71c3.549 3.592 7.307 7.083 11.284 10.454 4.896 4.149 10.037 8.033 15.328 11.625v61.722h15v-52.55c20.488 11.21 41.964 17.8 59.838 17.8 16.785 0 38.434-6.056 59.839-17.708v52.687h15v-61.835c15.781-10.715 30.747-24.526 42.73-41.256l-12.193-8.735c-25.019 34.927-66.225 57.166-96.093 61.183l3.577-2-7.321-13.092-13.092 7.321 4.674 8.359c-22.739-1.061-52.835-14.403-76.399-33.976h11.055v-15h-26.735c-15.699-17.311-32.36-43.796-32.36-78.238v-54.258c0-26.268 12.095-50.354 33.184-66.081l-8.968-12.024c-24.556 18.313-39.216 47.511-39.216 78.105v15.128c-15.162-24.459-22.075-48.766-22.075-76.615 0-27.935 7.123-53.221 21.171-75.155 12.833-20.037 31.878-37.986 56.607-53.348l.588-.365c25.817-15.886 55.544-24.289 86.026-24.289v-15c-27.478 0-54.396 6.264-78.818 18.216 4.954-13.124 13.149-24.94 23.947-34.229 15.265-13.133 34.777-20.365 54.942-20.365 20.182 0 39.706 7.242 54.977 20.392 15.113 13.015 25.155 30.966 28.277 50.547l.102.638c.635 4.191.966 8.473.966 12.744 0 23.029-9.542 45.221-26.209 61.089l-.88.814c-15.629 14.457-35.954 22.418-57.232 22.418h-45.004c-15.567 0-30.445 3.565-44.22 10.597l6.82 13.36c11.643-5.943 24.226-8.957 37.399-8.957h45.004c24.04 0 47.046-8.625 65.128-24.353 34.503 1.474 62.12 30.004 62.12 64.863v96.126c0 18.363-4.731 36.2-14.062 53.015l13.115 7.278c4.814-8.673 8.535-17.601 11.176-26.726h3.147c24.638 0 44.682-20.044 44.682-44.682 0-15.521-7.904-29.586-20.668-37.684zm-445.065 141.522-28.875-.01.006-15 28.875.01zm15.554-10 .007-19.243 26 .232-.017 44.999-26-.232zm118.643 10.825-13.774-.005.006-15 13.774.005zm5.306-74.98h-.878c-16.367 0-29.682-13.315-29.682-29.682 0-10.099 5.233-19.437 13.483-24.848 4.46 7.667 9.652 15.32 15.613 23.054v12.909c.001 6.24.499 12.438 1.464 18.567zm218.928-193.063c13.631-17.337 21.258-38.935 21.315-61.21 18.622 13.377 33.351 28.428 43.877 44.883 14.019 21.915 21.127 47.174 21.127 75.078 0 27.851-6.912 52.157-22.074 76.616v-56.996c-.001-38.705-27.658-71.063-64.245-78.371zm62.803 193.059c.952-6.12 1.441-12.311 1.441-18.563v-12.91c5.837-7.571 10.935-15.066 15.332-22.572 7.887 5.466 12.726 14.47 12.726 24.367 0 16.306-13.217 29.578-29.499 29.678z"/><path d="m290.086 291.876h-39.958c-4.139 0-8-2.042-10.331-5.463l-5.22-7.664-12.397 8.444 5.22 7.664c5.126 7.525 13.623 12.019 22.728 12.019h39.958z"/><path d="m400.336 291.876h-39.958v15h39.958c9.105 0 17.602-4.493 22.728-12.019l5.221-7.664-12.396-8.444-5.221 7.664c-2.331 3.421-6.193 5.463-10.332 5.463z"/><path d="m356.715 390.764.119-.028-3.412-14.606-.117.027c-18.43 4.3-37.911 4.292-56.341-.026l-3.422 14.604c10.353 2.426 21 3.638 31.649 3.638 10.605.001 21.212-1.203 31.524-3.609z"/><path d="m209.224 354.518h15v15h-15z" transform="matrix(.355 -.935 .935 .355 -198.617 436.305)"/><path d="m234.26 377.398c4.214 2.018 8.51 4.282 12.77 6.73l7.474-13.006c-4.583-2.634-9.214-5.074-13.765-7.253z"/><path d="m271.017 400.32 9.191-11.854c-4.565-3.54-8.668-6.524-12.54-9.125l-8.361 12.454c3.587 2.408 7.417 5.196 11.71 8.525z"/><path d="m292.338 419.665 10.941-10.261c-3.834-4.088-7.774-7.788-11.124-10.867l-10.152 11.042c3.146 2.893 6.836 6.354 10.335 10.086z"/><path d="m322.92 433.551c-2.785-4.082-5.854-8.171-9.382-12.503l-11.631 9.474c3.258 3.999 6.078 7.755 8.622 11.483z"/></g></svg>