<svg clip-rule="evenodd" fill-rule="evenodd" height="512" stroke-linejoin="round" stroke-miterlimit="2" viewBox="0 0 64 64" width="512" xmlns="http://www.w3.org/2000/svg"><path d="m38.372 45.95v-.001c0-.56-.222-1.096-.617-1.492-.396-.395-.932-.617-1.491-.617-2.912 0-10.753 0-13.665 0-.559 0-1.095.222-1.491.617-.395.396-.618.932-.618 1.492v.001c0 2.1.835 4.115 2.32 5.6s3.499 2.319 5.599 2.319h2.045c2.1 0 4.114-.834 5.599-2.319s2.319-3.5 2.319-5.6zm-2-.001v.001c0 1.57-.623 3.075-1.733 4.185s-2.616 1.734-4.185 1.734c-.678 0-1.367 0-2.045 0-1.57 0-3.075-.624-4.185-1.734s-1.734-2.615-1.734-4.185v-.001c0-.029.012-.057.032-.077.021-.021.048-.032.077-.032h13.665c.029 0 .056.011.077.032.02.02.031.048.031.077z"/><path d="m9.858 39.544c-.302-.248-.722-.297-1.073-.125s-.57.533-.56.924c.296 11.451 9.684 20.657 21.206 20.657 11.267 0 20.494-8.803 21.174-19.9.019-.313-.11-.616-.348-.82-.237-.204-.557-.285-.863-.218-.31.067-.641.089-.989.089-7.459 0-11.561-5.091-13.63-8.939-.579-1.104-1.694-1.825-2.939-1.898-1.248-.074-2.443.513-3.148 1.546-.01.014-.019.028-.027.042-1.664 2.727-3.774 6.006-5.077 7.164-5.624 5.001-11.719 3.121-13.726 1.478zm.506 2.618c3.258 1.5 9.097 2.247 14.549-2.601 1.386-1.233 3.668-4.69 5.441-7.595.308-.438.825-.688 1.364-.656.546.032 1.035.349 1.288.835.002.003.004.007.006.011 2.329 4.333 6.994 9.995 15.393 9.995h.096c-1.167 9.49-9.266 16.849-19.07 16.849-9.8 0-17.896-7.353-19.068-16.838z"/><path d="m48.598 4.434-.962 3.191c-.054.181-.196.322-.376.377l-3.192.961c-.851.257-1.434 1.041-1.434 1.93 0 .89.583 1.674 1.434 1.931l3.192.961c.18.055.322.196.376.377l.962 3.191c.256.851 1.04 1.434 1.93 1.434.889 0 1.673-.583 1.93-1.434l.961-3.191c.055-.181.196-.322.377-.377l3.191-.961c.852-.257 1.434-1.041 1.434-1.931 0-.889-.582-1.673-1.434-1.93l-3.191-.961c-.181-.055-.322-.196-.377-.377l-.961-3.191c-.257-.851-1.041-1.434-1.93-1.434-.89 0-1.674.583-1.93 1.434zm1.915.577c.002-.006.008-.011.015-.011s.013.005.015.011c0 0 .962 3.191.962 3.191.247.823.891 1.467 1.714 1.715 0 0 3.191.961 3.191.961.007.002.011.009.011.015 0 .007-.004.014-.011.016 0 0-3.191.961-3.191.961-.823.248-1.467.892-1.714 1.715 0 0-.962 3.191-.962 3.191-.002.006-.008.011-.015.011s-.013-.005-.015-.011c0 0-.962-3.191-.962-3.191-.248-.823-.892-1.467-1.714-1.715 0 0-3.191-.961-3.191-.961-.007-.002-.012-.009-.012-.016 0-.006.005-.013.011-.015.001 0 3.192-.961 3.192-.961.822-.248 1.466-.892 1.714-1.715z"/><path d="m37.668 18.765-.786 2.61c-.027.089-.097.159-.186.186l-2.61.787c-.773.233-1.303.945-1.303 1.752 0 .808.53 1.52 1.303 1.753l2.61.787c.089.027.159.097.186.186l.786 2.61c.233.773.946 1.302 1.753 1.302.808 0 1.52-.529 1.753-1.302l.787-2.61c.027-.089.096-.159.186-.186l2.61-.787c.773-.233 1.302-.945 1.302-1.753 0-.807-.529-1.519-1.302-1.752l-2.61-.787c-.09-.027-.159-.097-.186-.186l-.787-2.61c-.233-.773-.945-1.303-1.753-1.303-.807 0-1.52.53-1.753 1.303zm1.753 1.115.625 2.072c.22.731.792 1.304 1.524 1.524l2.072.624-2.072.625c-.732.22-1.304.793-1.524 1.524l-.625 2.072-.624-2.072c-.221-.731-.793-1.304-1.524-1.524l-2.072-.625 2.072-.624c.731-.22 1.303-.793 1.524-1.524z"/><path d="m27.491 4.541-.961 3.191c-.055.18-.196.322-.377.376l-3.191.962c-.852.257-1.434 1.041-1.434 1.93s.582 1.673 1.434 1.93l3.191.962c.181.054.322.196.377.376l.961 3.191c.257.852 1.041 1.434 1.93 1.434s1.674-.582 1.93-1.434l.962-3.191c.054-.18.196-.322.376-.376l3.192-.962c.851-.257 1.434-1.041 1.434-1.93s-.583-1.673-1.434-1.93l-3.192-.962c-.18-.054-.322-.196-.376-.376l-.962-3.191c-.256-.852-1.041-1.434-1.93-1.434s-1.673.582-1.93 1.434zm1.915.577c.002-.007.008-.011.015-.011s.013.004.015.011c0 0 .962 3.191.962 3.191.248.823.892 1.466 1.714 1.714 0 0 3.191.962 3.191.962.007.002.012.008.012.015s-.005.013-.011.015c-.001 0-3.192.962-3.192.962-.822.248-1.466.891-1.714 1.714 0 0-.962 3.191-.962 3.191-.002.007-.008.011-.015.011s-.013-.004-.015-.011c0 0-.962-3.191-.962-3.191-.247-.823-.891-1.466-1.714-1.714 0 0-3.191-.962-3.191-.962-.007-.002-.011-.008-.011-.015s.004-.013.011-.015c0 0 3.191-.962 3.191-.962.823-.248 1.467-.891 1.714-1.714z"/><path d="m31.372 13.009c-.451-.011-.853.28-.983.711l-.953 3.162c-.002.007-.008.011-.015.011s-.013-.004-.015-.011c0 0-.905-3.003-.905-3.003-.138-.46-.585-.756-1.063-.705-1.504.159-3.065.434-4.679.834-5.849 1.453-12.689 6.725-15.652 12.957-2.046 4.303-2.277 9.045.738 13.349.445.636 1.526 1.478 3.077 2.096 3.307 1.317 8.825 1.745 13.991-2.849 1.386-1.233 3.668-4.69 5.441-7.595.308-.438.825-.688 1.364-.656.546.032 1.035.349 1.288.835.002.003.004.007.006.011 2.329 4.333 6.994 9.995 15.393 9.995 1.027 0 1.952-.172 2.732-.658.749-.468 1.387-1.223 1.814-2.472.528-1.545.741-3.967.447-7.735-.695-8.921-8.786-17.948-22.026-18.277zm.709 2.029c11.558.61 18.707 8.487 19.323 16.403.191 2.451.167 4.278-.042 5.635-.202 1.317-.547 2.126-1.092 2.581-.504.421-1.152.494-1.865.494-7.459 0-11.561-5.091-13.63-8.939-.579-1.104-1.694-1.825-2.939-1.898-1.248-.074-2.443.513-3.148 1.546-.01.014-.019.028-.027.042-1.664 2.727-3.774 6.006-5.077 7.164-4.407 3.919-9.101 3.609-11.922 2.486-1.076-.429-1.87-.945-2.179-1.386-2.561-3.655-2.308-7.687-.57-11.343 2.714-5.707 8.972-10.543 14.328-11.874 1.229-.305 2.426-.532 3.588-.688l.662 2.198c.257.852 1.041 1.434 1.93 1.434s1.674-.582 1.93-1.434z"/></svg>