<svg id="Layer_1" enable-background="new 0 0 66 66" height="512" viewBox="0 0 66 66" width="512" xmlns="http://www.w3.org/2000/svg"><g><path d="m44.16 4.87c.07 0 .14-.01.21-.03.01 0 .53-.15 1.37-.28.41-.06.69-.44.63-.85s-.45-.69-.85-.63c-.95.14-1.54.31-1.57.32-.4.12-.63.53-.51.93.1.32.4.54.72.54z"/><path d="m49.35 4.46c1.25.13 2.4.43 3.41.9.1.05.21.07.32.07.28 0 .55-.16.68-.43.17-.38.01-.82-.36-1-1.17-.54-2.48-.89-3.9-1.04-.41-.05-.78.26-.82.67s.25.79.67.83z"/><path d="m56.37 8.56c.14.22.39.35.63.35.14 0 .28-.04.4-.12.35-.22.45-.69.23-1.04-.29-.46-.62-.9-.97-1.29-.27-.31-.75-.34-1.06-.07s-.34.75-.07 1.06c.31.34.59.71.84 1.11z"/><path d="m45.97 7.91c-.03.41.28.77.7.8 0 0 .55.04 1.38.21.05.01.1.02.15.02.35 0 .66-.24.73-.6.08-.41-.18-.8-.58-.88-.94-.19-1.55-.24-1.58-.24-.4-.04-.77.27-.8.69z"/><path d="m52.12 8.7c-.38-.18-.82-.02-1 .35s-.02.82.35 1c1.14.55 2.11 1.23 2.9 2.02.15.15.34.22.53.22s.38-.07.53-.22c.29-.29.29-.77 0-1.06-.91-.91-2.02-1.69-3.31-2.31z"/><path d="m56.7 14.01c-.39.15-.58.58-.43.97.17.42.3.87.4 1.33.08.35.39.59.73.59.05 0 .11-.01.16-.02.4-.09.66-.49.57-.89-.12-.53-.27-1.05-.47-1.55-.14-.39-.58-.58-.96-.43z"/><path d="m63.95 63.21h-4.77c.13-.25.23-.52.28-.81l2.61-14.93c.04-.22-.02-.44-.16-.61s-.35-.27-.57-.27h-9.77c-.4-.69-1.28-2.4-1.71-4.42.23.02.45.04.67.04.89 0 1.75-.18 2.55-.45.18.2.38.38.61.55.99.76 2.15 1.13 3.34 1.13 1.27 0 2.58-.42 3.8-1.27 2.62-1.82 5.06-6.03 3.28-11.87-.09-.28-.33-.48-.62-.52s-.58.09-.73.34c-.02.03-1.84 2.8-5.26 2.99-2.41.14-4.67 1.93-5.39 4.26-.33 1.07-.27 2.13.13 3.07-.83.24-1.7.32-2.59.17-.09-1.38.11-2.81.88-4.12.61-1.05.98-2.17 1.18-3.29 2.25-.97 3.75-3.17 4.02-6 .34-3.68-1.57-8.97-8.08-11.75-.27-.12-.58-.06-.8.13-.22.2-.3.5-.21.78.01.04 1.14 3.82-1.3 7.08-1.66 2.22-1.76 5.54-.24 7.9 1 1.55 2.5 2.38 4.22 2.38.25 0 .51-.02.77-.06-.18.71-.45 1.41-.83 2.07-.96 1.63-1.21 3.39-1.09 5.04-.44.06-.88.07-1.31.03.55-1.02.66-2.21.29-3.43-.72-2.33-2.99-4.13-5.39-4.26-3.42-.19-5.23-2.95-5.26-2.99-.16-.25-.44-.38-.73-.34-.26.03-.47.21-.58.44-1.44-.89-2.99-1.64-4.66-2.2v-6.36c0-1.25-1.01-2.26-2.26-2.26h-.98v-5.03c.36.46.81.84 1.34 1.1.61 2.43 1.8 4.2 3.54 5.25 1.38.83 2.85 1.04 4.02 1.04 1.24 0 2.13-.24 2.2-.26.33-.09.56-.4.55-.74s-.25-.64-.59-.71c-2.5-.56-3.99-3.42-4.84-5.87.15-.22.27-.46.37-.71l2.52-.28c.93-.12 1.67-.78 1.94-1.63h1.18c1.77 0 3.21-1.44 3.21-3.21s-1.44-3.21-3.21-3.21h-1.22c-.27-.85-1.02-1.51-1.95-1.63l-19.79-2.2c-.67-.09-1.36.12-1.87.57s-.81 1.1-.81 1.78v9.4c0 .68.29 1.33.81 1.78.44.38.99.59 1.56.59.1 0 .2-.01.3-.02l3.37-.38v4.39h-.98c-1.25 0-2.26 1.01-2.26 2.26v6.35c-8.89 2.94-15.04 11.42-15.04 20.82 0 4.06 1.12 8.03 3.24 11.48.73 1.19 1.7 2.15 2.81 2.88h-5.66c-.41 0-.75.34-.75.75s.34.75.75.75h61.93c.41 0 .75-.34.75-.75s-.34-.75-.76-.75zm-10.4-25.38c.53-1.73 2.27-3.11 4.04-3.21 2.6-.15 4.41-1.46 5.44-2.48.82 4.34-1.04 7.42-3.04 8.81-1.81 1.26-3.87 1.32-5.37.17-.01-.01-.01-.01-.02-.02 2.47-1.3 4.17-3.3 4.29-3.44.27-.32.22-.79-.09-1.06-.32-.26-.79-.22-1.06.09-.03.03-1.75 2.04-4.1 3.2-.36-.78-.25-1.57-.09-2.06zm-3.32-5.7c-2.18.49-3.38-.79-3.89-1.59-1.18-1.82-1.1-4.48.18-6.18 1.89-2.52 2-5.24 1.83-6.89 4.73 2.56 6.15 6.68 5.88 9.61-.18 1.9-1.03 3.42-2.33 4.32.12-3.72-1.25-7.02-1.33-7.21-.16-.38-.6-.56-.98-.4s-.56.6-.4.98c.02.05 1.5 3.64 1.15 7.33-.04 0-.07.02-.11.03zm-2.85 10.22c.32 0 .64-.03.96-.08.35 1.77 1.01 3.32 1.52 4.31h-4.48c-.13-1.28-.37-2.53-.71-3.74.29-.15.58-.32.85-.53.06-.05.12-.11.18-.16.55.13 1.11.2 1.68.2zm-11.17-10.21c1.03 1.02 2.84 2.33 5.43 2.48 1.77.1 3.51 1.48 4.04 3.21.19.61.32 1.66-.41 2.63-2.85-1-5.06-3.58-5.09-3.62-.27-.32-.74-.36-1.06-.09s-.36.74-.09 1.06c.13.15 2.1 2.47 4.89 3.74-1.41.68-3.13.48-4.68-.59-1.99-1.4-3.85-4.48-3.03-8.82zm-5.94-17.75c-1.29 0-2.33-1.05-2.33-2.35 0-1.29 1.05-2.33 2.33-2.33 1.29 0 2.35 1.05 2.35 2.33 0 1.3-1.05 2.35-2.35 2.35zm5.19 5.84c-.81-.07-1.72-.29-2.57-.8-1.2-.72-2.08-1.91-2.63-3.54h.02c.72 0 1.39-.21 1.97-.56h.03c.84 2.18 1.91 3.84 3.18 4.9zm5.73-11.88c0 .94-.77 1.71-1.71 1.71h-1.06v-3.41h1.06c.94 0 1.71.76 1.71 1.7zm-24.83 5.57c-.25.03-.49-.04-.68-.21s-.29-.4-.29-.65v-9.4c0-.25.1-.48.29-.65.16-.14.36-.21.57-.21.04 0 .08 0 .13.01l19.78 2.19c.43.06.75.43.75.86v.04 4.91.03c0 .43-.32.8-.74.86l-2.07.23c-.06-2.06-1.75-3.72-3.83-3.72-2.11 0-3.83 1.72-3.83 3.83 0 .25.03.5.07.74zm5.05.94 4.34-.48v5.04h-4.34zm-3.77 14.43c.32-.1.53-.39.53-.72v-6.9c0-.42.34-.76.76-.76h9.3c.42 0 .76.34.76.76v6.91c0 .33.22.62.53.72 1.9.57 3.64 1.42 5.24 2.45-1.01 5.09 1.23 8.76 3.63 10.43 1.22.84 2.53 1.27 3.8 1.27.36 0 .72-.05 1.07-.11.15.52.28 1.05.38 1.59-8.23-1.83-15.65-.5-22.23.69-6.76 1.22-12.62 2.28-17.97-.16 1.29-7.52 6.76-13.91 14.2-16.17zm-4.96 33.92c-2.67 0-5.11-1.37-6.52-3.67-1.97-3.21-3.01-6.91-3.01-10.69 0-.34.03-.68.04-1.03h.01c.02-.27.01-.53.04-.81 5.67 2.39 11.88 1.26 18.44.07 6.59-1.19 14.03-2.54 22.2-.58 0 .03 0 .06.01.08h-4.01c-.22 0-.43.1-.57.27s-.2.39-.16.61l2.06 11.75c-.14.24-.27.47-.42.71-1.33 2.06-3.67 3.29-6.27 3.29zm28.88-1.85.18 1.04c.05.29.15.56.28.81h-2.48c.78-.5 1.45-1.12 2.02-1.85zm2.94 1.85c-.63 0-1.17-.45-1.28-1.07l-2.46-14.05h19.69l-2.46 14.05c-.11.62-.64 1.07-1.28 1.07z"/></g></svg>