<svg id="Layer_5" enable-background="new 0 0 64 64" height="512" viewBox="0 0 64 64" width="512" xmlns="http://www.w3.org/2000/svg"><g><path d="m48.169 56.367-10.295-1.329-.335-2.168c.2-.083.407-.151.602-.244 7.156-3.368 12.294-9.851 14.12-17.363 4.345-3.096 6.739-7.083 6.739-11.263 0-2.264-.699-4.462-2.023-6.495-.388-9.129-11.494-16.505-24.977-16.505-13.49 0-24.601 7.384-24.978 16.52-1.318 2.027-2.022 4.223-2.022 6.48 0 4.18 2.393 8.167 6.739 11.264 1.825 7.513 6.962 13.994 14.12 17.364.196.092.402.16.602.243l-.335 2.167-10.296 1.329c-3.417.443-6.563 2.278-8.63 5.033l-1.2 1.6h52l-1.2-1.6c-2.067-2.755-5.213-4.59-8.631-5.033zm-41.169-32.367c0-4.268 3.087-8.358 8.47-11.224l-.939-1.766c-1.869.995-3.491 2.135-4.842 3.382 2.495-6.525 11.584-11.392 22.311-11.392 10.728 0 19.818 4.868 22.312 11.395-.822-.757-1.74-1.479-2.762-2.152l-1.1 1.67c4.224 2.782 6.55 6.364 6.55 10.087 0 2.943-1.487 5.807-4.198 8.255.119-.993.196-1.996.197-3.01v-.073c-.02-7.815-6.395-14.172-14.211-14.172h-13.577c-7.836 0-14.211 6.375-14.211 14.211 0 1.025.077 2.039.197 3.043-2.71-2.448-4.197-5.311-4.197-8.254zm6 5.211c0-6.733 5.478-12.211 12.211-12.211h13.577c6.715 0 12.193 5.463 12.212 12.175v.067c-.012 9.192-5.394 17.661-13.71 21.575-1.645.774-3.474 1.183-5.29 1.183-.002 0-.004 0-.006 0-1.814-.001-3.641-.41-5.283-1.183-8.329-3.919-13.711-12.4-13.711-21.606zm-2.723 31.789c1.617-1.431 3.649-2.369 5.81-2.648l11.787-1.522.512-3.311c1.18.305 2.394.481 3.608.482h.007c1.216 0 2.432-.176 3.614-.482l.512 3.311 11.786 1.522c2.161.279 4.193 1.218 5.811 2.648z"/><path d="m40 43c0-2.804-3.514-5-8-5s-8 2.196-8 5 3.514 5 8 5 8-2.196 8-5zm-14 0c0-1.419 2.464-3 6-3s6 1.581 6 3-2.464 3-6 3-6-1.581-6-3z"/><path d="m35.789 42.658.105-.211-1.789-.895-.105.212c-.381.762-1.147 1.236-2 1.236s-1.619-.474-2-1.236l-.105-.211-1.789.895.105.211c.722 1.444 2.174 2.341 3.789 2.341s3.067-.897 3.789-2.342z"/><path d="m45.335 9.199c-1.311-.467-2.695-.867-4.114-1.189l-.442 1.95c1.342.305 2.649.683 3.886 1.123z"/><path d="m26.144 9.418-.288-1.979c-3.33.484-6.444 1.351-9.255 2.574l.799 1.834c2.647-1.154 5.59-1.971 8.744-2.429z"/><path d="m41 37c4.411 0 8-3.589 8-8s-3.589-8-8-8-8 3.589-8 8 3.589 8 8 8zm-1-2.09c-.909-.154-1.749-.51-2.471-1.024l2.471-2.472zm2-3.496 2.471 2.471c-.722.515-1.562.871-2.471 1.025zm1.414-1.414h3.496c-.154.909-.51 1.749-1.025 2.471zm0-2 2.471-2.471c.515.722.871 1.562 1.025 2.471zm-1.414-1.414v-3.496c.909.154 1.749.51 2.471 1.025zm-2 0-2.471-2.471c.722-.515 1.562-.871 2.471-1.025zm-1.414 1.414h-3.496c.154-.909.51-1.749 1.024-2.471zm0 2-2.471 2.471c-.515-.722-.871-1.562-1.025-2.471z"/><path d="m31 29c0-4.411-3.589-8-8-8s-8 3.589-8 8 3.589 8 8 8 8-3.589 8-8zm-3.115-3.471c.515.722.871 1.562 1.025 2.471h-3.495zm-3.885 1.057v-3.496c.909.154 1.749.51 2.471 1.025zm-2 0-2.471-2.471c.722-.515 1.562-.871 2.471-1.025zm-1.414 1.414h-3.496c.154-.909.51-1.749 1.024-2.471zm0 2-2.471 2.471c-.515-.722-.871-1.562-1.025-2.471zm1.414 1.414v3.495c-.909-.154-1.749-.51-2.471-1.024zm2 0 2.471 2.471c-.722.515-1.562.871-2.471 1.025zm1.414-1.414h3.496c-.154.909-.51 1.749-1.025 2.471z"/></g></svg>