<?xml version="1.0" encoding="iso-8859-1"?>
<!-- Generator: Adobe Illustrator 19.0.0, SVG Export Plug-In . SVG Version: 6.00 Build 0)  -->
<svg version="1.1" id="Capa_1" xmlns="http://www.w3.org/2000/svg" xmlns:xlink="http://www.w3.org/1999/xlink" x="0px" y="0px"
	 viewBox="0 0 512.001 512.001" style="enable-background:new 0 0 512.001 512.001;" xml:space="preserve">
<g>
	<g>
		<path d="M257.296,314.089c-11.052-19.14-26.925-35.246-45.903-46.578l-49.991-29.843c-5.461-3.261-10.886-6.752-16.125-10.375
			c-11.307-7.823-25.716-8.421-37.6-1.563c-11.884,6.86-18.572,19.636-17.455,33.342c0.518,6.352,0.827,12.797,0.92,19.161
			l0.852,58.212c0.323,22.1,6.335,43.899,17.386,63.042c21.287,36.869,60.957,59.984,103.527,60.325l24.172,0.194
			c0.026,0,0.054,0,0.08,0c3.6,0,6.924-1.935,8.7-5.07l11.916-21.028C278.765,396.872,278.582,350.959,257.296,314.089z
			 M240.375,424.05l-9.018,15.912l-18.291-0.147c-35.515-0.284-68.609-19.568-86.368-50.327
			c-9.35-16.195-14.436-34.638-14.708-53.335l-0.852-58.212c-0.1-6.806-0.431-13.701-0.984-20.494
			c-0.49-6.014,2.321-11.395,7.521-14.396c2.408-1.39,5.002-2.081,7.587-2.081c2.994,0,5.977,0.928,8.64,2.77
			c5.604,3.876,11.407,7.611,17.25,11.099l49.991,29.843c16.056,9.586,29.485,23.213,38.834,39.406
			C257.733,354.847,257.887,393.15,240.375,424.05z"/>
	</g>
</g>
<g>
	<g>
		<path d="M142.483,268.467c-1.861-1.86-4.44-2.93-7.08-2.93c-2.63,0-5.21,1.07-7.07,2.93c-1.859,1.86-2.93,4.44-2.93,7.07
			s1.07,5.21,2.93,7.07c1.86,1.86,4.44,2.93,7.07,2.93c2.64,0,5.21-1.07,7.08-2.93c1.86-1.86,2.93-4.44,2.93-7.07
			S144.344,270.327,142.483,268.467z"/>
	</g>
</g>
<g>
	<g>
		<path d="M137.343,307.995c-1.86-1.86-4.44-2.93-7.07-2.93c-2.64,0-5.21,1.07-7.07,2.93c-1.87,1.86-2.93,4.44-2.93,7.07
			s1.06,5.21,2.93,7.07c1.86,1.86,4.431,2.93,7.07,2.93c2.63,0,5.21-1.07,7.07-2.93c1.859-1.86,2.93-4.44,2.93-7.07
			S139.203,309.855,137.343,307.995z"/>
	</g>
</g>
<g>
	<g>
		<path d="M164.602,355.223c-1.86-1.87-4.429-2.93-7.07-2.93c-2.63,0-5.21,1.06-7.069,2.93c-1.86,1.86-2.931,4.43-2.931,7.07
			c0,2.63,1.07,5.21,2.931,7.07c1.869,1.86,4.439,2.93,7.069,2.93s5.21-1.07,7.07-2.93c1.87-1.86,2.93-4.44,2.93-7.07
			C167.532,359.653,166.472,357.083,164.602,355.223z"/>
	</g>
</g>
<g>
	<g>
		<path d="M179.321,283.755c-1.87-1.86-4.439-2.93-7.069-2.93c-2.631,0-5.211,1.07-7.07,2.93c-1.87,1.86-2.93,4.44-2.93,7.07
			s1.06,5.21,2.93,7.07c1.859,1.871,4.439,2.93,7.07,2.93c2.63,0,5.21-1.06,7.069-2.93c1.86-1.86,2.931-4.44,2.931-7.07
			S181.182,285.615,179.321,283.755z"/>
	</g>
</g>
<g>
	<g>
		<path d="M206.58,330.984c-1.859-1.86-4.43-2.93-7.069-2.93c-2.63,0-5.21,1.07-7.07,2.93c-1.86,1.86-2.93,4.44-2.93,7.07
			s1.069,5.21,2.93,7.07s4.44,2.93,7.07,2.93c2.64,0,5.21-1.07,7.069-2.93c1.87-1.86,2.931-4.44,2.931-7.07
			S208.45,332.844,206.58,330.984z"/>
	</g>
</g>
<g>
	<g>
		<path d="M194.07,406.25c-1.859-1.859-4.439-2.93-7.069-2.93c-2.631,0-5.211,1.07-7.07,2.93c-1.86,1.86-2.93,4.44-2.93,7.07
			s1.069,5.21,2.93,7.07c1.859,1.86,4.439,2.93,7.07,2.93c2.63,0,5.21-1.07,7.069-2.93c1.86-1.86,2.931-4.44,2.931-7.07
			S195.931,408.109,194.07,406.25z"/>
	</g>
</g>
<g>
	<g>
		<path d="M236.048,382.012c-1.86-1.86-4.44-2.93-7.07-2.93s-5.21,1.07-7.07,2.93c-1.859,1.86-2.93,4.44-2.93,7.07
			c0,2.64,1.07,5.21,2.93,7.07c1.86,1.87,4.44,2.93,7.07,2.93s5.21-1.06,7.07-2.93c1.859-1.86,2.93-4.44,2.93-7.07
			C238.978,386.451,237.908,383.872,236.048,382.012z"/>
	</g>
</g>
<g>
	<g>
		<path d="M210.03,296.496c-1.859-1.86-4.439-2.93-7.069-2.93c-2.631,0-5.21,1.07-7.07,2.93c-1.86,1.86-2.93,4.44-2.93,7.07
			c0,2.63,1.069,5.21,2.93,7.07c1.86,1.86,4.439,2.93,7.07,2.93c2.63,0,5.21-1.07,7.069-2.93c1.86-1.86,2.931-4.44,2.931-7.07
			C212.96,300.936,211.89,298.356,210.03,296.496z"/>
	</g>
</g>
<g>
	<g>
		<path d="M134.504,340.104c-1.86-1.86-4.44-2.93-7.07-2.93c-2.641,0-5.21,1.07-7.07,2.93c-1.859,1.86-2.93,4.43-2.93,7.07
			c0,2.63,1.07,5.21,2.93,7.07c1.86,1.86,4.43,2.93,7.07,2.93c2.63,0,5.21-1.07,7.07-2.93c1.859-1.86,2.93-4.44,2.93-7.07
			C137.434,344.544,136.364,341.964,134.504,340.104z"/>
	</g>
</g>
<g>
	<g>
		<path d="M171.762,318.585c-1.851-1.86-4.431-2.93-7.061-2.93c-2.64,0-5.22,1.07-7.08,2.93c-1.859,1.86-2.92,4.44-2.92,7.07
			c0,2.64,1.061,5.21,2.92,7.07c1.86,1.87,4.44,2.93,7.08,2.93c2.63,0,5.2-1.06,7.061-2.93c1.87-1.86,2.939-4.43,2.939-7.07
			C174.701,323.025,173.632,320.445,171.762,318.585z"/>
	</g>
</g>
<g>
	<g>
		<path d="M239.198,347.022c-1.859-1.869-4.439-2.93-7.069-2.93s-5.21,1.06-7.07,2.93c-1.86,1.86-2.93,4.43-2.93,7.07
			c0,2.63,1.069,5.21,2.93,7.07s4.44,2.93,7.07,2.93s5.21-1.07,7.069-2.93c1.87-1.87,2.931-4.44,2.931-7.07
			C242.129,351.452,241.068,348.882,239.198,347.022z"/>
	</g>
</g>
<g>
	<g>
		<path d="M163.673,390.621c-1.86-1.86-4.441-2.92-7.07-2.92c-2.63,0-5.21,1.06-7.07,2.92c-1.859,1.87-2.93,4.44-2.93,7.08
			c0,2.63,1.07,5.21,2.93,7.07c1.86,1.86,4.44,2.93,7.07,2.93s5.21-1.07,7.07-2.93c1.859-1.86,2.93-4.44,2.93-7.07
			C166.603,395.061,165.533,392.491,163.673,390.621z"/>
	</g>
</g>
<g>
	<g>
		<path d="M200.94,369.112c-1.87-1.86-4.45-2.93-7.07-2.93c-2.64,0-5.21,1.07-7.08,2.93c-1.859,1.86-2.92,4.44-2.92,7.07
			s1.061,5.21,2.92,7.07c1.87,1.86,4.44,2.93,7.08,2.93c2.631,0,5.2-1.07,7.07-2.93c1.86-1.86,2.93-4.44,2.93-7.07
			S202.801,370.972,200.94,369.112z"/>
	</g>
</g>
<g>
	<g>
		<path d="M226.739,413.8c-1.859-1.86-4.439-2.93-7.069-2.93c-2.641,0-5.221,1.07-7.07,2.93c-1.87,1.86-2.93,4.43-2.93,7.07
			c0,2.63,1.06,5.21,2.93,7.07c1.85,1.86,4.43,2.93,7.07,2.93c2.63,0,5.21-1.07,7.069-2.93c1.86-1.86,2.931-4.44,2.931-7.07
			C229.67,418.23,228.6,415.66,226.739,413.8z"/>
	</g>
</g>
<g>
	<g>
		<path d="M489.102,243.751l-25.073-44.932c-15.731-28.192-24.048-60.257-24.048-92.73v-2.413c0-17.8-6.933-34.535-19.519-47.122
			c-7.131-7.13-15.594-12.44-24.827-15.709l4.883-14.275c2.092-6.116,1.097-12.905-2.662-18.163s-9.862-8.397-16.324-8.397h-21.77
			c-6.464,0-12.566,3.14-16.325,8.398c-3.759,5.258-4.753,12.048-2.661,18.162l5.046,14.752
			c-25.965,9.682-44.509,34.724-44.509,64.022v1.029c0,32.287-8.316,64.256-24.05,92.45l-18.324,32.837
			c-5.831-4.54-11.938-8.735-18.304-12.535l-44.177-26.373c-27.721-16.548-50.954-40.16-67.193-68.287l-0.69-1.195
			c-9.038-15.653-23.63-26.851-41.09-31.529c-17.457-4.679-35.693-2.276-51.346,6.762l-1.441,0.832h-0.001
			c-16.038,9.26-27.512,24.211-32.304,42.1c-4.794,17.889-2.334,36.573,6.927,52.612c16.143,27.962,24.926,59.805,25.397,92.088
			l0.751,51.44c0.45,30.742,8.813,61.064,24.185,87.689c14.999,25.979,36.627,47.694,62.546,62.796
			c25.919,15.102,55.474,23.213,85.471,23.453l59.422,0.476c0.027,0,0.054,0,0.08,0c3.599,0,6.924-1.935,8.7-5.069l21.465-37.876
			c5.457,4.156,11.149,7.983,17.019,11.435l51.224,30.124c1.564,0.92,3.317,1.38,5.069,1.38c1.752,0,3.505-0.46,5.069-1.38
			l51.224-30.124c25.858-15.207,47.398-37.008,62.293-63.046c14.895-26.039,22.768-55.658,22.768-85.656
			C512.001,301.033,504.082,270.594,489.102,243.751z M359.762,20.009l21.793-0.006l0.041,0.095l-5.815,17
			c-0.813-0.029-8.894-0.006-10.245,0.074l-5.852-17.094L359.762,20.009z M287.769,445.362l-26.399,46.585l-53.541-0.429
			c-53.809-0.431-103.951-29.649-130.857-76.25c-13.67-23.677-21.107-50.642-21.507-77.981l-0.751-51.44
			c-0.521-35.686-10.229-70.887-28.075-101.796c-6.589-11.412-8.34-24.708-4.929-37.436c2.658-9.923,8.216-18.564,15.938-25.019
			l29.176,53.178c1.819,3.316,5.243,5.192,8.776,5.192c1.626,0,3.275-0.397,4.801-1.235c4.843-2.656,6.614-8.735,3.958-13.576
			l-29.266-53.342c8.734-2.889,18.124-3.187,27.217-0.751c12.299,3.295,22.579,11.183,28.948,22.213l0.69,1.195
			c17.938,31.07,43.617,57.163,74.259,75.455l44.177,26.373c23.475,14.014,43.108,33.937,56.779,57.615
			C314.068,340.514,314.301,398.546,287.769,445.362z M416.801,463.243l-46.154,27.143l-46.155-27.143
			c-5.979-3.517-11.752-7.474-17.237-11.81l-0.026,0.013c13.439-25.166,20.479-53.406,20.365-81.969
			c-0.12-29.998-8.112-59.585-23.111-85.564c-8.251-14.29-18.448-27.349-30.194-38.832l0.059,0.008l20.379-36.52
			c17.392-31.167,26.585-66.505,26.585-102.196v-1.029c0-26.637,21.67-48.307,48.307-48.307h3.724
			c12.457,0,24.17,4.851,32.979,13.659c8.81,8.809,13.66,20.521,13.66,32.979v2.413c0,35.877,9.192,71.313,26.583,102.476
			l25.073,44.931c13.321,23.871,20.363,50.94,20.363,78.283C492.002,385.591,463.186,435.964,416.801,463.243z"/>
	</g>
</g>
<g>
	<g>
		<path d="M100.76,195.047l-0.042-0.076c-2.68-4.83-8.745-6.535-13.574-3.855c-4.829,2.68-6.551,8.805-3.871,13.633
			c1.827,3.292,5.237,5.15,8.753,5.15c1.641,0.001,3.305-0.404,4.842-1.257C101.696,205.963,103.439,199.876,100.76,195.047z"/>
	</g>
</g>
<g>
	<g>
		<path d="M410.302,432.162c-2.843-4.735-8.97-6.28-13.705-3.438c-0.03,0.017-0.118,0.068-0.146,0.086
			c-4.736,2.841-6.285,8.992-3.444,13.727c1.877,3.127,5.186,4.862,8.582,4.862c1.746,0,3.515-0.459,5.124-1.424
			c0.03-0.017,0.118-0.068,0.146-0.086C411.594,443.049,413.143,436.898,410.302,432.162z"/>
	</g>
</g>
<g>
	<g>
		<path d="M454.175,263.245c-2.691-4.822-8.783-6.548-13.604-3.859c-4.823,2.691-6.55,8.783-3.859,13.604
			c10.005,17.926,15.292,38.255,15.292,58.79c0,26.667-9.601,52.62-27.034,73.081c-3.582,4.203-3.078,10.514,1.126,14.096
			c1.882,1.604,4.187,2.388,6.48,2.388c2.828,0,5.639-1.193,7.615-3.513c20.514-24.076,31.811-54.636,31.811-86.052
			C472.002,307.842,465.837,284.142,454.175,263.245z"/>
	</g>
</g>
<g>
</g>
<g>
</g>
<g>
</g>
<g>
</g>
<g>
</g>
<g>
</g>
<g>
</g>
<g>
</g>
<g>
</g>
<g>
</g>
<g>
</g>
<g>
</g>
<g>
</g>
<g>
</g>
<g>
</g>
</svg>
