<svg height="496pt" viewBox="0 0 496 496" width="496pt" xmlns="http://www.w3.org/2000/svg"><path d="m376 235.3125 120-120v-3.3125c0-39.695312-32.296875-72-72-72h-3.3125l-120 120 20 20-124.6875 124.6875-13.585938-13.589844-55.742187 92.902344h-62.671875c-13.230469 0-24 10.769531-24 24s10.769531 24 24 24h192c4.414062 0 8 3.59375 8 8s-3.585938 8-8 8h-24c-13.230469 0-24 10.769531-24 24s10.769531 24 24 24h240c13.230469 0 24-10.769531 24-24s-10.769531-24-24-24h-80c-4.414062 0-8-3.59375-8-8s3.585938-8 8-8h32c13.230469 0 24-10.769531 24-24s-10.769531-24-24-24h-229.785156l50.679687-30.40625-13.582031-13.59375 124.6875-124.6875zm94.839844-117.464844-70.839844 70.839844-52.6875-52.6875 70.839844-70.839844c6.367187 25.910156 26.769531 46.3125 52.6875 52.6875zm8.464844-14.589844c-23.914063-3.753906-42.808594-22.648437-46.5625-46.5625 23.890624 3.769532 42.800781 22.671876 46.5625 46.5625zm-143.304688 44.054688 52.6875 52.6875-12.6875 12.6875-52.6875-52.6875zm88 252.6875c4.414062 0 8 3.59375 8 8s-3.585938 8-8 8h-32c-13.230469 0-24 10.769531-24 24s10.769531 24 24 24h80c4.414062 0 8 3.59375 8 8s-3.585938 8-8 8h-240c-4.414062 0-8-3.59375-8-8s3.585938-8 8-8h24c13.230469 0 24-10.769531 24-24s-10.769531-24-24-24h-192c-4.414062 0-8-3.59375-8-8s3.585938-8 8-8h76.6875l10.074219 10.070312 16.789062-10.070312zm-270.761719-10.070312-7.167969-7.167969 39.515626-65.859375 33.511718 33.503906zm66.761719-61.242188-12.6875-12.6875 124.6875-124.6875 12.6875 12.6875zm0 0"/><path d="m37.664062 176.617188 15.957032-1.226563 1.230468 16.003906-15.953124 1.226563zm0 0"/><path d="m80 272h-18.960938l-5.582031-72.617188-15.953125 1.234376 6.71875 87.382812h33.777344zm0 0"/><path d="m123.464844 320c20.160156 0 37.160156-15.742188 38.703125-35.839844l13.71875-178.34375c.082031-1 .121093-2 .121093-3-.007812-21.402344-17.421874-38.816406-38.832031-38.816406h-9.175781v-64h-80v64h-9.175781c-21.410157 0-38.824219 17.414062-38.824219 38.816406 0 1 .0390625 2 .121094 2.976563l13.710937 178.367187c1.550781 20.097656 18.550781 35.839844 38.703125 35.839844zm-59.464844-304h48v48h-48zm-25.175781 64h98.359375c10.191406 0 18.746094 6.761719 21.664062 16h-141.6875c2.910156-9.238281 11.464844-16 21.664063-16zm-9.03125 202.9375-13.152344-170.9375h142.71875l-13.144531 170.9375c-.910156 11.804688-10.902344 21.0625-22.75 21.0625h-70.929688c-11.847656 0-21.839844-9.257812-22.742187-21.0625zm0 0"/></svg>