<svg id="time" enable-background="new 0 0 300 300" height="512" viewBox="0 0 300 300" width="512" xmlns="http://www.w3.org/2000/svg"><g><path d="m61.928 151.352c1.027 5.492 10.18 6.648 11.938 6.648 3.09 0 12.062-1.969 12.062-8 0-2.209-1.789-4-4-4-1.773 0-3.281 1.156-3.805 2.756-.898.558-3.023 1.244-4.257 1.244-1.25 0-3.531-.668-4.434-1.18-.777-1.553-2.488-2.471-4.312-2.137-2.168.407-3.602 2.497-3.192 4.669z"/><path d="m249.858 234c2.211 0 4-1.791 4-4v-8c0-2.209-1.789-4-4-4s-4 1.791-4 4v8c0 2.209 1.789 4 4 4z"/><path d="m249.858 242c-2.211 0-4 1.791-4 4v8c0 2.209 1.789 4 4 4s4-1.791 4-4v-8c0-2.209-1.789-4-4-4z"/><path d="m241.858 234h-8c-2.211 0-4 1.791-4 4s1.789 4 4 4h8c2.211 0 4-1.791 4-4s-1.789-4-4-4z"/><path d="m265.858 234h-8c-2.211 0-4 1.791-4 4s1.789 4 4 4h8c2.211 0 4-1.791 4-4s-1.789-4-4-4z"/><path d="m233.268 200.65c0-2.362-1.915-4.276-4.276-4.276s-4.276 1.915-4.276 4.276 1.915 4.277 4.276 4.277 4.276-1.916 4.276-4.277z"/><path d="m252.992 184.926c2.362 0 4.276-1.915 4.276-4.277s-1.915-4.276-4.276-4.276-4.276 1.915-4.276 4.276 1.914 4.277 4.276 4.277z"/><path d="m241.858 106c0-37.496-30.504-68-68-68s-68 30.504-68 68 30.504 68 68 68c9.787 0 19.075-2.119 27.492-5.858-3.024 12.323-8.884 23.762-17.129 33.35-4.781 5.557-10.363 15.447-10.363 25.029v43.479h-68.984l-5.956-20.854 39.659-7.21c1.613-.293 2.887-1.543 3.207-3.152l3.996-20c.434-2.166-.973-4.273-3.137-4.705-2.191-.43-4.277.973-4.707 3.139l-3.465 17.334-41.029 7.459-31.526.806c-1.148 0-2.109-.941-2.234-2.131l-2.104-23.865 17.764-7.105c1.781-.713 2.805-2.588 2.445-4.471-.363-1.883-2.012-3.244-3.93-3.244h-17.585l-.715-8.107c-.145-1.627-1.262-3.002-2.824-3.477l-12.797-3.871c-.832-.191-1.277-.795-1.465-1.139-.305-.547-.402-1.184-.281-1.797l22.57-35.473c.785-1.232.832-2.793.129-4.074-.703-1.277-2.047-2.072-3.504-2.072h-.004c-.934.205-1.859-.404-2.496-1.123-.355-.4-.93-1.254-.781-2.465 1.352-11.027 4.617-21.871 9.191-30.533 1.035-1.953.285-4.373-1.668-5.406-1.949-1.033-4.375-.283-5.402 1.668-5.094 9.641-8.574 21.156-10.059 33.299-.387 3.158.609 6.346 2.734 8.744.691.781 1.484 1.457 2.348 2.012l-20.117 31.619c-.168.264-.305.545-.406.842-.984 2.855-.715 6.004.75 8.639 1.422 2.566 3.852 4.408 6.406 4.986l9.945 3.016 3.891 44.162c.555 5.34 4.938 9.365 10.301 9.365l28.844-.736 7.148 25.02c.492 1.717 2.062 2.9 3.848 2.9h76c2.211 0 4-1.791 4-4v-47.479c0-6.881 4.367-15.094 8.426-19.814 10.395-12.08 17.34-26.828 20.09-42.625l.145-.844-.073-.012c18.858-12.1 31.412-33.203 31.412-57.226zm-68 60c-33.086 0-60-26.916-60-60s26.914-60 60-60 60 26.916 60 60-26.914 60-60 60z"/><path d="m173.858 54c-28.672 0-52 23.326-52 52s23.328 52 52 52 52-23.326 52-52-23.328-52-52-52zm0 96c-24.262 0-44-19.738-44-44s19.738-44 44-44 44 19.738 44 44-19.738 44-44 44z"/><path d="m111.444 160.047c.879 0 1.762-.287 2.5-.881 1.723-1.383 2-3.9.617-5.623-10.93-13.611-16.703-30.051-16.703-47.543 0-12.072 2.746-23.609 8.156-34.291 1-1.971.211-4.379-1.758-5.377-1.984-1.002-4.379-.213-5.375 1.76-5.988 11.814-9.023 24.568-9.023 37.908 0 19.057 6.559 37.719 18.461 52.551.793.984 1.953 1.496 3.125 1.496z"/><path d="m173.858 30c17.137 0 33.312 5.566 46.781 16.098.73.572 1.602.85 2.461.85 1.191 0 2.367-.527 3.156-1.535 1.359-1.742 1.051-4.256-.688-5.615-14.89-11.644-32.769-17.798-51.71-17.798-2.211 0-4 1.791-4 4s1.789 4 4 4z"/><circle cx="173.858" cy="138" r="4"/><circle cx="141.858" cy="106" r="4"/><circle cx="205.858" cy="106" r="4"/><path d="m191.03 83.172-12.031 12.031c-.371-.177-.751-.326-1.141-.465v-24.738c0-2.209-1.789-4-4-4s-4 1.791-4 4v24.737c-4.646 1.656-8 6.055-8 11.263 0 6.617 5.383 12 12 12s12-5.383 12-12c0-1.847-.454-3.577-1.202-5.141l12.031-12.031c1.562-1.562 1.562-4.094 0-5.656s-4.095-1.563-5.657 0z"/></g></svg>