<svg id="Capa_1" enable-background="new 0 0 512 512" height="512" viewBox="0 0 512 512" width="512" xmlns="http://www.w3.org/2000/svg"><g><path d="m437.025 136.002c-23.263-80.175-96.702-136.002-181.026-136.002-51.509 0-101.081 20.8-137.37 59.444-2.835 3.019-2.687 7.766.333 10.601 3.021 2.835 7.767 2.688 10.602-.333 33.132-35.281 78.034-54.712 126.435-54.712 84.284 0 155.131 59.58 170.459 140.896h-2.277c-21.35 0-40.634-12.005-50.329-31.331-8.193-16.319-22.08-28.822-39.102-35.205-34.973-13.115-73.01-17.296-109.998-12.093-30.617 4.307-49.824 12.999-68.146 20.153l-8.396-8.396c-2.929-2.93-7.678-2.929-10.606-.001-2.929 2.929-2.929 7.678 0 10.606l8.051 8.051c-3.755 7.85-4.186 10.262-7.508 16.886-9.653 19.242-28.775 31.247-49.906 31.329h-2.668c4.318-22.668 13.134-44.28 26.116-63.7 2.302-3.443 1.376-8.102-2.067-10.403s-8.102-1.376-10.403 2.067c-10.809 16.169-18.956 33.736-24.289 52.143-28.917.04-52.43 23.575-52.43 52.5 0 28.905 23.482 52.427 52.371 52.497 15.856 54.888 56.453 100.076 109.797 121.995-52.835 26.717-87.168 81.364-87.168 141.506 0 4.143 3.358 7.5 7.5 7.5h302c4.143 0 7.5-3.357 7.5-7.5 0-18.816-3.295-37.262-9.794-54.822-1.438-3.885-5.753-5.868-9.638-4.431-3.885 1.438-5.868 5.753-4.431 9.638 5.015 13.549 7.922 27.683 8.669 42.115h-47.634v-26.172c0-4.143-3.357-7.5-7.5-7.5s-7.5 3.357-7.5 7.5v26.172h-62.565c-5.772 0-10.621-4.97-9.937-11.171.546-4.953 5.113-8.833 10.396-8.833h3.072c13.785 0 25-11.216 25-25.002 0-14.334-11.928-25.002-25-25.002h-34.871c-5.773 0-10.621-4.969-9.937-11.171.547-4.953 5.114-8.833 10.397-8.833h117.91c6.354 6.841 12.067 14.309 17.015 22.318 2.178 3.526 6.803 4.615 10.322 2.439 3.524-2.177 4.616-6.799 2.439-10.322-15.531-25.142-37.8-45.355-63.606-58.427 53.284-21.896 93.95-67.05 109.821-121.998 28.888-.071 52.369-23.592 52.369-52.497.003-28.939-23.535-52.485-52.472-52.499zm-365.855 89.806c-18.886-1.924-33.67-17.921-33.67-37.306 0-19.397 14.804-35.401 33.707-37.309-2.453 12.196-3.707 24.682-3.707 37.309 0 12.674 1.241 25.149 3.67 37.306zm81.4 101.879c-25.674-19.209-45.673-45.265-57.617-75h91.673c4.401 0 7.958 3.784 7.451 8.384-.41 3.71-3.855 6.616-7.845 6.616h-19.774c-12.406 0-22.499 10.094-22.499 22.5s10.27 22.5 22.893 22.5h3.212c3.99 0 7.435 2.906 7.845 6.616.508 4.601-3.052 8.384-7.451 8.384zm22.826 14.444c11.288-2.546 18.675-13.119 17.422-24.473-1.256-11.386-11.038-19.972-22.754-19.972h-3.212c-3.796 0-7.893-2.867-7.893-7.5 0-4.136 3.364-7.5 7.499-7.5h19.774c11.716 0 21.498-8.586 22.754-19.972 1.482-13.424-9.003-25.028-22.36-25.028h-96.919c-4.697-15.718-7.207-32.251-7.207-49.185 0-5.908.304-11.782.893-17.605h4.877.029c26.815-.104 51.053-15.279 63.254-39.603 3.956-7.885 4.153-10.141 8.617-19.162 21.705-8.475 34.895-14.354 58.172-18.616-.084 1.951-.031 3.92.189 5.905 2.092 18.965 18.451 33.266 38.053 33.266h25.712c28.089 0 40.188 34.708 18.039 55.494-24.601 23.087-7.882 64.506 25.797 64.506h9.403c12.486 0 22.844 9.879 23.09 22.022.267 13.213-10.785 22.978-23.28 22.978h-39.212c-22.223 0-39.742 19.297-37.265 41.734.941 8.535 4.87 16.208 10.731 22.033-4.516.352-9.052.546-13.601.546-27.706.001-55.348-6.539-80.602-19.868zm169.509 49.857h-101.676c-13.031 0-23.911 9.539-25.306 22.188-1.643 14.888 9.969 27.816 24.846 27.816h34.301c7.368 0 10.57 4.958 10.57 10.002 0 5.515-4.486 10.002-10 10.002h-3.072c-13.032 0-23.911 9.539-25.306 22.188-.488 4.417.207 8.834 1.941 12.815h-75.893v-26.181c0-4.143-3.358-7.5-7.5-7.5s-7.5 3.357-7.5 7.5v26.182h-47.612c2.979-56.619 39.48-106.713 92.917-126.83 16.361 4.53 33.297 6.83 50.385 6.83 17.094 0 34.037-2.303 50.405-6.837 13.916 5.24 26.904 12.642 38.5 21.825zm-50.074-34.387c-11.634-1.126-19.945-9.782-21.053-19.824-1.531-13.878 9.351-25.09 22.356-25.09h39.212c20.765 0 38.718-16.52 38.276-38.28-.409-20.247-17.494-36.72-38.086-36.72-9.01 0-18.282 1.312-26.169-7.495-7.794-8.701-7.936-22.466 1.233-31.073 32.068-30.094 13.336-81.432-28.303-81.432h-25.712c-11.746 0-21.912-8.746-23.144-19.91-.243-2.208-.177-4.379.193-6.492 32.357-3.468 65.351.684 95.848 12.121.001 0 .003.001.005.001 13.472 5.053 24.468 14.958 30.958 27.887 12.254 24.428 36.676 39.603 63.735 39.603h4.434c.579 5.795.886 11.667.886 17.605 0 79.554-55.443 150.965-134.669 169.099zm146-131.793c2.428-12.156 3.669-24.63 3.669-37.306 0-12.095-1.191-24.726-3.736-37.311 18.917 1.895 33.736 17.904 33.736 37.311 0 19.384-14.784 35.381-33.669 37.306z"/><circle cx="314.125" cy="474.477" r="7.5"/><circle cx="197.875" cy="474.477" r="7.5"/><path d="m274.825 226.381c2.721-3.123 2.396-7.86-.727-10.582-3.124-2.722-7.861-2.396-10.582.727-3.982 4.569-11.053 4.566-15.032 0-2.723-3.122-7.459-3.447-10.582-.727-3.123 2.722-3.448 7.459-.727 10.582 9.963 11.43 27.699 11.416 37.65 0z"/><path d="m183.551 201.06c-4.142 0-7.5 3.357-7.5 7.5v7c0 4.143 3.358 7.5 7.5 7.5s7.5-3.357 7.5-7.5v-7c0-4.143-3.358-7.5-7.5-7.5z"/><path d="m328.449 201.06c-4.142 0-7.5 3.357-7.5 7.5v7c0 4.143 3.358 7.5 7.5 7.5s7.5-3.357 7.5-7.5v-7c0-4.143-3.358-7.5-7.5-7.5z"/></g></svg>