<svg id="Outline" height="512" viewBox="0 0 64 64" width="512" xmlns="http://www.w3.org/2000/svg"><path d="m25.487 13.672c.323 0 .641-.156.833-.445.306-.459.182-1.081-.277-1.387-1.332-.888-2.749-.418-3.376 0-.459.306-.584.927-.277 1.387.305.459.925.583 1.387.277.006-.003.597-.373 1.158 0 .169.114.362.168.552.168z"/><path d="m28.939 18.411c.499-.236.713-.832.477-1.332-.235-.499-.832-.712-1.332-.477-1.04.491-2.147.01-2.176-.003-.498-.231-1.089-.018-1.325.48-.236.5-.022 1.096.477 1.332.052.024.889.411 2.003.411.575-.001 1.224-.103 1.876-.411z"/><path d="m29.054 13.512c.063-.039.628-.369 1.17-.008.171.114.363.168.554.168.323 0 .641-.156.833-.445.307-.46.182-1.081-.277-1.387-1.334-.889-2.749-.417-3.376 0-.454.303-.574.909-.279 1.368.295.46.911.591 1.375.304z"/><path d="m62.578 56.626c.049-.077.109-.144.151-.228.266-.544.325-1.115.35-1.653.18-4.034-1.164-8.16-3.693-11.325-.552-.68-1.095-1.236-1.646-1.685.054-.11.115-.214.161-.33.354-.904.427-1.849.467-2.658.06-1.051.015-2.254-.764-3.198-.733-.899-1.959-1.317-3.56-1.227-1.427.092-2.642.482-3.609 1.159-1.219.854-1.991 2.16-2.064 3.497-.029.553.075 1.107.28 1.619-.079.042-.159.08-.237.128-.878.555-1.387 1.413-1.849 2.191-1.048 1.793-2.1 3.586-3.15 5.376l-1.548 2.64-.054.096c-.649.48-1.888.136-3.088-.195-.351-.097-.695-.192-1.016-.266-.217-.051-.433-.117-.649-.18l.955-10.191 1.656.165c.068.007.137.011.205.011.569 0 1.118-.244 1.5-.675.426-.48.596-1.139.454-1.766-.511-2.21-1.531-6.621-2.16-9.326-.41-1.808-1.918-3.186-3.755-3.43-2.505-.328-4.89-.839-5.381-2.355-.128-.385-.212-.809-.273-1.242 1.508-.816 2.68-2.181 3.269-3.827.221.072.452.12.696.12 1.255 0 2.275-1.021 2.275-2.275v-6.094c.001-5.239-4.262-9.502-9.501-9.502-2.52 0-4.808.993-6.51 2.6-.45-.255-.99-.474-1.631-.503-1.68-.039-2.949 1.23-3.749 2.197-.875 1.042-1.984 2.63-1.521 4.368.317 1.201 1.389 2.183 2.668 2.445.248.05.503.075.762.075.159 0 .319-.037.479-.056v4.469c0 1.255 1.021 2.275 2.275 2.275.244 0 .475-.049.696-.12.628 1.757 1.924 3.187 3.578 3.978-.061.389-.139.762-.253 1.099-.488 1.507-2.874 2.019-5.38 2.347-1.835.244-3.343 1.622-3.752 3.424-.63 2.71-1.65 7.122-2.161 9.335-.142.623.028 1.282.454 1.762.382.431.931.675 1.498.675.067 0 .135-.003.203-.01l1.629-.163.547 8.497c-.726-.016-1.421-.004-2.04.016l-12.104.451c-1.47.049-2.61 1.238-2.596 2.707.036 3.698-.091 11.041-.092 11.114-.004.269.099.527.287.719.188.191.445.299.713.299h18.991c.003 0 .006-.002.009-.002v.002h21c.552 0 1-.448 1-1v-3.219l2.572-.643c-.363.74-.572 1.568-.572 2.445v1.417c0 .552.448 1 1 1h18c.552 0 1-.448 1-1v-3.639c0-1.129-.564-2.126-1.422-2.735zm-12.209-17.541c.04-.715.505-1.469 1.214-1.966.653-.457 1.549-.734 2.587-.801.526-.03 1.473-.01 1.888.498.343.417.351 1.153.313 1.824-.033.658-.089 1.412-.33 2.028-.003.008-.009.013-.013.021-.009-.004-.018-.01-.028-.014-1.413-.584-2.906-.596-4.211-.606-.385-.007-.777-.006-1.168.021-.174-.301-.27-.658-.252-1.005zm-2.07 4.83c.367-.618.713-1.201 1.179-1.496.57-.354 1.4-.367 2.284-.349 1.191.009 2.422.019 3.473.453.874.364 1.699 1.049 2.593 2.151 2.226 2.787 3.411 6.425 3.252 9.98-.014.299-.038.639-.146.859-.053.105-.132.171-.12.178-.036-.001-.155-.032-.505-.297l-3.349-2.449c-.705-.518-1.504-1.105-1.883-1.831-.165-.321-.271-.709-.384-1.121-.126-.458-.256-.932-.487-1.412-.358-.731-.87-1.28-1.466-1.577-.83-.434-1.821-.378-2.513.132-.156.111-.282.238-.395.371-1.378-.04-2.771.205-4.062.72.844-1.434 1.686-2.869 2.529-4.312zm-10.106 8.845c1.631.45 3.66 1.012 5.099-.369.025-.024.042-.056.064-.083l.005.004c1.387-1.652 3.55-2.682 5.74-2.807-.003.019-.006.039-.009.058l-.034.23c-.065.472-.235.754-.29.793-.549.061-.944.555-.883 1.104s.56.945 1.104.883c1.067-.118 1.853-1.079 2.048-2.492l.035-.234c.058-.403.137-.955.332-1.093.073-.055.252-.062.429.03.212.106.418.346.576.669.149.31.25.678.357 1.068.135.491.275 1 .537 1.51.596 1.144 1.638 1.909 2.476 2.525l1.973 1.444h-8.169c-.278 0-.55.027-.817.067l-.009-.037-7.881 1.97h-.224c.22-.464.348-.97.348-1.5 0-1.93-1.57-3.5-3.5-3.5h-9.394c-.552 0-1 .448-1 1s.448 1 1 1h9.394c.827 0 1.5.673 1.5 1.5 0 .404-.155.781-.437 1.063s-.659.437-1.063.437h-15.986c.053-.984.062-1.983.01-3h2.831c.552 0 1-.448 1-1s-.448-1-1-1h-3.016c-.012-.082-.031-.167-.043-.249.28-.053.557-.106.842-.159.012-.001.023-.001.035-.003.008-.001.015-.007.023-.008.416-.077.834-.155 1.255-.232 1.361-.25 2.724-.501 3.964-.75 1.537-.32 3.278-.683 4.92-.467.932.118 1.843.423 2.807.746.679.228 1.381.462 2.116.636.299.069.614.157.935.246zm-15.383-2.763c-.031-.216.114-.417.325-.447l2.214-.322c.122-.02.221.034.267.068.049.036.135.118.156.264l.047.311c-.888.17-1.801.341-2.73.512-.073.013-.145.027-.218.04zm9.969-10.324 2.565.256-3.49 7.116c-.203-.094-.417-.17-.649-.204l-1.198-.174zm.453 9.586c.003-.145-.007-.286-.029-.426l2.466-5.028-.558 5.957c-.607-.196-1.232-.376-1.879-.503zm-4.965-.421c.035-.218.236-.372.449-.339l2.201.32c.142.021.249.122.297.251-1.047.008-2.071.154-3.012.331zm6.235-33.243c0 .149-.126.275-.275.275s-.275-.126-.275-.275v-1.984c0-.149.126-.275.275-.275s.275.126.275.275zm-7.502-13.595c4.137 0 7.502 3.365 7.502 7.502v1.862c-.091-.011-.181-.028-.275-.028s-.184.017-.275.028v-1.295c0-.291-.126-.566-.346-.756s-.511-.274-.798-.233c-3.891.565-6.648-2.445-7.359-3.318v-1.36c0-.552-.448-1-1-1s-1 .448-1 1v1.53c-.761 2.048-2.867 3.253-2.887 3.264-.317.176-.514.511-.514.874v1.295c-.091-.011-.181-.028-.275-.028s-.184.017-.275.028v-1.863c0-4.137 3.365-7.502 7.502-7.502zm-10.344 7.147c-.542-.111-1.008-.521-1.134-.998-.17-.639.186-1.456 1.125-2.575.536-.647 1.323-1.483 2.134-1.479.115.005.236.035.359.075-.967 1.422-1.549 3.12-1.623 4.948-.297.067-.592.083-.861.029zm3.392 6.448c0 .149-.126.275-.275.275s-.275-.126-.275-.275v-1.984c0-.149.126-.275.275-.275s.275.126.275.275zm2-.236v-4.742c.656-.452 1.803-1.366 2.641-2.707 1.33 1.347 3.875 3.279 7.263 3.242v4.208c0 2.783-2.221 5.046-4.952 5.046s-4.952-2.264-4.952-5.047zm4.952 7.046c.456 0 .902-.048 1.334-.133.075.405.175.797.3 1.172.241.746.681 1.333 1.234 1.801-.294.106-.604.205-.946.291-.375.094-.662.395-.738.774-.007.033-.449 2.228-1.02 4.228-.571-2-1.013-4.195-1.02-4.228-.076-.379-.363-.68-.738-.774-.341-.085-.649-.184-.942-.289.551-.466.987-1.049 1.227-1.79.121-.356.216-.737.291-1.136.334.05.672.084 1.018.084zm-12.551 15.976c.51-2.21 1.53-6.619 2.161-9.334.226-.996 1.057-1.755 2.065-1.889.97-.127 2.32-.307 3.592-.739.577.352 1.259.65 2.044.888.305 1.422 1.116 4.958 1.959 6.646.169.339.516.553.895.553s.725-.214.895-.553c.844-1.688 1.654-5.223 1.959-6.646.786-.238 1.468-.537 2.045-.889 1.271.432 2.62.612 3.589.739 1.01.134 1.841.894 2.068 1.895.63 2.709 1.65 7.119 2.154 9.318l-2.645-.264c-.008-.001-.014-.006-.021-.006-.008-.001-.014.003-.022.002l-4.825-.482.784-3.918c.108-.542-.243-1.068-.784-1.177-.546-.106-1.069.243-1.177.784l-1 5c-.056.277.009.564.177.791.098.132.23.226.375.296l-2.873 7.248c-.489.178-.914.509-1.203.956-.057-.036-.113-.072-.172-.102l-2.929-8.091c.159-.069.305-.164.41-.307.168-.227.232-.514.177-.791l-1-5c-.108-.542-.633-.89-1.177-.784-.542.108-.893.635-.784 1.177l.784 3.919-4.774.482c-.015 0-.028-.007-.043-.006-.022.001-.04.014-.061.017zm7.079 1.294 2.782 7.683-1.463.213c-.124.018-.24.053-.356.089l-1.661-3.622c-.231-.502-.824-.722-1.326-.492s-.722.824-.492 1.326l1.949 4.25c-.132.361-.189.754-.13 1.161l.073.507c-.008.002-.016.003-.024.005-.152-.454-.374-.904-.777-1.273-.385-.352-.832-.531-1.255-.636l-.572-8.886zm-19.512 22.325c.034-2.164.104-7.257.076-10.152-.003-.374.288-.676.667-.688l12.103-.449c.895-.03 1.955-.05 3.021.035.439.035.723.117.87.25.197.181.3.603.381.983.737 3.478.412 6.681-.02 10.021zm37.984 0h-18.871c.084-.661.161-1.328.23-2h18.641zm22 0h-16v-.417c0-1.976 1.607-3.583 3.583-3.583h11.055c.751 0 1.362.611 1.362 1.361z"/></svg>