<svg id="Capa_1" enable-background="new 0 0 512 512" height="512" viewBox="0 0 512 512" width="512" xmlns="http://www.w3.org/2000/svg"><g><g><g><path d="m374.117 371.995c-1.271-2.533-3.861-4.132-6.695-4.132-2.833 0-5.425 1.599-6.695 4.132-.873 1.741-21.429 42.932-24.718 67.825-1.415 10.717 2.07 22.501 9.096 30.754 12.005 14.099 32.596 14.135 44.632 0 7.027-8.252 10.512-20.036 9.097-30.754-3.29-24.894-23.844-66.085-24.717-67.825zm4.214 88.866c-6.103 7.168-15.703 7.184-21.82 0-4.297-5.047-6.515-12.536-5.651-19.08 1.846-13.975 10.366-34.913 16.561-48.779 6.194 13.866 14.714 34.804 16.56 48.779.865 6.544-1.353 14.033-5.65 19.08z"/><path d="m90.321 92.251c4.096.548 7.866-2.338 8.41-6.439 3.263-24.584 21.281-49.358 43.817-60.244 32.065-15.49 71.82-13.922 106.344 4.195 20.612 10.815 36.367 24.579 45.562 39.803 3.698 6.125 6.553 14.415 8.486 24.641.679 3.595 3.822 6.101 7.351 6.101.461 0 .929-.043 1.399-.132 4.065-.768 6.737-4.686 5.969-8.751-2.265-11.985-5.757-21.945-10.382-29.604-10.76-17.815-28.062-33.065-51.424-45.323-38.71-20.312-83.503-21.964-119.822-4.419-27.242 13.161-48.199 42-52.15 71.762-.544 4.1 2.339 7.866 6.44 8.41z"/><path d="m168.429 415.026c-2.925 2.925-2.925 7.668 0 10.593 6.933 6.933 16.15 10.751 25.955 10.751s19.022-3.818 25.955-10.751c2.925-2.925 2.925-7.668 0-10.593s-7.668-2.925-10.593 0c-4.104 4.103-9.559 6.363-15.362 6.363s-11.259-2.26-15.362-6.363c-2.926-2.925-7.668-2.925-10.593 0z"/><path d="m211.573 367.817c2.925-2.925 2.925-7.668 0-10.593s-7.668-2.925-10.593 0c-1.762 1.762-4.105 2.733-6.597 2.733s-4.834-.97-6.597-2.733c-2.925-2.925-7.668-2.925-10.593 0s-2.925 7.668 0 10.593c4.592 4.592 10.696 7.121 17.189 7.121 6.494 0 12.599-2.529 17.191-7.121z"/><path d="m159.166 292.691c-2.925-2.925-7.668-2.925-10.593 0-6.035 6.035-14.059 9.358-22.593 9.358-8.535 0-16.559-3.324-22.594-9.358-2.925-2.925-7.668-2.925-10.593 0s-2.925 7.668 0 10.593c1.75 1.75 3.617 3.337 5.577 4.77l-4.571 8.504c-1.959 3.644-.592 8.185 3.051 10.143 1.128.607 2.342.894 3.54.894 2.668 0 5.252-1.43 6.604-3.945l4.742-8.821c2.199.698 4.455 1.233 6.754 1.6v8.718c0 4.137 3.354 7.49 7.49 7.49 4.137 0 7.49-3.354 7.49-7.49v-8.718c2.299-.367 4.555-.902 6.754-1.6l4.741 8.821c1.352 2.516 3.935 3.945 6.604 3.945 1.197 0 2.412-.288 3.54-.894 3.644-1.958 5.01-6.5 3.051-10.143l-4.571-8.504c1.96-1.432 3.827-3.02 5.577-4.77 2.925-2.926 2.925-7.668 0-10.593z"/><path d="m295.973 292.69c-2.924-2.925-7.667-2.924-10.593 0-6.034 6.035-14.058 9.358-22.592 9.358-8.535 0-16.559-3.324-22.594-9.358-2.925-2.925-7.668-2.925-10.593 0s-2.925 7.668 0 10.593c1.749 1.749 3.616 3.337 5.577 4.769l-4.571 8.504c-1.959 3.643-.593 8.185 3.05 10.144 1.129.607 2.343.894 3.541.894 2.668 0 5.251-1.43 6.604-3.945l4.742-8.821c2.199.698 4.455 1.233 6.754 1.6v8.718c0 4.137 3.353 7.49 7.49 7.49s7.49-3.354 7.49-7.49v-8.718c2.299-.367 4.554-.902 6.753-1.6l4.741 8.82c1.353 2.516 3.935 3.945 6.605 3.945 1.197 0 2.411-.288 3.539-.894 3.644-1.958 5.01-6.5 3.052-10.143l-4.572-8.504c1.96-1.432 3.828-3.02 5.577-4.77 2.925-2.924 2.925-7.666 0-10.592z"/><path d="m472.307 208.401c-4.586-4.586-10.682-7.111-17.168-7.111-6.485 0-12.581 2.526-17.168 7.111l-30.649 30.649-7.368-7.368c-3.977-3.977-10.448-3.977-14.429 0l-16.213 16.214c-3.977 3.978-3.977 10.451 0 14.428l8.763 8.763-36.572 36.572c-.458-8.609-1.16-17.056-1.932-25.192l-.439-4.785c1.462-3.066 4.73-9.918 4.837-10.141 18.746-39.301 16.045-88.435-6.881-125.176-22.406-35.908-59.889-56.599-94.684-78.353-22.556-14.106-48.122-30.095-76.45-26.674-15.115 1.825-28.508 9.576-37.71 21.827-5.685 7.567-9.269 16.21-10.608 25.276-14.198 7.931-28.963 18.138-42.824 31.247-41.185 38.95-54.536 99.942-29.774 151.854l4.637 9.722-.475 5.181c-2.947 31.078-5.219 67 5.181 100.018 1.007 3.196 3.959 5.242 7.142 5.242.745 0 1.503-.112 2.252-.348 3.945-1.242 6.136-5.448 4.893-9.394-9.559-30.347-7.363-64.486-4.553-94.126l.558-6.082c1.459-3.531 2.728-7.163 3.948-10.692 3.246-9.389 6.313-18.257 12.515-23.789 12.873-11.482 29.291-19.379 45.17-27.018 23.242-11.193 46.447-22.996 67.248-38.453 13.683 8.632 26.693 16.299 39.586 23.341 3.63 1.981 8.18.646 10.164-2.984 1.983-3.63.647-8.181-2.984-10.164-23.288-12.719-47-27.531-74.622-46.615-19.193-13.26-30.157-23.895-33.13-42.087-1.813-11.091.905-22.146 7.654-31.13 6.728-8.956 16.505-14.621 27.529-15.952 23.074-2.782 46.258 11.712 66.712 24.503 32.705 20.454 68.788 39.721 89.917 73.582 19.392 31.076 22.422 72.189 8.152 106.149-3.241-8.907-7.182-17.656-14.69-24.352-14.424-12.865-31.86-21.258-47.242-28.662-3.727-1.793-8.203-.228-9.998 3.5s-.227 8.204 3.5 9.998c14.492 6.976 30.917 14.882 43.768 26.344 6.203 5.531 9.269 14.4 12.516 23.789 1.134 3.278 2.31 6.645 3.64 9.938l.629 6.858c1.161 12.246 2.193 25.19 2.358 38.291l-72.711 72.712c-4.213 4.213-6.533 9.814-6.533 15.773-.001 19.188 24.567 29.285 38.079 15.773.012-.012 22.639-22.639 22.639-22.639-14.503 24.864-41.001 55.069-80.788 79.913-8.892 5.552-25.027 13.339-33.176 13.339-.029 0-.059 0-.087 0h-.102c-8.108.08-24.34-7.766-33.263-13.339-32.643-20.383-61.171-47.888-78.271-75.462-2.18-3.515-6.797-4.599-10.313-2.418-3.515 2.18-4.599 6.798-2.418 10.313 18.268 29.458 48.545 58.717 83.066 80.273 1.024.64 25.184 15.613 41.127 15.613h.243c15.942-.002 40.103-14.973 41.127-15.612 45.325-28.302 81.141-67.749 95.806-105.519 1.893-4.875 3.468-9.83 4.785-14.837l73.398-73.398 8.763 8.763c1.99 1.989 4.602 2.983 7.214 2.983 2.613 0 5.226-.994 7.215-2.983l16.213-16.214c3.977-3.978 3.977-10.451 0-14.428l-7.368-7.368 30.65-30.65c9.466-9.468 9.465-24.872-.001-34.337zm-315.125-54.696c7.901 5.459 15.482 10.565 22.84 15.389-18.267 12.872-38.39 23.141-57.248 32.236l-2.964 1.427c-16.812 8.088-34.196 16.451-48.644 29.337-7.511 6.698-11.452 15.452-14.694 24.363-18.122-42.743-8.758-92.606 24.036-125.547 10.871-10.919 23.855-20.971 37.287-29.136 4.231 25.73 21.776 39.763 39.387 51.931zm118.073 262.109c-1.383 1.383-3.223 2.146-5.179 2.146-4.057.001-7.328-3.291-7.328-7.326 0-1.957.763-3.797 2.147-5.181l123.772-123.773 10.361 10.361zm150.343-118.389-42.315-42.315 9.456-9.457 42.315 42.315zm36.116-65.281-30.649 30.65-13.151-13.15 30.649-30.649c3.625-3.626 9.526-3.627 13.151 0 3.625 3.624 3.625 9.523 0 13.149z"/></g></g></g></svg>