<svg id="Layer_1" enable-background="new 0 0 480.051 480.051" height="512" viewBox="0 0 480.051 480.051" width="512" xmlns="http://www.w3.org/2000/svg"><g><path d="m311.738 266.252c-6.43-6.323-11.938-13.579-16.322-21.594-3.03-5.539-11.007-5.541-14.038 0-8.399 15.358-20.356 27.469-35.538 35.996-7.663 4.304-6.449 12.036-1.282 14.861 15.571 8.517 28.304 21.249 36.82 36.82 3.029 5.539 11.006 5.541 14.038 0 8.399-15.358 20.356-27.469 35.538-35.996 7.663-4.304 6.449-12.036 1.282-14.861-2.275-1.245-4.482-2.59-6.632-4.01 3.871-15.489 5.837-32.243 5.837-49.902 0-6.416-1.512-12.296-4.435-17.579-2.137-3.865-7.004-5.264-10.873-3.129-3.866 2.139-5.267 7.007-3.128 10.873 1.732 3.131 2.436 6.282 2.436 9.835 0 13.581-1.247 26.538-3.703 38.686zm-23.355 47.214c-6.915-9.648-15.352-18.08-25.003-24.989 9.737-6.887 18.107-15.229 25.033-24.948 6.922 9.658 15.516 18.195 25.003 24.989-9.738 6.886-18.108 15.229-25.033 24.948z"/><path d="m466.223 58.83-25.239-29.322c-2.882-3.35-7.934-3.727-11.282-.845-3.349 2.883-3.727 7.934-.844 11.282l7.401 8.598-36.792 31.668-16.384-19.034c-2.882-3.35-7.934-3.727-11.282-.845-3.349 2.883-3.727 7.934-.844 11.282l1.412 1.64-86.164 74.167c-1.861 1.602-2.883 3.969-2.773 6.421l1.131 25.274-17.195 14.8c-27.988.15-47.833-9.334-64.296-18.295-3.881-2.113-8.739-.678-10.851 3.201-2.112 3.881-.679 8.739 3.202 10.852 15.586 8.483 32.886 16.402 54.585 19.186l-27.872 23.991c-5.618 4.836-2.16 14.063 5.222 14.063 1.848 0 3.705-.637 5.215-1.937l62.427-53.735c26.73 5.256 25.255 5.031 26.368 5.031 1.898 0 3.754-.677 5.219-1.937l19.826-17.065v157.006c0 10.233-8.217 19.084-19.115 20.587-10.102 1.394-21.936 2.607-35.174 3.609-4.405.334-7.707 4.176-7.373 8.581.334 4.413 4.185 7.708 8.581 7.374 13.564-1.027 25.727-2.276 36.152-3.715 18.772-2.588 32.928-18.253 32.928-36.437v-170.776l26.15-22.51c3.349-2.883 3.727-7.934.844-11.282-2.882-3.35-7.934-3.727-11.282-.845l-59.03 50.811-18.657-3.668-.85-18.995 83.217-71.63 31.357 36.43c1.583 1.839 3.818 2.781 6.067 2.781 6.765 0 10.545-8.008 6.06-13.219l-16.385-19.035 36.792-31.668 7.401 8.598c1.582 1.839 3.817 2.781 6.066 2.781 6.754 0 10.555-7.998 6.061-13.219z"/><path d="m65.221 370.714c13.952 1.925 30.309 3.301 31.244 3.301 4.12 0 7.619-3.162 7.964-7.341.364-4.403-2.911-8.269-7.314-8.632-11.041-.912-21.035-1.981-29.708-3.178-10.897-1.503-19.115-10.354-19.114-20.587v-184.496c0-143.218 193.582-172.5 269.178-83.417 2.858 3.369 7.907 3.782 11.276.924s3.782-7.907.923-11.275c-84.118-99.13-297.377-65.961-297.377 93.768v184.496c-.001 18.184 14.155 33.849 32.928 36.437z"/><path d="m340.219 431.322-51.338-17.701c-18.835-6.494-32.839-22.556-36.934-41.796 5.768-2.735 11.376-5.923 16.773-9.564 3.663-2.471 4.629-7.442 2.159-11.105s-7.443-4.63-11.106-2.158c-72.833 49.127-180.507 3.187-180.507-121.431v-22.568c0-6.306 3.024-12.283 8.091-15.99.779-.57 1.552-1.116 2.326-1.665 10.975 8.005 20.077 18.329 26.655 30.356 3.029 5.539 11.006 5.541 14.038 0 8.399-15.358 20.356-27.469 35.538-35.996 7.671-4.308 6.444-12.039 1.282-14.861-15.571-8.516-28.303-21.248-36.819-36.82-3.03-5.539-11.007-5.541-14.038 0-8.4 15.36-20.357 27.472-35.539 35.997-5.61 3.15-6.453 7.681-4.589 11.402-8.142 6.757-12.944 16.911-12.944 27.577v22.568c0 60.953 24.522 118.201 79.501 144.229-4.087 19.253-18.096 35.327-36.94 41.825l-51.338 17.701c-18.5 6.38-33.353 19.614-41.819 37.267-1.911 3.983-.23 8.763 3.753 10.673 3.975 1.906 8.757.242 10.673-3.753 6.603-13.766 18.184-24.086 32.609-29.06l51.338-17.702c23.287-8.029 40.817-27.462 46.755-50.961 25.761 8.423 53.317 8.441 79.116.011 5.94 23.494 23.469 42.922 46.752 50.951l51.338 17.701c14.425 4.974 26.006 15.294 32.609 29.06 1.901 3.964 6.67 5.673 10.673 3.753 3.984-1.911 5.664-6.689 3.753-10.673-8.47-17.652-23.321-30.887-41.821-37.267zm-216.849-282.43c6.915 9.649 15.351 18.081 25.003 24.989-9.736 6.887-18.107 15.23-25.032 24.948-6.915-9.647-15.35-18.078-25.003-24.988 9.735-6.887 18.107-15.23 25.032-24.949z"/><path d="m178.5 290.115c-4.418 0-8 3.582-8 8v4.869h-4.869c-4.418 0-8 3.582-8 8s3.582 8 8 8h4.869v4.869c0 4.418 3.582 8 8 8s8-3.582 8-8v-4.869h4.869c4.418 0 8-3.582 8-8s-3.582-8-8-8h-4.869v-4.869c0-4.418-3.581-8-8-8z"/></g></svg>