<?xml version="1.0" encoding="UTF-8"?>
<svg xmlns="http://www.w3.org/2000/svg" id="Layer_1" data-name="Layer 1" viewBox="0 0 64 64" width="512" height="512"><path d="M56,28a13.705,13.705,0,0,0-3-8.06c.022-.818-.143-4.98-5.211-11.551C42.089,1,30.563.04,30,0H29a1,1,0,0,0-.423.094,14.633,14.633,0,0,0-6.165,6.054C20.384,6.9,8,12.042,8,26c0,7.713,3.018,11.062,5.442,13.752.276.307.545.6.8.9a.893.893,0,0,0,.149.112c.541,5.157,1.829,11.87,4.9,14.942l.952.954C25.573,62,27.566,64,32,64s6.427-2,11.755-7.339l.952-.954c2.855-2.854,4.168-8.852,4.774-13.825C50.414,41.468,56,38.546,56,28ZM10,26c0-10.63,7.748-15.546,11.426-17.28A12.873,12.873,0,0,0,21,12c0,4.613,3.255,6.549,7.09,7.914a23.563,23.563,0,0,0-4.627,2.242,24.989,24.989,0,0,0-9.4,11.506A1,1,0,0,0,14,34c0,.186.005,1.541.124,3.509C12.051,35.128,10,32.147,10,26ZM43.293,54.293l-.954.955C37.165,60.435,35.6,62,32,62s-5.165-1.565-10.339-6.752l-.954-.955C16.333,49.919,16.023,35.95,16,34.183a23.4,23.4,0,0,1,8.536-10.339,26.492,26.492,0,0,1,6.755-2.888l.024-.007a29.372,29.372,0,0,1,7.147,2.895A30.66,30.66,0,0,1,48,34.246C47.97,36.256,47.623,49.963,43.293,54.293Zm6.446-14.9C49.991,36.437,50,34.241,50,34a1,1,0,0,0-.108-.452A32.206,32.206,0,0,0,39.537,22.156a31.75,31.75,0,0,0-7.845-3.184C26.3,17.325,23,16.107,23,12c0-6.388,5.166-9.437,6.238-10l.686,0c.111.008,11.12.919,16.284,7.614A26.1,26.1,0,0,1,50.4,16.946,51.12,51.12,0,0,0,37.418,8.092a1,1,0,0,0-.837,1.816C36.755,9.988,54,18.063,54,28,54,35.1,51.308,38.188,49.739,39.391Z"/><path d="M50,56a1,1,0,0,1-1-1V53a1,1,0,0,1,2,0v2A1,1,0,0,1,50,56ZM10,41V40a1,1,0,0,0-2,0v1a1,1,0,0,0,2,0ZM8,43a1,1,0,0,0-1-1H6a1,1,0,0,0,0,2H7A1,1,0,0,0,8,43Zm2,3V45a1,1,0,0,0-2,0v1a1,1,0,0,0,2,0Zm3-3a1,1,0,0,0-1-1H11a1,1,0,0,0,0,2h1A1,1,0,0,0,13,43Zm43,2V44a1,1,0,0,0-2,0v1a1,1,0,0,0,2,0Zm-2,2a1,1,0,0,0-1-1H52a1,1,0,0,0,0,2h1A1,1,0,0,0,54,47Zm2,3V49a1,1,0,0,0-2,0v1a1,1,0,0,0,2,0Zm3-3a1,1,0,0,0-1-1H57a1,1,0,0,0,0,2h1A1,1,0,0,0,59,47ZM49,57a1,1,0,0,0-1-1H46a1,1,0,0,0,0,2h2A1,1,0,0,0,49,57Zm2,4V59a1,1,0,0,0-2,0v2a1,1,0,0,0,2,0Zm4-4a1,1,0,0,0-1-1H52a1,1,0,0,0,0,2h2A1,1,0,0,0,55,57Z"/><path d="M25,42a5.317,5.317,0,0,1-4.895-2.553,1,1,0,0,1,1.784-.905A3.4,3.4,0,0,0,25,40c2.445,0,3.31-.724,3.318-.731a1.016,1.016,0,0,1,1.4.062.984.984,0,0,1-.011,1.376C29.491,40.923,28.25,42,25,42Zm18.9-2.553a.993.993,0,0,0-.438-1.327,1.007,1.007,0,0,0-1.345.42A3.394,3.394,0,0,1,39,40a5.567,5.567,0,0,1-3.293-.707h0a1,1,0,0,0-1.414,1.414C34.509,40.923,35.75,42,39,42A5.317,5.317,0,0,0,43.9,39.447ZM29.447,35.9a1,1,0,0,0,.448-1.342A5.317,5.317,0,0,0,25,32c-3.25,0-4.491,1.077-4.707,1.293a.984.984,0,0,0-.011,1.376,1.017,1.017,0,0,0,1.4.062C21.69,34.724,22.555,34,25,34a3.4,3.4,0,0,1,3.111,1.458,1,1,0,0,0,1.336.437Zm6.441-.435A3.394,3.394,0,0,1,39,34a5.567,5.567,0,0,1,3.293.707h0a1,1,0,0,0,1.414-1.414C43.491,33.077,42.25,32,39,32a5.317,5.317,0,0,0-4.9,2.553.993.993,0,0,0,.438,1.327.976.976,0,0,0,.455.111A1.013,1.013,0,0,0,35.888,35.46ZM37.9,50.447a.989.989,0,0,0-.43-1.316,1.017,1.017,0,0,0-1.347.4C36.083,49.59,35.239,51,32,51s-4.083-1.41-4.105-1.447a1,1,0,1,0-1.79.894C26.236,50.709,27.512,53,32,53S37.764,50.709,37.9,50.447Z"/></svg>
