<svg id="Capa_1" enable-background="new 0 0 511.292 511.292" height="512" viewBox="0 0 511.292 511.292" width="512" xmlns="http://www.w3.org/2000/svg"><g><path d="m24.177 58.568h30.001v71.667h-30.001z" transform="matrix(.353 -.936 .936 .353 -62.975 97.793)"/><path d="m79.759 2.987h29.999v71.667h-29.999z" transform="matrix(.936 -.352 .352 .936 -7.602 35.889)"/><path d="m436.281 79.402h71.667v30.001h-71.667z" transform="matrix(.936 -.353 .353 .936 -2.977 172.456)"/><path d="m380.7 23.821h71.667v29.999h-71.667z" transform="matrix(.353 -.936 .936 .353 233.397 414.943)"/><path d="m460.564 153.361-90.861 22.799 5.74-42.995-119.797-130.346-119.798 130.347 5.741 42.995-90.861-22.799-50.601 120.278 120.379 237.652h270.279l120.38-237.652zm11.496 104.689-62.748-.018-36.718-51.667 70.3-17.64zm-111.115-16.29 23.953 33.704-46.846 137.758zm-292.547-53.035 70.3 17.64-36.718 51.667-62.748.018zm70.542 292.567-97.885-193.243 57.927-.017 65.72 193.26zm-12.545-205.828 23.953-33.704 22.893 171.462zm114.251 205.828h-28.052l-41.831-313.31 69.883 36.056zm-66.587-345.368 81.587-88.772 81.587 88.772-81.587 42.095zm96.587 345.368v-277.254l69.883-36.056-41.831 313.31zm101.706 0h-25.762l65.72-193.26 57.927.017z"/></g></svg>