<svg id="Image" height="512" viewBox="0 0 64 64" width="512" xmlns="http://www.w3.org/2000/svg"><g><path d="m32 4c-14.485 0-21 12.865-21 22v12c0 1.322 2 1.324 2 0v-12c0-8.305 5.895-20 19-20s19 11.695 19 20v12.875c0 1.322 2 1.324 2 0v-12.875c0-9.135-6.515-22-21-22z"/><path d="m13 56v-10c0-1.322-2-1.324-2 0v10c0 1.322 2 1.324 2 0z"/><path d="m51 46v10c0 1.322 2 1.324 2 0v-10c0-1.322-2-1.324-2 0z"/><path d="m42.372 48.868c-.981.887.359 2.371 1.342 1.483 1.902-1.721 3.583-3.917 4.87-6.318l1.311.402c.354.107.698-.19.641-.555l-.792-5.083c-.064-.412-.584-.573-.866-.257l-3.414 3.792c-.244.271-.125.705.225.813l.95.292c-1.153 2.064-2.622 3.944-4.267 5.431z"/><path d="m35.333 40.172c-1.894 1.695-4.763 1.71-6.674.035-.416-.365-1.048-.323-1.411.093-.364.415-.323 1.047.093 1.411 2.669 2.34 6.678 2.321 9.326-.048.412-.368.446-1 .078-1.412-.368-.413-1-.448-1.412-.079z"/><path d="m52 58c-9.16 0-11.807-7.01-11.98-11.08 3.681-3.172 5.589-7.965 5.925-10.266 1.25-.674 4.055-2.633 4.055-6.654 0-2.441-1.416-3.582-3-3.902v-4.843c0-2.088-.664-4.069-1.92-5.73-3.088-4.086-7.978-6.525-13.08-6.525-5.711 0-9.623 1.951-13.08 6.524-1.256 1.661-1.92 3.643-1.92 5.73v4.843c-1.584.32-3 1.461-3 3.902 0 4.021 2.805 5.98 4.055 6.654.337 2.301 2.245 7.094 5.925 10.266-.173 4.071-2.82 11.081-11.98 11.081-1.322 0-1.324 2 0 2 9.77 0 13.192-6.881 13.863-11.713 3.725 2.239 8.386 2.338 12.274 0 .671 4.832 4.093 11.713 13.863 11.713 1.322 0 1.324-2 0-2zm-8.515-41.269c.805 1.064 1.283 2.298 1.442 3.606-2.219-2.129-4.891-3.699-7.755-4.564.729-.978 1.029-2.189.715-3.477 2.18.985 4.126 2.488 5.598 4.435zm-11.485-5.731c.92 0 1.828.112 2.721.287 1.68.767 1.749 3.11.047 3.941-.915-.146-1.839-.228-2.768-.228-4.745 0-9.408 1.962-12.927 5.338.158-1.308.637-2.543 1.442-3.607 3.077-4.071 6.404-5.731 11.485-5.731zm-12 25c0-.412-.252-.782-.636-.932-.034-.013-3.364-1.357-3.364-5.068 0-.495 0-2 2-2 .552 0 1-.448 1-1v-3.64c3.247-3.986 8.079-6.36 13-6.36s9.753 2.374 13 6.36v3.64c0 .552.448 1 1 1 2 0 2 1.505 2 2 0 3.669-3.22 5.011-3.368 5.07-.381.151-.632.519-.632.93 0 2.375-3.859 12-12 12s-12-9.625-12-12z"/><path d="m42.789 31.074c.812-1.043-.759-2.272-1.577-1.23-1.076 1.38-3.149 1.631-4.439.063-.842-1.022-2.385.249-1.545 1.27 2.006 2.441 5.612 2.394 7.561-.103z"/><path d="m28.772 31.176c.84-1.021-.704-2.291-1.545-1.27-1.307 1.591-3.38 1.295-4.439-.063-.814-1.043-2.39.188-1.577 1.23 1.952 2.502 5.559 2.541 7.561.103z"/><path d="m36.692 25.888c.87-.834 2.737-.889 4.996-.146 1.264.408 1.877-1.489.624-1.9-4.131-1.358-6.162-.204-7.004.604-.957.918.441 2.348 1.384 1.442z"/><path d="m22.312 25.742c2.258-.744 4.126-.688 4.996.146.938.901 2.353-.513 1.385-1.443-.841-.809-2.873-1.962-7.004-.604-1.256.412-.639 2.31.623 1.901z"/><path d="m18.536 42.333-3.414-3.792c-.281-.313-.801-.158-.866.257l-.792 5.083c-.056.361.284.664.641.555l1.311-.402c1.287 2.401 2.968 4.597 4.87 6.318.982.887 2.323-.596 1.342-1.483-1.645-1.488-3.114-3.367-4.267-5.432l.95-.292c.351-.108.468-.542.225-.812z"/></g></svg>