<?xml version="1.0" encoding="iso-8859-1"?>
<!-- Generator: Adobe Illustrator 19.0.0, SVG Export Plug-In . SVG Version: 6.00 Build 0)  -->
<svg version="1.1" id="Capa_1" xmlns="http://www.w3.org/2000/svg" xmlns:xlink="http://www.w3.org/1999/xlink" x="0px" y="0px"
	 viewBox="0 0 511.998 511.998" style="enable-background:new 0 0 511.998 511.998;" xml:space="preserve">
<g>
	<g>
		<path d="M495.269,139.762c5.003-15.279-0.101-32.765-13.728-42.69L452.882,76.2c-2.053-1.494-4.598-2.154-7.118-1.84l-44.518,5.52
			c-0.352,0.044-0.697,0.106-1.036,0.185l-7.655-3.622c-10.044-4.752-21.151-6.512-32.006-5.286V55.79
			c-0.004-0.005-0.008-0.008-0.012-0.012c0-0.133,0.009-0.264,0.004-0.398c-0.137-3.318-1.883-6.183-4.448-7.897
			c-0.053-16.082-10.401-31.08-26.463-36.214L295.858,0.474c-2.417-0.772-5.041-0.597-7.335,0.493l-40.521,19.248
			c-0.32,0.152-0.627,0.32-0.923,0.5l-8.407-1.029c-16.587-2.034-33.334,3.076-45.96,14.01l-16.781,14.529
			c-2.053,1.777-3.235,4.278-3.41,6.898c-0.016,0.117-0.028,0.248-0.034,0.391c-0.001,0.054-0.005,0.107-0.006,0.16
			c-0.001,0.039-0.004,0.07-0.004,0.111l0.001,27.972c-4.62-1.248-9.571-1.276-14.353,0.051c-2.626,0.729-5.075,1.847-7.307,3.268
			l-17.296,1.973c-3.374,0.385-6.606,1.313-9.603,2.699l-11.713,3.687c-15.933,5.017-29.068,16.601-36.036,31.781l-9.26,20.174
			c-1.229,2.677-1.189,5.707-0.004,8.31c-0.003,0.001-0.006,0.002-0.01,0.003l26.937,59.221c4.994,10.98,12.147,20.48,20.81,28.12
			c-10.604,3.325-20.584,9.162-28.971,17.55c-3.772,3.772-3.919,9.841-0.334,13.791l100.06,110.263
			c-8.438,7.737-13.327,18.651-13.327,30.35c0,14.084,7.068,27.046,18.907,34.675c3.762,2.424,7.82,4.161,12.011,5.251
			l-16.286,43.573c-1.147,3.07-0.717,6.508,1.151,9.201c1.869,2.693,4.938,4.3,8.216,4.3h140c3.314,0,6.413-1.642,8.274-4.384
			c1.861-2.742,2.243-6.228,1.02-9.308l-17.145-43.161c4.522-1.062,8.903-2.882,12.944-5.484
			c11.839-7.623,18.908-20.581,18.908-34.663c0-11.896-5.06-22.977-13.763-30.73l100.47-109.854
			c3.668-4.012,3.461-10.219-0.468-13.976c-2.569-2.458-6.112-3.268-9.333-2.466c18.297-9.916,32.598-26.528,39.436-47.157
			l20.469-61.755C497.973,145.767,497.254,142.309,495.269,139.762z M424.986,116.885c1.133,0.584,3.78,2.356,3.874,6.183
			c0.059,2.376-1.062,4.618-2.945,5.962l-9.259,6.521c-0.581,0.409-1.102,0.87-1.568,1.37c-1.398,0.64-2.783,1.312-4.149,2.026
			l-11.764-9.108l18.529-12.523C420.873,115.172,423.851,116.299,424.986,116.885z M382.8,109.707
			c0.664-4.155,3.425-7.478,7.388-8.89c3.547-1.262,7.475-0.687,10.51,1.542l1.639,1.204l-18.666,12.615
			C382.771,114.201,382.438,111.979,382.8,109.707z M352.189,93.749c5.783-2.4,12.007-3.349,18.133-2.866
			c-3.765,4.318-6.314,9.676-7.272,15.67c-1.833,11.486,2.563,22.595,11.76,29.716l19.05,14.749
			c-6.988,7.506-10.267,17.878-8.643,28.205c0.701,4.455,0.944,8.995,0.723,13.494c-0.021,0.435-0.02,0.802,0.016,1.235
			c0.011,0.164,0.975,16.61-10.63,31.606c-0.736,0.951-1.398,1.896-1.983,2.731c-0.551,0.787-1.072,1.53-1.565,2.152l-8.857,11.199
			l-1.426-2.883c-8.158-16.494-5.508-36.017,6.752-49.738c6.663-7.458,9.577-17.398,7.996-27.273s-7.454-18.409-16.112-23.414
			c-13.917-8.045-22.365-22.616-22.53-38.525L352.189,93.749z M337.397,227.531l-1.962-1.711
			c-11.016-9.606-18.115-22.381-20.702-36.099c0.438-2.187,0.138-4.479-0.884-6.494c-0.696-8.379,0.268-16.972,3.028-25.299
			l8.925-26.926c5.605,10.053,13.896,18.619,24.32,24.644c3.425,1.98,5.748,5.355,6.373,9.262c0.625,3.906-0.528,7.838-3.163,10.787
			C340.405,190.164,334.876,209.092,337.397,227.531z M322.287,240.891c-4.211-0.765-8.516-1.174-12.887-1.174
			c-11.641,0-22.85,2.785-32.885,8.016v-33.91h0.001c7.789-1.244,15.213-3.972,21.901-7.975
			C303.118,219.097,311.193,231.216,322.287,240.891z M340.549,66.21l0.001,10.717l-16.53,6.863
			c-2.521,1.046-4.437,3.062-5.423,5.511c-0.042,0.089-0.082,0.184-0.121,0.281c-0.025,0.067-0.053,0.132-0.076,0.2
			c-0.012,0.034-0.026,0.063-0.037,0.097l-20.47,61.756c-3.592,10.836-4.865,22.014-4.004,32.923
			c-3.65,3.135-7.808,5.602-12.281,7.307l4.594-12.621c0.47-1.291,0.843-2.537,1.173-3.637c0.251-0.838,0.488-1.63,0.73-2.316
			c8.155-23.165,1.537-42.984,0.001-47.02c-1.56-5.479-3.672-10.82-6.283-15.883c-2.291-4.443-1.984-9.781,0.801-13.932
			c12.039-17.94,32.113-29.183,53.7-30.072L340.549,66.21z M293.535,20.728l30.006,9.591c7.246,2.316,12.022,8.864,12.5,16.061
			l-0.538,0.022c-9.482,0.391-18.737,2.329-27.438,5.622c-0.229-2.112-0.701-4.214-1.436-6.262
			c-3.355-9.345-11.532-16.108-21.342-17.649c-2.317-0.364-4.635-0.412-6.908-0.185L293.535,20.728z M275.406,50.571
			c2.334-3.031,5.514-2.902,6.775-2.7c1.26,0.197,4.33,1.047,5.623,4.65c0.802,2.235,0.445,4.716-0.92,6.585l-6.736,9.104
			c-0.423,0.572-0.773,1.174-1.058,1.796c-1.125,1.047-2.228,2.119-3.3,3.226l-14.032-4.944L275.406,50.571z M244.095,43.568
			c2.969-2.315,6.88-3.003,10.461-1.844l1.935,0.627l-13.748,17.848c-1.478-1.593-2.493-3.598-2.864-5.87
			C239.202,50.177,240.778,46.154,244.095,43.568z M205.804,48.816c4.733-4.098,10.341-6.956,16.307-8.425
			c-2.214,5.282-2.948,11.169-1.97,17.159c1.874,11.48,9.542,20.642,20.513,24.507l22.723,8.006
			c-4.272,9.324-4.121,20.202,0.671,29.493c2.065,4.005,3.725,8.237,4.932,12.58c0.116,0.419,0.26,0.83,0.43,1.229
			c0.063,0.149,6.136,15.371-0.171,33.284c-0.399,1.135-0.731,2.242-1.023,3.219c-0.275,0.92-0.536,1.789-0.807,2.533l-4.884,13.416
			l-2.261-2.288c-12.934-13.088-16.561-32.453-9.242-49.335c3.978-9.176,3.617-19.528-0.991-28.404
			c-4.608-8.876-12.868-15.129-22.662-17.156c-15.74-3.256-28.344-14.431-33.507-29.479L205.804,48.816z M256.516,211.643v51.259
			c-4.046,3.555-8.561,6.41-13.402,8.506l-15.534-18.786c10.596-13.029,17.198-28.545,19.239-45.044L256.516,211.643z
			 M192.478,111.868c0.089-1.255,0.084-2.506,0-3.748V92.479c8.483,7.779,19.048,13.302,30.838,15.741
			c3.874,0.801,7.141,3.274,8.963,6.785c1.822,3.511,1.965,7.605,0.392,11.234c-7.717,17.801-7.01,37.507,1.185,54.216l-2.4-1.006
			c-23.678-9.927-38.978-32.931-38.978-58.604V111.868z M179.813,217.718l6.129-51.34c8.939,13.757,21.927,24.869,37.781,31.517
			l3.715,1.558c-0.629,14.993-6.036,29.207-15.58,40.832l-12.166-4.642c-8.42-3.213-15.426-8.725-20.428-15.67
			C179.526,219.258,179.719,218.507,179.813,217.718z M220.598,275.563c-11.546-0.471-22.404-4.75-31.141-12.229l20.522-0.613
			L220.598,275.563z M158.43,108.345c0.871-3.727,3.821-4.923,5.049-5.264c1.228-0.343,4.375-0.84,7.042,1.903
			c1.094,1.125,1.761,2.558,1.957,4.071v1.812c-0.023,0.184-0.041,0.369-0.079,0.553c-0.058,0.278-0.104,0.559-0.137,0.841
			l-1.953,16.361l-16.967,1.5L158.43,108.345z M127.029,114.931c1.744-3.337,5.018-5.583,8.758-6.01l2.022-0.231l-5.125,21.936
			c-2.005-0.838-3.76-2.24-5.037-4.154C125.311,122.974,125.08,118.659,127.029,114.931z M87.757,149.917l6.589-14.355
			c2.612-5.69,6.533-10.614,11.356-14.422c0.171,5.725,1.941,11.388,5.311,16.436c5.918,8.866,15.458,13.943,25.93,13.943
			c0.956,0,1.921-0.042,2.89-0.128l28.054-2.479l-3.218,26.952c-1.805-2.512-3.974-4.789-6.475-6.75
			c-7.869-6.172-17.976-8.445-27.732-6.236C114.786,166.433,98.687,161.479,87.757,149.917z M112.038,206.646l-11.745-25.821
			c10.942,3.568,22.846,4.221,34.589,1.56c3.857-0.872,7.856,0.025,10.969,2.467c3.112,2.44,4.937,6.108,5.007,10.063
			c0.345,19.398,9.148,37.045,23.526,48.863l-2.603,0.078C146.121,244.597,122.668,230.015,112.038,206.646z M201.81,432.864
			c-6.19-3.99-9.74-10.501-9.74-17.864c0-7.363,3.55-13.874,9.74-17.862c6.19-3.988,13.585-4.532,20.291-1.487l16.479,7.478
			c-0.124,0.898-0.21,1.807-0.21,2.738v18.268c0,0.931,0.086,1.84,0.21,2.738l-16.479,7.478
			C215.396,437.395,208.001,436.852,201.81,432.864z M210.483,492l13.931-37.272c2.016-0.566,4.006-1.283,5.951-2.166l21.241-9.639
			c2.113,0.762,4.38,1.199,6.752,1.199h15.535c2.371,0,4.637-0.437,6.75-1.198l21.138,9.608c1.501,0.683,3.03,1.261,4.576,1.755
			L321.337,492H210.483z M258.358,405.878l15.523-0.012l0.023,18.256c0,0-0.003,0-0.011,0l-15.524,0.012L258.358,405.878z
			 M330.334,432.847c-6.187,3.984-13.578,4.523-20.277,1.478l-16.387-7.448c0.124-0.899,0.211-1.81,0.211-2.743v-18.268
			c0-0.933-0.087-1.844-0.211-2.743l16.387-7.448c5.429-2.469,11.312-2.581,16.641-0.415c0.091,0.043,0.184,0.08,0.276,0.12
			c1.15,0.486,2.274,1.073,3.36,1.772c6.187,3.983,9.735,10.489,9.735,17.848C340.069,422.359,336.521,428.864,330.334,432.847z
			 M327.885,374.776c-8.629-1.95-17.767-1.098-26.104,2.691l-21.139,9.608c-2.112-0.761-4.378-1.198-6.75-1.198h-15.535
			c-2.372,0-4.639,0.437-6.752,1.199l-21.241-9.639c-8.559-3.884-17.963-4.678-26.793-2.519l-96.437-106.272
			c8.458-5.806,18.459-8.929,28.939-8.929c13.698,0,26.575,5.335,36.261,15.021c27.227,27.226,71.169,27.761,99.077,1.644
			c1.447-0.815,2.667-1.98,3.553-3.38c9.45-8.584,21.582-13.284,34.437-13.284c13.698,0,26.575,5.335,36.261,15.021
			c3.272,3.272,6.81,6.179,10.559,8.717l-32.768,35.829c-3.727,4.075-3.445,10.401,0.63,14.128c1.919,1.755,4.336,2.621,6.746,2.621
			c2.709,0,5.41-1.095,7.382-3.251l36.857-40.299c6.715,2.06,13.773,3.132,20.996,3.132c1.453,0,2.899-0.043,4.337-0.128
			L327.885,374.776z M432.327,260.595c-9.686,9.686-22.563,15.02-36.261,15.02c-8.126,0-15.958-1.891-23.011-5.441l30.476-2.347
			c10.423-0.803,20.36-3.507,29.431-7.805C432.744,260.204,432.53,260.392,432.327,260.595z M457.427,204.523
			c-8.078,24.371-29.836,41.391-55.433,43.362l-19.712,1.519l5.182-6.552c0.853-1.078,1.6-2.145,2.259-3.085
			c0.501-0.716,0.976-1.393,1.422-1.969c15.029-19.421,14.984-40.315,14.796-44.629c0.244-5.689-0.081-11.424-0.966-17.055
			c-0.776-4.938,1.195-9.909,5.144-12.972c17.073-13.242,39.667-17.594,60.435-11.647l4.064,1.164L457.427,204.523z
			 M476.578,132.418l-0.518-0.148c-9.123-2.614-18.518-3.687-27.812-3.299c0.447-2.076,0.66-4.219,0.606-6.392
			c-0.244-9.927-5.877-18.92-14.704-23.47c-2.084-1.074-4.269-1.85-6.495-2.35l16.648-2.064l25.464,18.544
			C475.916,117.718,478.389,125.437,476.578,132.418z"/>
	</g>
</g>
<g>
	<g>
		<path d="M315.6,343.34c-1.86-1.861-4.44-2.92-7.07-2.92s-5.21,1.06-7.07,2.92c-1.86,1.87-2.93,4.44-2.93,7.08
			c0,2.63,1.07,5.21,2.93,7.07c1.86,1.859,4.44,2.93,7.07,2.93s5.21-1.07,7.07-2.93c1.87-1.87,2.93-4.44,2.93-7.07
			C318.53,347.78,317.47,345.21,315.6,343.34z"/>
	</g>
</g>
<g>
	<g>
		<path d="M424.176,30.468h-5.5v-5.5c0-5.522-4.477-10-10-10s-10,4.478-10,10v5.5h-5.5c-5.523,0-10,4.478-10,10
			c0,5.522,4.477,10,10,10h5.5v5.5c0,5.522,4.477,10,10,10s10-4.478,10-10v-5.5h5.5c5.523,0,10-4.478,10-10
			C434.176,34.946,429.699,30.468,424.176,30.468z"/>
	</g>
</g>
<g>
	<g>
		<path d="M55.607,245.174h-5.5v-5.5c0-5.522-4.477-10-10-10c-5.523,0-10,4.478-10,10v5.5h-5.5c-5.523,0-10,4.478-10,10
			c0,5.522,4.477,10,10,10h5.5v5.5c0,5.522,4.477,10,10,10c5.523,0,10-4.478,10-10v-5.5h5.5c5.523,0,10-4.478,10-10
			C65.607,249.652,61.13,245.174,55.607,245.174z"/>
	</g>
</g>
<g>
	<g>
		<path d="M86.607,58.271h-5.5v-5.5c0-5.522-4.477-10-10-10c-5.523,0-10,4.478-10,10v5.5h-5.5c-5.523,0-10,4.478-10,10
			s4.477,10,10,10h5.5v5.5c0,5.522,4.477,10,10,10c5.523,0,10-4.478,10-10v-5.5h5.5c5.523,0,10-4.478,10-10
			C96.607,62.749,92.13,58.271,86.607,58.271z"/>
	</g>
</g>
<g>
	<g>
		<path d="M114.809,19.247h-0.313c-5.523,0-10,4.478-10,10c0,5.522,4.478,10,10,10h0.313c5.523,0,10-4.478,10-10
			C124.809,23.725,120.332,19.247,114.809,19.247z"/>
	</g>
</g>
<g>
	<g>
		<path d="M487.354,251.097h-0.313c-5.523,0-10,4.478-10,10c0,5.522,4.477,10,10,10h0.313c5.523,0,10-4.478,10-10
			C497.354,255.575,492.877,251.097,487.354,251.097z"/>
	</g>
</g>
<g>
	<g>
		<path d="M487.197,47.763h-0.313c-5.523,0-10,4.478-10,10s4.477,10,10,10h0.313c5.523,0,10-4.478,10-10
			S492.72,47.763,487.197,47.763z"/>
	</g>
</g>
<g>
</g>
<g>
</g>
<g>
</g>
<g>
</g>
<g>
</g>
<g>
</g>
<g>
</g>
<g>
</g>
<g>
</g>
<g>
</g>
<g>
</g>
<g>
</g>
<g>
</g>
<g>
</g>
<g>
</g>
</svg>
