<svg id="Layer_1" enable-background="new 0 0 512 512" height="512" viewBox="0 0 512 512" width="512" xmlns="http://www.w3.org/2000/svg"><g><path d="m477.8 97.2c-.4-.1-.9-.2-1.4-.3-10.7-2.1-91.8-38.1-168.9 13-29.2 19.4-50.3 47.9-59.5 80.4-1.3 4.5 1.4 9.3 5.9 10.5 4.5 1.3 9.2-1.4 10.5-5.9 8.2-29 26.4-53.5 52.5-70.9 71.1-47.2 144.5-12.4 156.8-10.4 14 4.2 18.2 22.2 7.3 32.1-9.4 8.5-17.3 18.5-23.7 29.4l-31 53.7c-33.9 58.7-113 72.3-164.5 27.6-38.2-33.1-49.2-90.2-22.8-135.8l31-53.7c6.3-11 10.9-22.8 13.7-35.2 3.2-14.4 20.8-19.8 31.5-9.8 4.4 5.5 24.7 20.2 42.6 46.4 2.7 3.9 8 4.9 11.9 2.2s4.9-8 2.2-11.9c-1.5-2.2-3-4.3-4.5-6.3 21.2-17.9 48-12.2 53.8 13.1 1.1 4.6 5.6 7.5 10.2 6.4s7.5-5.6 6.4-10.2c-8.5-37.2-49.7-48.6-81.1-22.5-13.6-15.6-25.8-25.3-28.1-27.9-.3-.4-.6-.7-.9-1-20.2-20-54.4-9.8-60.5 17.9-2.3 10.7-6.3 20.9-11.8 30.3l-31 53.7c-29.1 50.4-19.1 112.8 20.6 151.9-9.2 24.2-22.4 45-39.3 61.9-34.2 34.2-72.6 41.5-108.3 57.2l-8.3-11.1c-27.2-38-18.5-91 19.4-118.2 5.7-4.1 13.7-2.8 17.8 2.9 15.2 21.1 19.8 47.6 12.6 72.7-1.3 4.5 1.3 9.3 5.9 10.5 4.5 1.3 9.3-1.3 10.5-5.9 8.6-30.1 3-61.9-15.2-87.3-9.6-13.4-28.3-16.5-41.7-6.8-45.4 32.7-55.9 96.5-23.1 142.1l6.5 9c-43 23.4-66.4 62.3-74 111.2-.8 5.2 3.2 9.8 8.4 9.8 4.1 0 7.8-3 8.4-7.2 4.3-27.3 13.8-50.3 28.4-68.5 12.8-15.9 27.5-25.9 43.3-33.6 1.1-.2 2.2-.7 3.2-1.4 3.9-2.8 36.5-14.6 48.3-19.3l5.2 12.2c22.2 51.8 82.3 75.5 133.6 53.5 15.2-6.5 22.2-24 15.7-39.2-12.1-28.3-36.1-49.4-65.8-57.9-4.5-1.3-9.3 1.3-10.5 5.9-1.3 4.5 1.3 9.3 5.9 10.5 24.7 7 44.7 24.6 54.8 48.2 2.8 6.5-.2 14-6.7 16.8-42.9 18.4-92.8-1.6-111.2-44.5l-5.2-12.2c43.5-20.1 75.6-52.3 95-99.3 60.2 44.1 145.2 26.3 182.5-38.3l31-53.7c5.5-9.5 12.3-18 20.4-25.4 21.1-19.2 12.7-53.9-14.7-61.4z"/></g></svg>