<svg id="Capa_1" enable-background="new 0 0 480.012 480.012" height="512" viewBox="0 0 480.012 480.012" width="512" xmlns="http://www.w3.org/2000/svg"><path d="m96.012 255.947h16v16h-16z"/><path d="m160.012 431.947c13.255 0 24-10.745 24-24s-10.745-24-24-24-24 10.745-24 24c.015 13.249 10.751 23.985 24 24zm0-32c4.418 0 8 3.582 8 8s-3.582 8-8 8-8-3.582-8-8c.005-4.416 3.584-7.995 8-8z"/><path d="m56.012 431.947c13.255 0 24-10.745 24-24s-10.745-24-24-24-24 10.745-24 24c.015 13.249 10.751 23.985 24 24zm0-32c4.418 0 8 3.582 8 8s-3.582 8-8 8-8-3.582-8-8c.005-4.416 3.584-7.995 8-8z"/><path d="m56.012 463.947c22.907-.028 43.494-13.986 52-35.255 11.461 28.722 44.036 42.716 72.759 31.255s42.716-44.036 31.255-72.759c-7.335-18.382-23.828-31.526-43.383-34.574l-32.63-58.74v-168.257c-.006-18.205-2.118-36.348-6.294-54.068-4.187-17.719-10.412-34.893-18.551-51.18-1.976-3.952-6.781-5.554-10.733-3.578-1.548.774-2.804 2.03-3.578 3.578-16.296 32.694-24.799 68.718-24.845 105.248v168.258l-33.9 61.023c-29.302 9.884-45.044 41.65-35.16 70.952 7.68 22.769 29.031 38.099 53.06 38.097zm26.828-105.141 21.172-23.817 24.021 27.026c-8.982 6.269-15.94 15.022-20.021 25.187-4.854-12.092-13.75-22.127-25.172-28.396zm117.172 49.141c0 22.091-17.909 40-40 40s-40-17.909-40-40 17.909-40 40-40c22.081.025 39.975 17.919 40 40zm-112-282.33c.034-28.177 5.466-56.087 16-82.221 4.178 10.336 7.564 20.976 10.128 31.826 3.894 16.516 5.865 33.426 5.872 50.395v170.33c.001 1.359.347 2.696 1.006 3.885l29.416 52.951c-2.558.44-5.081 1.06-7.552 1.854l-54.87-61.732zm-6.485 184.076 11.785 13.254-26.691 30.021c-2.837-.545-5.713-.869-8.6-.97zm-25.515 58.254c22.091 0 40 17.909 40 40s-17.909 40-40 40-40-17.909-40-40c.025-22.081 17.919-39.975 40-40z"/><path d="m288.767 198.877c12.5-20.138 19.383-46.748 19.383-74.93s-6.884-54.792-19.383-74.93c-13.236-21.325-31.237-33.07-50.686-33.07s-37.45 11.745-50.687 33.07c-12.499 20.138-19.382 46.748-19.382 74.93s6.883 54.792 19.382 74.93c5.075 8.444 11.649 15.891 19.4 21.972l7.218 43.362-5.5 55.059c-1.633 16.331 10.282 30.895 26.613 32.528s30.895-10.282 32.528-26.613c.197-1.967.197-3.948 0-5.914l-5.5-55.06 7.219-43.363c7.749-6.082 14.322-13.528 19.395-21.971zm-40.512 132.557c-5.082 5.619-13.757 6.053-19.376.971-3.231-2.923-4.882-7.207-4.447-11.542l5.61-56.12c.071-.703.047-1.413-.069-2.11l-5.439-32.647c8.844 2.615 18.256 2.615 27.1 0l-5.439 32.647c-.117.697-.14 1.407-.07 2.11l5.611 56.121c.405 3.859-.862 7.707-3.481 10.57zm-10.174-115.487c-13.71 0-26.882-9.059-37.092-25.508-10.948-17.638-16.977-41.252-16.977-66.492s6.029-48.854 16.977-66.492c10.21-16.449 23.382-25.508 37.092-25.508s26.882 9.059 37.092 25.508c10.947 17.638 16.977 41.252 16.977 66.492s-6.03 48.854-16.977 66.492c-10.21 16.449-23.383 25.508-37.092 25.508z"/><path d="m214.081 127.947h16v16h-16z"/><path d="m214.081 159.947h16v16h-16z"/><path d="m214.081 63.947h16v16h-16z"/><path d="m214.081 95.947h16v16h-16z"/><path d="m246.081 63.947h16v16h-16z"/><path d="m246.081 95.947h16v16h-16z"/><path d="m246.081 159.947h16v16h-16z"/><path d="m246.081 127.947h16v16h-16z"/><path d="m432.012 284.834v-244.887c-.015-13.248-10.752-23.985-24-24h-64c-4.418 0-8 3.582-8 8s3.582 8 8 8h40v16h-40c-4.418 0-8 3.582-8 8s3.582 8 8 8h40v16h-40c-4.418 0-8 3.582-8 8s3.582 8 8 8h40v16h-40c-4.418 0-8 3.582-8 8s3.582 8 8 8h40v16h-40c-4.418 0-8 3.582-8 8s3.582 8 8 8h40v16h-40c-4.418 0-8 3.582-8 8s3.582 8 8 8h40v16h-40c-4.418 0-8 3.582-8 8s3.582 8 8 8h40v16h-40c-4.418 0-8 3.582-8 8s3.582 8 8 8h40v16c-53.052-.033-96.087 42.947-96.12 96-.033 53.052 42.947 96.087 96 96.12 53.052.033 96.087-42.947 96.12-96 .021-34.328-18.277-66.058-48-83.233zm-32-252.887h8c4.416.005 7.995 3.584 8 8v237.491c-5.203-1.845-10.556-3.233-16-4.15zm-16 416c-44.183 0-80-35.817-80-80s35.817-80 80-80 80 35.817 80 80c-.05 44.162-35.838 79.95-80 80z"/><path d="m406.981 376.974c-3.842-12.686-17.241-19.855-29.927-16.012-7.678 2.326-13.687 8.334-16.012 16.012-12.688 3.836-19.863 17.231-16.027 29.919 3.064 10.136 12.409 17.065 22.997 17.054h.383 31.617c13.255.006 24.005-10.735 24.01-23.99.004-10.578-6.917-19.912-17.041-22.979zm-6.969 30.973h-31.69-.16c-1.306.021-2.597-.276-3.762-.865-3.94-1.988-5.522-6.794-3.534-10.734 1.362-2.699 4.13-4.398 7.153-4.391 4.416-.004 7.993-3.584 7.993-8v-.069c.016-4.418 3.611-7.987 8.029-7.97 4.418.016 7.987 3.611 7.971 8.029 0 4.418 3.582 8 8 8s8 3.582 8 8-3.582 8-8 8z"/><path d="m384.012 351.947c11.046 0 20-8.954 20-20s-8.954-20-20-20-20 8.954-20 20c.013 11.04 8.96 19.987 20 20zm0-24c2.209 0 4 1.791 4 4s-1.791 4-4 4-4-1.791-4-4 1.791-4 4-4z"/><path d="m360.012 355.947c0-11.046-8.954-20-20-20s-20 8.954-20 20 8.954 20 20 20c11.04-.013 19.987-8.96 20-20zm-20 4c-2.209 0-4-1.791-4-4s1.791-4 4-4 4 1.791 4 4-1.791 4-4 4z"/><path d="m408.012 355.947c0 11.046 8.954 20 20 20s20-8.954 20-20-8.954-20-20-20c-11.04.013-19.987 8.96-20 20zm24 0c0 2.209-1.791 4-4 4s-4-1.791-4-4 1.791-4 4-4 4 1.791 4 4z"/></svg>