<svg height="512pt" viewBox="-76 0 512 512" width="512pt" xmlns="http://www.w3.org/2000/svg"><path d="m8 512c4.425781 0 8-3.574219 8-8v-192c0-24.464844 8.65625-47.726562 23.992188-66.230469v98.238281c0 .175782.097656.335938.105468.511719.285156 43.832031 36.007813 79.417969 79.902344 79.417969s79.617188-35.578125 79.902344-79.417969c.007812-.175781.105468-.335937.105468-.511719v-98.238281c15.335938 18.503907 23.992188 41.765625 23.992188 66.230469v192c0 4.425781 3.574219 8 8 8s8-3.574219 8-8v-192c0-34.222656-14.59375-66.464844-39.992188-89.222656v-94.777344c0-13.230469-10.777343-24.007812-24.007812-24.007812-.015625 0-.023438.007812-.039062.007812h-111.96875c-13.230469 0-24 10.769531-24 24v94.769531c-25.390626 22.773438-39.992188 55.015625-39.992188 89.230469v192c0 4.425781 3.574219 8 8 8zm112-104.0625c-28.296875 0-52.320312-18.503906-60.710938-44.027344 14.671876 17.160156 36.421876 28.089844 60.710938 28.089844s46.039062-10.929688 60.710938-28.089844c-8.390626 25.53125-32.414063 44.027344-60.710938 44.027344zm-64.007812-279.9375c0-4.414062 3.582031-8 8-8h112.007812.015625c4.410156.007812 7.992187 3.59375 7.992187 8v95.902344c0 .019531-.007812.027344-.007812.042968 0 8.824219-7.175781 16-16 16s-16-7.175781-16-16v-24.023437c0-4.425781-3.574219-8-8-8s-8 3.574219-8 8c0 8.820313-7.175781 16-16 16s-16-7.179687-16-16c0-4.425781-3.574219-8-8-8s-8 3.574219-8 8v64.0625c0 8.824219-7.175781 16-16 16s-16-7.175781-16-16c0-.015625-.007812-.023437-.007812-.039063zm0 163.527344c4.726562 2.761718 10.152343 4.457031 16.007812 4.457031 17.648438 0 32-14.351563 32-32v-36.511719c4.726562 2.757813 10.152344 4.457032 16 4.457032 5.992188 0 11.535156-1.761719 16.335938-4.632813 1.703124 16.0625 15.167968 28.65625 31.664062 28.65625 5.855469 0 11.28125-1.695313 16.007812-4.457031v60.183594c-.007812.144531-.078124.25-.078124.390624 0 35.25-28.683594 63.929688-63.929688 63.929688s-63.929688-28.679688-63.929688-63.929688c0-.140624-.070312-.246093-.078124-.390624zm0 0"/><path d="m320.03125 8v120.054688h-16v-120.054688c0-4.425781-3.574219-8-8-8-4.421875 0-8 3.574219-8 8v126.984375l-23.710938 86.984375c-.097656.335938-.023437.664062-.074218 1-.046875.375-.214844.710938-.214844 1.101562 0 26.472657 21.527344 48 48 48s48-21.527343 48-48c0-.390624-.167969-.726562-.214844-1.101562-.046875-.335938.023438-.664062-.074218-1l-23.710938-86.984375v-126.984375c0-4.425781-3.574219-8-8-8-4.421875 0-8 3.574219-8 8zm23.921875 216.871094c-.441406 17.265625-14.546875 31.191406-31.921875 31.191406s-31.488281-13.925781-31.917969-31.191406l22.03125-80.824219h19.785157zm0 0"/></svg>