<svg id="head-massage" enable-background="new 0 0 300 300" height="512" viewBox="0 0 300 300" width="512" xmlns="http://www.w3.org/2000/svg"><g><path d="m203.279 218.195-29.279-7.319v-8.097c3.654-1.212 7.209-2.767 10.604-4.68l.818-.463c12.693-7.148 20.578-20.648 20.578-35.23v-.44c4.737-.177 8.723-3.448 9.77-8.158l10.42-49.779c.086-.42.107-.85.059-1.273l-4.249-37.262v-31.494c0-2.209-1.791-4-4-4s-4 1.791-4 4v31.721c0 .152.008.303.025.453l4.201 36.848-10.277 49.1c-.203.912-.895 1.6-1.885 1.803-.064-.712-.064-1.704-.064-2.325v-34.455-8.562c0-4.078-2.002-7.965-5.639-10.945-4.402-3.607-10.557-5.279-15.693-4.25l-13.633 2.727c-1.105.209-2.23-.123-3.023-.916-1.656-1.656-2.359-3.529-2.291-4.188l6.846-1.818c.182-.047.361-.109.535-.184 12.695-5.388 20.898-18.109 20.898-32.409v-22.6c0-2.209-1.791-4-4-4s-4 1.791-4 4v22.6c0 6.299-1.978 12.035-5.405 16.638-8.027-4.724-17.163-7.238-26.595-7.238h-30.433c-1.007-2.935-1.6-6.08-1.6-9.4v-22.6c0-2.209-1.791-4-4-4s-4 1.791-4 4v22.6c0 14.299 8.203 27.021 20.896 32.408.174.074.354.137.535.184l6.885 1.828c0 .725-.707 2.555-2.328 4.178-.793.793-1.93 1.133-3.023.916l-13.633-2.727c-5.143-1.029-11.291.643-15.695 4.25-3.635 2.98-5.637 6.867-5.637 10.945v43.018c0 .631 0 1.643-.068 2.357-.926-.178-1.668-.877-1.869-1.789l-10.291-49.146 4.203-36.848c.018-.15.025-.301.025-.453v-31.721c0-2.209-1.791-4-4-4s-4 1.791-4 4v31.494l-4.25 37.262c-.049.424-.027.854.059 1.273l10.434 49.826c1.038 4.676 5.042 7.953 9.795 8.114.021 14.896 8.171 28.52 21.285 35.565l2.15 1.154c2.759 1.482 5.637 2.656 8.561 3.683v8.504l-29.279 7.319c-11.023 2.758-19.586 11.738-21.814 22.881l-4.828 24.139c-.236 1.176.068 2.395.828 3.32.758.929 1.893 1.466 3.092 1.466h144c1.199 0 2.334-.537 3.094-1.465.76-.926 1.064-2.145.828-3.32l-4.828-24.139c-2.229-11.142-10.791-20.123-21.815-22.881zm-90.603-114.371c2.543-2.086 6.266-3.152 9.053-2.594l13.633 2.727c3.715.75 7.561-.412 10.25-3.104 2.609-2.609 5.182-6.902 4.574-11.125-.363-2.525-1.832-4.609-4.137-5.867-.281-.152-.58-.271-.889-.354l-7.424-1.973c-3.937-1.719-7.229-4.332-9.801-7.535h26.065c7.245 0 14.28 1.749 20.593 5.044-1.365.942-2.797 1.807-4.364 2.491l-7.422 1.973c-.309.082-.607.201-.889.354-2.305 1.258-3.773 3.34-4.137 5.867-.609 4.223 1.963 8.516 4.572 11.123 2.691 2.693 6.523 3.857 10.252 3.105l13.633-2.727c2.789-.562 6.51.508 9.053 2.594 1.012.83 2.709 2.551 2.709 4.758v2.658c-3.651 1.777-7.74 2.76-12 2.76-8.359 0-15.994-3.57-20.422-9.551-.67-.906-1.691-1.488-2.812-1.602-1.137-.115-2.238.254-3.076 1.006-7.284 6.544-17.118 10.148-27.69 10.148-7.933 0-15.45-2.126-21.925-6.019.276-1.906 1.686-3.407 2.601-4.157zm14.398 86.664c-10.531-5.658-17.074-16.609-17.074-28.576v-44.768c0-.023-.012-.042-.013-.064 6.735 3.22 14.227 4.92 22.013 4.92 11.098 0 21.557-3.387 29.883-9.611 6.033 6.078 14.763 9.611 24.117 9.611 4.162 0 8.204-.768 12-2.116v31.716 10.807c0 11.697-6.324 22.527-16.506 28.262l-.818.463c-15.779 8.883-35.494 9.086-51.451.512zm27.401 15.44c3.862 0 7.723-.362 11.525-1.077v6.031c0 6.131-4.988 11.119-11.119 11.119h-1.762c-6.131 0-11.119-4.988-11.119-11.119v-6.316c4.113.841 8.286 1.362 12.475 1.362zm-67.596 56.072 3.871-19.354c1.627-8.129 7.871-14.68 15.912-16.689l29.049-7.262c2.997 6.647 9.655 11.305 17.408 11.305h1.762c7.753 0 14.411-4.657 17.408-11.304l29.049 7.261c8.041 2.01 14.285 8.561 15.912 16.689l3.871 19.354z"/><circle cx="250" cy="166" r="4"/><path d="m256 58c-7.719 0-14 6.281-14 14s6.281 14 14 14 14-6.281 14-14-6.281-14-14-14zm0 20c-3.309 0-6-2.691-6-6s2.691-6 6-6 6 2.691 6 6-2.691 6-6 6z"/><path d="m162.824 160.033c-1.715-1.395-4.23-1.131-5.627.58-.936 1.148-2.377 1.752-3.842 1.627-1.184-.105-2.254-.664-3.016-1.574-1.422-1.695-3.939-1.916-5.635-.498-1.693 1.418-1.916 3.939-.498 5.635 2.131 2.547 5.129 4.111 8.439 4.406.369.033.738.049 1.105.049 3.727 0 7.271-1.672 9.652-4.598 1.397-1.713 1.137-4.232-.578-5.627z"/><path d="m133.197 133.613c-.936 1.15-2.383 1.756-3.842 1.627-1.184-.105-2.254-.664-3.016-1.574-1.418-1.695-3.939-1.916-5.635-.498-1.693 1.418-1.916 3.939-.498 5.635 2.131 2.547 5.129 4.111 8.439 4.406.369.033.738.049 1.105.049 3.727 0 7.271-1.672 9.652-4.598 1.395-1.713 1.135-4.232-.58-5.627s-4.228-1.135-5.625.58z"/><path d="m176.646 143.209c.369.033.738.049 1.105.049 3.727 0 7.271-1.672 9.652-4.598 1.395-1.713 1.135-4.232-.58-5.627-1.711-1.395-4.23-1.135-5.627.58-.936 1.15-2.391 1.756-3.842 1.627-1.184-.105-2.254-.664-3.016-1.574-1.416-1.695-3.941-1.916-5.635-.498s-1.916 3.939-.498 5.635c2.133 2.547 5.131 4.111 8.441 4.406z"/><path d="m58 178c2.209 0 4-1.791 4-4v-8c0-2.209-1.791-4-4-4s-4 1.791-4 4v8c0 2.209 1.791 4 4 4z"/><path d="m58 186c-2.209 0-4 1.791-4 4v8c0 2.209 1.791 4 4 4s4-1.791 4-4v-8c0-2.209-1.791-4-4-4z"/><path d="m50 178h-8c-2.209 0-4 1.791-4 4s1.791 4 4 4h8c2.209 0 4-1.791 4-4s-1.791-4-4-4z"/><path d="m74 178h-8c-2.209 0-4 1.791-4 4s1.791 4 4 4h8c2.209 0 4-1.791 4-4s-1.791-4-4-4z"/><circle cx="34" cy="114" r="4"/></g></svg>