<svg id="Capa_1" enable-background="new 0 0 512 512" height="512" viewBox="0 0 512 512" width="512" xmlns="http://www.w3.org/2000/svg"><g><path d="m453.945 164.58c-1.298-59.442-60.623-81.554-110.056-101.761-21.493-8.889-35.382-29.619-35.382-52.819 0-2.63-1.07-5.21-2.931-7.07s-4.443-2.93-7.075-2.93h-85.251c-2.631 0-5.213 1.069-7.074 2.93-1.861 1.86-2.932 4.44-2.932 7.07 0 23.09-13.818 43.74-35.211 52.609-48.038 19.7-109.44 43.133-110.227 101.94-.46 5.39-4.563 54.64-6.294 122.04-.07 2.67.911 5.21 2.752 7.14 1.841 1.94 4.323 3.04 6.994 3.11 2.712.1 5.293-.94 7.244-2.83 1.881-1.83 2.952-4.28 3.022-6.91.931-36.49 2.592-67.569 3.812-87.21 2.092-21.899.786-33.25 4.859-50.848 13.519-38.272 58.47-51.606 95.512-67.961 12.548-5.2 23.524-13.65 31.759-24.42 8.155-10.69 13.388-23.36 15.14-36.66h66.54c1.751 13.35 7.004 26.069 15.199 36.8 8.265 10.82 19.291 19.29 31.889 24.5 45.336 19.069 98.781 36.409 98.029 88.14 1.121 13.88 6.724 87.58 6.724 175.561 0 53.859-2.061 103.319-6.134 147h-43.157c-3.165-7.091-5.719-13.455-7.736-19.295-12.286-35.671-16.099-70.77-10.736-98.829 2.163-11.317 7.317-31.053 15.322-58.663 11.301-39.074 24.125-80.374 24.253-80.787.543-1.749.592-3.628.148-5.405-1.34-5.357-6.771-8.611-12.132-7.269-3.594.897-6.244 3.638-7.195 6.962-1.028 3.315-13.369 43.155-24.297 80.939-8.175 28.199-13.476 48.545-15.755 60.471-6.008 31.431-1.934 70.174 11.473 109.099 1.396 4.042 3.01 8.28 4.869 12.777h-104.028v-20.726c33.897-4.869 60.036-34.073 60.036-69.274s-26.139-64.406-60.036-69.274v-101.727c0-5.51-4.493-10-10.006-10-5.514 0-10.006 4.49-10.006 10v101.726c-33.897 4.869-60.036 34.073-60.036 69.274s26.139 64.406 60.036 69.274v20.726h-104.028c1.859-4.499 3.474-8.739 4.872-12.785 13.404-38.917 17.477-77.66 11.47-109.091-2.279-11.924-7.579-32.27-15.753-60.464-10.775-37.254-22.92-76.499-24.249-80.784-.908-3.396-3.589-6.211-7.246-7.124-5.364-1.339-10.796 1.926-12.136 7.282-.444 1.777-.392 3.643.152 5.392.128.412 12.95 41.705 24.255 80.794 8.003 27.605 13.158 47.341 15.32 58.656 5.363 28.06 1.55 63.158-10.733 98.821-2.019 5.846-4.573 12.211-7.739 19.303h-43.158c-3.252-34.88-5.233-73.67-5.894-115.3-.04-2.65-1.101-5.12-2.982-6.98-1.921-1.89-4.483-2.91-7.174-2.86-5.513.08-9.936 4.641-9.846 10.15.72 45.83 3.032 88.22 6.864 126 .51 5.12 4.793 8.99 9.946 8.99h376.128c5.153 0 9.436-3.87 9.946-8.99 4.723-46.54 7.115-99.7 7.115-158.01 0-95.45-6.334-172.01-7.055-180.42zm-248.1 237.42c0-27.57 22.443-50 50.03-50s50.03 22.43 50.03 50-22.443 50-50.03 50-50.03-22.43-50.03-50z"/><path d="m286 402.002c0-16.542-13.458-30-30-30s-30 13.458-30 30 13.458 30 30 30 30-13.458 30-30zm-40 0c0-5.514 4.486-10 10-10s10 4.486 10 10-4.486 10-10 10-10-4.487-10-10z"/><path d="m201.42 281.261c.341-2.686-.421-5.394-2.112-7.507l-20-25c-3.45-4.313-9.743-5.011-14.056-1.562-4.312 3.45-5.012 9.743-1.562 14.056l13.555 16.943-11.746 8.81c-4.346 3.26-5.295 9.392-2.137 13.813l20 28c1.952 2.732 5.025 4.189 8.146 4.189 2.012 0 4.042-.605 5.804-1.863 4.494-3.211 5.535-9.456 2.325-13.95l-14.321-20.05 12.184-9.138c2.165-1.625 3.58-4.057 3.92-6.741z"/><path d="m314.688 331.139c1.762 1.258 3.792 1.863 5.804 1.863 3.12 0 6.194-1.456 8.146-4.189l20-28c3.158-4.421 2.208-10.553-2.137-13.813l-11.746-8.81 13.555-16.943c3.45-4.313 2.751-10.606-1.562-14.056-4.313-3.452-10.606-2.752-14.056 1.562l-20 25c-1.691 2.113-2.453 4.821-2.112 7.507.341 2.685 1.755 5.116 3.92 6.74l12.184 9.138-14.321 20.05c-3.211 4.495-2.17 10.74 2.325 13.951z"/><circle cx="61" cy="331.861" r="10"/></g></svg>