<svg id="Capa_1" enable-background="new 0 0 512 512" height="512" viewBox="0 0 512 512" width="512" xmlns="http://www.w3.org/2000/svg"><g><path d="m157.815 136.24h15.01v15.01h-15.01z"/><path d="m187.836 136.24h15.01v15.01h-15.01z"/><path d="m423.176 122.712 14.475-3.971c-1.388-5.061-3.045-10.109-4.925-15.004l-14.012 5.383c1.703 4.434 3.204 9.006 4.462 13.592z"/><path d="m246.876 31.263h15.01v15.01h-15.01z"/><path d="m230.005 272.491-13.969-5.493c-9.454 24.812-45.284 25.293-55.543.872l-13.789 5.933c15.397 36.639 69.132 35.886 83.301-1.312z"/><path d="m322.354 286.038c-12.013 0-22.844-7.131-27.592-18.168l-13.789 5.933c15.126 36.05 67.641 36.039 82.76.003l-13.787-5.934c-4.749 11.035-15.58 18.166-27.592 18.166z"/><path d="m370.548 240.114 10.286-10.931c-12.347-11.619-28.485-18.018-45.439-18.018h-56.704v15.01h56.704c13.116 0 25.601 4.95 35.153 13.939z"/><path d="m233.213 226.175v-15.01h-57.368c-16.954 0-33.091 6.399-45.439 18.018l10.286 10.931c9.553-8.989 22.037-13.939 35.152-13.939z"/><path d="m214.911 369.761-8.619 12.289c26.811 21.821 71.871 21.821 98.682 0l-8.619-12.289c-21.241 16.535-61.797 16.593-81.444 0z"/><path d="m395.31 375.093c7.395-17.769 12.409-36.823 15.188-58.173 20.294-12.605 32.789-35.091 32.789-59.035v-95.911c-.274-11.382-.891-21.401-2.164-27.481l-14.803 2.487c3.281 14.118 1.555 72.859 1.959 89.321h-15.644c-.222-101.763-67.289-173.618-173.023-164.481-17.998-10.116-18.187-35.755-.277-45.999h43.567c55.293 0 105.1 30.703 129.984 80.128l13.408-6.75c-26.358-53.409-83.696-88.938-143.393-88.386-58.26-.853-109.3-3.566-156.782 36.803l-20.573-37.616-23.22 42.456-42.455 23.22 43.931 24.918c-10.064 16.812-14.432 42.024-15.883 68.828v98.465c.001 23.944 12.555 46.43 32.85 59.035 5.242 53.709 35.735 109.47 79.674 142.767v52.311h15.01v-41.659c18.593 12.002 38.745 20.635 60.096 25.781 21.246-5.115 41.632-13.944 60.305-25.987v41.865h15.01v-52.528c9.175-7.15 17.8-15.112 25.739-23.798l19.103 34.927 23.22-42.456 42.455-23.22-42.455-23.22zm33.025-133.781c.612 21.535.758 38.77-15.276 54.996v-54.996zm-357.183-175.637 22.234-12.16 12.16-22.234 12.16 22.234 22.234 12.16-22.234 12.16-12.16 22.234-12.16-22.234zm11.778 95.582c0-18.437 3.358-36.211 9.971-53.027l12.646 23.122 23.22-42.456 42.455-23.22-33.369-18.25c22.873-18.207 50.627-29.055 79.771-31.202-9.929 14.163-8.825 35.144 2.585 48.146-80.016 13.203-121.876 84.257-122.356 161.932h-14.923zm0 96.628v-16.573h14.867v55.05c-10.043-10.1-14.867-23.946-14.867-38.477zm172.619 222.754c-122.459-33.159-149.714-141.066-142.722-251.605l21.257-21.257c34.139-33.621 62.427-5.725 100.996-39.753l-9.888-11.294c-40.07 33.364-62.477-3.728-111.1 49.81 3.56-31.593 14.113-59.921 30.265-81.252 48.206-68.772 188.369-64.596 229.249 10.033 9.118 14.737 14.852 30.012 18.462 45.753-30.106-41.909-76.814-69.718-129.014-75.592v-14.774h-15.01c.642 20.741-.213 38.879-13.49 55.963l11.975 9.051c7.945-10.512 13.125-22.515 15.32-35.273 59.501 6.84 111.222 44.837 135.475 99.908-.407 41.89 3.694 98.24-11.493 137.405l-10.125-18.513-23.22 42.456-42.455 23.22 36.228 19.814c-24.636 27.268-56.483 46.942-90.71 55.9zm132.317-63.553-12.16 22.234-12.16-22.234-22.234-12.16 22.234-12.16 12.16-22.234 12.16 22.234 22.234 12.16z"/><path d="m465.778 330.874h-15.01v15.011h-15.011v15.01h15.011v15.011h15.01v-15.011h15.011v-15.01h-15.011z"/><path d="m30.476 106.429h-15.01v15.01h-15.01v15.011h15.01v15.01h15.01v-15.01h15.011v-15.011h-15.011z"/><path d="m496.534 300.854h15.01v15.01h-15.01z"/><path d="m496.534 390.884h15.01v15.01h-15.01z"/></g></svg>