<?xml version="1.0" encoding="UTF-8"?>
<!-- Generator: Adobe Illustrator 25.2.3, SVG Export Plug-In . SVG Version: 6.00 Build 0)  -->
<svg xmlns="http://www.w3.org/2000/svg" xmlns:xlink="http://www.w3.org/1999/xlink" version="1.1" id="Capa_1" x="0px" y="0px" viewBox="0 0 512 512" style="enable-background:new 0 0 512 512;" xml:space="preserve" width="512" height="512">
<g>
	<g>
		<path d="M470.71,231.226H351.678l25.947-7.566c13.926-4.063,26.877-10.531,38.493-19.226    c20.748-15.533,36.184-37.786,43.462-62.661l0.283-0.968l48.698-35.003l-9.639-13.411l-53.312,38.319l-1.88,6.424    c-6.282,21.468-19.604,40.673-37.509,54.079c-10.025,7.503-21.202,13.086-33.221,16.593l-48.038,14.013l-21.387,5.411    c0.274-3.615-0.264-7.287-1.627-10.732c-4.416-11.165-16.546-17.449-28.214-14.624l-14.575,3.531    c1.511-5.739,4.905-10.93,9.782-14.58c2.723-2.04,5.77-3.52,9.057-4.403l74.351-19.947c4.378-1.175,8.438-3.146,12.069-5.864    c7.586-5.679,12.506-13.973,13.855-23.354l0.058-0.401l-16.349-2.346l-0.058,0.398c-0.721,5.013-3.35,9.445-7.403,12.48    c-1.942,1.452-4.11,2.507-6.452,3.135l-74.353,19.947c-5.325,1.43-10.263,3.829-14.676,7.132    c-10.217,7.648-16.428,19.464-17.189,31.994l-12.602,3.053c-3.187,0.773-6.134,2.162-8.759,4.126l-1.492,1.116    c-6.56,4.913-10.034,12.678-9.602,20.578l-58.291,96.121c-4.67,7.702-10.694,14.344-17.906,19.742    c-3.962,2.966-8.517,4.771-13.229,5.371l7.424-8.282c7.649-8.535,10.811-19.886,8.671-31.145    c-1.563-8.221-5.77-15.452-11.916-20.754l54.578-85.877c13.82-21.747,31.288-40.605,51.916-56.049    c17.373-13.005,36.567-23.235,57.05-30.404l124.509-43.587l88.355-68.834L490.406,1.743l-86.217,67.168l-121.952,42.691    c-22.078,7.727-42.766,18.753-61.49,32.771c-22.236,16.646-41.062,36.971-55.959,60.411l-16.802,26.441H41.29    c-22.767,0-41.29,18.523-41.29,41.29V470.71C0,493.477,18.523,512,41.29,512H470.71c22.767,0,41.29-18.523,41.29-41.29V272.516    C512,249.749,493.477,231.226,470.71,231.226z M228.898,231.114l1.491-1.116c0.826-0.618,1.752-1.054,2.753-1.297l44.481-10.777    c0.598-0.146,1.199-0.215,1.793-0.215c3.094,0,5.996,1.885,7.172,4.861c0.826,2.087,0.716,4.338-0.306,6.337    c-1.023,1.998-2.785,3.401-4.962,3.951l-46.034,11.647c-3.812,0.968-7.79-1.205-9.035-4.949    C225.224,236.462,226.287,233.068,228.898,231.114z M290.778,291.466c3.284,4.386,4.656,9.608,4.298,14.687l-24.51-13.708    c-14.23-7.958-31.852-6.786-44.9,2.983l-6.554,4.906l-21.021-11.368l20.121-33.179c4.265,3.468,9.658,5.462,15.272,5.462    c1.66,0,3.339-0.186,5.013-0.546l38.654,19.369C282.489,282.747,287.202,286.687,290.778,291.466z M287.798,321.007    c-0.462,0.412-0.933,0.818-1.438,1.194c-6.832,5.116-16.099,5.796-23.605,1.736l-27.643-14.95l0.451-0.338    c7.829-5.862,18.404-6.564,26.941-1.789L287.798,321.007z M143.099,367.554c8.913-6.673,16.358-14.881,22.131-24.399    l24.287-40.049l65.381,35.36c5.713,3.09,12.004,4.612,18.278,4.612c8.17,0,16.31-2.585,23.081-7.654    c16.982-12.713,20.455-36.874,7.742-53.856c-0.202-0.27-0.424-0.527-0.632-0.795h159.084v115.613H49.548V280.774h66.949    l-10.328,16.251l-34.547,42.44c-7.188,8.832-7.442,21.365-0.618,30.478c4.465,5.964,11.293,9.573,18.737,9.902    c0.37,0.017,0.739,0.024,1.108,0.024c5.325,0,10.435-1.7,14.654-4.809c3.631,0.929,7.321,1.399,10.995,1.399    C125.937,376.46,135.251,373.43,143.099,367.554z M115.098,340.397L96.98,360.61c-1.656,1.849-4.018,2.848-6.51,2.737    c-2.479-0.109-4.755-1.312-6.243-3.3c-2.273-3.036-2.188-7.212,0.205-10.155l29.999-36.854c2.76,2.777,4.653,6.337,5.41,10.32    C121.011,329.518,119.283,335.729,115.098,340.397z M470.71,495.484H41.29c-13.66,0-24.774-11.114-24.774-24.774v-33.055    c6.906,5.196,15.486,8.281,24.774,8.281H470.71c9.288,0,17.868-3.084,24.774-8.281v33.055    C495.484,484.37,484.37,495.484,470.71,495.484z M470.71,429.419H41.29c-13.66,0-24.774-11.114-24.774-24.774V272.516    c0-13.66,11.114-24.774,24.774-24.774h96.199l-10.496,16.516H49.548c-9.107,0-16.516,7.41-16.516,16.516v115.613    c0,9.107,7.41,16.516,16.516,16.516h412.903c9.107,0,16.516-7.41,16.516-16.516V280.774c0-9.107-7.41-16.516-16.516-16.516    H282.458l-19.426-9.734l26.804-6.782H470.71c13.66,0,24.774,11.114,24.774,24.774v132.129    C495.484,418.305,484.37,429.419,470.71,429.419z"/>
		<path d="M33.032,173.419c0,22.767,18.523,41.29,41.29,41.29s41.29-18.523,41.29-41.29s-18.523-41.29-41.29-41.29    S33.032,150.652,33.032,173.419z M99.097,173.419c0,13.66-11.114,24.774-24.774,24.774s-24.774-11.114-24.774-24.774    c0-13.66,11.114-24.774,24.774-24.774S99.097,159.759,99.097,173.419z"/>
		<path d="M173.419,123.871c13.66,0,24.774-11.114,24.774-24.774s-11.114-24.774-24.774-24.774    c-13.66,0-24.774,11.114-24.774,24.774S159.759,123.871,173.419,123.871z M173.419,90.839c4.553,0,8.258,3.705,8.258,8.258    s-3.705,8.258-8.258,8.258c-4.553,0-8.258-3.705-8.258-8.258S168.866,90.839,173.419,90.839z"/>
		<path d="M41.29,82.581c22.767,0,41.29-18.523,41.29-41.29S64.058,0,41.29,0S0,18.523,0,41.29S18.523,82.581,41.29,82.581z     M41.29,16.516c13.66,0,24.774,11.114,24.774,24.774S54.95,66.065,41.29,66.065S16.516,54.95,16.516,41.29    S27.63,16.516,41.29,16.516z"/>
		<path d="M256,74.323c13.66,0,24.774-11.114,24.774-24.774S269.66,24.774,256,24.774c-13.66,0-24.774,11.114-24.774,24.774    S242.34,74.323,256,74.323z M256,41.29c4.553,0,8.258,3.705,8.258,8.258s-3.705,8.258-8.258,8.258    c-4.553,0-8.258-3.705-8.258-8.258S251.447,41.29,256,41.29z"/>
	</g>
</g>















</svg>
