<svg id="Line" enable-background="new 0 0 128 128" height="512" viewBox="0 0 128 128" width="512" xmlns="http://www.w3.org/2000/svg"><path d="m121.906 119.553-12-24c-2.147-4.295-3.895-12.169-3.895-17.553 0-28.819-9.611-36.981-12.022-38.575-.03-1.561-.187-3.072-.454-4.51-.001-.011.003-.021.002-.032-.603-4.273-.645-10.29-.529-11.807.057-.748.373-1.933.738-3.304 1.243-4.669 3.121-11.724-1.021-16.433-1.181-1.341-3.998-2.534-7.092-2.227-2.69.27-4.998 1.632-6.607 3.865-1.082-.642-2.43-.977-4.052-.977-2.581 0-4.632 1.166-5.989 3.384-.586-.25-1.243-.384-1.969-.384-.005 0-.01 0-.015 0-3.322.008-5.774 1.914-7.029 5.384-.586-.25-1.244-.384-1.967-.384-3.165 0-6.992 1.63-7.815 9.112-.38-.077-.779-.124-1.209-.112-1.59.038-2.941.704-4.017 1.981-3.296 3.913-3.213 12.9-2.68 19.134-14.681 1.228-21.273 12.745-21.273 36.885 0 6.479-.974 11.712-2.895 15.553l-12 24c-.134.269-.141.583-.018.856.123.274.362.479.652.557l26 7c.087.023.174.034.26.034.431 0 .828-.28.958-.713l8.911-29.702c.295-.242.821-.691 1.486-1.317.858 6.979 2.636 19.606 4.737 24.152 1.795 3.885 5.445 6.505 10.275 7.378 1.124.203 2.267.302 3.405.302 4.602 0 9.121-1.607 11.931-4.389 6.038-5.974 4.403-16.349 2.823-26.382-.183-1.159-.365-2.32-.537-3.476-.368-2.476-.544-4.942-.57-7.382.587 1.139 1.269 2.205 2.052 3.161 3.353 4.1 5.318 8.145 5.588 8.714l7.978 28.919c.122.442.523.735.963.735.07 0 .14-.007.21-.022l28-6c.302-.064.558-.266.692-.544.134-.28.132-.605-.006-.881zm-36.074-116.45c2.312-.234 4.558.61 5.391 1.558 3.437 3.905 1.724 10.339.59 14.596-.391 1.467-.728 2.734-.799 3.667-.063.822-.084 2.79-.01 5.114-.388-.619-.797-1.204-1.25-1.707-2.562-2.847-6.001-4.551-10.225-5.112 1.579-3.371 3.876-10.159 1.495-14.234-.142-.244-.299-.472-.467-.686 1.602-2.329 3.718-3.04 5.275-3.196zm-10.858 2.897c2.125 0 3.54.652 4.324 1.994 1.814 3.105.001 9.405-1.903 13.039-.12-.005-.232-.02-.353-.023-2.087-.054-4.246.159-6.393.558 1.016-3.125 2.247-9.069.406-12.301-.138-.242-.296-.458-.462-.663.997-1.745 2.433-2.604 4.381-2.604zm-7.968 3h.01c1.081 0 1.812.399 2.3 1.256 1.675 2.942-.063 9.804-.952 11.803-2.073.518-4.1 1.203-6.014 1.998.647-2.863 1.318-7.668-.622-10.288-.023-.031-.05-.057-.073-.088.909-3.088 2.699-4.675 5.351-4.681zm-9.001 5c.959 0 1.631.305 2.116.96 1.413 1.907.979 6.386-.099 10.144-2.333 1.138-4.404 2.42-6.057 3.733.145-2.367-.111-4.84-1.435-6.375-.127-.147-.275-.26-.415-.385.618-8.056 4.571-8.077 5.89-8.077zm-11.511 10.27c.7-.831 1.529-1.247 2.535-1.271.867-.023 1.522.23 1.987.769 1 1.159 1.25 3.753.706 7.131-3.512 3.632-5.943 7.283-7.401 11.115-.012 0-.024 0-.036.001-.608-7.137-.31-14.755 2.209-17.745zm-5.097 70.941c-.164.128-.284.303-.344.502l-8.721 29.068-23.879-6.429 11.453-22.905c2.061-4.12 3.105-9.654 3.105-16.447 0-23.142 5.857-33.765 19.465-34.895.139 1.282.284 2.364.399 3.154-.858 4.596-.869 9.554-.865 15.442v1.3c0 .055.004.109.014.164.114.69.418 2.522 1.831 2.802 2.048.399 4.011-2.579 9.916-12.077.659-1.06 1.354-2.178 2.068-3.32 2.162-3.188 2.414-3.486 4.214-3.562 1.257-.052 2.168.206 2.779.792.783.75 1.179 2.166 1.179 4.209 0 5.554-5.702 12.275-5.768 12.352-5.123 6.147-6.179 13.202-6.212 13.444-1.901 9.504-10.547 16.339-10.634 16.406zm33.625-2.064c.173 1.161.356 2.328.54 3.493 1.571 9.975 3.055 19.396-2.254 24.648-3.064 3.031-8.519 4.454-13.574 3.541-4.17-.754-7.301-2.974-8.815-6.25-1.513-3.272-3.286-12.651-4.756-25.129 2.859-3.079 6.597-8.096 7.838-14.309.01-.067 1.015-6.785 5.769-12.49.255-.297 6.241-7.346 6.241-13.644 0-2.646-.587-4.496-1.795-5.653-1.011-.969-2.444-1.417-4.247-1.346-2.858.121-3.596 1.208-5.806 4.469-.735 1.174-1.432 2.295-2.091 3.356-3.353 5.394-6.528 10.501-7.77 11.115-.073-.143-.188-.442-.292-1.033v-1.216c-.005-5.808-.006-10.694.832-15.144.007-.025.011-.049.016-.074.271-1.422.624-2.802 1.096-4.15 1.418-4.053 3.885-7.747 7.763-11.623 2.751-2.75 8.859-6.196 15.52-7.802.034-.007.067-.014.1-.024 2.524-.601 5.123-.945 7.651-.873 4.816.127 8.611 1.696 11.279 4.661 2.339 2.598 3.735 7.193 3.74 12.294-.301 4.195-1.992 8.665-5.032 13.305-.809-1.257-1.901-3.278-3.191-5.667-1.859-3.442-4.173-7.726-6.946-12.155-2.19-3.229-2.927-4.317-5.786-4.438-1.807-.076-3.236.376-4.247 1.346-1.208 1.158-1.795 3.007-1.795 5.653 0 6.298 5.986 13.347 6.232 13.633 4.655 5.587 3.666 15.995 3.024 20.209-.435 2.857-.297 5.798.333 8.561-.355 4.155-.215 8.438.423 12.736zm18.702 31.677-7.749-28.09c-.014-.052-.032-.101-.054-.149-.085-.186-2.119-4.606-5.892-9.218-3.172-3.88-4.623-9.71-3.785-15.217.682-4.482 1.71-15.579-3.474-21.801-.058-.067-5.759-6.788-5.759-12.342 0-2.043.397-3.459 1.179-4.209.559-.536 1.368-.798 2.466-.798.102 0 .207.002.313.007 1.8.076 2.052.374 4.194 3.531 2.719 4.345 5.016 8.597 6.862 12.015 1.901 3.519 3.274 6.061 4.249 7.124.205.224.504.34.803.322.303-.02.58-.176.753-.425 3.309-4.731 5.315-9.345 5.981-13.741 2.974 2.635 10.2 11.569 10.2 36.167 0 5.74 1.803 13.843 4.105 18.447l11.423 22.846z"/></svg>