<?xml version="1.0"?>
<svg xmlns="http://www.w3.org/2000/svg" viewBox="0 0 512 512" width="512" height="512"><g id="outline"><path d="M486.4,269.791a61.364,61.364,0,0,0-89.434-17.52L372.8,270.4a88.575,88.575,0,0,1-50.427,17.568l-17.125-11.416,1.283-1.925A32.563,32.563,0,0,0,279.437,224H261.766l-6.177-18.53a8,8,0,0,0-10.56-4.9l-40,16c-.027.011-.051.025-.077.036l-22.045-20.276,11.865-5.684a20.259,20.259,0,0,0-11.828-38.295l-44.137,6.782-31.726-.528L29.292,90A8,8,0,0,0,16,95.951l-.5,81.111a8,8,0,0,0,2.348,5.71l37.816,37.759,11.7,21.147a7.968,7.968,0,0,0,1.584,2.013l43.071,39.614c-.007.137-.021.272-.021.411a76.276,76.276,0,0,0,4.8,26.693,31.964,31.964,0,0,0-3.561,48.057A39.976,39.976,0,0,0,144,424H256a39.978,39.978,0,0,0,25.736-70.589l4.584-.916L304,364.281V382a42.047,42.047,0,0,0,42,42H488a8,8,0,0,0,8-8V288a8,8,0,0,0-1.14-4.116Zm-405.667-37-11.621-21a8.018,8.018,0,0,0-1.347-1.787L31.521,173.814l.371-60.187,66.816,58.931a8.005,8.005,0,0,0,5.159,2l35.352.587a7.859,7.859,0,0,0,1.348-.092l44.806-6.885a4.25,4.25,0,0,1,3.531,1.075,4.26,4.26,0,0,1-1.044,6.977l-17.648,8.453-4.319-3.956a8,8,0,0,0-10.807,11.8L198.708,232.6a4,4,0,1,1-5.416,5.886l-47.106-43.323h0a8,8,0,0,0-10.832,11.777l50.051,46.033a4,4,0,0,1-5.414,5.887h0l-50.051-46.031a8,8,0,0,0-10.831,11.777l50.051,46.032.008.006h0a4,4,0,0,1-5.425,5.88l-11.7-10.764-.071-.067-38.274-35.2a8,8,0,0,0-10.831,11.777l38.307,35.232a4,4,0,0,1-5.449,5.857Zm113.69,76.945A8,8,0,0,0,200,312h14.91a25.785,25.785,0,0,0,43.949,16.455l8.283-8.283,9.019,18.038-13.328,2.665A161.323,161.323,0,0,1,231.272,344H188.284a60.354,60.354,0,0,1-58.479-45.543,20.005,20.005,0,0,0,25.919-7.99,20.071,20.071,0,0,0,19.815.932Zm-70.192,15.428a76.011,76.011,0,0,0,17.417,18.907,39.7,39.7,0,0,0-15.8,4.3,15.987,15.987,0,0,1-1.619-23.2ZM224,392h54.624A24.039,24.039,0,0,1,256,408H144a24.039,24.039,0,0,1-22.624-16H144a8,8,0,0,0,0-16H121.376A24.039,24.039,0,0,1,144,360H256a24.039,24.039,0,0,1,22.624,16H224a8,8,0,0,0,0,16Zm117.906,5.883a23.9,23.9,0,0,0,1.224,9.955A26.034,26.034,0,0,1,320,382V344a8,8,0,0,0-16,0v1.052l-9.794-6.53-15.051-30.1A8,8,0,0,0,272,304h-8a8,8,0,0,0-5.657,2.343l-10.8,10.8a9.761,9.761,0,0,1-16.161-9.993l.207-.622A8,8,0,0,0,224,296H203.245L185.7,278.964a20.047,20.047,0,0,0,.642-3.387,19.985,19.985,0,0,0,16.337-20.492c-.009-.222-.022-.442-.038-.663a19.94,19.94,0,0,0,12.487-24.658l27.965-11.185,5.317,15.951A8,8,0,0,0,256,240h7.7a19.154,19.154,0,0,1-5.358,10.343,8,8,0,0,0,11.314,11.314,35.047,35.047,0,0,0,10.185-21.636,16.551,16.551,0,0,1,13.376,25.73l-11.874,17.811a8,8,0,1,0,13.312,8.876l1.717-2.575,19.189,12.793A8,8,0,0,0,320,304a104.651,104.651,0,0,0,62.4-20.8l24.17-18.128q.705-.528,1.43-1.027v19.674l-7.125,4.75A37.821,37.821,0,0,0,384,320a31.8,31.8,0,0,0,4.721,16.708A8,8,0,0,0,384,344v4.721a24.011,24.011,0,0,0-29.369,10,24.007,24.007,0,0,0-12.725,39.163Zm53.231-9.3a8,8,0,0,0-2.908,8.948A7.99,7.99,0,0,1,384.7,408h-.148a7.986,7.986,0,0,1-4.628-1.529,8,8,0,0,0-9.41,0A7.966,7.966,0,0,1,365.9,408h-.163a7.992,7.992,0,0,1-7.522-10.469,8,8,0,0,0-2.907-8.948,7.994,7.994,0,0,1,4.7-14.465h0a8,8,0,0,0,7.61-5.53,7.994,7.994,0,0,1,15.209,0,8,8,0,0,0,7.61,5.53h0a7.994,7.994,0,0,1,4.7,14.465ZM432,408H407.256a23.9,23.9,0,0,0,1.278-10.117,23.929,23.929,0,0,0,4.729-23.185h0A23.93,23.93,0,0,0,400,360.1V352h32Zm-8-74.165V320a8,8,0,0,0-16,0v13.835A16,16,0,0,1,400,320a21.852,21.852,0,0,1,9.751-18.219L416,297.615l6.25,4.166A21.854,21.854,0,0,1,432,320,16,16,0,0,1,424,333.835ZM480,408H448V368h32Zm0-56H448v-8a8,8,0,0,0-4.721-7.292A31.8,31.8,0,0,0,448,320a37.821,37.821,0,0,0-16.875-31.531L424,283.719V257.09a45.077,45.077,0,0,1,9.787-1.09,45.591,45.591,0,0,1,38.9,22.023L480,290.216Z"/><circle cx="375.22" cy="387.058" r="8"/><path d="M192,376H176a8,8,0,0,0,0,16h16a8,8,0,0,0,0-16Z"/></g></svg>
