<svg id="Capa_1" enable-background="new 0 0 512.002 512.002" height="512" viewBox="0 0 512.002 512.002" width="512" xmlns="http://www.w3.org/2000/svg"><g><path d="m450.325 503.366-26.55-173.621c-2.44-15.944-10.521-30.504-22.748-40.994-12.23-10.506-27.841-16.291-43.956-16.291-.065 0-.129.008-.194.01h-66.497c-3.963 0-7.71-4.247-7.71-8.739v-10.011h47.979c4.143 0 7.5-3.357 7.5-7.5s-3.357-7.5-7.5-7.5h-29.506c16.563-12.379 27.895-31.385 30.041-53.052h11.776c10.798 0 19.583-8.785 19.583-19.583v-11.953c0-8.964-6.062-16.522-14.295-18.838 1.416-3.088 2.212-6.517 2.212-10.13v-37.629c0-10.485-2.777-20.328-7.614-28.855h69.995c8.172 0 14.82 6.648 14.82 14.82v150.4c0 8.172-6.648 14.819-14.82 14.819h-46.896c-4.143 0-7.5 3.357-7.5 7.5s3.357 7.5 7.5 7.5h46.896c16.443 0 29.82-13.377 29.82-29.819v-150.4c0-16.443-13.377-29.82-29.82-29.82h-82.127c-9.809-8.913-24.813-15.056-39.648-14.832v-7.026c-.001-12.033-9.789-21.822-21.821-21.822h-26.488c-12.032 0-21.82 9.789-21.82 21.821v7.026c-14.155-.337-29.478 5.647-39.649 14.832h-82.127c-16.443 0-29.82 13.377-29.82 29.82v150.4c0 16.442 13.377 29.819 29.82 29.819h130.17v10.011c0 4.492-3.747 8.739-7.71 8.739h-66.497c-.065-.002-.128-.01-.194-.01-16.115 0-31.726 5.785-43.953 16.288-12.23 10.493-20.311 25.053-22.751 40.998l-26.55 173.62c-.626 4.095 2.186 7.922 6.28 8.548.385.059.766.087 1.144.087 3.641 0 6.837-2.657 7.404-6.367l26.55-173.619c1.897-12.401 8.18-23.724 17.693-31.885 9.48-8.142 21.57-12.637 34.056-12.667.046.001.091.007.137.007h66.68c12.311 0 22.71-10.871 22.71-23.739v-10.911c3.805.592 7.701.904 11.67.904s7.865-.312 11.67-.904v10.911c0 12.868 10.399 23.739 22.71 23.739h66.68c.046 0 .091-.006.137-.007 12.486.03 24.576 4.525 34.059 12.67 9.511 8.158 15.793 19.48 17.69 31.881l26.55 173.62c.567 3.71 3.764 6.367 7.404 6.367.378 0 .76-.028 1.144-.087 4.096-.624 6.907-4.451 6.281-8.546zm-123.863-442.345c5.638 7.359 8.998 16.549 8.998 26.514v37.629c0 5.115-4.114 9.279-9.206 9.376l-56.485-36.443zm21.081 105.064c0 2.527-2.056 4.583-4.583 4.583h-11.401v-21.119h11.401c2.527 0 4.583 2.056 4.583 4.583zm-111.606-144.264c0-3.762 3.06-6.821 6.82-6.821h26.488c3.761 0 6.82 3.06 6.82 6.821v7.026h-40.129v-7.026zm55.836 22.027c8.542 0 16.513 2.474 23.252 6.729l-129.277 83.963c-5.092-.096-9.207-4.261-9.207-9.376v-37.629c0-24.09 19.598-43.688 43.688-43.688h71.544zm-111.33 126.82h-11.402c-2.526 0-4.582-2.056-4.582-4.583v-11.953c0-2.527 2.056-4.583 4.582-4.583h11.402zm-96.102 53.232v-150.4c0-8.172 6.648-14.82 14.82-14.82h69.994c-4.837 8.528-7.614 18.371-7.614 28.855v37.629c0 3.614.796 7.043 2.212 10.13-8.234 2.315-14.294 9.874-14.294 18.838v11.953c0 10.798 8.784 19.583 19.582 19.583h11.777c2.146 21.667 13.478 40.673 30.041 53.052h-111.698c-8.172 0-14.82-6.648-14.82-14.82zm111.102-45.734v-32.03l60.558-39.07 60.558 39.07v32.03c0 33.392-27.166 60.558-60.558 60.558s-60.558-27.166-60.558-60.558z"/><path d="m372.048 395.389c-.002-.01-.003-.019-.005-.029l-3.054-23.019c-.559-3.02-1.885-6.847-4.426-11.235v-30.376c0-4.143-3.357-7.5-7.5-7.5s-7.5 3.357-7.5 7.5v17.303c-4.231-1.9-8.886-2.954-13.723-2.954h-106.551c-4.143 0-7.5 3.357-7.5 7.5s3.357 7.5 7.5 7.5h106.552c8.7 0 16.361 6.106 18.322 14.562l3.041 22.916c1.002 4.066-1.186 10.197-7.973 10.666h-186.679c-2.522 0-4.875-1.129-6.453-3.097-1.019-1.199-2.135-4.186-1.511-7.584l3.148-23.019c2.027-8.52 9.51-14.444 18.295-14.444h18.241c4.143 0 7.5-3.357 7.5-7.5s-3.357-7.5-7.5-7.5h-18.241c-4.821 0-9.421.999-13.594 2.814v-17.163c0-4.143-3.357-7.5-7.5-7.5s-7.5 3.357-7.5 7.5v30.056c-1.354 2.177-3.531 6.581-4.517 11.371l-3.156 23.073c-.201.969-.333 1.941-.41 2.912l-22.654 104.773c-.875 4.049 1.697 8.04 5.746 8.916.534.115 1.067.171 1.592.171 3.455 0 6.563-2.402 7.324-5.917l18.701-86.489c.313.199.632.389.953.572l5.201 84.791c.244 3.979 3.547 7.041 7.479 7.041.154 0 .31-.005.466-.014 4.135-.254 7.28-3.812 7.027-7.945l-4.957-80.817h136.542l-26.323 78.903c-1.312 3.929.812 8.177 4.741 9.487.787.263 1.587.388 2.374.388 3.14 0 6.065-1.986 7.113-5.129l27.907-83.649h27.181l-4.957 80.817c-.253 4.134 2.893 7.691 7.027 7.945.156.009.312.014.466.014 3.933 0 7.235-3.062 7.479-7.041l5.208-84.924c.31-.182.616-.37.917-.567l18.732 86.617c.76 3.515 3.867 5.917 7.323 5.917.524 0 1.059-.056 1.592-.172 4.049-.875 6.621-4.867 5.745-8.915z"/><path d="m256.002 172.911c4.143 0 7.5-3.357 7.5-7.5v-10.878c0-4.143-3.357-7.5-7.5-7.5s-7.5 3.357-7.5 7.5v10.878c0 4.143 3.357 7.5 7.5 7.5z"/><path d="m259.419 187.456c-.677.564-1.819 1.236-3.417 1.236-1.603 0-2.739-.669-3.411-1.229-3.178-2.655-7.908-2.232-10.563.948-2.655 3.179-2.231 7.908.948 10.563 3.642 3.042 8.269 4.718 13.026 4.718 4.748 0 9.371-1.673 13.019-4.711 3.183-2.651 3.613-7.381.962-10.563-2.653-3.183-7.381-3.613-10.564-.962z"/></g></svg>