<svg clip-rule="evenodd" fill-rule="evenodd" height="512" stroke-linejoin="round" stroke-miterlimit="2" viewBox="0 0 267 267" width="512" xmlns="http://www.w3.org/2000/svg"><g id="Exp-1.-O"><g><path d="m182.954 130.659s-.478 16.929-3.112 34.046c-1.686 10.958-4.174 22.031-8.178 28.387-11.929 18.938-23.544 28.285-44.045 29.102-20.58-.807-31.972-10.324-44.148-29.144-4.099-6.337-6.567-17.005-8.192-27.483-2.542-16.384-2.835-32.405-2.835-32.405-.042-2.299-1.943-4.132-4.242-4.09s-4.132 1.943-4.09 4.242c0 0 .417 22.601 4.463 42.032 1.819 8.74 4.413 16.842 7.899 22.23 13.974 21.601 27.323 32.075 50.952 32.953.103.004.207.004.31 0 23.647-.879 37.257-11.211 50.979-32.995 3.385-5.374 5.961-13.692 7.801-22.739 4.092-20.124 4.768-43.901 4.768-43.901.065-2.299-1.749-4.218-4.047-4.283-2.299-.065-4.218 1.749-4.283 4.048z"/><circle cx="99.996" cy="187.918" r="4.091"/><circle cx="161.562" cy="164.871" r="4.142"/><circle cx="87.542" cy="181.04" r="2.788"/><circle cx="93.118" cy="163.985" r="2.788"/><circle cx="148.422" cy="192.009" r="2.823"/><circle cx="164.385" cy="189.186" r="2.823"/><circle cx="110.262" cy="166.772" r="2.788"/><circle cx="142.777" cy="172.353" r="2.823"/><path d="m193.893 150.133c-1.188 5.292-2.01 9.596-3.164 12.868-.708 2.004-1.418 3.553-2.81 4.399-.882.536-1.997.746-3.403.78-2.299.056-4.12 1.968-4.064 4.267s1.968 4.12 4.267 4.064c6.646-.162 10.212-2.874 12.699-7.922 1.875-3.808 2.98-9.402 4.631-16.742.557-2.476.638-4.315.42-5.585-.323-1.89-1.211-3.134-2.374-3.973-1.087-.785-2.581-1.29-4.617-1.099-2.075.194-5.354 1.363-9.955 3.332-2.114.904-3.096 3.355-2.191 5.469.904 2.115 3.355 3.097 5.469 2.192 2.001-.856 3.689-1.557 5.092-2.05z"/><path d="m61.269 150.133c1.403.493 3.091 1.194 5.092 2.05 2.114.905 4.565-.077 5.469-2.192.905-2.114-.077-4.565-2.191-5.469-4.601-1.969-7.88-3.138-9.955-3.332-2.036-.191-3.53.314-4.617 1.099-1.163.839-2.051 2.083-2.374 3.973-.218 1.27-.137 3.109.42 5.585 1.651 7.34 2.756 12.934 4.631 16.742 2.487 5.048 6.053 7.76 12.699 7.922 2.299.056 4.211-1.765 4.267-4.064s-1.765-4.211-4.064-4.267c-1.406-.034-2.521-.244-3.403-.78-1.392-.846-2.102-2.395-2.81-4.399-1.154-3.272-1.976-7.576-3.164-12.868z"/><path d="m97.068 58.265c-36.864 11.166-42.993 42.631-40.682 65.659.627 6.245 1.881 11.853 3.288 16.232.497 1.544 1.843 2.659 3.453 2.86 1.609.2 3.188-.552 4.047-1.927 3.845-6.152 10.545-10.357 18.382-13.749 12.904-5.585 28.851-8.841 42.15-13.112 7.943-2.551 14.984-5.487 20.127-9.307 5.902-4.384 9.476-9.915 9.761-17.152.091-2.297-1.701-4.237-3.999-4.327-2.298-.091-4.237 1.701-4.328 3.999-.181 4.601-2.65 8.003-6.403 10.79-4.512 3.351-10.737 5.824-17.706 8.063-13.544 4.35-29.771 7.71-42.912 13.398-6.41 2.774-12.101 6.117-16.562 10.286-.418-2.158-.764-4.469-1.006-6.886-2.061-20.54 3.423-48.996 38.092-57.763 0 0 4.118-1.267 2.99-5.163h.001c-1.26-4.495 1.16-8.074 4.844-10.658 4.55-3.191 10.994-4.966 16.976-5.04 5.982.074 12.426 1.849 16.976 5.04 3.684 2.584 6.104 6.163 4.844 10.658-.306 1.095-.152 2.267.427 3.246.579.978 1.532 1.678 2.64 1.936 0 0 6.146 1.295 9.058 4.367 1.583 1.668 4.222 1.739 5.891.156 1.669-1.582 1.739-4.221.157-5.89-2.489-2.625-6.528-4.473-9.486-5.564.241-4.981-1.813-9.334-5.346-12.887-5.75-5.784-15.831-9.294-25.116-9.395-.03 0-.06 0-.09 0-9.285.101-19.366 3.611-25.116 9.395-3.497 3.517-5.545 7.818-5.352 12.735z"/><path d="m94.042 148.796c4.607-3.032 12.043-3.322 16.952-.022 1.908 1.283 4.5.775 5.782-1.134 1.283-1.909.775-4.5-1.134-5.783-7.582-5.096-19.065-4.705-26.181-.022-1.921 1.264-2.455 3.85-1.191 5.771 1.265 1.921 3.851 2.454 5.772 1.19z"/><path d="m144.134 148.796c4.608-3.032 12.043-3.322 16.953-.022 1.908 1.283 4.499.775 5.782-1.134s.775-4.5-1.134-5.783c-7.582-5.096-19.065-4.705-26.182-.022-1.921 1.264-2.454 3.85-1.19 5.771s3.85 2.454 5.771 1.19z"/><path d="m112.889 204.612c10.194 4.817 20.539 4.718 29.552-.091 2.029-1.083 2.797-3.609 1.715-5.638-1.083-2.029-3.609-2.797-5.638-1.714-6.731 3.591-14.456 3.506-22.068-.091-2.079-.983-4.565-.093-5.548 1.987-.982 2.079-.092 4.565 1.987 5.547z"/><path d="m181.68 134.943s11.483.362 22.681-14.139c8.579-11.11 9.735-26.739 9.735-51.308 0-2.201-1.712-4.023-3.909-4.159-17.267-1.071-25.384-9.958-25.384-9.958-.791-.897-1.929-1.41-3.124-1.41-1.196 0-2.334.514-3.125 1.41 0 0-8.115 8.887-25.381 9.958-2.197.136-3.909 1.958-3.909 4.159 0 24.569 1.155 40.199 9.735 51.308 11.199 14.501 22.68 14.139 22.68 14.139zm0-8.333h-.006c-.017-.001-7.95-.373-16.08-10.9-7.255-9.393-7.937-22.506-7.992-42.424 12.184-1.545 20.081-6.389 24.078-9.544 3.995 3.155 11.894 7.999 24.078 9.544-.055 19.919-.738 33.031-7.993 42.424-8.141 10.542-16.085 10.9-16.085 10.9z"/><path d="m167.009 97.372 8.445 8.919c.782.825 1.867 1.296 3.004 1.301 1.138.006 2.228-.453 3.018-1.271l14.746-15.265c1.598-1.653 1.552-4.293-.102-5.891s-4.294-1.552-5.891.101l-11.72 12.132s-5.449-5.755-5.449-5.755c-1.581-1.67-4.221-1.742-5.89-.161-1.67 1.581-1.742 4.221-.161 5.89z"/></g></g></svg>