<svg id="Layer_1" height="512" viewBox="0 0 512 512" width="512" xmlns="http://www.w3.org/2000/svg" data-name="Layer 1"><g fill="rgb(0,0,0)"><path d="m100.57 506c-20.32 0-37.3-4.76-49.13-8.07-5-1.38-9-2.58-12.06-2.92-26.47-3.09-32.89-27.26-33.14-28.28a8 8 0 0 1 6.19-9.89c34.21-7 99.23-59.69 106.32-69.71 8.19-11.57 22.84-44.05 23-44.38 27.85-60.75 55.75-92.28 74.25-113.12 5.72-6.44 10.65-12 14.1-16.86 10.5-14.69 51.21-128.44 76-201.31a8.07 8.07 0 1 1 15.28 5.2c-6.4 18.78-62.92 184.13-78.17 205.49-3.95 5.53-9.15 11.39-15.17 18.18-17.81 20.13-44.76 50.53-71.6 109.08-.6 1.34-15.41 34.2-24.5 47-9.21 13-67.28 59.84-106.44 73.42a22.15 22.15 0 0 0 15.74 9.17c4 .47 8.66 1.78 14.57 3.43 28.37 7.93 81.17 22.77 139.94-39.28l11.83-12.49c62.42-66 67.51-71.42 104.8-77.69 4.55-.77 9.31-1.41 14.17-2.07 34.67-4.64 70.51-9.45 88.7-65.42.13-.64 6.75-30.35-19.51-49-36.37-25.89-11.19-79.5-10.1-81.77l105.79-145.41a8.07 8.07 0 0 1 13 9.52l-105 144.05c.17 0-19.41 42.55 5.65 60.4 35.32 25.14 26.07 64.91 25.66 66.6-21.5 66.2-68 72.44-102 77-4.69.63-9.28 1.25-13.65 2-31.35 5.27-33.15 6.63-95.76 72.85l-11.83 12.51c-39.14 41.28-76.74 51.77-106.93 51.77z"/><path d="m94.7 231.82h-64.52a8.07 8.07 0 0 1 -8.07-8.07v-80.65a40.33 40.33 0 0 1 80.65 0v80.65a8.06 8.06 0 0 1 -8.06 8.07zm-56.46-16.13h48.39v-72.59a24.2 24.2 0 0 0 -48.39 0z"/><path d="m78.57 312.47h-32.26a8.07 8.07 0 0 1 -8.07-8.07v-80.65a8.06 8.06 0 0 1 8.07-8.06h32.26a8.06 8.06 0 0 1 8.06 8.06v80.65a8.06 8.06 0 0 1 -8.06 8.07zm-24.2-16.13h16.13v-64.52h-16.13z"/><path d="m78.57 377h-18.48c-12.09 0-21.85-10.86-21.85-24.2v-48.4a8.06 8.06 0 0 1 8.07-8.06h28a8.05 8.05 0 0 1 8 8.51c-.27 5-.41 10.2-.41 15.68 0 18 1.62 34.94 4.46 46.47a8.06 8.06 0 0 1 -7.83 10zm-24.2-64.52v40.32c0 4.75 3 8.06 5.72 8.06h8.63a255.27 255.27 0 0 1 -2.91-40.33c0-2.75 0-5.43.09-8.06z"/></g></svg>