<svg id="Capa_1" enable-background="new 0 0 512 512" height="512" viewBox="0 0 512 512" width="512" xmlns="http://www.w3.org/2000/svg"><g><path d="m441.328 89.324c11.88-11.882 11.881-31.108 0-42.994l-37.425-37.424c-5.742-5.742-13.377-8.906-21.498-8.906-19.575 0-34.189 18.292-29.534 37.555-106.951 70.631-105.645 69.369-111.013 74.81-12.137 12.257-18.451 26.051-20.102 41.135h-12.134c-1.826-25.61-13.703-49.101-36.381-60.176-11.266-5.393-18.41-7.873-18.41-20.634 0-4.848 3.283-10.9 8.003-14.734 11.754-9.615 33.087-4.431 39.892 18.492 4.739 15.967 27.822 15.053 31.214-1.306 7.54-36.345-22.214-75.141-67.815-75.141-12.301 0-24.616 4.009-34.904 10.137-3.559 2.12-4.725 6.723-2.605 10.281 2.12 3.559 6.723 4.727 10.282 2.605 40.972-24.409 88.277 10.864 80.354 49.072-.062.3-.178.857-1.111.857-.805 0-.938-.448-1.035-.774-9.984-33.636-43.928-42.063-63.749-25.852-8.216 6.675-13.525 17.022-13.525 26.361 0 20.525 12.119 27.072 26.835 34.116 21.124 10.711 26.62 32.665 27.883 46.693h-21.384c-3.687-15.528-18.559-20.78-25.411-23.197-23.971-8.469-38.844-33.518-38.844-55.9 0-9.296 3.122-22.362 10.598-33.235 2.347-3.413 1.482-8.082-1.931-10.43-3.413-2.344-8.083-1.48-10.429 1.932-8.847 12.867-13.239 28.382-13.239 41.735 0 30.118 19.748 59.764 48.853 70.046 5.952 2.1 11.473 4.457 14.29 9.052h-27.791c-37.22 0-67.5 30.28-67.5 67.5v8.766c0 4.142 3.357 7.5 7.5 7.5s7.5-3.358 7.5-7.5v-8.766c0-28.949 23.552-52.5 52.5-52.5h240c28.948 0 52.5 23.551 52.5 52.5v73.5c0 19.802-3.326 39.214-9.888 57.697-1.385 3.903.656 8.191 4.56 9.577 3.91 1.387 8.192-.661 9.577-4.559 7.134-20.099 10.751-41.199 10.751-62.715v-73.5c0-35.139-26.993-64.079-61.331-67.206 13.854-20.998 23.667-35.874 37.244-56.433 10.216 2.47 21.02-.403 28.653-8.037zm-49.673-8.37 8.359 8.359c-19.988 30.265-31.681 48.008-42.362 64.187h-120.785c1.753-12.395 7.291-22.146 15.67-30.601 4.068-4.124 4.239-3.906 108.381-72.683l9.55 9.55c2.93 2.929 7.677 2.929 10.606-.001 2.929-2.929 2.929-7.678-.001-10.606l-12.917-12.919c-6.375-15.61 13.416-28.454 25.14-16.728l37.425 37.424c11.708 11.715-1 31.561-16.729 25.141l-11.729-11.729c-2.93-2.929-7.678-2.929-10.607 0-2.929 2.928-2.929 7.677-.001 10.606z"/><path d="m397.6 409.149c5.76-7.442 10.973-15.3 15.542-23.496 2.017-3.618.719-8.186-2.899-10.203-3.617-2.017-8.186-.718-10.202 2.899-5.673 10.176-12.414 19.795-20.041 28.651h-36.324c-4.143 0-7.5 3.358-7.5 7.5s3.357 7.5 7.5 7.5h39.085c20.678 0 37.5 16.822 37.5 37.5s-16.822 37.5-37.5 37.5h-266.974l-.559-.015c-20.384-.284-36.967-17.1-36.967-37.485 0-20.678 16.822-37.5 37.5-37.5h34.556c4.143 0 7.5-3.358 7.5-7.5s-3.357-7.5-7.5-7.5h-30.809c-27.587-31.867-42.747-72.23-42.747-114.042v-33.192c0-4.142-3.357-7.5-7.5-7.5s-7.5 3.358-7.5 7.5v33.192c0 42.041 14.094 82.72 39.933 115.972-22.137 6.166-38.433 26.495-38.433 50.57 0 28.542 23.219 52.085 51.757 52.483l.122.004c.206.007.413.013.621.013h267c28.948 0 52.5-23.551 52.5-52.5.001-23.796-15.918-43.932-37.661-50.351z"/><path d="m202.158 302.23c2.722-3.122 2.396-7.859-.726-10.581-3.122-2.723-7.86-2.397-10.582.726-3.863 4.431-10.73 4.445-14.604 0-2.722-3.122-7.458-3.447-10.582-.727-3.123 2.722-3.448 7.459-.727 10.582 9.831 11.279 27.363 11.311 37.221 0z"/><path d="m347.055 302.23c2.722-3.122 2.397-7.859-.726-10.581-3.121-2.723-7.861-2.397-10.581.726-3.865 4.431-10.73 4.445-14.604 0-2.723-3.122-7.459-3.448-10.582-.726-3.122 2.722-3.447 7.459-.726 10.581 9.849 11.3 27.38 11.288 37.219 0z"/><path d="m290.75 300.112c-9.707-14.362-24.981-5.126-34.753-5.126-9.856 0-25.042-9.241-34.753 5.126-10.183 15.066 7.716 36.669 34.753 36.669 26.762 0 45.037-21.454 34.753-36.669zm-57.079 8.4c.657-.971 1.144-1.524 2.765-1.524 4.031 0 11.646 2.999 19.561 2.999 11.18 0 19.645-5.442 22.326-1.474 1.934 2.864-6.53 13.269-22.326 13.269-15.708-.001-24.284-10.361-22.326-13.27z"/></g></svg>