<svg id="a" height="512" viewBox="0 0 512 512" width="512" xmlns="http://www.w3.org/2000/svg" data-name="outline"><path d="m256.063 362.819c10.924 0 21.817-5.151 29.888-14.133 2.953-3.286 2.683-8.344-.604-11.297-3.286-2.953-8.345-2.683-11.297.604-5.041 5.609-11.596 8.827-17.986 8.827-6.624 0-13.35-3.412-18.455-9.36-2.877-3.352-7.928-3.738-11.281-.861s-3.738 7.928-.861 11.281c8.148 9.495 19.3 14.94 30.597 14.94z"/><path d="m306.847 399.042c-3.546-1.669-35.109-16.306-51.078-16.306s-47.532 14.637-51.078 16.306c-2.257 1.062-3.89 3.117-4.415 5.556-.524 2.439.119 4.983 1.74 6.88 3.055 3.575 30.52 34.927 53.753 34.927s50.698-31.352 53.753-34.927c1.621-1.896 2.264-4.44 1.74-6.88-.525-2.439-2.157-4.494-4.415-5.556zm-51.078 31.362c-9.432 0-23.725-11.104-34.126-21.361 12.076-5.037 27-10.307 34.126-10.307s22.05 5.27 34.125 10.307c-10.402 10.258-24.694 21.361-34.125 21.361z"/><path d="m291.857 246.852c1.583 1.721 3.738 2.597 5.899 2.597 1.923 0 3.851-.694 5.381-2.102.17-.151 1.654-1.44 4.411-3.09-.004.216-.023.43-.023.647 0 17.553 14.281 31.834 31.835 31.834s31.836-14.281 31.836-31.834c0-.217-.02-.431-.024-.647 2.729 1.633 4.211 2.912 4.405 3.085 3.253 2.951 8.284 2.728 11.263-.511 2.991-3.252 2.779-8.313-.473-11.304-.681-.626-17.017-15.332-47.007-15.332s-46.325 14.706-47.006 15.332c-3.252 2.991-3.487 8.073-.497 11.325zm61.529-9.285c1.181 2.252 1.81 4.754 1.81 7.337 0 8.731-7.104 15.834-15.836 15.834s-15.835-7.103-15.835-15.834c0-2.58.628-5.085 1.809-7.337 4.116-.835 8.791-1.372 14.026-1.372s9.911.537 14.026 1.372z"/><path d="m204.014 244.904c0-.218-.019-.434-.024-.651 2.741 1.639 4.209 2.914 4.364 3.052 1.537 1.413 3.478 2.111 5.413 2.111 2.16 0 4.313-.87 5.891-2.585 2.991-3.252 2.779-8.313-.474-11.304-.681-.626-17.017-15.332-47.006-15.332s-46.326 14.706-47.006 15.332c-3.252 2.991-3.464 8.052-.474 11.304 2.992 3.254 8.053 3.464 11.304.474.041-.038 1.52-1.326 4.363-3.011-.004.204-.022.406-.022.611 0 17.553 14.281 31.834 31.835 31.834s31.836-14.281 31.836-31.834zm-31.836 15.834c-8.731 0-15.835-7.103-15.835-15.834 0-2.572.623-5.064 1.795-7.31 4.131-.851 8.815-1.399 14.041-1.399s9.911.537 14.027 1.371c1.182 2.253 1.809 4.757 1.809 7.338 0 8.731-7.104 15.834-15.836 15.834z"/><path d="m379.921 374.45c-1.41 2.859-2.823 5.639-4.201 8.262-2.055 3.912-.55 8.748 3.361 10.803 1.188.624 2.459.919 3.714.919 2.877 0 5.658-1.557 7.089-4.281 1.442-2.744 2.918-5.647 4.388-8.627 1.954-3.963.325-8.759-3.637-10.713-3.961-1.954-8.759-.325-10.713 3.637z"/><path d="m324.818 446.718c-2.304 2.023-4.676 4.055-7.05 6.038-3.391 2.833-3.843 7.878-1.01 11.269 1.582 1.894 3.854 2.871 6.144 2.871 1.809 0 3.628-.61 5.125-1.861 2.474-2.067 4.946-4.184 7.348-6.293 3.32-2.916 3.648-7.97.733-11.29-2.916-3.321-7.971-3.648-11.29-.733z"/><path d="m367.615 412.18c-3.553-2.625-8.562-1.874-11.188 1.679-.902 1.221-1.817 2.431-2.745 3.632-.819 1.06-1.75 2.204-2.766 3.402-2.859 3.369-2.446 8.417.922 11.276 1.504 1.277 3.344 1.901 5.173 1.901 2.268 0 4.521-.959 6.103-2.823 1.175-1.384 2.261-2.721 3.229-3.975.998-1.292 1.98-2.592 2.95-3.904 2.626-3.553 1.875-8.562-1.679-11.188z"/><path d="m472.893 155.699c-6.284-28.028-20.236-54.412-41.469-78.419-26.881-30.394-62.222-52.495-105.042-65.688-37.26-11.481-67.102-11.813-70.382-11.813s-33.122.332-70.382 11.812c-42.82 13.194-78.162 35.295-105.042 65.688-21.486 24.294-35.513 51.015-41.69 79.419-5.137 23.624-4.887 48.544.744 74.071 9.594 43.496 32.638 78.28 43.489 92.867 4.056 52.458 14.424 88.698 31.789 112.079 32.812 44.181 92.11 76.247 140.999 76.247.158 0 .312-.015.467-.024.156.009.309.024.467.024 48.889 0 108.188-32.066 140.999-76.248 17.486-23.545 27.875-60.138 31.87-113.194 12.803-17.397 34.101-51.201 43.035-93.483 5.342-25.279 5.392-49.954.148-73.339zm-36.678 90.046c-1.141 7.684-2.767 14.851-4.609 21.359 0-.066 0-.13 0-.197 0-33.057-14.845-63.393-44.123-90.167-20.605-18.843-47.829-35.523-80.917-49.576-4.066-1.728-8.764.169-10.491 4.236-1.728 4.067.169 8.764 4.236 10.491 30.972 13.155 57.382 29.288 76.374 46.656 25.825 23.617 38.92 49.981 38.92 78.36 0 21.352-.572 46.424-3.277 71.058-.438-2.624-2.166-4.973-4.801-6.074-4.077-1.704-8.763.221-10.465 4.298-.583 1.397-1.162 2.773-1.733 4.129-1.718 4.071.189 8.763 4.26 10.481 1.016.429 2.07.631 3.107.631 3.12 0 6.085-1.837 7.374-4.892.579-1.371 1.163-2.764 1.754-4.177-3.896 32.274-11.642 63.36-26.831 83.812-14.442 19.446-35.384 37.209-58.971 50.02-10.229 5.555-20.667 10.021-30.939 13.294.623-.4 1.242-.79 1.867-1.199 3.694-2.423 4.725-7.382 2.302-11.077-2.424-3.695-7.384-4.725-11.077-2.302-1.224.803-2.444 1.587-3.66 2.351-3.74 2.352-4.867 7.29-2.515 11.031 1.173 1.866 2.991 3.073 4.982 3.53-10.465 2.713-20.651 4.14-30.143 4.14-.158 0-.312.015-.467.024-.156-.009-.309-.024-.467-.024-9.726 0-20.18-1.503-30.915-4.348 1.703-.563 3.233-1.686 4.262-3.323 2.351-3.741 1.224-8.679-2.517-11.03-1.215-.764-2.436-1.548-3.66-2.351-3.695-2.422-8.653-1.391-11.077 2.304-2.422 3.695-1.391 8.654 2.304 11.077.084.055.167.106.251.161-9.265-3.159-18.632-7.261-27.832-12.257-23.586-12.81-44.528-30.574-58.97-50.019-14.423-19.421-22.136-48.432-26.213-78.941 1.423 2.629 4.146 4.197 7.017 4.197 1.037 0 2.091-.203 3.107-.631 4.071-1.718 5.978-6.41 4.26-10.481-.572-1.355-1.15-2.732-1.733-4.129-1.703-4.076-6.389-6.003-10.465-4.298-1.552.648-2.79 1.731-3.637 3.046-2.428-23.652-2.948-47.553-2.948-68.03 0-22.341 8.132-43.533 24.171-62.987 13.196-16.006 31.722-30.914 55.064-44.31 40.356-23.16 81.416-33.754 81.823-33.858.123-.031.249-.066.37-.103.282-.086 28.668-8.62 73.256-12.224 34.982-2.831 66.111 9.498 66.413 9.62.618.25 1.248.407 1.879.497 30.618 36.182 42.769 77.276 36.1 122.203zm16.589-3.469c3.988-34.946-1.117-84.251-42.919-131.92-32.479-37.037-72.541-53.429-100.43-60.659-28.504-7.389-50.105-7.002-53.225-6.898-2.954-.097-22.566-.448-48.928 5.831-46.871 11.164-77.837 34.433-95.562 51.988-3.139 3.109-3.164 8.174-.055 11.313 3.11 3.14 8.175 3.163 11.313.055 56.288-55.748 132.125-53.223 132.874-53.189.231.01.474.009.705 0 .214-.01 21.417-.805 49.397 6.528 19.668 5.154 45.927 15.285 70.497 35.087-12.739-2.506-28.805-4.316-45.938-2.934-45.032 3.64-73.629 11.965-76.454 12.813-3.475.895-44.104 11.65-85.37 35.271-25.093 14.363-45.155 30.526-59.63 48.041-18.541 22.434-27.941 47.097-27.941 73.306 0 .19.002.373.002.563-1.391-4.851-2.669-10.071-3.717-15.619-7.973-42.238.679-81.435 25.715-116.502 2.567-3.596 1.733-8.592-1.862-11.159-3.597-2.568-8.593-1.734-11.159 1.862-31.231 43.744-34.17 87.591-29.938 119.318-1.88-5.804-3.556-11.829-4.928-18.047-11.394-51.655 1.158-98.571 37.308-139.444 63.044-71.282 159.371-72.102 163.441-72.102s100.397.819 163.439 72.1c47.518 53.727 46.834 110.245 33.365 154.397z"/><path d="m131.331 374.449c-1.956-3.963-6.753-5.59-10.714-3.636-3.962 1.955-5.59 6.751-3.636 10.714 1.473 2.985 2.949 5.888 4.388 8.626 1.431 2.724 4.211 4.281 7.089 4.281 1.254 0 2.526-.295 3.714-.919 3.911-2.055 5.417-6.891 3.361-10.803-1.375-2.619-2.79-5.399-4.202-8.263z"/><path d="m157.572 417.491c-.928-1.202-1.843-2.412-2.745-3.633-2.626-3.553-7.634-4.305-11.188-1.679-3.553 2.626-4.305 7.635-1.679 11.188.97 1.312 1.953 2.613 2.951 3.905.968 1.253 2.054 2.59 3.229 3.974 1.583 1.864 3.835 2.823 6.103 2.823 1.83 0 3.669-.624 5.173-1.901 3.368-2.859 3.781-7.908.922-11.276-1.017-1.198-1.947-2.342-2.766-3.401z"/><path d="m193.485 452.756c-2.374-1.983-4.746-4.015-7.05-6.038-3.319-2.914-8.374-2.587-11.29.733-2.915 3.32-2.587 8.375.733 11.29 2.402 2.109 4.874 4.226 7.348 6.293 1.497 1.251 3.316 1.861 5.125 1.861 2.289 0 4.562-.977 6.144-2.871 2.833-3.391 2.381-8.436-1.01-11.269z"/><path d="m496.242 482.221-31.402-31.402h21.631c4.418 0 8-3.582 8-8s-3.582-8-8-8h-40.945c-4.418 0-8 3.582-8 8v40.944c0 4.418 3.582 8 8 8s8-3.582 8-8v-21.631l31.402 31.402c1.562 1.562 3.609 2.343 5.657 2.343s4.095-.781 5.657-2.343c3.125-3.124 3.125-8.189 0-11.313z"/><path d="m65.645 434.818h-40.945c-4.418 0-8 3.582-8 8s3.582 8 8 8h21.631l-31.403 31.402c-3.125 3.124-3.125 8.189 0 11.313 1.562 1.562 3.609 2.343 5.657 2.343s4.095-.781 5.657-2.343l31.403-31.402v21.631c0 4.418 3.582 8 8 8s8-3.582 8-8v-40.944c0-4.418-3.582-8-8-8z"/></svg>