<?xml version="1.0" encoding="iso-8859-1"?>
<!-- Generator: Adobe Illustrator 19.0.0, SVG Export Plug-In . SVG Version: 6.00 Build 0)  -->
<svg version="1.1" id="Layer_1" xmlns="http://www.w3.org/2000/svg" xmlns:xlink="http://www.w3.org/1999/xlink" x="0px" y="0px"
	 viewBox="0 0 512 512" style="enable-background:new 0 0 512 512;" xml:space="preserve">
<g>
	<g>
		<path d="M186.828,318.703c-4.7,0-8.511,3.811-8.511,8.511v20.565c0,4.7,3.811,8.511,8.511,8.511s8.511-3.811,8.511-8.511v-20.565
			C195.339,322.513,191.528,318.703,186.828,318.703z"/>
	</g>
</g>
<g>
	<g>
		<path d="M325.172,318.701c-4.7,0-8.511,3.811-8.511,8.511v20.565c0,4.7,3.811,8.511,8.511,8.511s8.511-3.811,8.511-8.511v-20.565
			C333.683,322.512,329.872,318.701,325.172,318.701z"/>
	</g>
</g>
<g>
	<g>
		<path d="M301.78,408.468c-2.938-3.668-8.294-4.26-11.963-1.321c-19.91,15.951-47.723,15.952-67.634,0
			c-3.669-2.94-9.026-2.347-11.963,1.321c-2.939,3.669-2.348,9.025,1.321,11.963c12.566,10.068,28.355,15.614,44.458,15.614
			c16.103,0,31.892-5.546,44.46-15.614C304.127,417.492,304.718,412.136,301.78,408.468z"/>
	</g>
</g>
<g>
	<g>
		<path d="M360.975,184.261c0.664-2.604,1.009-5.293,1.009-8.05c0-17.983-14.631-32.614-32.614-32.614
			c-7.319,0-14.261,2.51-19.851,6.809c-4.75-25.224-26.933-44.37-53.516-44.37c-26.583,0-48.764,19.145-53.516,44.368
			c-5.591-4.296-12.536-6.806-19.858-6.806c-17.977,0-32.603,14.631-32.603,32.614c0,2.755,0.344,5.441,1.008,8.045
			c-1.781,2.71-1.93,6.32-0.081,9.235c1.622,2.554,4.377,3.951,7.195,3.951c1.559,0,3.138-0.428,4.552-1.325
			c27.944-17.733,60.208-27.107,93.303-27.107c33.096,0,65.36,9.373,93.303,27.107c3.968,2.518,9.227,1.342,11.746-2.626
			C362.9,190.576,362.752,186.971,360.975,184.261z M167.245,173.871c1.134-7.488,7.591-13.252,15.386-13.252
			c3.151,0,6.156,0.971,8.674,2.661C183.072,166.243,175.035,169.781,167.245,173.871z M256.003,151.988
			c-12.537,0-24.96,1.254-37.122,3.66c2.391-18.361,18.122-32.59,37.122-32.59c19.002,0,34.732,14.229,37.123,32.59
			C280.963,153.243,268.54,151.988,256.003,151.988z M320.703,163.281c2.517-1.691,5.52-2.661,8.668-2.661
			c7.801-0.001,14.263,5.764,15.397,13.253C336.975,169.783,328.938,166.245,320.703,163.281z"/>
	</g>
</g>
<g>
	<g>
		<path d="M439.828,399.57v-19.702c15.196-9.849,25.535-29.068,25.535-51.115c0-26.723-15.201-49.276-35.823-56.035
			c12.627-19.936,32.86-61.487,12.069-98.911c-5.808-10.454-13.99-20.974-24.316-31.27c-3.329-3.319-8.719-3.31-12.036,0.019
			c-3.318,3.328-3.31,8.718,0.019,12.036c9.2,9.173,16.418,18.418,21.454,27.482c20.555,36.998-12.087,82.975-17.891,90.653
			c-42.528,25.118-111.946,42.152-203.293-16.459c-3.957-2.537-9.22-1.39-11.76,2.567c-2.539,3.956-1.389,9.221,2.567,11.76
			c32.631,20.937,65.57,34.278,97.899,39.65c10.672,1.774,21.198,2.659,31.575,2.659c32.021,0,62.558-8.458,91.134-25.232
			c17.331,0.212,31.382,18.555,31.382,41.082c0,12.283-4.181,23.318-10.786,30.855c-1.555-1.678-3.771-2.735-6.238-2.735
			c-4.7,0-8.511,3.811-8.511,8.511v3.687c-1.989,0.51-4.044,0.783-6.147,0.783c-0.1,0-0.2-0.012-0.3-0.014
			c3.09-9.916,5.465-19.893,7.074-29.774c0.756-4.639-2.392-9.013-7.031-9.768c-4.641-0.75-9.013,2.392-9.768,7.031
			c-1.95,11.965-5.119,24.11-9.419,36.096c-0.001,0.003-0.003,0.007-0.005,0.011c-11.91,33.18-31.854,63.539-56.159,85.484
			c-26.126,23.589-55.535,36.057-85.044,36.057c-29.516,0-58.928-12.467-85.055-36.054c-24.306-21.942-44.251-52.303-56.16-85.487
			c-0.006-0.017-0.014-0.032-0.02-0.048c-4.293-11.974-7.459-24.106-9.406-36.058c-0.756-4.64-5.133-7.788-9.768-7.031
			c-4.639,0.756-7.787,5.129-7.031,9.768c1.609,9.881,3.984,19.858,7.074,29.774c-0.099,0.001-0.199,0.014-0.297,0.014
			c-2.104,0-4.158-0.273-6.147-0.783v-3.687c0-4.7-3.811-8.511-8.511-8.511c-2.468,0-4.684,1.056-6.238,2.735
			c-6.606-7.538-10.786-18.572-10.786-30.855c0-22.657,14.213-41.091,31.683-41.091c0.034,0,1.438,0.064,2.089,0.064
			c0.928,0,1.867-0.152,2.778-0.468c1.858-0.641,40.861-14.467,56.232-46.621c4.507,3.952,10.484,8.944,17.753,14.464
			c3.743,2.843,9.081,2.113,11.926-1.632c2.843-3.743,2.112-9.082-1.632-11.926c-16.089-12.218-25.598-21.82-25.688-21.912
			c-2.182-2.22-5.403-3.072-8.394-2.221c-2.994,0.85-5.285,3.266-5.975,6.302c-5.694,25.054-32.268,39.71-44.089,45.089
			c-9.592-13.889-33.329-53.854-15.064-86.729c24.398-43.918,98.822-90.94,170.725-90.94c42.842,0,91.226,17.299,129.427,46.272
			c3.744,2.839,9.083,2.107,11.924-1.638c2.84-3.745,2.107-9.083-1.638-11.924c-8.873-6.73-18.27-12.872-28.016-18.369
			c4.381-8.393,6.597-17.214,6.597-26.325c0-21.864-12.806-42.145-36.058-57.109C316.147,7.829,286.943,0,256.006,0
			c-17.752,0-34.805,2.532-50.689,7.526c-4.484,1.409-6.976,6.188-5.566,10.672c1.409,4.484,6.185,6.977,10.672,5.566
			c14.229-4.473,29.565-6.742,45.584-6.742c27.711,0,53.643,6.867,73.022,19.337c18.216,11.721,28.247,26.92,28.247,42.793
			c0,6.307-1.574,12.493-4.682,18.463c-31.368-15.044-65.295-23.502-96.589-23.502c-31.211,0-64.959,8.269-96.603,23.487
			c-3.104-5.966-4.675-12.146-4.675-18.448c0-16.994,11.846-33.532,32.502-45.374c4.077-2.338,5.488-7.538,3.15-11.617
			c-2.338-4.078-7.54-5.487-11.617-3.15c-26.092,14.959-41.057,36.88-41.057,60.141c0,9.112,2.215,17.933,6.598,26.327
			c-0.099,0.056-0.197,0.109-0.295,0.165c-33.146,18.78-59.976,43.625-73.608,68.164c-11.744,21.139-11.814,47.162-0.204,75.254
			c3.89,9.413,8.455,17.541,12.303,23.643c-20.642,6.743-35.861,29.308-35.861,56.047c0,22.047,10.34,41.266,25.535,51.115v19.702
			c-11.814,3.645-20.425,14.664-20.425,27.658c0,15.955,12.981,28.936,28.936,28.936s28.936-12.981,28.936-28.936
			c0-12.995-8.611-24.013-20.425-27.657v-13.173c2.015,0.304,4.064,0.479,6.147,0.479c2.061,0,4.116-0.155,6.155-0.464
			c13.057,32.952,33.48,62.969,58.047,85.147C188.849,498.016,222.205,512,256.004,512c33.793,0,67.145-13.985,96.452-40.445
			c24.565-22.18,44.988-52.194,58.045-85.142c2.04,0.309,4.095,0.464,6.156,0.464c2.083,0,4.132-0.175,6.147-0.479v13.173
			c-11.814,3.643-20.425,14.663-20.425,27.657c0,15.955,12.981,28.936,28.936,28.936s28.936-12.981,28.936-28.936
			C460.253,414.233,451.642,403.214,439.828,399.57z M92.597,427.227c0,6.569-5.345,11.914-11.914,11.914
			s-11.914-5.345-11.914-11.914s5.345-11.914,11.914-11.914S92.597,420.658,92.597,427.227z M431.317,439.142
			c-6.569,0-11.914-5.345-11.914-11.914s5.345-11.914,11.914-11.914s11.914,5.345,11.914,11.914S437.886,439.142,431.317,439.142z"
			/>
	</g>
</g>
<g>
</g>
<g>
</g>
<g>
</g>
<g>
</g>
<g>
</g>
<g>
</g>
<g>
</g>
<g>
</g>
<g>
</g>
<g>
</g>
<g>
</g>
<g>
</g>
<g>
</g>
<g>
</g>
<g>
</g>
</svg>
