<svg id="a" height="512" viewBox="0 0 512 512" width="512" xmlns="http://www.w3.org/2000/svg" data-name="filled outline"><g><path d="m390.227 82.58c-61.185-69.181-152.753-74.8-169.432-74.8s-108.247 5.619-169.432 74.8c-102.85 116.291 9.537 244.59 9.537 244.59h3.111c-4.078-18.475-6.88-38.867-6.88-60.043 0-23.569 8.518-45.864 25.316-66.264 13.575-16.485 32.551-31.792 56.4-45.495 37.837-21.738 76.187-32.521 81.947-34.072 5.761 1.551 44.11 12.334 81.947 34.072 23.85 13.703 42.825 29.01 56.4 45.495 16.799 20.399 25.316 42.694 25.316 66.264 0 21.176-2.802 41.569-6.88 60.043h3.111s112.387-128.299 9.537-244.59z" fill="#bec3d2"/><path d="m365.572 115.63c-59.201-68.735-145.008-64.826-145.008-64.826s-85.807-3.909-145.008 64.826c-80.674 93.667-18.489 195.576-18.489 195.576h3.849c-2.333-14.006-3.785-28.84-3.785-44.08 0-23.569 8.518-45.864 25.316-66.264 13.575-16.485 32.551-31.792 56.4-45.495 37.837-21.738 76.187-32.521 81.947-34.072 5.761 1.551 44.11 12.334 81.947 34.072 23.85 13.703 42.825 29.01 56.4 45.495 16.799 20.399 25.316 42.694 25.316 66.264 0 15.24-1.452 30.073-3.785 44.08h3.387s62.185-101.909-18.489-195.576z" fill="#dce1eb"/><path d="m156.934 106.781c-34.208-2.221-81.378 8.849-81.378 8.849-80.674 93.667-18.489 195.576-18.489 195.576h3.849c-2.333-14.006-3.785-28.84-3.785-44.08 0-23.569 8.518-45.864 25.316-66.264 13.575-16.485 32.551-31.792 56.4-45.495 37.837-21.738 76.187-32.521 81.947-34.072v-3.05s-35.488-9.621-63.861-11.463z" fill="#e9edf5"/><path d="m220.795 118.191s-166.664 42.388-166.664 148.935c0 60.258 22.196 115.33 35.821 142.044 23.347 45.777 85.94 95.05 132.38 95.05s105.959-49.272 129.306-95.05c13.625-26.714 35.821-81.786 35.821-142.044 0-106.547-166.664-148.935-166.664-148.935z" fill="#ffdccd"/><g fill="#ffcdbe"><path d="m220.732 362.819c-10.924 0-21.817-5.151-29.888-14.134-2.952-3.286-2.682-8.345.604-11.298s8.344-2.684 11.298.604c5.04 5.609 11.596 8.827 17.985 8.827 6.623 0 13.35-3.412 18.456-9.36 2.878-3.352 7.929-3.739 11.28-.86 3.354 2.877 3.738 7.928.86 11.28-8.149 9.495-19.301 14.94-30.597 14.94z"/><path d="m221.026 438.405c20.218 0 47.671-32.124 47.671-32.124s-33.029-15.544-47.671-15.544-47.671 15.544-47.671 15.544 27.454 32.124 47.671 32.124z"/><g><path d="m351.161 235.526c-.681-.626-17.017-15.332-47.006-15.332s-46.326 14.706-47.007 15.332c-3.252 2.99-3.487 8.073-.497 11.325 1.583 1.721 3.738 2.597 5.898 2.597 1.923 0 3.851-.693 5.382-2.102.299-.267 4.634-4.035 12.862-7.119-.302 1.514-.474 3.074-.474 4.676 0 13.163 10.672 23.834 23.836 23.834s23.836-10.671 23.836-23.834c0-1.603-.174-3.163-.475-4.676 8.181 3.066 12.513 6.809 12.856 7.113 3.254 2.952 8.285 2.729 11.263-.511 2.99-3.252 2.778-8.312-.474-11.304z"/><path d="m136.973 220.194c-29.989 0-46.325 14.706-47.006 15.332-3.252 2.991-3.487 8.073-.497 11.325 1.583 1.721 3.738 2.597 5.898 2.597 1.923 0 3.851-.694 5.382-2.102.299-.267 4.634-4.036 12.862-7.12-.302 1.514-.475 3.074-.475 4.677 0 13.163 10.672 23.834 23.836 23.834s23.836-10.671 23.836-23.834c0-1.603-.173-3.164-.474-4.678 8.221 3.079 12.543 6.837 12.815 7.078 3.254 2.991 8.314 2.78 11.304-.474 2.99-3.252 2.778-8.312-.474-11.304-.681-.626-17.017-15.332-47.006-15.332z"/></g></g></g><path d="m452.318 452.319c-3.952-3.952-10.36-3.952-14.312 0l-7.836 7.836c-3.952 3.952-3.952 10.36 0 14.312l29.533 29.533h44.296z" fill="#64e1dc"/><g><path d="m220.732 362.819c11.296 0 22.448-5.445 30.596-14.94 2.877-3.353 2.492-8.403-.861-11.281-3.353-2.876-8.403-2.491-11.281.861-5.105 5.948-11.832 9.36-18.455 9.36-6.39 0-12.946-3.218-17.986-8.827-2.952-3.287-8.01-3.557-11.297-.604s-3.557 8.012-.604 11.298c8.07 8.982 18.964 14.134 29.888 14.134z"/><path d="m221.026 446.404c23.233 0 50.698-31.351 53.753-34.926 1.621-1.896 2.264-4.44 1.74-6.88-.525-2.438-2.157-4.493-4.415-5.556-3.546-1.669-35.109-16.306-51.078-16.306s-47.532 14.637-51.078 16.306c-2.257 1.062-3.89 3.117-4.415 5.556-.524 2.439.119 4.983 1.74 6.88 3.055 3.575 30.52 34.926 53.753 34.926zm0-47.667c7.126 0 22.05 5.27 34.125 10.307-10.402 10.258-24.695 21.36-34.125 21.36s-23.725-11.104-34.125-21.36c12.075-5.037 26.999-10.307 34.125-10.307z"/><path d="m137.435 276.737c17.554 0 31.835-14.28 31.835-31.834 0-.218-.019-.434-.024-.652 2.741 1.639 4.21 2.915 4.365 3.052 1.537 1.413 3.478 2.111 5.413 2.111 2.16 0 4.313-.869 5.891-2.585 2.991-3.252 2.779-8.312-.474-11.304-.681-.626-17.017-15.332-47.006-15.332s-46.326 14.706-47.006 15.332c-3.252 2.991-3.464 8.052-.474 11.304 2.991 3.254 8.053 3.464 11.304.474.041-.038 1.52-1.326 4.363-3.011-.004.204-.022.406-.022.611 0 17.554 14.282 31.834 31.836 31.834zm14.026-39.172c1.182 2.253 1.81 4.757 1.81 7.338 0 8.73-7.104 15.834-15.835 15.834s-15.836-7.104-15.836-15.834c0-2.571.623-5.064 1.796-7.31 4.131-.851 8.815-1.399 14.04-1.399s9.911.537 14.026 1.371z"/><path d="m346.207 249.415c2.16 0 4.313-.869 5.891-2.585 2.991-3.252 2.779-8.312-.473-11.304-.681-.626-17.017-15.332-47.007-15.332s-46.326 14.706-47.006 15.332c-3.252 2.991-3.464 8.052-.474 11.304 2.992 3.254 8.053 3.464 11.304.474.041-.038 1.52-1.326 4.363-3.011-.004.204-.022.406-.022.611 0 17.554 14.281 31.834 31.835 31.834s31.836-14.28 31.836-31.834c0-.217-.02-.431-.024-.647 2.723 1.629 4.204 2.906 4.404 3.083 1.53 1.39 3.454 2.075 5.373 2.075zm-25.753-4.512c0 8.73-7.104 15.834-15.836 15.834s-15.835-7.104-15.835-15.834c0-2.57.623-5.064 1.795-7.31 4.131-.851 8.815-1.399 14.04-1.399s9.91.537 14.026 1.372c1.182 2.253 1.81 4.755 1.81 7.337z"/><path d="m509.657 498.344-51.683-51.683c-6.362-6.362-16.307-6.973-23.385-1.877l-97.092-97.092c21.577 4.954 51.505 11.855 72.32 16.779 39.316 9.299 86.182 31.986 86.182 87.262 0 4.418 3.582 8 8 8s8-3.582 8-8c0-51.289-34.981-87.809-98.5-102.832-32.073-7.586-85.708-19.852-97.293-22.499l-15.228-15.228c-3.123-3.122-8.188-3.123-11.313 0-3.125 3.125-3.125 8.189 0 11.314l133.511 133.511c-5.69 7.108-5.249 17.54 1.336 24.125l29.533 29.533c3.124 3.123 8.189 3.123 11.313 0 3.125-3.125 3.125-8.189 0-11.314l-29.533-29.533c-.827-.826-.826-2.172 0-2.998l7.835-7.836c.827-.826 2.173-.826 2.999 0l51.682 51.683c1.562 1.562 3.609 2.343 5.657 2.343s4.095-.781 5.657-2.343c3.125-3.125 3.125-8.189 0-11.314z"/><path d="m353.686 405.537c-3.877-2.119-8.737-.695-10.857 3.183-28.185 51.565-86.125 87.501-120.497 87.501-19.827 0-45.375-10.493-70.091-28.788-23.735-17.569-44.357-40.708-55.163-61.896-8.198-16.075-34.948-73.562-34.948-138.41 0-22.349 8.112-43.548 24.111-63.007 13.161-16.007 31.638-30.916 54.918-44.313 35.216-20.266 70.968-30.911 79.632-33.326 18.401 5.148 158.667 47.502 158.667 140.646 0 13.775-1.215 28.17-3.612 42.785-.537 3.276.997 6.412 3.642 8.073-.2 2.647.912 5.336 3.202 7.035 3.548 2.633 8.559 1.893 11.191-1.656 12.583-16.953 35.024-51.935 43.948-95.729 5.11-25.077 5-49.551-.326-72.742-6.367-27.724-20.258-53.836-41.286-77.611-26.881-30.394-62.222-52.494-105.042-65.688-37.258-11.484-67.1-11.815-70.38-11.815s-33.122.331-70.382 11.812c-42.82 13.194-78.162 35.295-105.042 65.688-55.638 62.909-49.967 129.177-35.412 173.691 13.898 42.507 37.815 72.94 43.64 79.956 8.949 39.711 23.458 70.569 29.227 81.88 23.934 46.929 88.68 99.415 139.507 99.415 49.146 0 109.242-49.549 134.537-95.827 2.119-3.877.694-8.737-3.183-10.856zm-328.676-160.019c-8.377-25.835-10.929-51.019-7.582-74.852 4.169-29.69 17.603-57.543 39.928-82.786 63.042-71.281 159.369-72.101 163.439-72.101s100.397.819 163.439 72.101c35.457 40.09 48.215 86.035 37.919 136.559-2.645 12.981-6.587 25.133-11.102 36.201.725-3.521 1.379-7.166 1.933-10.934 5.226-35.577 2.293-88.623-41.351-139.297-31.92-37.061-71.305-53.466-98.724-60.703-28-7.39-49.238-7.014-52.346-6.908-2.825-.087-20.691-.411-45.003 5.107-4.309.979-7.009 5.264-6.031 9.572.979 4.31 5.267 7.008 9.572 6.031 23.716-5.383 40.939-4.723 41.099-4.713.234.01.481.01.717 0 .207-.011 21.007-.802 48.454 6.525 25.065 6.69 61.051 21.756 90.14 55.529 31.732 36.844 44.427 79.214 37.73 125.934-.59 4.115-1.316 8.079-2.132 11.885-1.808-23.065-11.028-44.846-27.517-64.851-14.438-17.519-34.451-33.686-59.482-48.052-42.131-24.183-83.598-34.884-85.343-35.327-.219-.056-38.457-9.896-65.314-11.641-18.817-1.219-41.031 1.354-57.858 4.065 14.619-12.61 31.351-22.728 49.993-30.189 4.102-1.642 6.097-6.298 4.455-10.4-1.641-4.102-6.3-6.097-10.399-4.455-29.216 11.692-54.163 29.387-74.148 52.591-43.646 50.674-46.578 103.72-41.352 139.297.43 2.927.925 5.775 1.462 8.555-1.628-4.111-3.175-8.361-4.596-12.743zm21.361 14.79c-.919-4.113-1.736-8.429-2.397-12.927-6.773-46.109 5.334-87.99 35.962-124.531 10.126-2.197 48.301-9.923 76.48-8.085 11.029.716 23.288 2.676 33.994 4.759-15.74 5.755-36.253 14.374-56.929 26.242-25.03 14.366-45.043 30.533-59.481 48.052-16.879 20.479-26.137 42.818-27.628 66.49z"/></g></svg>