<svg id="_x31__px" height="512" viewBox="0 0 24 24" width="512" xmlns="http://www.w3.org/2000/svg"><path d="m2.5 24c-.276 0-.5-.224-.5-.5v-14.834c0-1.962 1.255-3.684 3.123-4.284l2.836-.912c.623-.2 1.041-.774 1.041-1.428v-1.542c0-.276.224-.5.5-.5s.5.224.5.5v1.542c0 1.09-.697 2.046-1.734 2.38l-2.836.912c-1.453.467-2.43 1.806-2.43 3.332v14.834c0 .276-.224.5-.5.5z"/><path d="m21.5 24c-.276 0-.5-.224-.5-.5v-14.834c0-1.526-.977-2.865-2.43-3.332l-2.836-.912c-1.037-.334-1.734-1.29-1.734-2.38v-1.542c0-.276.224-.5.5-.5s.5.224.5.5v1.542c0 .654.418 1.228 1.041 1.428l2.836.912c1.868.6 3.123 2.322 3.123 4.284v14.834c0 .276-.224.5-.5.5z"/><path d="m5.501 24c-.02 0-.039-.001-.059-.003-.274-.032-.471-.28-.439-.555.092-.779.244-1.549.453-2.288.812-2.893.714-6.268-.263-9.027l-.16-.463c-.09-.261.048-.546.31-.636.258-.088.545.048.636.309l.159.46c1.041 2.943 1.146 6.543.281 9.629-.195.689-.337 1.407-.422 2.133-.03.254-.246.441-.496.441z"/><path d="m18.499 24c-.25 0-.466-.188-.496-.442-.085-.726-.227-1.443-.422-2.132-.865-3.086-.76-6.687.282-9.633l.158-.457c.09-.261.379-.396.636-.309.262.09.399.375.31.636l-.159.46c-.978 2.762-1.075 6.137-.264 9.031.209.738.361 1.508.453 2.287.031.274-.165.522-.439.555-.02.003-.039.004-.059.004z"/><path d="m7.5 10c-.128 0-.256-.049-.354-.146-.195-.195-.195-.512 0-.707.551-.551.854-1.282.854-2.061v-.586c0-.276.224-.5.5-.5s.5.224.5.5v.586c0 1.046-.407 2.029-1.146 2.768-.098.097-.226.146-.354.146z"/><path d="m16.5 10c-.128 0-.256-.049-.354-.146-.739-.739-1.146-1.722-1.146-2.768v-.586c0-.276.224-.5.5-.5s.5.224.5.5v.586c0 .779.303 1.51.854 2.061.195.195.195.512 0 .707-.098.097-.226.146-.354.146z"/><path d="m12 22c-.276 0-.5-.224-.5-.5v-13c0-.276.224-.5.5-.5s.5.224.5.5v13c0 .276-.224.5-.5.5z"/></svg>