<svg id="Capa_1" enable-background="new 0 0 511.998 511.998" height="512" viewBox="0 0 511.998 511.998" width="512" xmlns="http://www.w3.org/2000/svg"><g><path d="m439.748 341.975c-23.526 17.308-47.551 31.552-71.404 42.335-37.751 17.066-75.55 25.719-112.345 25.719s-74.593-8.653-112.345-25.719c-23.851-10.782-47.874-25.025-71.401-42.333-6.673-4.908-16.061-3.48-20.972 3.194-4.909 6.673-3.479 16.062 3.194 20.971 25.215 18.549 51.062 33.859 76.821 45.505 41.661 18.833 83.616 28.382 124.702 28.382s83.041-9.549 124.702-28.382c25.764-11.646 51.61-26.957 76.824-45.507 6.673-4.909 8.103-14.298 3.193-20.971-4.908-6.675-14.298-8.103-20.969-3.194z"/><path d="m508.848 216.802c-1.145-1.477-28.585-36.582-73.088-72.049-26.293-20.955-53.133-37.686-79.774-49.729-33.842-15.298-67.481-23.055-99.986-23.055s-66.145 7.757-99.986 23.055c-26.642 12.044-53.481 28.775-79.774 49.729-44.505 35.468-71.944 70.572-73.09 72.049-4.233 5.453-4.196 13.089.085 18.502.405.511.845.98 1.302 1.426-.029.034-.055.074-.085.106 6.001 7.461 32.099 38.779 71.785 70.408 26.293 20.955 53.133 37.686 79.774 49.73 33.842 15.298 67.481 23.055 99.986 23.055s66.145-7.757 99.986-23.055c26.642-12.044 53.481-28.775 79.774-49.73 39.129-31.184 65.058-62.077 71.53-70.091-.04-.055-.067-.117-.105-.173.558-.518 1.094-1.065 1.578-1.676 4.284-5.412 4.32-13.049.088-18.502zm-215.489-18.917c0 20.6-16.76 37.36-37.36 37.36s-37.36-16.76-37.36-37.36c0-1.609.108-3.202.308-4.776 12.08-.823 24.453-1.285 37.053-1.285 12.595 0 24.969.464 37.053 1.29.199 1.573.306 3.164.306 4.771zm-37.36-36.062c-75.071 0-141.798 15.03-186.972 28.707 7.906-7.333 16.768-15.055 26.451-22.748 37.797-30.024 96.326-65.813 160.521-65.813s122.724 35.79 160.52 65.813c9.684 7.692 18.545 15.415 26.451 22.748-45.173-13.677-111.9-28.707-186.971-28.707zm160.52 122.393c-12.477 9.912-27.226 20.446-43.681 30.119l9.556-24.514c1.09-2.796 1.316-5.855.649-8.78l-7.82-34.318c-1.841-8.077-9.877-13.136-17.958-11.292-8.077 1.84-13.133 9.88-11.292 17.958l6.797 29.829-19.828 50.866c-23.897 9.589-49.914 15.947-76.944 15.947-64.194 0-122.724-35.79-160.521-65.813-24.486-19.451-43.712-39.092-55.511-52.117 14.194-5.327 35.827-12.733 62.769-19.744v13.659c0 3.85 1.479 7.552 4.134 10.34l23.059 24.231c2.948 3.099 6.904 4.66 10.868 4.66 3.714 0 7.436-1.371 10.339-4.134 6.001-5.711 6.236-15.205.525-21.206l-18.925-19.888v-14.739c17.302-3.665 36.081-6.92 55.946-9.311-.018.639-.044 1.277-.044 1.918 0 37.143 30.218 67.36 67.36 67.36s67.36-30.217 67.36-67.36c0-.636-.026-1.27-.043-1.904 66.8 8.061 121.451 25.922 148.703 36.13-11.8 13.025-31.021 32.659-55.498 52.103z"/></g></svg>