<svg id="Layer_1" enable-background="new 0 0 256 256" height="512" viewBox="0 0 256 256" width="512" xmlns="http://www.w3.org/2000/svg"><g><path d="m116.0459 146.8008c-1.0977-1.2397-2.9951-1.355-4.2344-.2573-12.6387 11.1865-23.2861 1.2661-23.7451.8267-1.1865-1.1479-3.0791-1.1221-4.2334.0615-1.1572 1.186-1.1338 3.0854.0527 4.2422 2.96 2.8872 8.627 6.2075 15.4854 6.2075 5.0313 0 10.7051-1.7881 16.417-6.8457 1.2412-1.0982 1.3564-2.9942.2578-4.2349z"/><path d="m168.0293 146.5435c-12.6357 11.1831-23.2842 1.2681-23.7441.8271-1.1865-1.1489-3.0791-1.1226-4.2334.061-1.1572 1.186-1.1338 3.0854.0527 4.2422 2.96 2.8872 8.626 6.2075 15.4844 6.2075 5.0313 0 10.7051-1.7881 16.417-6.8457 1.2412-1.0981 1.3564-2.9941.2578-4.2349-1.0987-1.2397-2.9951-1.3549-4.2344-.2572z"/><path d="m147.4609 195.7363-13.2939-6.209c-.8662-.4038-1.8721-.3706-2.7109.0869l-3.457 1.894-3.4561-1.8936c-.8379-.46-1.8438-.4917-2.7109-.0874l-13.2939 6.209c-1.2383.5781-1.9287 1.9199-1.6807 3.2637.957 5.1772 6.126 15.2104 18.8379 16.1265.0723.0054.1436.0078.2158.0078h4.1768c.0723 0 .1436-.0024.2158-.0078 12.7119-.916 17.8809-10.9492 18.8379-16.1265.2479-1.3436-.4425-2.6854-1.6808-3.2636zm-24.4677-.1294 3.5645 1.9526c.8984.4922 1.9844.4917 2.8828.0005l3.5645-1.9531 6.4917 3.0319c-2.0828.5505-5.0922 1.0303-9.4087 1.1287l-4.1084.001c-4.3506-.099-7.3788-.5805-9.4718-1.1324zm6.9824 13.5274h-3.9521c-4.5447-.3523-7.5757-2.2291-9.5791-4.3506 2.468.5215 5.5667.8954 9.4668.9839l4.2451-.001c3.8989-.0886 6.9945-.4651 9.458-.9902-1.9969 2.1226-5.0383 4.0019-9.6387 4.3579z"/><path d="m207.6611 83.6021c-4.3171-8.3162-9.3481-15.1929-14.9102-20.9369-8.5334-25.1561-34.3313-43.4894-64.752-43.4894-30.4209 0-56.219 18.3335-64.7522 43.4901-5.5618 5.7438-10.5928 12.6204-14.9099 20.9362-16.25 31.2998-8.8926 77.3589 16.0645 100.5776.3179.296.6914.5038 1.0878.6373 10.7125 31.6826 44.0411 53.8588 62.255 53.8588 18.1958 0 51.4788-22.1321 62.2251-53.7311.5974-.0837 1.1689-.3373 1.6284-.765 24.9581-23.2193 32.3135-69.2778 16.0635-100.5776zm-79.6621-58.4263c22.782 0 42.7075 11.1799 53.4097 27.7609-10.2671-7.2763-21.7144-11.8839-33.5769-15.0715-5.5615-3.8904-12.25-5.4379-18.8904-4.3505-.314.0515-.6279.1064-.9419.1588-.314-.0524-.6279-.1073-.9419-.1588-6.6432-1.0897-13.3306.4604-18.8921 4.3508-11.8623 3.1877-23.3094 7.7953-33.5764 15.072 10.7018-16.5815 30.6276-27.7617 53.4099-27.7617zm-62.8398 123.6709c.0078.2612.0137.4834.0156.6641-.4102 7.9829-.9629 18.6084-1.3291 25.4258-19.3516-22.6382-24.2305-61.5132-10.1846-88.5698 11.3089-21.7812 28.0139-33.1316 46.5131-39.7231-1.6537 2.9135-2.786 6.1509-3.3099 9.5999-2.2432 14.7641 5.5134 27.6207 18.2207 30.7955-19.0485 6.3115-32.8943 16.1169-41.2871 29.2978-9.1299 14.3389-8.7598 28.0156-8.6387 32.5098zm62.5849 83.8291c-15.7141 0-50.1899-22.4449-58.0486-54.8176.014-.2572.028-.513.0427-.7874.166-3.041.3809-7.0938.5928-11.1455.4248-8.1006.8408-16.1978.8408-16.1978.0029-.0566.0039-.1138.0039-.1709-.001-.2266-.0088-.5186-.0186-.8721-.4717-17.4347 6.6273-47.2155 56.842-59.056 50.219 11.841 57.3149 41.6223 56.8416 59.0575-.0098.3525-.0176.644-.0186.8701 0 .0571.001.1147.0039.1719 0 0 .417 8.0972.8418 16.1973.1892 3.6169.3804 7.2294.5366 10.1278-6.981 33.3363-42.4534 56.6227-58.4603 56.6227zm64.4092-57.7393c-.3662-6.8174-.9199-17.4429-1.3301-25.4258.002-.1802.0078-.4014.0156-.6621.1221-4.4937.4932-18.1694-8.6367-32.5088-11.4502-17.9858-33.04-29.6958-64.1689-34.8052-10.5361-1.73-17.0869-12.2153-15.2373-24.3901.8779-5.7769 3.8936-10.8003 8.4922-14.1455 4.332-3.1514 9.5898-4.417 14.7988-3.5635 29.4531 4.8252 59.0752 13.8501 76.25 46.9312 14.0469 27.0562 9.168 65.9316-10.1836 88.5698z"/></g></svg>