<svg id="Layer_1_1_" enable-background="new 0 0 64 64" height="512" viewBox="0 0 64 64" width="512" xmlns="http://www.w3.org/2000/svg"><path d="m8.966 57.644c.785.672 1.52 1.307 2.175 1.925-.085.805-.141 1.615-.141 2.431h2c0-2.534.451-5.022 1.341-7.394l3.8-10.132c.591-1.577.64-3.33.138-4.936l-4.324-13.836c-.147-.471-.615-.76-1.105-.69-.489.074-.85.494-.85.988v18.171c0 2.004.748 3.894 2.112 5.349l-1.644 4.384c-.405 1.08-.707 2.187-.945 3.305-.404-.355-.824-.715-1.256-1.085-2.231-1.91-4.759-4.074-5.758-6.417-.819-1.923-.702-4.346-.588-6.69.04-.821.079-1.626.079-2.396v-19.832c0-3.553 2.386-6.716 5.842-7.705l6.778-2.247c3.816-1.265 6.38-4.816 6.38-8.837h-2c0 3.157-2.013 5.945-5.01 6.939l-6.738 2.234c-4.27 1.221-7.252 5.174-7.252 9.616v19.833c0 .739-.038 1.512-.076 2.299-.125 2.569-.254 5.226.746 7.571 1.182 2.773 3.899 5.099 6.296 7.152zm5.034-13.473v-11.618l2.369 7.582c.37 1.184.334 2.475-.102 3.637l-1.336 3.564c-.606-.935-.931-2.024-.931-3.165z"/><path d="m59 37v-16.211c0-4.441-2.982-8.395-7.213-9.603l-6.777-2.247c-2.997-.994-5.01-3.782-5.01-6.939h-2c0 4.021 2.564 7.572 6.381 8.837l6.817 2.259c3.416.976 5.802 4.139 5.802 7.693v16.211z"/><path d="m31.554 33.486c-1.024-4.354-1.355-8.821-.984-13.278l.427-5.125-1.993-.166-.427 5.125c-.389 4.667-.042 9.344 1.03 13.902 1.547 6.574 1.499 13.512-.139 20.063l-.438 1.75 1.94.485.438-1.75c1.715-6.859 1.765-14.123.146-21.006z"/><path d="m59.5 57h-.5v-10c0-5.579-3.833-10.268-9-11.605v-3.395c0-.552-.448-1-1-1h-1v-2h-2v2h-1c-.552 0-1 .448-1 1v3.395c-5.167 1.337-9 6.026-9 11.605v10h-.5c-1.378 0-2.5 1.122-2.5 2.5s1.122 2.5 2.5 2.5h25c1.378 0 2.5-1.122 2.5-2.5s-1.122-2.5-2.5-2.5zm-13.5-24h2v2.051c-.33-.028-.662-.051-1-.051s-.669.023-1 .051zm0 4.051c.329-.033.662-.051 1-.051s.672.018 1.001.051v1.949h-2.001zm-9 9.949c0-4.469 2.947-8.262 7-9.539v1.539c0 1.103.897 2 2 2h2c1.103 0 2-.897 2-2v-1.539c4.053 1.277 7 5.07 7 9.539v10h-20zm22.5 13h-25c-.276 0-.5-.224-.5-.5s.224-.5.5-.5h1.5 22 1.5c.276 0 .5.224.5.5s-.224.5-.5.5z"/><path d="m25.079 18.452-.832 1.818c.455.208.855.531 1.156.933l1.601-1.2c-.502-.669-1.168-1.205-1.925-1.551z"/><path d="m25.969 22.571c.02.141.031.285.031.429 0 .361-.063.714-.188 1.049l1.874.699c.208-.559.314-1.147.314-1.75 0-.24-.018-.476-.05-.707z"/><path d="m24.062 27.887c.814-.176 1.58-.56 2.212-1.107l-1.31-1.512c-.38.329-.838.559-1.326.665z"/><path d="m22.644 18.013c-.834.059-1.646.33-2.348.781l1.083 1.682c.42-.271.907-.433 1.407-.468z"/><path d="m18 22.999c0 .478.067.951.2 1.408l1.92-.562c-.08-.273-.12-.557-.12-.845 0-.503.126-1 .366-1.438l-1.755-.96c-.4.731-.611 1.561-.611 2.397z"/><path d="m19.464 26.535c.592.592 1.327 1.029 2.127 1.264l.563-1.919c-.479-.141-.919-.402-1.274-.758z"/><path d="m21.879 40.122-1.415 1.413c.592.592 1.327 1.029 2.127 1.264l.563-1.919c-.479-.141-.92-.403-1.275-.758z"/><path d="m29 37.998c0-.24-.018-.476-.05-.707l-1.98.28c.019.141.03.285.03.429 0 .361-.063.714-.188 1.049l1.874.699c.208-.559.314-1.147.314-1.75z"/><path d="m25.964 40.268c-.38.329-.838.559-1.326.665l.424 1.954c.814-.176 1.58-.56 2.212-1.107z"/><path d="m23.644 33.013c-.834.059-1.646.33-2.348.781l1.083 1.682c.42-.271.907-.433 1.407-.468z"/><path d="m21.12 38.845c-.08-.273-.12-.557-.12-.845 0-.503.126-1 .366-1.438l-1.755-.96c-.4.731-.611 1.56-.611 2.396 0 .478.067.951.2 1.408z"/><path d="m26.079 33.452-.832 1.818c.455.208.855.531 1.156.933l1.601-1.2c-.502-.669-1.168-1.205-1.925-1.551z"/><path d="m22.644 48.013c-.834.059-1.646.33-2.348.781l1.083 1.682c.42-.271.907-.433 1.407-.468z"/><path d="m22.153 55.879c-.479-.141-.919-.402-1.274-.758l-1.415 1.413c.592.592 1.327 1.029 2.127 1.264z"/><path d="m18 52.999c0 .478.067.951.2 1.408l1.92-.562c-.08-.273-.12-.557-.12-.845 0-.503.126-1 .366-1.438l-1.755-.96c-.4.731-.611 1.561-.611 2.397z"/><path d="m26.273 56.78-1.31-1.512c-.38.329-.838.559-1.326.665l.424 1.954c.815-.176 1.58-.559 2.212-1.107z"/><path d="m27.686 54.749c.208-.56.314-1.148.314-1.751 0-.24-.018-.476-.05-.707l-1.98.28c.019.141.03.285.03.429 0 .361-.063.714-.188 1.049z"/><path d="m25.403 51.203 1.601-1.2c-.501-.668-1.167-1.205-1.925-1.551l-.832 1.818c.455.209.855.531 1.156.933z"/></svg>