<svg id="line" height="512" viewBox="0 0 64 64" width="512" xmlns="http://www.w3.org/2000/svg"><path d="m48.5498 21.06055 11.22852-15.47364a1.00017 1.00017 0 0 0 -1.6192-1.17374l-11.22846 15.47257c-2.48057 3.24653-2.13647 8.25673 1.53429 10.18842 3.07438 1.74626.49283 7.1788-.45223 8.82916-.41018.44238-2.99221 3.10742-5.75491 3.22266-4.16015.17285-8.71777.959-14.65527 8.34472-6.92328 8.10783-14.0669 8.84251-20.45105 6.13211a.84565.84565 0 0 1 -.046-1.50906c6.7168-3.6748 10.58984-6.45117 11.51172-8.251 2.4654-5.08677 5.57443-13.03271 10.49165-17.544a8.517 8.517 0 0 0 2.44292-3.46287l7.4824-20.49311a1.00017 1.00017 0 0 0 -1.87892-.68548l-7.48241 20.4931a6.55085 6.55085 0 0 1 -1.88672 2.64844c-4.43313 3.91117-7.99707 11.72363-9.91213 15.9209-.42578.93261-.77392 1.69726-1.03711 2.21093-.69384 1.35547-4.69091 4.125-10.69189 7.40918a2.83451 2.83451 0 0 0 -1.48 2.57227c.1353 2.53017 2.67215 2.9679 4.84031 3.62013 7.00769 1.45053 13.45829-.49524 19.65592-7.80735 5.86611-7.29716 10.09268-7.47289 13.17959-7.60089 3.97424-.203 7.1422-3.8368 7.337-4.10644.763-1.07816 4.69906-9.05831-.20925-11.6738-2.64832-1.35991-2.68979-4.97049-.91877-7.28321z"/><path d="m10.57324 32.08594v-1.70508a1 1 0 0 0 -2 0v1.70508h-.83642a1 1 0 0 0 0 2h.83642v1.706a1.00019 1.00019 0 0 0 2-.00006v-1.706h.83594a1 1 0 0 0 0-2z"/><path d="m19.17383 22.64941h.83642v1.70606a1 1 0 0 0 2 0v-1.70606h.83594a1.00018 1.00018 0 0 0 -.00006-2h-.83588v-1.70605a1 1 0 0 0 -2 0v1.70605h-.83642a1.00019 1.00019 0 0 0 0 2z"/><path d="m30.39453 41.11816a.99973.99973 0 0 0 1-1v-1.70605h.83594a1 1 0 0 0 0-2h-.83594v-1.70606a1 1 0 0 0 -2 0v1.70606h-.83642a1 1 0 0 0 0 2h.83642v1.70605a.99974.99974 0 0 0 1 1z"/><path d="m5.90088 13.97266h.83594v1.70605a1 1 0 1 0 2 0v-1.70605h.83642a1.00019 1.00019 0 0 0 -.00006-2h-.83636v-1.70606a1 1 0 0 0 -2 0v1.70606h-.83594a1.00019 1.00019 0 0 0 0 2z"/><path d="m21.53253 12.69507a1.35313 1.35313 0 0 0 -.00006-2.706 1.35313 1.35313 0 0 0 .00006 2.706z"/><path d="m8.90875 23.79675a1.3531 1.3531 0 0 0 2.70593 0 1.3531 1.3531 0 0 0 -2.70593 0z"/><path d="m6.384 42.73846a1.35314 1.35314 0 0 0 .00006 2.706 1.35314 1.35314 0 0 0 -.00006-2.706z"/></svg>