<svg id="Capa_1" enable-background="new 0 0 512 512" height="512" viewBox="0 0 512 512" width="512" xmlns="http://www.w3.org/2000/svg"><g><path d="m450.942 460.373-38.062-12.902c-.586-.199-1.103-.584-1.461-1.095l-50.373-71.411c-2.388-3.384-7.068-4.193-10.452-1.805-3.385 2.387-4.193 7.067-1.806 10.451l50.366 71.4c2.164 3.079 5.322 5.445 8.901 6.663l38.073 12.906c2.143.726 3.382 3.015 2.82 5.209l-.764 2.977c-1.303 5.078-4.546 9.279-9.132 11.827-4.589 2.549-9.871 3.085-14.873 1.51-.293-.093-.591-.167-.894-.223-.226-.042-22.67-4.23-35.162-10.986-7.896-4.273-16.976-10.042-26.588-16.149-11.2-7.116-22.781-14.473-32.758-19.539-13.23-6.716-29.44-11.535-45.117-16.194-17.947-5.335-36.505-10.851-50.639-19.153-10.264-6.021-15.213-16.606-12.611-26.961 1.56-6.185 5.815-11.659 11.668-15.014 7.467-4.268 13.26-7.484 17.215-9.553 6.777-3.54 8.735-12.296 4.192-18.363-28.19-37.733-68.108-63.958-103.327-87.097-42.73-28.072-79.205-51.589-72.834-84.433.788-4.066-1.869-8.002-5.935-8.791-4.065-.79-8.002 1.869-8.791 5.934-1.487 7.666-1.367 14.815.093 21.571l-47.977 15.882c-3.932 1.302-6.064 5.545-4.763 9.477 1.302 3.932 5.545 6.063 9.477 4.763l48.445-16.038c13.184 25.106 46.542 46.109 74.034 64.168 35.097 23.054 71.592 47.305 97.697 81.089-3.875 2.088-8.895 4.894-14.981 8.373-9.372 5.373-16.209 14.253-18.76 24.369-4.204 16.724 3.659 34.229 19.564 43.559 15.705 9.223 35.151 15.004 53.958 20.594 15.728 4.675 30.583 9.091 42.6 15.191 9.333 4.74 20.604 11.901 31.504 18.826 9.408 5.977 19.135 12.158 27.494 16.681 13.658 7.387 35.639 11.791 39.138 12.462 3.232.971 6.525 1.452 9.799 1.452 5.674 0 11.287-1.447 16.415-4.297 8.222-4.57 14.038-12.102 16.374-21.212l.765-2.979c2.502-9.747-3.006-19.911-12.532-23.139z"/><path d="m17.977 60.605 73.959-8.959c12.888-1.557 25.551 4.061 33.04 14.677l44.553 63.161-22.803 16.023c-10.174 7.149-12.633 21.242-5.485 31.416l66.536 94.688c8.305 11.818 21.558 18.142 35.012 18.142 8.483 0 17.047-2.515 24.5-7.751l6.568-4.616 54.761 77.632c2.395 3.395 7.077 4.185 10.452 1.806 3.385-2.388 4.193-7.067 1.806-10.452l-203.642-288.696c-10.674-15.132-28.718-23.155-47.102-20.921l-73.959 8.958c-4.111.499-7.041 4.236-6.543 8.347.498 4.113 4.224 7.04 8.347 6.545zm240.688 209.123c-12.507 8.788-29.828 5.761-38.615-6.742l-66.536-94.688c-2.394-3.407-1.57-8.126 1.836-10.519l22.825-16.038 87.036 123.387z"/><path d="m246.464 56.398h3.674c2.461 0 4.464 2.003 4.464 4.464v19.667c0 7.011 2.889 13.868 7.926 18.812 4.843 4.752 11.136 7.353 17.773 7.352.158 0 .318-.001.477-.004 13.896-.261 25.2-11.782 25.2-25.683v-3.753c0-11.499 9.355-20.855 20.855-20.855h119.724c15.548 0 28.198-12.65 28.198-28.199s-12.65-28.199-28.198-28.199h-148.245c-4.142 0-7.5 3.358-7.5 7.5s3.357 7.5 7.5 7.5h62.193v26.399h-33.673c-19.77 0-35.854 16.084-35.854 35.854v3.753c0 5.784-4.702 10.578-10.482 10.687-2.734.047-5.401-1.034-7.462-3.057-2.183-2.142-3.433-5.096-3.433-8.107v-19.667c0-10.733-8.731-19.464-19.463-19.464h-3.674c-7.278 0-13.199-5.921-13.199-13.199s5.921-13.199 13.199-13.199h16.849c4.142 0 7.5-3.358 7.5-7.5s-3.357-7.5-7.5-7.5h-16.849c-15.548 0-28.198 12.65-28.198 28.199s12.65 28.199 28.198 28.199zm129.041-41.398h71.051c7.278 0 13.199 5.921 13.199 13.199s-5.921 13.199-13.199 13.199h-71.051z"/><path d="m280.814 123.347c-4.145 0-7.959 1.898-10.46 5.208-15.752 20.852-15.752 28.892-15.752 31.534 0 14.452 11.758 26.21 26.211 26.21s26.21-11.758 26.21-26.21c0-2.642 0-10.681-15.752-31.534-2.5-3.309-6.312-5.208-10.457-5.208zm-.001 47.952c-6.182 0-11.212-5.029-11.212-11.211 0-1.99 2.407-8.472 11.211-20.465 8.803 11.991 11.212 18.475 11.212 20.465 0 6.182-5.03 11.211-11.211 11.211z"/><path d="m498.559 226.01c-2.453-3.279-5.776-5.62-9.537-6.824-2.102-23.151-21.612-41.352-45.301-41.352h-45.548c-8.389 0-20.812-7.373-34.981-20.764-6.39-6.033-15.388-7.614-23.481-4.124-8.139 3.51-13.196 11.188-13.196 20.038v46.267c-3.679 1.222-6.929 3.537-9.34 6.759-3.685 4.926-4.804 11.135-3.067 17.036l6.48 22.034c7.692 26.15 32.102 44.413 59.358 44.413h55.841c27.258 0 51.666-18.264 59.357-44.413l6.481-22.033c1.738-5.902.619-12.111-3.066-17.037zm-152.909-59.29c.951-.411 4.288-1.533 7.243 1.256 17.454 16.495 32.688 24.858 45.28 24.858h45.548c15.088 0 27.645 11.016 30.069 25.426h-132.276v-45.275c0-4.158 3.166-5.847 4.136-6.265zm141.586 72.094-6.481 22.034c-5.826 19.81-24.318 33.646-44.967 33.646h-55.841c-20.65 0-39.141-13.836-44.968-33.646l-6.48-22.034c-.533-1.81.202-3.169.688-3.817.485-.649 1.581-1.737 3.469-1.737h150.426c1.888 0 2.983 1.088 3.469 1.737.483.648 1.218 2.006.685 3.817z"/></g></svg>