<?xml version="1.0"?>
<svg xmlns="http://www.w3.org/2000/svg" viewBox="0 0 64 64" width="512" height="512"><g id="_16-Massage" data-name="16-Massage"><path d="M54,43a7.009,7.009,0,0,1-7-7,1,1,0,0,1,1-1,2,2,0,0,0,2-2,1,1,0,0,1,.293-.707,11.934,11.934,0,0,1,5.924-2.852A19.988,19.988,0,0,1,60,29a1,1,0,0,1,1,1v6A7.009,7.009,0,0,1,54,43Zm-4.927-6.146A5,5,0,0,0,59,36V31.052a19.1,19.1,0,0,0-2.371.346,10.465,10.465,0,0,0-4.655,2.059A4.01,4.01,0,0,1,49.073,36.854Z"/><path d="M48,37a4,4,0,0,1-4-4,7.88,7.88,0,0,1,.587-3.056c2.087-5.015,9.076-6.419,13.056-6.809C59.036,23,59.961,23,60,23a4,4,0,0,1,0,8,18.3,18.3,0,0,0-3.371.4,10.465,10.465,0,0,0-4.655,2.059A4.006,4.006,0,0,1,48,37ZM60,25c-.008,0-.876,0-2.165.125-2.843.279-9.651,1.382-11.4,5.589A5.828,5.828,0,0,0,46,33a2,2,0,0,0,4,0,1,1,0,0,1,.293-.707,11.934,11.934,0,0,1,5.924-2.852A19.988,19.988,0,0,1,60,29a2,2,0,0,0,0-4Z"/><path d="M45.51,31.33a1,1,0,0,1-.781-.376A7.857,7.857,0,0,1,43,26a8,8,0,0,1,15.7-2.134,1,1,0,0,1-.867,1.259c-2.846.279-9.654,1.382-11.4,5.589a1,1,0,0,1-.784.606A.929.929,0,0,1,45.51,31.33ZM51,20a6.006,6.006,0,0,0-6,6,5.93,5.93,0,0,0,.482,2.363c2.436-3.314,7.331-4.588,10.868-5.076A6.006,6.006,0,0,0,51,20Z"/><path d="M25,36V34a24.182,24.182,0,0,0,5.764-.656l.472,1.943A26.106,26.106,0,0,1,25,36Z"/><path d="M35.371,33.929l-.742-1.858c.361-.144.712-.289,1.056-.43A16.132,16.132,0,0,1,42,30c3.164,0,4,1.962,4,3H45l-1,.028c-.012-.171-.16-1.028-2-1.028a14.414,14.414,0,0,0-5.554,1.49Q35.923,33.706,35.371,33.929Z"/><path d="M54,50H41a1,1,0,0,1-.707-.293l-4-4a1,1,0,0,1,0-1.414l7-7,1.414,1.414L38.414,45l3,3H54a1,1,0,0,0,0-2H43a1,1,0,0,1-.707-1.707l4-4,1.414,1.414L45.414,44H54a3,3,0,0,1,0,6Z"/><rect x="51" y="45" width="2" height="4"/><rect x="46.172" y="42" width="5.657" height="2" transform="translate(-16.054 47.243) rotate(-45)"/><path d="M63,53H25V51H62V49H55V47h8a1,1,0,0,1,1,1v4A1,1,0,0,1,63,53Z"/><path d="M25,60H1a1,1,0,0,1-1-1V33a1,1,0,0,1,1-1H13v2H2V58H24V34H17V32h8a1,1,0,0,1,1,1V59A1,1,0,0,1,25,60Z"/><rect x="1" y="54" width="24" height="2"/><rect x="25" y="47" width="15" height="2"/><path d="M22,46C7.446,46,4.184,36.712,4.052,36.316l1.9-.636C6.063,36.02,8.954,44,22,44Z"/><path d="M22,51C9.674,51,4.448,44.9,4.231,44.641l1.535-1.285C5.813,43.413,10.673,49,22,49Z"/><path d="M61,64H3a1,1,0,0,1-1-1V59H4v3H60V52h2V63A1,1,0,0,1,61,64Z"/><path d="M24,22a7.008,7.008,0,0,1-7-7V10a1,1,0,0,1,1-1c.04,0,4-.066,4-2a1,1,0,0,1,2,0h0s.315,2,6,2a1,1,0,0,1,1,1v5A7.008,7.008,0,0,1,24,22ZM19,10.948V15a5,5,0,0,0,10,0V10.979c-3.154-.137-4.889-.919-5.842-1.758A6.664,6.664,0,0,1,19,10.948Z"/><path d="M34,11H32V10a8,8,0,0,0-16,0v1H14V10a10,10,0,0,1,20,0Z"/><path d="M31,16H30V14h1a1,1,0,0,0,1-1V12H30V10h3a1,1,0,0,1,1,1v2A3,3,0,0,1,31,16Z"/><path d="M18,16H17a3,3,0,0,1-3-3V11a1,1,0,0,1,1-1h3v2H16v1a1,1,0,0,0,1,1h1Z"/><path d="M15,40a3,3,0,0,1-3-3V25a1,1,0,0,1,.783-.976L21,22.2V20h2v3a1,1,0,0,1-.783.976L14,25.8V37a1,1,0,0,0,2,0V28h2v9A3,3,0,0,1,15,40Z"/><path d="M33,40a3,3,0,0,1-3-3V28h2v9a1,1,0,0,0,2,0V25.8l-8.217-1.826A1,1,0,0,1,25,23V20h2v2.2l8.217,1.826A1,1,0,0,1,36,25V37A3,3,0,0,1,33,40Z"/><rect x="13" y="34" width="4" height="2"/><rect x="31" y="34" width="4" height="2"/><path d="M24,29a5.785,5.785,0,0,1-6-6h1l1,0a3.851,3.851,0,0,0,4,4c3.954,0,4-3.837,4-4h2A5.785,5.785,0,0,1,24,29Z"/></g></svg>
