<svg id="Capa_1" enable-background="new 0 0 512 512" height="512" viewBox="0 0 512 512" width="512" xmlns="http://www.w3.org/2000/svg"><g><g><path d="m191.558 394.767c-8.018 8.019-18.681 12.435-30.022 12.435-11.34 0-22.003-4.417-30.023-12.435-2.916-2.917-7.645-2.917-10.562 0s-2.917 7.646.001 10.562c10.84 10.84 25.254 16.811 40.584 16.811 15.331 0 29.745-5.97 40.585-16.811 2.917-2.917 2.917-7.646-.001-10.562-2.915-2.917-7.644-2.916-10.562 0z"/><ellipse cx="103.776" cy="325.067" rx="9.958" ry="13.837"/><ellipse cx="219.297" cy="325.067" rx="9.958" ry="13.837"/><path d="m123.815 297.91c3.835 1.514 8.174-.371 9.688-4.208 1.513-3.837-.371-8.175-4.209-9.688-14.723-5.807-33.174-5.861-50.62-.15-3.92 1.283-6.058 5.502-4.775 9.422 1.031 3.148 3.955 5.147 7.097 5.147.769 0 1.553-.12 2.324-.372 13.988-4.579 29.126-4.634 40.495-.151z"/><path d="m193.779 284.014c-3.837 1.513-5.722 5.851-4.209 9.688 1.514 3.837 5.854 5.722 9.688 4.208 11.37-4.483 26.507-4.428 40.494.15.771.252 1.554.372 2.324.372 3.142 0 6.066-1.999 7.097-5.147 1.283-3.92-.855-8.139-4.775-9.422-17.447-5.71-35.898-5.655-50.619.151z"/><path d="m348.616 272.63c-9.76-3.013-21.518-3.235-33.107-.623-24.769 5.581-38.907 21.431-35.182 39.441 1.863 9.008 8.745 17.169 18.409 21.832 9.13 4.404 20.701 7.031 31.966 7.031 11.533 0 22.746-2.755 30.681-9.175 7.154-5.787 14.673-16.822 9.87-36.521 0 0 0 0 0-.001-2.549-10.457-10.589-18.264-22.637-21.984zm3.373 46.893c-8.549 6.915-29.379 8.688-46.762.303-5.504-2.656-9.344-6.919-10.272-11.404-1.21-5.846 2.451-17.024 23.837-21.843 4.184-.942 8.516-1.427 12.699-1.427 12.182 0 23.082 4.113 25.251 13 2.401 9.85.846 16.84-4.753 21.371z"/><path d="m403.234 331.135c7.937 6.421 19.148 9.175 30.681 9.175 11.265 0 22.838-2.627 31.967-7.031 9.665-4.663 16.546-12.824 18.409-21.832 3.726-18.01-10.414-33.86-35.183-39.441-11.588-2.611-23.348-2.389-33.107.623-12.047 3.72-20.087 11.527-22.637 21.983-4.804 19.701 2.716 30.736 9.87 36.523zm4.642-32.982c2.913-11.939 21.58-15.261 37.949-11.573 21.387 4.818 25.048 15.997 23.838 21.843-.928 4.485-4.767 8.748-10.272 11.404-17.383 8.386-38.214 6.613-46.763-.303-5.599-4.532-7.153-11.522-4.752-21.371z"/><path d="m386.555 353.156c-1.134 1.134-2.642 1.759-4.246 1.759s-3.112-.625-4.246-1.759c-2.918-2.917-7.647-2.917-10.562-.001-2.918 2.917-2.918 7.645-.001 10.562 3.955 3.956 9.214 6.135 14.809 6.135s10.854-2.179 14.809-6.135c2.917-2.917 2.917-7.646-.001-10.562-2.918-2.917-7.645-2.916-10.562.001z"/><path d="m352.912 440.466c9.204 4.934 19.3 7.401 29.398 7.401 10.097 0 20.194-2.467 29.399-7.401 27.648-14.821 29.2-41.507 28.584-52.292-.224-3.92-2.574-7.385-6.133-9.044-3.572-1.665-7.757-1.232-10.917 1.128-16.401 12.251-40.571 12.05-40.797 12.036-.089-.001-.181-.001-.27 0-.252.011-24.289.294-40.798-12.036-3.159-2.36-7.344-2.793-10.916-1.128-3.558 1.659-5.909 5.124-6.133 9.044-.619 10.785.933 37.471 28.583 52.292zm29.397-33.235c2.154.027 23.993-.014 42.901-10.512-1.02 9.873-5.559 22.54-20.56 30.581-13.989 7.499-30.691 7.499-44.682 0-15.001-8.042-19.539-20.709-20.56-30.581 18.909 10.497 40.759 10.543 42.901 10.512z"/><path d="m57.772 92.719c4.086.546 7.843-2.332 8.386-6.421 3.254-24.514 21.22-49.217 43.691-60.072 31.972-15.448 71.614-13.882 106.04 4.183 20.555 10.786 36.264 24.51 45.431 39.69 3.681 6.094 6.524 14.34 8.45 24.507l.789 4.612c.733 4.288 4.04 6.167 7.347 6.091 8.051-.187 7.457-7.783 6.577-13.287-.007-.042-.014-.084-.023-.126-2.258-11.952-5.742-21.884-10.353-29.519-10.728-17.764-27.98-32.97-51.276-45.194-38.601-20.255-83.267-21.903-119.48-4.406-27.164 13.121-48.062 41.878-52.001 71.556-.542 4.088 2.332 7.843 6.422 8.386z"/><path d="m509.246 296.952c-4.217-31.685-12.732-71.158-41.394-95.367-27.37-23.117-67.04-34.461-103.525-29.604-15.851 2.11-30.688 6.686-43.883 13.432-2.973-15.137-8.527-29.711-16.646-42.723-22.347-35.812-59.664-56.395-94.415-78.13-22.493-14.065-47.983-30.009-76.232-26.597-15.071 1.82-28.425 9.549-37.603 21.765-5.673 7.551-9.248 16.178-10.582 25.226-17.349 9.696-33.554 21.706-47.568 35.775-38.334 38.505-48.293 97.491-24.782 146.781l4.624 9.693-.474 5.167c-3.216 33.922-5.507 73.048 8.107 108.115 14.623 37.662 50.338 76.996 95.532 105.217 1.021.638 25.114 15.568 41.009 15.568h.243c15.895-.002 39.988-14.93 41.009-15.568 28.973-18.092 54.038-40.75 72.157-64.607 8.5 15.53 20.11 29.741 34.626 42.332 1.846 1.601 3.765 3.199 5.703 4.751 3.219 2.579 7.921 2.058 10.498-1.162 2.578-3.22 2.058-7.92-1.162-10.499-1.786-1.431-3.553-2.903-5.252-4.376-28.967-25.126-45.551-60.907-50.181-98.758-2.62-21.413-1.568-43.127 1.271-64.461 4.422-33.232 12.275-67.018 39.561-89.021 15.162-12.227 34.669-20.22 56.41-23.114 32.439-4.322 67.663 5.724 91.915 26.208 13.004 10.984 28.874 30.677 36.227 85.926 6.112 45.933 1.551 84.463-13.943 117.792-14.378 30.93-44.274 59.06-79.971 75.248-14.735 6.683-28.99 4.614-49.195-7.141-3.566-2.075-8.138-.866-10.211 2.7-2.074 3.565-.866 8.137 2.7 10.211 11.081 6.447 24.722 12.882 40.028 12.882 7.271 0 14.921-1.453 22.848-5.048 38.853-17.619 71.506-48.481 87.346-82.555 16.73-35.986 21.703-77.22 15.205-126.058zm-485.228-40.497c-18.071-42.622-8.733-92.342 23.972-125.193 11.024-11.069 23.737-20.879 37.142-29.03 4.225 25.646 21.716 39.636 39.272 51.765 7.888 5.45 15.455 10.547 22.8 15.362-18.212 12.83-38.275 23.061-57.074 32.127l-2.955 1.423c-16.765 8.064-34.1 16.404-48.506 29.253-7.488 6.679-11.418 15.408-14.651 24.293zm276.492-58.181c-9.469 7.636-17.311 16.746-23.721 27.557-12.602-9.382-26.638-16.159-39.291-22.249-3.715-1.788-8.18-.228-9.969 3.49-1.789 3.717-.227 8.18 3.49 9.969 12.719 6.122 26.915 12.98 38.873 22.325-.595 1.368-1.179 2.752-1.741 4.166-5.749 14.487-9.645 30.963-12.634 53.421-6.242 46.911-2.551 83.936 11.993 118.77-19.695 28.082-48.393 52.095-72.757 67.308-8.866 5.536-24.956 13.3-33.082 13.3-.047 0-.092-.001-.137 0-.046 0-.091 0-.137 0-8.126 0-24.215-7.764-33.081-13.301-32.856-20.516-73.627-57.022-89.521-97.954-12.432-32.024-10.215-69.08-7.158-101.321.555-6.051 2.513-10.999 4.491-16.723 3.238-9.363 6.296-18.208 12.481-23.724 12.836-11.449 29.207-19.324 45.043-26.942 23.179-11.161 46.31-22.915 67.049-38.322 13.632 8.599 26.595 16.238 39.442 23.255 3.621 1.977 8.158.646 10.134-2.975 1.977-3.62.646-8.158-2.975-10.135-23.222-12.682-46.866-27.452-74.41-46.482-19.138-13.222-30.071-23.826-33.037-41.967-1.807-11.059.903-22.083 7.633-31.041 6.709-8.93 16.458-14.579 27.451-15.907 22.995-2.779 46.125 11.678 66.522 24.433 32.737 20.474 68.589 39.603 89.661 73.372 8.108 12.995 13.335 27.751 15.634 43.002-2.14 1.495-4.229 3.048-6.246 4.675z"/><path d="m398.604 134.734c0 4.125 3.343 7.469 7.469 7.469h8.255v8.255c0 4.125 3.343 7.469 7.469 7.469s7.469-3.344 7.469-7.469v-8.255h8.255c4.125 0 7.469-3.344 7.469-7.469s-3.343-7.469-7.469-7.469h-8.255v-8.254c0-4.125-3.343-7.469-7.469-7.469s-7.469 3.344-7.469 7.469v8.254h-8.255c-4.125 0-7.469 3.344-7.469 7.469z"/><path d="m329.258 96.299c22.56 11.005 28.712 34.766 28.765 34.978.809 3.354 3.81 5.717 7.261 5.717 3.45 0 6.452-2.364 7.261-5.718.057-.237 5.989-23.868 28.764-34.977 2.566-1.252 4.194-3.857 4.194-6.713 0-2.855-1.628-5.461-4.194-6.713-22.51-10.981-28.684-34.661-28.769-35.003-.818-3.341-3.813-5.693-7.255-5.693-3.45 0-6.452 2.364-7.261 5.717-.057.238-5.99 23.868-28.765 34.978-2.566 1.252-4.194 3.857-4.194 6.713-.001 2.856 1.627 5.462 4.193 6.714zm36.026-27.863c3.98 6.841 9.915 14.631 18.537 21.15-8.622 6.519-14.556 14.309-18.537 21.15-3.981-6.841-9.916-14.631-18.538-21.15 8.622-6.519 14.556-14.309 18.538-21.15z"/></g></g></svg>