<svg id="Capa_1" enable-background="new 0 0 512 512" height="512" viewBox="0 0 512 512" width="512" xmlns="http://www.w3.org/2000/svg"><g><g><path d="m33.032 231.226h115.613v16.516h-115.613z"/><path d="m33.032 264.258h82.581v16.516h-82.581z"/><path d="m33.032 297.29h49.548v16.516h-49.548z"/><path d="m355.097 297.29h-66.065c-10.752 0-19.836 6.929-23.255 16.516h-34.552v-123.871c0-29.06-21.587-53.116-49.548-57.146v-17.177c0-6.706-4.03-12.461-9.786-15.046 6.334-10.281 9.786-22.099 9.786-34.502 0-36.426-29.638-66.064-66.064-66.064s-66.065 29.638-66.065 66.065c0 12.404 3.452 24.221 9.786 34.502-5.756 2.585-9.786 8.341-9.786 15.046v17.177c-27.961 4.03-49.548 28.085-49.548 57.145v280.775c0 22.767 18.523 41.29 41.29 41.29h346.839c68.302 0 123.871-55.569 123.871-123.871v-74.323h-133.648c-3.419-9.587-12.503-16.516-23.255-16.516zm-74.323 24.775c0-4.558 3.7-8.258 8.258-8.258h66.065c4.558 0 8.258 3.7 8.258 8.258v99.097c0 4.558-3.7 8.258-8.258 8.258h-66.065c-4.558 0-8.258-3.7-8.258-8.258zm-57.806 123.87c-20.207 0-36.996-14.609-40.531-33.809 24.65-3.89 44.131-23.37 48.021-48.012 19.192 3.534 33.8 20.323 33.8 40.531 0 22.768-18.523 41.29-41.29 41.29zm-49.549 49.549c-22.767 0-41.29-18.523-41.29-41.29 0-20.207 14.609-36.996 33.809-40.531 3.89 24.65 23.37 44.131 48.012 48.012-3.535 19.2-20.323 33.809-40.531 33.809zm41.291-140.387c0 20.207-14.609 36.996-33.809 40.531-3.89-24.65-23.37-44.131-48.021-48.021 3.543-19.192 20.331-33.8 40.539-33.8 22.768-.001 41.291 18.522 41.291 41.29zm-49.549-57.146c-25.451 3.667-45.56 23.932-48.979 49.458-28.243 3.782-50.118 27.978-50.118 57.237 0 16.169 6.689 30.786 17.433 41.29h-66.981v-231.226h148.645zm-48.772 147.225c-19.2-3.534-33.809-20.323-33.809-40.531 0-22.767 18.523-41.29 41.29-41.29 20.207 0 36.996 14.609 40.531 33.809-24.65 3.889-44.122 23.361-48.012 48.012zm114.267-97.767c-.809-6.045-2.552-11.784-5.087-17.086h38.689v33.949c-8.803-9.002-20.521-15.113-33.602-16.863zm-65.495-215.28h-99.096v-16.516h99.097v16.516zm-49.548-115.613c27.326 0 49.548 22.222 49.548 49.548 0 12.346-4.517 23.932-12.693 33.032h-73.711c-8.175-9.1-12.693-20.686-12.693-33.032.001-27.325 22.223-49.548 49.549-49.548zm-57.807 132.129h115.613c22.767 0 41.29 18.523 41.29 41.29v123.871h-.917c-8.564-8.374-19.712-14.072-32.116-15.855v-83.241c0-9.109-7.407-16.516-16.516-16.516h-148.644v-8.258c0-22.768 18.523-41.291 41.29-41.291zm-16.516 346.839c-13.659 0-24.774-11.115-24.774-24.774v-8.258h99.757c1.85 12.85 7.903 24.353 16.772 33.032zm454.194-107.355c0 59.194-48.161 107.355-107.355 107.355h-174.336c4.847-4.74 8.82-10.331 11.776-16.516h162.56c50.085 0 90.839-40.754 90.839-90.839v-41.29h-16.516v41.29c0 40.985-33.338 74.323-74.323 74.323h-157.564c.025-.19.066-.38.091-.57 16.491-2.205 30.803-11.347 39.853-24.436 4.542 5.161 11.124 8.489 18.523 8.489h66.065c13.659 0 24.774-11.115 24.774-24.774v-90.839h115.613z"/><path d="m288.231 200.902 43.916 3.658c8.242.694 14.691 7.705 14.691 15.971 0 7.366-4.988 13.75-12.131 15.542l-23.643 5.913c-17.837 4.459-30.291 20.406-30.291 38.788h16.516c0-10.793 7.317-20.15 17.771-22.776l23.643-5.913c14.509-3.617 24.65-16.599 24.65-31.554 0-16.789-13.106-31.034-29.828-32.421l-43.916-3.658c-14.212-1.189-25.352-13.279-25.352-27.549 0-13.659 11.115-24.774 24.774-24.774 4.558 0 8.258 3.7 8.258 8.258s-3.7 8.258-8.258 8.258h-8.258v16.516h8.258c13.659 0 24.774-11.115 24.774-24.774s-11.115-24.774-24.774-24.774c-22.767 0-41.29 18.523-41.29 41.29.001 22.784 17.789 42.116 40.49 43.999z"/><path d="m421.161 82.581c13.659 0 24.774-11.115 24.774-24.774v-8.258h-16.516v8.258c0 4.558-3.7 8.258-8.258 8.258s-8.258-3.7-8.258-8.258c0-13.659 11.115-24.774 24.774-24.774 31.868 0 57.806 25.939 57.806 57.806 0 22.99-11.636 43.991-31.141 56.18l-17.804 11.132c-10.719 6.689-17.119 18.242-17.119 30.893 0 13.89 7.721 26.368 20.133 32.586l14.229 7.11c9.373 4.682 15.187 14.088 15.187 24.568 0 15.145-12.321 27.466-27.466 27.466h-55.114v16.516h55.114c24.246 0 43.982-19.737 43.982-43.982 0-16.772-9.315-31.843-24.312-39.341l-14.229-7.11c-6.788-3.394-11.008-10.223-11.008-17.813 0-6.912 3.501-13.229 9.365-16.896l17.804-11.132c24.354-15.22 38.896-41.447 38.896-70.177 0-40.985-33.338-74.323-74.323-74.323-22.767 0-41.29 18.523-41.29 41.29 0 13.659 11.115 24.775 24.774 24.775z"/><path d="m346.839 143.649c0 10.76 4.187 20.86 11.793 28.466l30.059 30.059c4.963 4.963 7.697 11.57 7.697 18.589 0 12.09-8.184 22.578-19.918 25.509l-6.862 1.718 4.013 16.012 6.854-1.709c19.093-4.757 32.429-21.843 32.429-41.53 0-11.437-4.451-22.189-12.544-30.274l-30.06-30.06c-4.476-4.476-6.945-10.438-6.945-16.78 0-9.051 5.021-17.185 13.122-21.231l15.344-7.672-7.391-14.774-15.343 7.672c-13.726 6.854-22.248 20.653-22.248 36.005z"/><path d="m289.032 99.097c13.659 0 24.774-11.115 24.774-24.774s-11.115-24.774-24.774-24.774-24.774 11.115-24.774 24.774 11.115 24.774 24.774 24.774zm0-33.032c4.558 0 8.258 3.7 8.258 8.258s-3.7 8.258-8.258 8.258-8.258-3.7-8.258-8.258 3.7-8.258 8.258-8.258z"/><path d="m355.097 49.548c13.659 0 24.774-11.115 24.774-24.774s-11.115-24.774-24.774-24.774-24.774 11.115-24.774 24.774 11.115 24.774 24.774 24.774zm0-33.032c4.558 0 8.258 3.7 8.258 8.258s-3.7 8.258-8.258 8.258-8.258-3.7-8.258-8.258 3.699-8.258 8.258-8.258z"/><path d="m462.452 123.871c0-13.659-11.115-24.774-24.774-24.774s-24.774 11.115-24.774 24.774 11.115 24.774 24.774 24.774c13.658 0 24.774-11.115 24.774-24.774zm-33.033 0c0-4.558 3.7-8.258 8.258-8.258s8.258 3.7 8.258 8.258-3.7 8.258-8.258 8.258-8.258-3.7-8.258-8.258z"/></g></g></svg>