<svg id="Capa_1" enable-background="new 0 0 512 512" height="512" viewBox="0 0 512 512" width="512" xmlns="http://www.w3.org/2000/svg"><g><path d="m193.298 278.621c-4.143 0-7.5 3.357-7.5 7.5v12.049c0 4.143 3.357 7.5 7.5 7.5s7.5-3.357 7.5-7.5v-12.049c0-4.142-3.358-7.5-7.5-7.5z"/><path d="m318.702 278.621c-4.143 0-7.5 3.357-7.5 7.5v12.049c0 4.143 3.357 7.5 7.5 7.5s7.5-3.357 7.5-7.5v-12.049c0-4.142-3.357-7.5-7.5-7.5z"/><path d="m277.454 287.997c-3.125-2.722-7.862-2.396-10.582.727-5.726 6.57-15.933 6.669-21.744 0-2.723-3.122-7.46-3.447-10.582-.727s-3.448 7.459-.727 10.582c11.739 13.471 32.636 13.455 44.361 0 2.722-3.123 2.396-7.86-.726-10.582z"/><path d="m459.318 233.439h-19.63c2.879-4.721 4.539-10.263 4.539-16.186 0-16.149-12.115-29.49-28.174-31.029l-62.19-6.02v-42.38c0-20.473-8.729-35.074-16.056-43.725 5.357-7.423 8.526-16.524 8.526-26.357 0-24.896-20.255-45.151-45.151-45.151s-45.152 20.255-45.152 45.151c0 10.179 3.389 19.58 9.094 27.14l-8.957 20.468c-1.66 3.795.069 8.217 3.864 9.878 3.811 1.666 8.223-.085 9.878-3.864l6.857-15.67c15.397 9.94 35.27 9.587 50.332-1.012 5.537 6.826 11.765 17.892 11.765 33.144v40.928l-2.012-.195c-7.473-3.542-15.82-5.531-24.625-5.531h-23.896l12.199-28.066c1.651-3.799-.09-8.217-3.889-9.867-3.801-1.655-8.217.09-9.867 3.889l-14.486 33.329c-7.053-.682-15.752-1.524-23.663-2.289l7.208-16.469c1.66-3.794-.069-8.217-3.864-9.878-3.794-1.655-8.216.069-9.878 3.864l-9.175 20.963c-8.88-.859-17.409-2.082-29.708 2.137-1.249-22.827-20.121-42.624-45.102-42.624-35.029 0-56.298 38.148-39.118 67.772h-39.437c-14.646 0-26.686 11.684-26.838 26.054-.039 4.082.846 8.025 2.551 11.598h-2.581c-29.049-.002-52.682 23.631-52.682 52.68s23.633 52.682 52.682 52.682h7.561v120.516c0 16.592 13.499 30.091 30.091 30.091s30.091-13.499 30.091-30.091v-22.294l135.575-47.572 135.576 47.571v22.294c0 16.592 13.499 30.091 30.091 30.091s30.091-13.499 30.091-30.091v-35.142c0-4.143-3.357-7.5-7.5-7.5s-7.5 3.357-7.5 7.5v35.142c0 8.321-6.77 15.091-15.091 15.091s-15.091-6.77-15.091-15.091v-120.515h30.182v50.232c0 4.143 3.357 7.5 7.5 7.5s7.5-3.357 7.5-7.5v-50.232h7.561c29.049 0 52.682-23.633 52.682-52.682s-23.634-52.682-52.683-52.682zm-188.288-165.697c0-16.626 13.525-30.151 30.151-30.151s30.151 13.525 30.151 30.151-13.525 30.151-30.151 30.151-30.151-13.525-30.151-30.151zm158.198 149.512c0 8.925-7.261 16.186-16.186 16.186-13.497 0-29.267 0-43.113 0-.231-1.457 1.946-19.705-11.911-37.763l56.597 5.479c8.33.798 14.613 7.719 14.613 16.098zm-117.001-29.228c23.546 0 42.702 19.156 42.702 42.702v13.053c0 6.66-5.419 12.078-12.079 12.078h-13.555c-6.66 0-12.079-5.418-12.079-12.078v-33.134c0-8.484-2.822-16.32-7.578-22.621zm-10.011 22.621v22.792h-22.651v-45.355c1.475.14 3.381.333 4.831.46 10.174 2.208 17.82 11.277 17.82 22.103zm-174.262-37.48c0-16.626 13.526-30.151 30.152-30.151 19.036 0 33.209 17.398 29.601 35.896-1.992 1.51-3.907 3.146-5.707 4.938-7.726 7.699-17.659 11.939-27.971 11.939h-15.843c-6.525-5.728-10.232-13.842-10.232-22.622zm-60.242 48.825c.065-6.178 5.376-11.204 11.838-11.204h74.479c14.309 0 28.002-5.794 38.556-16.312 8.617-8.576 20.483-12.822 32.538-11.658 4.045.416 39.327 3.804 39.441 3.815v46.806c-10.819 0-174.216 0-185.526 0-6.312 0-11.387-5.13-11.326-11.447zm22.621 252.417c-8.321 0-15.091-6.77-15.091-15.091v-120.515h30.182v120.516c0 8.321-6.77 15.09-15.091 15.09zm30.091-53.282v-79.244l112.923 39.622zm36.528-82.324h198.096l-99.048 34.754zm121.701 42.702 112.923-39.622v79.244zm180.665-57.702h-406.636c-20.778 0-37.682-16.905-37.682-37.682s16.904-37.682 37.682-37.682h249.943c2.216 12.718 13.327 22.42 26.67 22.42h13.555c13.343 0 24.454-9.702 26.67-22.42h89.799c20.777 0 37.682 16.904 37.682 37.682s-16.905 37.682-37.683 37.682z"/></g></svg>