<svg id="Capa_1" enable-background="new 0 0 512 512" height="512" viewBox="0 0 512 512" width="512" xmlns="http://www.w3.org/2000/svg"><g><path d="m303.411 94.055c1.699 1.588 3.316 3.261 4.846 5.018 2.836 3.26 5.359 6.774 7.598 10.517 2.098 3.543.906 8.135-2.637 10.262-3.57 2.098-8.164.906-10.262-2.637-1.982-3.373-4.28-6.548-6.944-9.411-1.787 2.183-3.855 4.195-6.096 6.038-8.758 7.115-20.777 11.509-33.93 11.509s-25.144-4.394-33.903-11.509c-2.268-1.843-4.309-3.855-6.095-6.038-5.102 5.528-9.099 12.303-12.047 19.984-3.997 10.348-6.123 22.423-6.52 35.434 7.682 6.832 16.44 12.331 25.965 16.215 10.12 4.11 21.119 6.35 32.599 6.35 11.508 0 22.506-2.239 32.627-6.35 9.523-3.884 18.284-9.383 25.966-16.215-.057-2.125-.17-4.223-.34-6.235-.256-3.629-.682-7.115-1.219-10.403-.652-4.082 2.098-7.908 6.18-8.589 4.082-.652 7.935 2.126 8.588 6.179.652 3.884 1.105 7.796 1.418 11.68l.057.906c10.914-.141 23.018-.396 36.935-.906 16.696-.624 36.228-1.588 59.812-3.062 9.639-.624 17.83.821 24.35 3.798 7.199 3.289 12.387 8.447 15.363 14.883 2.92 6.235 3.629 13.549 2.041 21.458-1.729 8.561-6.264 17.829-13.748 27.015-7.709 9.439-14.797 18.481-21.344 27.156h25.738c8.957 0 17.122-3.657 23.046-9.581 5.926-5.925 9.609-14.088 9.609-23.046v-166.824c0-8.986-3.684-17.122-9.609-23.046-5.924-5.925-14.089-9.609-23.046-9.609h-404.819c-8.986 0-17.121 3.685-23.046 9.609-5.924 5.924-9.61 14.06-9.61 23.046v66.416c0 4.139-3.345 7.512-7.483 7.512s-7.512-3.373-7.512-7.512v-66.416c0-13.125 5.357-25.03 14.003-33.648 8.617-8.646 20.523-14.003 33.648-14.003h404.82c13.126 0 25.03 5.357 33.647 14.004 8.647 8.617 14.004 20.523 14.004 33.648v166.821c0 13.097-5.357 25.001-14.004 33.647-6.945 6.944-16.016 11.792-26.136 13.408v101.056c0 4.139-3.373 7.483-7.512 7.483s-7.484-3.345-7.484-7.483v-100.489h-29.225c-60.86 85.607-66.614 139.58-75.573 234.91h104.798v-100.461c0-4.139 3.346-7.483 7.484-7.483 4.139 0 7.512 3.345 7.512 7.483v107.973c0 4.139-3.373 7.483-7.512 7.483h-404.819c-4.139 0-7.512-3.345-7.512-7.483v-242.989c-10.12-1.616-19.191-6.464-26.136-13.408-8.646-8.617-14.003-20.551-14.003-33.647v-66.417c0-4.167 3.373-7.512 7.512-7.512s7.483 3.345 7.483 7.512v66.417c0 8.958 3.686 17.121 9.61 23.046 5.925 5.924 14.06 9.581 23.046 9.581h25.739c-6.548-8.675-13.634-17.717-21.345-27.156-7.483-9.186-12.019-18.454-13.748-27.015-1.587-7.909-.879-15.223 2.041-21.458 2.977-6.436 8.164-11.594 15.364-14.883 6.52-2.977 14.712-4.422 24.35-3.798 23.585 1.474 43.115 2.438 59.812 3.032 13.918.511 26.022.795 36.936.936.879-12.358 3.26-23.98 7.257-34.356 4.281-11.141 10.432-20.777 18.595-28.347-.907-3.118-1.389-6.378-1.389-9.751 0-11.622 5.698-22.054 14.882-29.509 8.759-7.114 20.75-11.537 33.903-11.537s25.172 4.423 33.93 11.537c9.186 7.455 14.855 17.887 14.855 29.509-.002 3.373-.455 6.633-1.361 9.751zm-50.912 343.846c8.334 0 15.987 2.296 21.657 6.037 6.576 4.338 10.629 10.631 10.629 17.83 0 7.202-4.053 13.495-10.629 17.831-5.67 3.742-13.323 6.066-21.657 6.066s-16.016-2.324-21.686-6.066c-6.548-4.336-10.63-10.629-10.63-17.831 0-7.199 4.082-13.492 10.63-17.83 5.67-3.741 13.352-6.037 21.686-6.037zm13.408 18.539c-3.317-2.211-8.05-3.544-13.408-3.544-5.386 0-10.092 1.333-13.408 3.544-2.409 1.587-3.912 3.486-3.912 5.328 0 1.844 1.502 3.771 3.912 5.357 3.316 2.184 8.022 3.545 13.408 3.545 5.358 0 10.09-1.36 13.408-3.545 2.409-1.587 3.884-3.514 3.884-5.357 0-1.841-1.475-3.741-3.884-5.328zm-26.476-155.481c9.496 0 18.198 2.834 24.633 7.398 7.144 5.074 11.565 12.302 11.565 20.494s-4.422 15.449-11.565 20.523c-6.435 4.564-15.137 7.369-24.633 7.369-9.497 0-18.227-2.806-24.634-7.369-7.143-5.074-11.566-12.331-11.566-20.523s4.422-15.42 11.566-20.494c6.407-4.564 15.138-7.398 24.634-7.398zm15.959 19.587c-3.968-2.835-9.609-4.564-15.959-4.564s-11.991 1.729-15.959 4.564c-3.232 2.296-5.244 5.244-5.244 8.306 0 3.061 2.012 6.038 5.244 8.334 3.968 2.807 9.609 4.564 15.959 4.564s11.991-1.757 15.959-4.564c3.232-2.296 5.244-5.272 5.244-8.334.001-3.062-2.012-6.01-5.244-8.306zm22.621 40.139c13.209 0 25.257 3.345 34.13 8.788 9.949 6.122 16.1 14.91 16.1 24.917 0 10.035-6.15 18.822-16.1 24.945-8.873 5.414-20.921 8.787-34.13 8.787-13.182 0-25.229-3.373-34.102-8.787-9.95-6.123-16.101-14.91-16.101-24.945 0-10.007 6.151-18.795 16.101-24.917 8.873-5.444 20.921-8.788 34.102-8.788zm26.335 21.571c-6.634-4.053-15.903-6.576-26.335-6.576-10.404 0-19.701 2.523-26.306 6.576-5.499 3.374-8.901 7.683-8.901 12.134 0 4.45 3.402 8.787 8.901 12.16 6.605 4.054 15.902 6.576 26.306 6.576 10.432 0 19.701-2.523 26.335-6.576 5.498-3.373 8.9-7.71 8.9-12.16.001-4.451-3.402-8.76-8.9-12.134zm-23.87-315.867c-6.18-5.017-14.824-8.136-24.491-8.136-9.638 0-18.283 3.119-24.463 8.136-5.754 4.677-9.298 11.026-9.298 17.915 0 6.916 3.544 13.238 9.298 17.915 6.18 5.017 14.826 8.136 24.463 8.136 9.666 0 18.311-3.118 24.491-8.136 5.756-4.677 9.299-10.999 9.299-17.915 0-6.889-3.543-13.239-9.299-17.915zm32.628 116.873c-5.924 3.997-12.246 7.371-18.88 10.063-11.877 4.819-24.773 7.455-38.239 7.455-13.436 0-26.334-2.636-38.211-7.455-6.633-2.692-12.954-6.066-18.879-10.063 2.665 13.04 8.674 25.428 16.895 35.831 8.702 11.027 24.917 25.2 40.196 25.2 15.307 0 31.493-14.173 40.223-25.2 8.221-10.404 14.231-22.791 16.895-35.831zm-130.707-11.565c-11.112-.143-23.301-.426-37.134-.936-17.292-.624-37.021-1.588-60.209-3.033-7.115-.453-12.869.482-17.206 2.466-3.827 1.729-6.492 4.337-7.994 7.54-1.559 3.373-1.928 7.568-.964 12.274 1.247 6.208 4.762 13.237 10.687 20.522 22.394 27.412 44.108 56.553 61.484 87.422 14.797 26.307 24.548 50.57 31.409 75.516 1.077 3.969-1.276 8.079-5.244 9.156-3.969 1.078-8.08-1.248-9.185-5.244-6.491-23.67-15.817-46.828-30.047-72.113-7.682-13.636-16.81-27.894-27.667-43.173h-29.254v234.91h104.798c-3.09-33.025-5.811-61.116-10.517-87.109-.737-4.082 1.984-7.966 6.038-8.674 4.053-.738 7.936 1.955 8.674 6.037 4.876 26.957 7.625 55.786 10.8 89.746h150.238c6.066-64.518 10.574-110.609 30.529-159.48 18.822-46.149 49.267-88.413 80.761-126.994 5.953-7.285 9.467-14.314 10.715-20.522.963-4.706.596-8.901-.965-12.274-1.502-3.203-4.195-5.811-7.992-7.54-4.338-1.984-10.092-2.919-17.207-2.466-23.188 1.445-42.889 2.409-60.208 3.061-13.834.51-26.023.765-37.162.907-.285 7.426-1.531 14.627-3.488 21.486l69.224 4.422c4.111.255 7.258 3.827 7.002 7.938-.113 1.757-.822 3.345-1.9 4.535-17.518 21.459-70.64 81.525-101.141 82.716-15.846.623-23.527-8.221-26.845-19.843-1.474-5.159-1.956-10.857-1.9-16.327-5.017 1.758-9.921 2.664-14.541 2.664-4.592 0-9.524-.906-14.513-2.664.057 5.471-.425 11.168-1.899 16.327-3.345 11.622-11.027 20.466-26.845 19.843-30.643-1.219-83.935-61.653-101.368-82.999-2.608-3.203-2.126-7.909 1.077-10.517 1.219-.992 2.693-1.56 4.252-1.673l69.223-4.422c-1.985-6.858-3.204-14.059-3.516-21.485zm138.192 36.142c-3.486 7.484-7.824 14.372-12.672 20.523-5.867 7.427-12.558 13.776-19.503 18.737h57.573c13.123-12.501 25.482-26.192 33.562-35.491zm-97.004 39.261c-6.973-4.961-13.635-11.311-19.502-18.737-4.876-6.151-9.184-13.039-12.699-20.523l-58.933 3.77c8.079 9.299 20.41 22.99 33.562 35.491h57.572zm62.079 14.995c.199 2.381.568 4.648 1.162 6.775 1.531 5.243 4.934 9.269 11.877 8.985 8.108-.312 18.909-6.747 30.22-15.761h-43.259zm-102.587 0c11.311 9.014 22.111 15.449 30.218 15.761 6.944.283 10.346-3.742 11.849-8.985.624-2.127.992-4.395 1.19-6.775h-43.257z"/></g></svg>