<svg id="Layer_1" height="512" viewBox="0 0 512 512" width="512" xmlns="http://www.w3.org/2000/svg" data-name="Layer 1"><path d="m447 450.247v-50.172a5.323 5.323 0 0 0 -5.32-5.046h-39.489c2.847-4 3.9-9.945 2.961-17.657a57.565 57.565 0 0 0 -5.585-18.4c12.483-7.167 25.27-21.487 21.346-31.81-3.95-10.379-22.842-12.229-37.014-9.026-2.436-13.706-9.719-29.105-20.123-29.105h-.04c-10.129 0-18.364 14.488-21.349 27.454-13.105-3.378-30.022-2.729-34.548 6.48-5.047 10.269 7.336 26.277 19.5 34.263-7.258 10.5-12.443 25.32-5.866 32.746 2.559 2.887 6.641 4.357 11.861 4.357a38.347 38.347 0 0 0 9.182-1.245 55.968 55.968 0 0 0 20.026-9.612 55.989 55.989 0 0 0 14.6 11.557h-89.675c11.7-10 19.327-25.915 19.327-40.2 0-10.382-4.179-18.469-13.155-25.477a117.808 117.808 0 0 0 -15.045-9.394c-2.985-1.669-6.069-3.39-9.058-5.238a15.348 15.348 0 0 1 -1.959-3.38 4.811 4.811 0 0 0 1.423-3.664v-90.158c7-3.783 7.725-8.889 7.725-12.738 0-13.122-18.488-23.018-43.1-23.018-20.543 0-36.625 6.9-41.625 16.808v-25.362c8-4.586 9.339-10.32 9.339-14.585 0-15.556-22.434-27.288-52.2-27.288s-52.332 11.732-52.332 27.288c0 4.265 2.194 10 9.194 14.585v112.69a5.1 5.1 0 0 0 2.5 4.239 22.823 22.823 0 0 1 -2.844 5.362c-3.606 2.194-7.281 4.251-10.867 6.24-17.125 9.5-34.818 19.311-34.818 42.494 0 18.358 10.371 38.794 25.974 50.794h-30.416c-2.761 0-4.53 2.285-4.53 5.046v50.172a4.437 4.437 0 0 0 4.53 4.782h386.15c2.761 0 5.32-2.021 5.32-4.782zm-130.187-122.889c1.315-2.674 12.828-4.35 24.336-.908v.128c-.045 12.491 5.839 20.38 12.219 24.205.014.072.028.144.044.215-3.577 2.354-9.32 3.406-16.507.137-.241-.108-.485-.223-.74-.349-12.773-6.277-20.852-20.376-19.352-23.428zm42.758 45.415c-.5.522-1.034 1.038-1.594 1.534a44.841 44.841 0 0 1 -17.872 9.073c-6.874 1.711-10.476.708-11.143-.044-1.8-2.028.367-12.265 7.459-21.666a29.359 29.359 0 0 0 9.233 1.558 23.8 23.8 0 0 0 14.446-4.728 10.24 10.24 0 0 0 3.366.578c.193 0 .387 0 .582-.016.255-.014.5-.048.753-.08.599 4.033-.724 9.073-5.23 13.791zm3.581-24a.323.323 0 0 1 .305-.34h.018a.324.324 0 0 1 .019.647.3.3 0 0 1 -.234-.082.309.309 0 0 1 -.108-.222zm-3.543-9.567a10.184 10.184 0 0 0 -2.863 1.741c-3.087-2.661-5.626-7.319-5.6-14.309 0-1.04.063-2.086.174-3.144 1.348-13.173 9.149-24.468 12.416-24.468 2.428 0 8.767 9.491 10.587 22.457-9.023 4.517-13.405 11.406-14.714 17.726zm21.659-9.918c.061-.02.122-.042.182-.065 12.6-4.755 28.806-1.947 30.115 1.494.346.909-.411 4.485-4.956 9.736a47.655 47.655 0 0 1 -12.532 10.135c-7.272-8.49-16.327-10.89-23.67-9.463a10.522 10.522 0 0 0 -.825-.68c1.112-4 4.568-8.418 11.686-11.154zm-11.678 47.072c6.183-8.411 6.455-17.506 3.612-24.148a10.181 10.181 0 0 0 .386-1.438c4.589-.339 10.282 2.114 14.847 8.9.023.035.047.069.071.1a46.01 46.01 0 0 1 6.719 18.83c.846 6.945-.569 10.323-1.387 10.872-.855.573-4.714.645-11.191-2.789a46.743 46.743 0 0 1 -13.057-10.327zm-95.876-47.666a110.838 110.838 0 0 1 13.774 8.555c6.523 5.093 9.306 10.358 9.306 17.6 0 17.073-13.95 38.354-31.278 39.174-12.553.6-35.5.725-52.259.365 15.073-11.658 25.022-32.058 25.058-50.036 0-.006 0 .164 0 .159l.51-31.486h.839c4.305 4 18.214 22.2 20.485 35.935a4.925 4.925 0 0 0 4.928 4.1 5.12 5.12 0 0 0 .821-.112 4.851 4.851 0 0 0 4.118-5.6c-1.839-11.118-10.113-25.325-17.2-34.325h4.708c1.573 4 3.755 8.514 6.485 10.209 3.261 2.034 6.537 3.69 9.705 5.462zm-14.714-86.665v14h-50v-14zm-50-10v-13h50v13zm50 34v15h-50v-15zm0 25v12h-50v-12zm-30.174 22-.108 6.717a51.465 51.465 0 0 0 -7.574-6.717zm4.926-121.265c20.249 0 33.171 7.473 33.171 12.781 0 1.021-.006 3.484-3.653 4.484h-58.3c-2.9-1-4.386-2.782-4.386-4.484-.003-5.308 12.916-12.781 33.168-12.781zm-41.752 19.082c1 2.311 3 4.658 7 6.709v81.645c-2-1.187-4.241-2.4-6.292-3.672a22.12 22.12 0 0 1 -2.9-5.455 4.93 4.93 0 0 0 2.192-4.173zm-85.063-52.031c0-3.8 4.1-8.188 10.963-11.429 8.264-3.9 19.362-6.049 31.252-6.049s22.988 2.149 31.252 6.049c6.865 3.241 10.963 7.632 10.963 11.429 0 2.639-2.125 5.214-6.316 7.214h-71.8c-4.189-2-6.314-4.575-6.314-7.214zm9.063 95.214v-21h66v21zm66 10v17h-66v-17zm-66-41v-20h66v20zm0-30v-17h66v17zm-46.014 151.229c0-17.3 13.1-24.567 29.687-33.773 3.721-2.065 7.568-4.136 11.393-6.468 3.4-2.071 6.22-7.988 8.053-12.988h9.191c-8.789 11-20.1 29.039-22.569 43.96a5 5 0 0 0 9.866 1.64c2.92-17.659 20.976-41.6 26.039-45.6h2.354v34.911a5 5 0 0 0 10 0v-34.911h2.936c5.064 4 23.118 27.933 26.039 45.592a4.973 4.973 0 0 0 4.927 4.153 5.037 5.037 0 0 0 .822-.084 4.944 4.944 0 0 0 4.117-5.69c-2.468-14.923-13.78-32.969-22.569-43.969h9.113c1.747 5 4.459 10.883 7.821 12.968 3.986 2.472 8 4.683 11.88 6.851 16.331 9.127 29.231 16.32 29.231 33.427 0 21.626-17.758 48.581-39.812 49.63-19.493.926-59.213.922-78.706 0-22.053-1.055-39.813-28.023-39.813-49.649zm367.014 100.771h-376v-10h376zm0-20h-376v-20h376z"/><path d="m16 118.029h11v103.871a5.337 5.337 0 0 0 5.26 5.126h31.468a5.348 5.348 0 0 0 5.272-5.126v-103.871h374v103.871a5.348 5.348 0 0 0 5.272 5.126h31.468a5.337 5.337 0 0 0 5.26-5.126v-103.871h11a5.153 5.153 0 0 0 5-5.175v-51.013a4.789 4.789 0 0 0 -1.464-3.442 4.918 4.918 0 0 0 -3.536-1.37h-480a4.77 4.77 0 0 0 -5 4.794v51.066a5.122 5.122 0 0 0 5 5.14zm43 99h-22v-99h22zm416 0h-22v-99h22zm16-150v41h-470v-41z"/><path d="m43.964 92.029h31.192a5 5 0 0 0 0-10h-31.192a5 5 0 0 0 0 10z"/><path d="m108.1 92.029h213.822a5 5 0 0 0 0-10h-213.822a5 5 0 1 0 0 10z"/></svg>