<svg id="Layer_1" height="512" viewBox="0 0 512 512" width="512" xmlns="http://www.w3.org/2000/svg" data-name="Layer 1"><path d="m452 117.029h24v101h-24z"/><path d="m36 117.029h24v101h-24z"/><path d="m491.8 108.029v-42h-471.6v42zm-383.693-25h213.815a4 4 0 1 1 0 8h-213.822a4 4 0 1 1 0-8zm-64.14 0h31.189a4 4 0 1 1 0 8h-31.192a4 4 0 1 1 0-8z"/><path d="m192.167 158.415c0-8.555-17.666-17.878-43.015-17.878s-43.015 9.323-43.015 17.878c0 3.007 2.336 5.614 6.938 7.614h72.154c4.602-2 6.938-4.607 6.938-7.614z"/><path d="m115 202.029h68v22h-68z"/><path d="m115 175.029h68v19h-68z"/><path d="m208 241.029h52v16h-52z"/><path d="m69.187 344.258c0 21.972 18.1 49.367 40.574 50.436 19.512.928 59.27.925 78.782 0 22.476-1.069 40.574-28.471 40.574-50.442 0-17.577-13.08-24.9-29.641-34.15-3.873-2.165-7.877-4.42-11.849-6.883-3.293-2.042-5.984-8.188-7.676-13.188h-11.413c8.808 11 21.013 29.864 23.514 44.986a4.2 4.2 0 1 1 -8.287 1.376c-2.988-18.061-21.681-42.362-26.524-46.362h-3.241v35.909a4.511 4.511 0 0 1 -9 0v-35.911h-3.681c-4.718 4-23.507 28.247-26.5 46.357a4.228 4.228 0 0 1 -4.138 3.547 4.284 4.284 0 0 1 -.69-.066 4.218 4.218 0 0 1 -3.459-4.847c2.5-15.123 14.706-33.991 23.513-44.991h-11.483c-1.778 5-4.585 11.176-7.913 13.2-3.811 2.324-7.65 4.491-11.364 6.552-16.816 9.338-30.098 16.71-30.098 34.477z"/><path d="m60 404.029h377v22h-377z"/><path d="m208 219.029h52v14h-52z"/><path d="m60 434.029h377v12h-377z"/><path d="m115 233.029h68v21h-68z"/><path d="m115 263.029h68v19h-68z"/><path d="m316.1 327.005c-1.842 3.749 6.977 18.238 19.713 24.5.262.129.515.248.764.36 7.8 3.546 14.006 2.183 17.742-.521a9.678 9.678 0 0 1 -.238-1.06c-6.29-3.632-12.175-11.351-12.131-23.7 0-.236.016-.474.021-.711-11.671-3.644-24.239-2.197-25.871 1.132z"/><path d="m412.313 330.436c-1.595-4.194-18.227-6.589-31.145-1.712-.056.021-.111-.695-.168.305a16.4 16.4 0 0 0 -12.33 12.007 8.311 8.311 0 0 1 1.487.956c7.3-1.577 16.475.823 23.74 9.635 11.196-5.85 19.871-17.365 18.416-21.191z"/><path d="m363.743 298.029h-.008c-4 0-11.88 12.269-13.212 25.286-.113 1.083-.173 2.193-.178 3.26-.028 7.673 2.947 12.7 6.438 15.406a9.468 9.468 0 0 1 3.53-2.238c1.179-6.341 5.547-13.424 14.882-17.9-1.683-12.934-8.003-23.814-11.452-23.814z"/><path d="m363.464 358.282a9.447 9.447 0 0 1 -3.514-.677 22.934 22.934 0 0 1 -14.3 4.82 28.84 28.84 0 0 1 -9.512-1.7c-7.3 9.468-10.05 20.572-7.777 23.138.951 1.074 4.915 2.038 11.935.289a45.665 45.665 0 0 0 18.209-9.249c.577-.511 1.13-1.043 1.643-1.582 5-5.233 6.238-10.885 5.3-15.261a9.536 9.536 0 0 1 -1.446.2c-.176.018-.357.022-.538.022z"/><path d="m382.272 387.394c6.6 3.5 10.8 3.56 12.012 2.746 1.172-.785 2.6-4.531 1.735-11.632a46.863 46.863 0 0 0 -6.854-19.188c-.023-.032-.045-.063-.066-.095-4.955-7.362-11.24-9.813-16.192-9.182a9.4 9.4 0 0 1 -.572 2.179c2.944 6.564 2.691 15.743-3.765 24.167a47.313 47.313 0 0 0 13.702 11.005z"/><path d="m208 265.029h52v16h-52z"/><path d="m229.486 321.514.153-9.485h-10.917a59.867 59.867 0 0 1 10.764 9.485z"/><path d="m208 290.029h52v13h-52z"/><path d="m233.752 190.964c-19.443 0-33.971 7.159-33.971 13.681 0 2.064 1.7 4.384 5.011 5.384h58.672c3.731-2 4.259-3.682 4.259-5.384 0-6.522-14.523-13.681-33.971-13.681z"/><path d="m211.167 395.138c16.922.424 41.232.32 54.388-.313 17.749-.839 32.039-22.553 32.039-39.972 0-7.52-2.875-12.973-9.614-18.235a111.477 111.477 0 0 0 -13.88-8.618c-3.16-1.767-6.428-3.518-9.675-5.537-2.661-1.652-4.814-6.429-6.349-10.429h-6.937c7.1 9 16.106 23.373 18.085 35.343a4.137 4.137 0 0 1 -3.458 4.763 4.322 4.322 0 0 1 -.69.076 4.168 4.168 0 0 1 -4.139-3.478c-2.337-14.129-16.836-32.7-20.958-36.7h-1.939l-.04 32.3v.008c-1 18.486-10.918 39.584-26.833 50.792z"/><circle cx="363.608" cy="348.892" r="2.133"/></svg>