<svg id="Capa_1" enable-background="new 0 0 512 512" height="512" viewBox="0 0 512 512" width="512" xmlns="http://www.w3.org/2000/svg"><g><g><path d="m229.483 244.918.867-1.742-14.774-7.391-.867 1.751c-3.146 6.293-9.472 10.207-16.516 10.207s-13.37-3.914-16.516-10.207l-.867-1.742-14.774 7.391.867 1.742c5.962 11.925 17.953 19.332 31.29 19.332s25.328-7.408 31.29-19.341z"/><path d="m297.29 237.535-.867-1.742-14.774 7.391.867 1.742c5.962 11.925 17.953 19.332 31.29 19.332s25.327-7.407 31.29-19.34l.867-1.742-14.774-7.391-.867 1.751c-3.146 6.293-9.472 10.207-16.516 10.207-7.044-.001-13.369-3.915-16.516-10.208z"/><path d="m355.097 115.613h31.29c4.905 0 9.654 1.437 13.741 4.162l18.531 12.354h93.341v-16.516h-67.311c-14.13-24.436-35.287-43.264-60.193-54.445 7.647-10.488 11.892-23.23 11.892-36.393v-8.258h-8.258c-15.773 0-31.521-1.941-46.807-5.764l-22.85-5.715c-13.371-3.337-27.153-5.038-40.961-5.038-20.265 0-39.911 5.698-56.997 16.516h-5.805c-66.263 0-124.978 38.747-151.288 99.097h-63.422v16.516h93.341l18.531-12.354c4.088-2.725 8.836-4.162 13.741-4.162h31.29c4.55 0 8.258 3.708 8.258 8.258s-3.708 8.258-8.258 8.258h-24.774v16.516h57.806c4.55 0 8.258 3.708 8.258 8.258v33.032c0 4.55-3.708 8.258-8.258 8.258h-49.548-8.258-132.129v16.516h49.548v13.948c0 11.603-2.188 22.957-6.499 33.734l-4.558 11.404c-3.625 9.059-5.459 18.597-5.459 28.342 0 20.381 7.936 39.548 22.355 53.958l15.153 15.155 5.203-20.819c12.602 25.22 34.766 44.709 62.035 53.793l22.834 7.606-20.191-30.291c-5.426-8.134-8.291-17.59-8.291-27.359 0-8.332 2.065-16.343 5.929-23.461 10.042 27.887 32.198 49.97 60.135 59.887v23.56l-84.728 14.121c-37.037 6.169-63.917 37.905-63.917 75.454v8.259h412.903v-8.258c0-37.549-26.88-69.285-63.917-75.454l-84.728-14.121v-23.56c27.945-9.926 50.102-32 60.135-59.887 3.865 7.118 5.929 15.129 5.929 23.461 0 9.769-2.866 19.233-8.283 27.359l-20.191 30.291 22.834-7.606c27.26-9.084 49.433-28.581 62.035-53.793l5.203 20.819 15.154-15.154c14.41-14.419 22.346-33.577 22.346-53.958 0-9.745-1.833-19.283-5.459-28.333l-4.558-11.404c-4.311-10.785-6.499-22.14-6.499-33.742v-13.95h49.547v-16.516h-132.129-8.258-49.548c-4.55 0-8.258-3.708-8.258-8.258v-33.032c0-4.55 3.708-8.258 8.258-8.258h57.806v-16.516h-24.774c-4.55 0-8.258-3.708-8.258-8.258s3.708-8.259 8.258-8.259zm-222.968 99.097v66.064c-18.217 0-33.032-14.815-33.032-33.032s14.815-33.032 33.032-33.032zm-16.516 139.47c0 7.779 1.363 15.41 3.989 22.602-16.83-11.793-29.382-29.118-35.171-49.391l-10.645-37.227-12.049 48.186c-7.903-10.364-12.189-22.957-12.189-36.212 0-7.639 1.437-15.112 4.278-22.206l4.558-11.404c5.095-12.742 7.68-26.153 7.68-39.87v-13.948h29.234c-7.878 8.778-12.717 20.331-12.717 33.032 0 27.326 22.222 49.548 49.548 49.548 0 4.22.355 8.349.867 12.428-11.19 12.173-17.383 27.822-17.383 44.462zm297.29-106.438c0 18.217-14.815 33.032-33.032 33.032v-66.064c18.217 0 33.032 14.815 33.032 33.032zm40.712 20.785 4.558 11.404c2.841 7.094 4.278 14.567 4.278 22.206 0 13.254-4.286 25.848-12.197 36.203l-12.049-48.186-10.645 37.236c-5.789 20.274-18.341 37.599-35.171 49.391 2.634-7.201 3.997-14.823 3.997-22.602 0-16.64-6.194-32.289-17.383-44.461.512-4.079.867-8.209.867-12.428 27.326 0 49.548-22.222 49.548-49.548 0-12.701-4.839-24.254-12.717-33.032h29.234v13.948c0 13.716 2.585 27.127 7.68 39.869zm-131.55-53.817h41.29v82.581c0 45.535-37.046 82.581-82.581 82.581v16.516c5.64 0 11.132-.586 16.516-1.495v33.263l98.527 16.417c26.285 4.377 46.047 25.171 49.557 50.911h-378.748c3.518-25.732 23.279-46.526 49.557-50.911l98.527-16.417v-33.263c5.384.908 10.876 1.495 16.516 1.495v-16.516c-45.535 0-82.581-37.046-82.581-82.581v-82.581h41.29c13.659 0 24.774-11.115 24.774-24.774v-33.032c0-4.856-1.453-9.356-3.881-13.188 4.591-3.749 9.835-6.549 15.434-8.531 18.349 18.308 43.446 29.423 71.028 29.894v24.857c0 13.658 11.116 24.774 24.775 24.774zm.685-82.581-5.004-.834c-24.237-4.038-44.949-20.719-54.074-43.528l-15.335 6.136c9.447 23.618 29.035 41.769 52.753 49.978-.925 1.486-1.668 3.08-2.263 4.748-40.803-.132-75.446-27.987-84.307-67.84l-16.12 3.584c3.097 13.923 8.886 26.566 16.673 37.558-6.367 2.915-12.197 6.821-17.391 11.561-2.453-.818-5.029-1.363-7.746-1.363h-9.778c.925-2.593 1.519-5.351 1.519-8.258 0-13.659-11.115-24.774-24.774-24.774h-31.29c-8.175 0-16.095 2.403-22.9 6.937l-14.377 9.579h-6.805c24.981-50.539 75.974-82.581 133.178-82.581h10.76l2.081-1.387c14.848-9.901 32.124-15.129 49.961-15.129 12.453 0 24.89 1.528 36.955 4.55l22.85 5.715c13.692 3.427 27.722 5.459 41.827 6.061-1.511 8.291-5.434 15.946-11.124 22.222-12.057-3.584-24.716-5.516-37.698-5.516v16.516c38.202 0 73.373 18.696 94.852 49.548h-1.511l-14.369-9.579c-6.813-4.534-14.732-6.937-22.908-6.937h-31.29c-1.775 0-3.493.206-5.161.562-16.698-21.066-42.067-33.594-69.161-33.594v16.516c21.413 0 41.513 9.604 55.098 25.856-3.419 4.245-5.549 9.571-5.549 15.434 0 2.907.595 5.665 1.519 8.258h-9.091z"/><path d="m252.16 297.29h12.098v-16.516h-12.098c-2.436 0-4.418-1.982-4.418-4.418 0-.875.256-1.718.743-2.453l5.227-7.837c6.895-10.356 10.546-22.404 10.546-34.841h-16.516c0 9.166-2.692 18.052-7.771 25.674l-5.227 7.837c-2.304 3.46-3.518 7.474-3.518 11.619 0 11.546 9.389 20.935 20.934 20.935z"/><path d="m280.774 312.469c-3.559 10.678-13.518 17.854-24.774 17.854s-21.215-7.176-24.774-17.862l-.421-1.272-15.666 5.227.421 1.263c5.805 17.449 22.057 29.159 40.44 29.159 18.382 0 34.634-11.71 40.44-29.151l.421-1.272-15.666-5.227z"/></g></g></svg>