<?xml version="1.0" encoding="iso-8859-1"?>
<!-- Generator: Adobe Illustrator 19.0.0, SVG Export Plug-In . SVG Version: 6.00 Build 0)  -->
<svg version="1.1" id="Layer_1" xmlns="http://www.w3.org/2000/svg" xmlns:xlink="http://www.w3.org/1999/xlink" x="0px" y="0px"
	 viewBox="0 0 512 512" style="enable-background:new 0 0 512 512;" xml:space="preserve">
<g>
	<g>
		<path d="M466.506,322.324h-56.028c1.451-2.349,2.696-4.87,3.664-7.567c5.69-15.836,0.98-32.99-12.002-43.7l-66.502-54.868
			c-7.668-35.033-38.923-61.345-76.224-61.345c-35.855,0-66.12,24.313-75.225,57.313L167.46,153.6
			c23.911-13.352,40.125-38.901,40.125-68.177c0-43.031-35.008-78.041-78.041-78.041c-43.033,0-78.042,35.007-78.042,78.039
			c0,16.573,5.209,31.945,14.053,44.596c-15.858,15.065-24.841,35.768-24.841,57.905v134.656C17.867,324.974,0,344.349,0,367.82
			c0,25.015,20.296,45.375,45.287,45.489v26.895c0,5.11,4.143,9.253,9.253,9.253c5.11,0,9.253-4.143,9.253-9.253v-26.892h23.288
			v72.799H63.793v-1.872c0-5.11-4.143-9.253-9.253-9.253c-5.11,0-9.253,4.143-9.253,9.253v11.126c0,5.11,4.143,9.253,9.253,9.253
			h41.794c5.11,0,9.253-4.143,9.253-9.253v-8.688l148.781-72.329l151.193,73.502c0.281,0.137,0.566,0.25,0.852,0.357v7.158
			c0,5.11,4.143,9.253,9.253,9.253h41.794c5.11,0,9.253-4.143,9.253-9.253v-82.058C491.704,413.194,512,392.834,512,367.818
			C512,342.733,491.592,322.324,466.506,322.324z M336.995,241.3l53.368,44.032c8.354,6.892,8.764,16.486,6.364,23.168
			c-2.401,6.683-8.826,13.824-19.66,13.824h-108.4v-11.966c14.521-1.725,27.824-7.447,38.789-16.04
			c0.772,0.208,1.58,0.331,2.418,0.331h33.722c5.11,0,9.253-4.143,9.253-9.253s-4.143-9.253-9.253-9.253H324.33
			C331.141,265.956,335.617,254.086,336.995,241.3z M259.414,173.35c32.827,0,59.535,26.707,59.535,59.535
			s-26.707,59.535-59.535,59.535s-59.535-26.707-59.535-59.535S226.587,173.35,259.414,173.35z M194.497,276.143h-19.265
			c-5.11,0-9.253,4.143-9.253,9.253c0,5.11,4.143,9.253,9.253,9.253h31.953c1.298,0,2.532-0.269,3.652-0.751
			c11.064,8.827,24.566,14.709,39.324,16.462v11.966H141.756c-10.832-0.001-17.258-7.142-19.66-13.825
			c-2.401-6.682-1.99-16.277,6.364-23.168l53.373-44.036C183.21,254.084,187.686,265.955,194.497,276.143z M129.542,25.885
			c32.827,0,59.535,26.707,59.535,59.535c0,32.828-26.708,59.535-59.535,59.535S70.007,118.249,70.007,85.42
			C70.007,52.592,96.715,25.885,129.542,25.885z M59.219,187.921c0-16.806,6.732-32.545,18.648-44.09
			c13.776,12.202,31.87,19.63,51.675,19.63c7.162,0,14.093-0.989,20.686-2.804l19.127,66.942l-28.134,23.211l-14.206-42.767
			c-1.611-4.85-6.85-7.476-11.698-5.864c-4.85,1.611-7.475,6.848-5.864,11.698l16.464,49.562l-9.233,7.618
			c-12.98,10.711-17.692,27.864-12.002,43.701c0.968,2.697,2.213,5.217,3.664,7.567H59.219V187.921z M105.587,466.1v-52.788h108.585
			L105.587,466.1z M448.207,486.111h-23.288v-72.799h23.288V486.111z M466.506,394.806h-79.113c-5.11,0-9.253,4.143-9.253,9.253
			s4.143,9.253,9.253,9.253h19.022v54.376l-111.85-54.376h42.897c5.11,0,9.253-4.143,9.253-9.253s-4.143-9.253-9.253-9.253H45.494
			c-14.881,0-26.988-12.107-26.988-26.988s12.107-26.988,26.988-26.988h96.262h235.31h89.44c14.881,0,26.988,12.107,26.988,26.988
			S481.387,394.806,466.506,394.806z"/>
	</g>
</g>
<g>
</g>
<g>
</g>
<g>
</g>
<g>
</g>
<g>
</g>
<g>
</g>
<g>
</g>
<g>
</g>
<g>
</g>
<g>
</g>
<g>
</g>
<g>
</g>
<g>
</g>
<g>
</g>
<g>
</g>
</svg>
